%TF.GenerationSoftware,KiCad,Pcbnew,10.0.0*%
%TF.CreationDate,2026-04-17T19:42:13-05:00*%
%TF.ProjectId,AirplanePCBLED,41697270-6c61-46e6-9550-43424c45442e,rev?*%
%TF.SameCoordinates,Original*%
%TF.FileFunction,Legend,Top*%
%TF.FilePolarity,Positive*%
%FSLAX46Y46*%
G04 Gerber Fmt 4.6, Leading zero omitted, Abs format (unit mm)*
G04 Created by KiCad (PCBNEW 10.0.0) date 2026-04-17 19:42:13*
%MOMM*%
%LPD*%
G01*
G04 APERTURE LIST*
%ADD10C,0.100000*%
%ADD11C,0.150000*%
%ADD12C,0.120000*%
G04 APERTURE END LIST*
D10*
X134225312Y-165912804D02*
X134225312Y-165242804D01*
X134512455Y-165912804D02*
X134512455Y-165561852D01*
X134512455Y-165561852D02*
X134480550Y-165498042D01*
X134480550Y-165498042D02*
X134416741Y-165466138D01*
X134416741Y-165466138D02*
X134321027Y-165466138D01*
X134321027Y-165466138D02*
X134257217Y-165498042D01*
X134257217Y-165498042D02*
X134225312Y-165529947D01*
X134735788Y-165466138D02*
X134991026Y-165466138D01*
X134831502Y-165242804D02*
X134831502Y-165817090D01*
X134831502Y-165817090D02*
X134863407Y-165880900D01*
X134863407Y-165880900D02*
X134927217Y-165912804D01*
X134927217Y-165912804D02*
X134991026Y-165912804D01*
X135118645Y-165466138D02*
X135373883Y-165466138D01*
X135214359Y-165242804D02*
X135214359Y-165817090D01*
X135214359Y-165817090D02*
X135246264Y-165880900D01*
X135246264Y-165880900D02*
X135310074Y-165912804D01*
X135310074Y-165912804D02*
X135373883Y-165912804D01*
X135597216Y-165466138D02*
X135597216Y-166136138D01*
X135597216Y-165498042D02*
X135661026Y-165466138D01*
X135661026Y-165466138D02*
X135788645Y-165466138D01*
X135788645Y-165466138D02*
X135852454Y-165498042D01*
X135852454Y-165498042D02*
X135884359Y-165529947D01*
X135884359Y-165529947D02*
X135916264Y-165593757D01*
X135916264Y-165593757D02*
X135916264Y-165785185D01*
X135916264Y-165785185D02*
X135884359Y-165848995D01*
X135884359Y-165848995D02*
X135852454Y-165880900D01*
X135852454Y-165880900D02*
X135788645Y-165912804D01*
X135788645Y-165912804D02*
X135661026Y-165912804D01*
X135661026Y-165912804D02*
X135597216Y-165880900D01*
X136171502Y-165880900D02*
X136235311Y-165912804D01*
X136235311Y-165912804D02*
X136362930Y-165912804D01*
X136362930Y-165912804D02*
X136426740Y-165880900D01*
X136426740Y-165880900D02*
X136458644Y-165817090D01*
X136458644Y-165817090D02*
X136458644Y-165785185D01*
X136458644Y-165785185D02*
X136426740Y-165721376D01*
X136426740Y-165721376D02*
X136362930Y-165689471D01*
X136362930Y-165689471D02*
X136267216Y-165689471D01*
X136267216Y-165689471D02*
X136203406Y-165657566D01*
X136203406Y-165657566D02*
X136171502Y-165593757D01*
X136171502Y-165593757D02*
X136171502Y-165561852D01*
X136171502Y-165561852D02*
X136203406Y-165498042D01*
X136203406Y-165498042D02*
X136267216Y-165466138D01*
X136267216Y-165466138D02*
X136362930Y-165466138D01*
X136362930Y-165466138D02*
X136426740Y-165498042D01*
X136745787Y-165848995D02*
X136777692Y-165880900D01*
X136777692Y-165880900D02*
X136745787Y-165912804D01*
X136745787Y-165912804D02*
X136713883Y-165880900D01*
X136713883Y-165880900D02*
X136745787Y-165848995D01*
X136745787Y-165848995D02*
X136745787Y-165912804D01*
X136745787Y-165498042D02*
X136777692Y-165529947D01*
X136777692Y-165529947D02*
X136745787Y-165561852D01*
X136745787Y-165561852D02*
X136713883Y-165529947D01*
X136713883Y-165529947D02*
X136745787Y-165498042D01*
X136745787Y-165498042D02*
X136745787Y-165561852D01*
X137543407Y-165210900D02*
X136969121Y-166072328D01*
X138245312Y-165210900D02*
X137671026Y-166072328D01*
X138755788Y-165466138D02*
X138755788Y-166008519D01*
X138755788Y-166008519D02*
X138723883Y-166072328D01*
X138723883Y-166072328D02*
X138691979Y-166104233D01*
X138691979Y-166104233D02*
X138628169Y-166136138D01*
X138628169Y-166136138D02*
X138532455Y-166136138D01*
X138532455Y-166136138D02*
X138468645Y-166104233D01*
X138755788Y-165880900D02*
X138691979Y-165912804D01*
X138691979Y-165912804D02*
X138564360Y-165912804D01*
X138564360Y-165912804D02*
X138500550Y-165880900D01*
X138500550Y-165880900D02*
X138468645Y-165848995D01*
X138468645Y-165848995D02*
X138436741Y-165785185D01*
X138436741Y-165785185D02*
X138436741Y-165593757D01*
X138436741Y-165593757D02*
X138468645Y-165529947D01*
X138468645Y-165529947D02*
X138500550Y-165498042D01*
X138500550Y-165498042D02*
X138564360Y-165466138D01*
X138564360Y-165466138D02*
X138691979Y-165466138D01*
X138691979Y-165466138D02*
X138755788Y-165498042D01*
X139074835Y-165912804D02*
X139074835Y-165466138D01*
X139074835Y-165242804D02*
X139042931Y-165274709D01*
X139042931Y-165274709D02*
X139074835Y-165306614D01*
X139074835Y-165306614D02*
X139106740Y-165274709D01*
X139106740Y-165274709D02*
X139074835Y-165242804D01*
X139074835Y-165242804D02*
X139074835Y-165306614D01*
X139298169Y-165466138D02*
X139553407Y-165466138D01*
X139393883Y-165242804D02*
X139393883Y-165817090D01*
X139393883Y-165817090D02*
X139425788Y-165880900D01*
X139425788Y-165880900D02*
X139489598Y-165912804D01*
X139489598Y-165912804D02*
X139553407Y-165912804D01*
X139776740Y-165912804D02*
X139776740Y-165242804D01*
X140063883Y-165912804D02*
X140063883Y-165561852D01*
X140063883Y-165561852D02*
X140031978Y-165498042D01*
X140031978Y-165498042D02*
X139968169Y-165466138D01*
X139968169Y-165466138D02*
X139872455Y-165466138D01*
X139872455Y-165466138D02*
X139808645Y-165498042D01*
X139808645Y-165498042D02*
X139776740Y-165529947D01*
X140670073Y-165466138D02*
X140670073Y-165912804D01*
X140382930Y-165466138D02*
X140382930Y-165817090D01*
X140382930Y-165817090D02*
X140414835Y-165880900D01*
X140414835Y-165880900D02*
X140478645Y-165912804D01*
X140478645Y-165912804D02*
X140574359Y-165912804D01*
X140574359Y-165912804D02*
X140638168Y-165880900D01*
X140638168Y-165880900D02*
X140670073Y-165848995D01*
X140989120Y-165912804D02*
X140989120Y-165242804D01*
X140989120Y-165498042D02*
X141052930Y-165466138D01*
X141052930Y-165466138D02*
X141180549Y-165466138D01*
X141180549Y-165466138D02*
X141244358Y-165498042D01*
X141244358Y-165498042D02*
X141276263Y-165529947D01*
X141276263Y-165529947D02*
X141308168Y-165593757D01*
X141308168Y-165593757D02*
X141308168Y-165785185D01*
X141308168Y-165785185D02*
X141276263Y-165848995D01*
X141276263Y-165848995D02*
X141244358Y-165880900D01*
X141244358Y-165880900D02*
X141180549Y-165912804D01*
X141180549Y-165912804D02*
X141052930Y-165912804D01*
X141052930Y-165912804D02*
X140989120Y-165880900D01*
X141595310Y-165848995D02*
X141627215Y-165880900D01*
X141627215Y-165880900D02*
X141595310Y-165912804D01*
X141595310Y-165912804D02*
X141563406Y-165880900D01*
X141563406Y-165880900D02*
X141595310Y-165848995D01*
X141595310Y-165848995D02*
X141595310Y-165912804D01*
X142201501Y-165880900D02*
X142137692Y-165912804D01*
X142137692Y-165912804D02*
X142010073Y-165912804D01*
X142010073Y-165912804D02*
X141946263Y-165880900D01*
X141946263Y-165880900D02*
X141914358Y-165848995D01*
X141914358Y-165848995D02*
X141882454Y-165785185D01*
X141882454Y-165785185D02*
X141882454Y-165593757D01*
X141882454Y-165593757D02*
X141914358Y-165529947D01*
X141914358Y-165529947D02*
X141946263Y-165498042D01*
X141946263Y-165498042D02*
X142010073Y-165466138D01*
X142010073Y-165466138D02*
X142137692Y-165466138D01*
X142137692Y-165466138D02*
X142201501Y-165498042D01*
X142584359Y-165912804D02*
X142520549Y-165880900D01*
X142520549Y-165880900D02*
X142488644Y-165848995D01*
X142488644Y-165848995D02*
X142456740Y-165785185D01*
X142456740Y-165785185D02*
X142456740Y-165593757D01*
X142456740Y-165593757D02*
X142488644Y-165529947D01*
X142488644Y-165529947D02*
X142520549Y-165498042D01*
X142520549Y-165498042D02*
X142584359Y-165466138D01*
X142584359Y-165466138D02*
X142680073Y-165466138D01*
X142680073Y-165466138D02*
X142743882Y-165498042D01*
X142743882Y-165498042D02*
X142775787Y-165529947D01*
X142775787Y-165529947D02*
X142807692Y-165593757D01*
X142807692Y-165593757D02*
X142807692Y-165785185D01*
X142807692Y-165785185D02*
X142775787Y-165848995D01*
X142775787Y-165848995D02*
X142743882Y-165880900D01*
X142743882Y-165880900D02*
X142680073Y-165912804D01*
X142680073Y-165912804D02*
X142584359Y-165912804D01*
X143094834Y-165912804D02*
X143094834Y-165466138D01*
X143094834Y-165529947D02*
X143126739Y-165498042D01*
X143126739Y-165498042D02*
X143190549Y-165466138D01*
X143190549Y-165466138D02*
X143286263Y-165466138D01*
X143286263Y-165466138D02*
X143350072Y-165498042D01*
X143350072Y-165498042D02*
X143381977Y-165561852D01*
X143381977Y-165561852D02*
X143381977Y-165912804D01*
X143381977Y-165561852D02*
X143413882Y-165498042D01*
X143413882Y-165498042D02*
X143477691Y-165466138D01*
X143477691Y-165466138D02*
X143573406Y-165466138D01*
X143573406Y-165466138D02*
X143637215Y-165498042D01*
X143637215Y-165498042D02*
X143669120Y-165561852D01*
X143669120Y-165561852D02*
X143669120Y-165912804D01*
X144466739Y-165210900D02*
X143892453Y-166072328D01*
X144977215Y-165912804D02*
X144977215Y-165242804D01*
X144977215Y-165880900D02*
X144913406Y-165912804D01*
X144913406Y-165912804D02*
X144785787Y-165912804D01*
X144785787Y-165912804D02*
X144721977Y-165880900D01*
X144721977Y-165880900D02*
X144690072Y-165848995D01*
X144690072Y-165848995D02*
X144658168Y-165785185D01*
X144658168Y-165785185D02*
X144658168Y-165593757D01*
X144658168Y-165593757D02*
X144690072Y-165529947D01*
X144690072Y-165529947D02*
X144721977Y-165498042D01*
X144721977Y-165498042D02*
X144785787Y-165466138D01*
X144785787Y-165466138D02*
X144913406Y-165466138D01*
X144913406Y-165466138D02*
X144977215Y-165498042D01*
X145296262Y-165912804D02*
X145296262Y-165242804D01*
X145583405Y-165912804D02*
X145583405Y-165561852D01*
X145583405Y-165561852D02*
X145551500Y-165498042D01*
X145551500Y-165498042D02*
X145487691Y-165466138D01*
X145487691Y-165466138D02*
X145391977Y-165466138D01*
X145391977Y-165466138D02*
X145328167Y-165498042D01*
X145328167Y-165498042D02*
X145296262Y-165529947D01*
X146189595Y-165912804D02*
X146189595Y-165561852D01*
X146189595Y-165561852D02*
X146157690Y-165498042D01*
X146157690Y-165498042D02*
X146093881Y-165466138D01*
X146093881Y-165466138D02*
X145966262Y-165466138D01*
X145966262Y-165466138D02*
X145902452Y-165498042D01*
X146189595Y-165880900D02*
X146125786Y-165912804D01*
X146125786Y-165912804D02*
X145966262Y-165912804D01*
X145966262Y-165912804D02*
X145902452Y-165880900D01*
X145902452Y-165880900D02*
X145870548Y-165817090D01*
X145870548Y-165817090D02*
X145870548Y-165753280D01*
X145870548Y-165753280D02*
X145902452Y-165689471D01*
X145902452Y-165689471D02*
X145966262Y-165657566D01*
X145966262Y-165657566D02*
X146125786Y-165657566D01*
X146125786Y-165657566D02*
X146189595Y-165625661D01*
X146508642Y-165912804D02*
X146508642Y-165466138D01*
X146508642Y-165593757D02*
X146540547Y-165529947D01*
X146540547Y-165529947D02*
X146572452Y-165498042D01*
X146572452Y-165498042D02*
X146636261Y-165466138D01*
X146636261Y-165466138D02*
X146700071Y-165466138D01*
X146923404Y-165912804D02*
X146923404Y-165466138D01*
X146923404Y-165529947D02*
X146955309Y-165498042D01*
X146955309Y-165498042D02*
X147019119Y-165466138D01*
X147019119Y-165466138D02*
X147114833Y-165466138D01*
X147114833Y-165466138D02*
X147178642Y-165498042D01*
X147178642Y-165498042D02*
X147210547Y-165561852D01*
X147210547Y-165561852D02*
X147210547Y-165912804D01*
X147210547Y-165561852D02*
X147242452Y-165498042D01*
X147242452Y-165498042D02*
X147306261Y-165466138D01*
X147306261Y-165466138D02*
X147401976Y-165466138D01*
X147401976Y-165466138D02*
X147465785Y-165498042D01*
X147465785Y-165498042D02*
X147497690Y-165561852D01*
X147497690Y-165561852D02*
X147497690Y-165912804D01*
X148103880Y-165912804D02*
X148103880Y-165561852D01*
X148103880Y-165561852D02*
X148071975Y-165498042D01*
X148071975Y-165498042D02*
X148008166Y-165466138D01*
X148008166Y-165466138D02*
X147880547Y-165466138D01*
X147880547Y-165466138D02*
X147816737Y-165498042D01*
X148103880Y-165880900D02*
X148040071Y-165912804D01*
X148040071Y-165912804D02*
X147880547Y-165912804D01*
X147880547Y-165912804D02*
X147816737Y-165880900D01*
X147816737Y-165880900D02*
X147784833Y-165817090D01*
X147784833Y-165817090D02*
X147784833Y-165753280D01*
X147784833Y-165753280D02*
X147816737Y-165689471D01*
X147816737Y-165689471D02*
X147880547Y-165657566D01*
X147880547Y-165657566D02*
X148040071Y-165657566D01*
X148040071Y-165657566D02*
X148103880Y-165625661D01*
X148391023Y-165880900D02*
X148454832Y-165912804D01*
X148454832Y-165912804D02*
X148582451Y-165912804D01*
X148582451Y-165912804D02*
X148646261Y-165880900D01*
X148646261Y-165880900D02*
X148678165Y-165817090D01*
X148678165Y-165817090D02*
X148678165Y-165785185D01*
X148678165Y-165785185D02*
X148646261Y-165721376D01*
X148646261Y-165721376D02*
X148582451Y-165689471D01*
X148582451Y-165689471D02*
X148486737Y-165689471D01*
X148486737Y-165689471D02*
X148422927Y-165657566D01*
X148422927Y-165657566D02*
X148391023Y-165593757D01*
X148391023Y-165593757D02*
X148391023Y-165561852D01*
X148391023Y-165561852D02*
X148422927Y-165498042D01*
X148422927Y-165498042D02*
X148486737Y-165466138D01*
X148486737Y-165466138D02*
X148582451Y-165466138D01*
X148582451Y-165466138D02*
X148646261Y-165498042D01*
X149061023Y-165912804D02*
X148997213Y-165880900D01*
X148997213Y-165880900D02*
X148965308Y-165848995D01*
X148965308Y-165848995D02*
X148933404Y-165785185D01*
X148933404Y-165785185D02*
X148933404Y-165593757D01*
X148933404Y-165593757D02*
X148965308Y-165529947D01*
X148965308Y-165529947D02*
X148997213Y-165498042D01*
X148997213Y-165498042D02*
X149061023Y-165466138D01*
X149061023Y-165466138D02*
X149156737Y-165466138D01*
X149156737Y-165466138D02*
X149220546Y-165498042D01*
X149220546Y-165498042D02*
X149252451Y-165529947D01*
X149252451Y-165529947D02*
X149284356Y-165593757D01*
X149284356Y-165593757D02*
X149284356Y-165785185D01*
X149284356Y-165785185D02*
X149252451Y-165848995D01*
X149252451Y-165848995D02*
X149220546Y-165880900D01*
X149220546Y-165880900D02*
X149156737Y-165912804D01*
X149156737Y-165912804D02*
X149061023Y-165912804D01*
X149475784Y-165466138D02*
X149731022Y-165466138D01*
X149571498Y-165242804D02*
X149571498Y-165817090D01*
X149571498Y-165817090D02*
X149603403Y-165880900D01*
X149603403Y-165880900D02*
X149667213Y-165912804D01*
X149667213Y-165912804D02*
X149731022Y-165912804D01*
X149954355Y-165912804D02*
X149954355Y-165242804D01*
X150241498Y-165912804D02*
X150241498Y-165561852D01*
X150241498Y-165561852D02*
X150209593Y-165498042D01*
X150209593Y-165498042D02*
X150145784Y-165466138D01*
X150145784Y-165466138D02*
X150050070Y-165466138D01*
X150050070Y-165466138D02*
X149986260Y-165498042D01*
X149986260Y-165498042D02*
X149954355Y-165529947D01*
X150496736Y-165466138D02*
X150656260Y-165912804D01*
X150656260Y-165912804D02*
X150815783Y-165466138D01*
X151358164Y-165912804D02*
X151358164Y-165561852D01*
X151358164Y-165561852D02*
X151326259Y-165498042D01*
X151326259Y-165498042D02*
X151262450Y-165466138D01*
X151262450Y-165466138D02*
X151134831Y-165466138D01*
X151134831Y-165466138D02*
X151071021Y-165498042D01*
X151358164Y-165880900D02*
X151294355Y-165912804D01*
X151294355Y-165912804D02*
X151134831Y-165912804D01*
X151134831Y-165912804D02*
X151071021Y-165880900D01*
X151071021Y-165880900D02*
X151039117Y-165817090D01*
X151039117Y-165817090D02*
X151039117Y-165753280D01*
X151039117Y-165753280D02*
X151071021Y-165689471D01*
X151071021Y-165689471D02*
X151134831Y-165657566D01*
X151134831Y-165657566D02*
X151294355Y-165657566D01*
X151294355Y-165657566D02*
X151358164Y-165625661D01*
X151677211Y-165912804D02*
X151677211Y-165466138D01*
X151677211Y-165242804D02*
X151645307Y-165274709D01*
X151645307Y-165274709D02*
X151677211Y-165306614D01*
X151677211Y-165306614D02*
X151709116Y-165274709D01*
X151709116Y-165274709D02*
X151677211Y-165242804D01*
X151677211Y-165242804D02*
X151677211Y-165306614D01*
X151996259Y-165912804D02*
X151996259Y-165242804D01*
X151996259Y-165498042D02*
X152060069Y-165466138D01*
X152060069Y-165466138D02*
X152187688Y-165466138D01*
X152187688Y-165466138D02*
X152251497Y-165498042D01*
X152251497Y-165498042D02*
X152283402Y-165529947D01*
X152283402Y-165529947D02*
X152315307Y-165593757D01*
X152315307Y-165593757D02*
X152315307Y-165785185D01*
X152315307Y-165785185D02*
X152283402Y-165848995D01*
X152283402Y-165848995D02*
X152251497Y-165880900D01*
X152251497Y-165880900D02*
X152187688Y-165912804D01*
X152187688Y-165912804D02*
X152060069Y-165912804D01*
X152060069Y-165912804D02*
X151996259Y-165880900D01*
X152602449Y-165912804D02*
X152602449Y-165242804D01*
X152889592Y-165912804D02*
X152889592Y-165561852D01*
X152889592Y-165561852D02*
X152857687Y-165498042D01*
X152857687Y-165498042D02*
X152793878Y-165466138D01*
X152793878Y-165466138D02*
X152698164Y-165466138D01*
X152698164Y-165466138D02*
X152634354Y-165498042D01*
X152634354Y-165498042D02*
X152602449Y-165529947D01*
X153495782Y-165912804D02*
X153495782Y-165561852D01*
X153495782Y-165561852D02*
X153463877Y-165498042D01*
X153463877Y-165498042D02*
X153400068Y-165466138D01*
X153400068Y-165466138D02*
X153272449Y-165466138D01*
X153272449Y-165466138D02*
X153208639Y-165498042D01*
X153495782Y-165880900D02*
X153431973Y-165912804D01*
X153431973Y-165912804D02*
X153272449Y-165912804D01*
X153272449Y-165912804D02*
X153208639Y-165880900D01*
X153208639Y-165880900D02*
X153176735Y-165817090D01*
X153176735Y-165817090D02*
X153176735Y-165753280D01*
X153176735Y-165753280D02*
X153208639Y-165689471D01*
X153208639Y-165689471D02*
X153272449Y-165657566D01*
X153272449Y-165657566D02*
X153431973Y-165657566D01*
X153431973Y-165657566D02*
X153495782Y-165625661D01*
X153751020Y-165466138D02*
X153910544Y-165912804D01*
X153910544Y-165912804D02*
X154070067Y-165466138D01*
X154452924Y-165242804D02*
X154516734Y-165242804D01*
X154516734Y-165242804D02*
X154580543Y-165274709D01*
X154580543Y-165274709D02*
X154612448Y-165306614D01*
X154612448Y-165306614D02*
X154644353Y-165370423D01*
X154644353Y-165370423D02*
X154676258Y-165498042D01*
X154676258Y-165498042D02*
X154676258Y-165657566D01*
X154676258Y-165657566D02*
X154644353Y-165785185D01*
X154644353Y-165785185D02*
X154612448Y-165848995D01*
X154612448Y-165848995D02*
X154580543Y-165880900D01*
X154580543Y-165880900D02*
X154516734Y-165912804D01*
X154516734Y-165912804D02*
X154452924Y-165912804D01*
X154452924Y-165912804D02*
X154389115Y-165880900D01*
X154389115Y-165880900D02*
X154357210Y-165848995D01*
X154357210Y-165848995D02*
X154325305Y-165785185D01*
X154325305Y-165785185D02*
X154293401Y-165657566D01*
X154293401Y-165657566D02*
X154293401Y-165498042D01*
X154293401Y-165498042D02*
X154325305Y-165370423D01*
X154325305Y-165370423D02*
X154357210Y-165306614D01*
X154357210Y-165306614D02*
X154389115Y-165274709D01*
X154389115Y-165274709D02*
X154452924Y-165242804D01*
X154963400Y-165657566D02*
X155473877Y-165657566D01*
X156080067Y-165912804D02*
X156080067Y-165242804D01*
X156080067Y-165880900D02*
X156016258Y-165912804D01*
X156016258Y-165912804D02*
X155888639Y-165912804D01*
X155888639Y-165912804D02*
X155824829Y-165880900D01*
X155824829Y-165880900D02*
X155792924Y-165848995D01*
X155792924Y-165848995D02*
X155761020Y-165785185D01*
X155761020Y-165785185D02*
X155761020Y-165593757D01*
X155761020Y-165593757D02*
X155792924Y-165529947D01*
X155792924Y-165529947D02*
X155824829Y-165498042D01*
X155824829Y-165498042D02*
X155888639Y-165466138D01*
X155888639Y-165466138D02*
X156016258Y-165466138D01*
X156016258Y-165466138D02*
X156080067Y-165498042D01*
X156654352Y-165880900D02*
X156590543Y-165912804D01*
X156590543Y-165912804D02*
X156462924Y-165912804D01*
X156462924Y-165912804D02*
X156399114Y-165880900D01*
X156399114Y-165880900D02*
X156367210Y-165817090D01*
X156367210Y-165817090D02*
X156367210Y-165561852D01*
X156367210Y-165561852D02*
X156399114Y-165498042D01*
X156399114Y-165498042D02*
X156462924Y-165466138D01*
X156462924Y-165466138D02*
X156590543Y-165466138D01*
X156590543Y-165466138D02*
X156654352Y-165498042D01*
X156654352Y-165498042D02*
X156686257Y-165561852D01*
X156686257Y-165561852D02*
X156686257Y-165625661D01*
X156686257Y-165625661D02*
X156367210Y-165689471D01*
X156909591Y-165466138D02*
X157069115Y-165912804D01*
X157069115Y-165912804D02*
X157228638Y-165466138D01*
X157962448Y-165210900D02*
X157388162Y-166072328D01*
X158153877Y-165721376D02*
X158472924Y-165721376D01*
X158090067Y-165912804D02*
X158313400Y-165242804D01*
X158313400Y-165242804D02*
X158536734Y-165912804D01*
X158760067Y-165912804D02*
X158760067Y-165466138D01*
X158760067Y-165242804D02*
X158728163Y-165274709D01*
X158728163Y-165274709D02*
X158760067Y-165306614D01*
X158760067Y-165306614D02*
X158791972Y-165274709D01*
X158791972Y-165274709D02*
X158760067Y-165242804D01*
X158760067Y-165242804D02*
X158760067Y-165306614D01*
X159079115Y-165912804D02*
X159079115Y-165466138D01*
X159079115Y-165593757D02*
X159111020Y-165529947D01*
X159111020Y-165529947D02*
X159142925Y-165498042D01*
X159142925Y-165498042D02*
X159206734Y-165466138D01*
X159206734Y-165466138D02*
X159270544Y-165466138D01*
X159493877Y-165466138D02*
X159493877Y-166136138D01*
X159493877Y-165498042D02*
X159557687Y-165466138D01*
X159557687Y-165466138D02*
X159685306Y-165466138D01*
X159685306Y-165466138D02*
X159749115Y-165498042D01*
X159749115Y-165498042D02*
X159781020Y-165529947D01*
X159781020Y-165529947D02*
X159812925Y-165593757D01*
X159812925Y-165593757D02*
X159812925Y-165785185D01*
X159812925Y-165785185D02*
X159781020Y-165848995D01*
X159781020Y-165848995D02*
X159749115Y-165880900D01*
X159749115Y-165880900D02*
X159685306Y-165912804D01*
X159685306Y-165912804D02*
X159557687Y-165912804D01*
X159557687Y-165912804D02*
X159493877Y-165880900D01*
X160195782Y-165912804D02*
X160131972Y-165880900D01*
X160131972Y-165880900D02*
X160100067Y-165817090D01*
X160100067Y-165817090D02*
X160100067Y-165242804D01*
X160738162Y-165912804D02*
X160738162Y-165561852D01*
X160738162Y-165561852D02*
X160706257Y-165498042D01*
X160706257Y-165498042D02*
X160642448Y-165466138D01*
X160642448Y-165466138D02*
X160514829Y-165466138D01*
X160514829Y-165466138D02*
X160451019Y-165498042D01*
X160738162Y-165880900D02*
X160674353Y-165912804D01*
X160674353Y-165912804D02*
X160514829Y-165912804D01*
X160514829Y-165912804D02*
X160451019Y-165880900D01*
X160451019Y-165880900D02*
X160419115Y-165817090D01*
X160419115Y-165817090D02*
X160419115Y-165753280D01*
X160419115Y-165753280D02*
X160451019Y-165689471D01*
X160451019Y-165689471D02*
X160514829Y-165657566D01*
X160514829Y-165657566D02*
X160674353Y-165657566D01*
X160674353Y-165657566D02*
X160738162Y-165625661D01*
X161057209Y-165466138D02*
X161057209Y-165912804D01*
X161057209Y-165529947D02*
X161089114Y-165498042D01*
X161089114Y-165498042D02*
X161152924Y-165466138D01*
X161152924Y-165466138D02*
X161248638Y-165466138D01*
X161248638Y-165466138D02*
X161312447Y-165498042D01*
X161312447Y-165498042D02*
X161344352Y-165561852D01*
X161344352Y-165561852D02*
X161344352Y-165912804D01*
X161918637Y-165880900D02*
X161854828Y-165912804D01*
X161854828Y-165912804D02*
X161727209Y-165912804D01*
X161727209Y-165912804D02*
X161663399Y-165880900D01*
X161663399Y-165880900D02*
X161631495Y-165817090D01*
X161631495Y-165817090D02*
X161631495Y-165561852D01*
X161631495Y-165561852D02*
X161663399Y-165498042D01*
X161663399Y-165498042D02*
X161727209Y-165466138D01*
X161727209Y-165466138D02*
X161854828Y-165466138D01*
X161854828Y-165466138D02*
X161918637Y-165498042D01*
X161918637Y-165498042D02*
X161950542Y-165561852D01*
X161950542Y-165561852D02*
X161950542Y-165625661D01*
X161950542Y-165625661D02*
X161631495Y-165689471D01*
X162205781Y-165880900D02*
X162301495Y-165912804D01*
X162301495Y-165912804D02*
X162461019Y-165912804D01*
X162461019Y-165912804D02*
X162524828Y-165880900D01*
X162524828Y-165880900D02*
X162556733Y-165848995D01*
X162556733Y-165848995D02*
X162588638Y-165785185D01*
X162588638Y-165785185D02*
X162588638Y-165721376D01*
X162588638Y-165721376D02*
X162556733Y-165657566D01*
X162556733Y-165657566D02*
X162524828Y-165625661D01*
X162524828Y-165625661D02*
X162461019Y-165593757D01*
X162461019Y-165593757D02*
X162333400Y-165561852D01*
X162333400Y-165561852D02*
X162269590Y-165529947D01*
X162269590Y-165529947D02*
X162237685Y-165498042D01*
X162237685Y-165498042D02*
X162205781Y-165434233D01*
X162205781Y-165434233D02*
X162205781Y-165370423D01*
X162205781Y-165370423D02*
X162237685Y-165306614D01*
X162237685Y-165306614D02*
X162269590Y-165274709D01*
X162269590Y-165274709D02*
X162333400Y-165242804D01*
X162333400Y-165242804D02*
X162492923Y-165242804D01*
X162492923Y-165242804D02*
X162588638Y-165274709D01*
X162780066Y-165466138D02*
X163035304Y-165466138D01*
X162875780Y-165242804D02*
X162875780Y-165817090D01*
X162875780Y-165817090D02*
X162907685Y-165880900D01*
X162907685Y-165880900D02*
X162971495Y-165912804D01*
X162971495Y-165912804D02*
X163035304Y-165912804D01*
X163258637Y-165912804D02*
X163258637Y-165466138D01*
X163258637Y-165593757D02*
X163290542Y-165529947D01*
X163290542Y-165529947D02*
X163322447Y-165498042D01*
X163322447Y-165498042D02*
X163386256Y-165466138D01*
X163386256Y-165466138D02*
X163450066Y-165466138D01*
X163769114Y-165912804D02*
X163705304Y-165880900D01*
X163705304Y-165880900D02*
X163673399Y-165848995D01*
X163673399Y-165848995D02*
X163641495Y-165785185D01*
X163641495Y-165785185D02*
X163641495Y-165593757D01*
X163641495Y-165593757D02*
X163673399Y-165529947D01*
X163673399Y-165529947D02*
X163705304Y-165498042D01*
X163705304Y-165498042D02*
X163769114Y-165466138D01*
X163769114Y-165466138D02*
X163864828Y-165466138D01*
X163864828Y-165466138D02*
X163928637Y-165498042D01*
X163928637Y-165498042D02*
X163960542Y-165529947D01*
X163960542Y-165529947D02*
X163992447Y-165593757D01*
X163992447Y-165593757D02*
X163992447Y-165785185D01*
X163992447Y-165785185D02*
X163960542Y-165848995D01*
X163960542Y-165848995D02*
X163928637Y-165880900D01*
X163928637Y-165880900D02*
X163864828Y-165912804D01*
X163864828Y-165912804D02*
X163769114Y-165912804D01*
X164279589Y-165912804D02*
X164279589Y-165242804D01*
X164279589Y-165498042D02*
X164343399Y-165466138D01*
X164343399Y-165466138D02*
X164471018Y-165466138D01*
X164471018Y-165466138D02*
X164534827Y-165498042D01*
X164534827Y-165498042D02*
X164566732Y-165529947D01*
X164566732Y-165529947D02*
X164598637Y-165593757D01*
X164598637Y-165593757D02*
X164598637Y-165785185D01*
X164598637Y-165785185D02*
X164566732Y-165848995D01*
X164566732Y-165848995D02*
X164534827Y-165880900D01*
X164534827Y-165880900D02*
X164471018Y-165912804D01*
X164471018Y-165912804D02*
X164343399Y-165912804D01*
X164343399Y-165912804D02*
X164279589Y-165880900D01*
X165141017Y-165880900D02*
X165077208Y-165912804D01*
X165077208Y-165912804D02*
X164949589Y-165912804D01*
X164949589Y-165912804D02*
X164885779Y-165880900D01*
X164885779Y-165880900D02*
X164853875Y-165817090D01*
X164853875Y-165817090D02*
X164853875Y-165561852D01*
X164853875Y-165561852D02*
X164885779Y-165498042D01*
X164885779Y-165498042D02*
X164949589Y-165466138D01*
X164949589Y-165466138D02*
X165077208Y-165466138D01*
X165077208Y-165466138D02*
X165141017Y-165498042D01*
X165141017Y-165498042D02*
X165172922Y-165561852D01*
X165172922Y-165561852D02*
X165172922Y-165625661D01*
X165172922Y-165625661D02*
X164853875Y-165689471D01*
X165779113Y-165912804D02*
X165460065Y-165912804D01*
X165460065Y-165912804D02*
X165460065Y-165242804D01*
X166002446Y-165912804D02*
X166002446Y-165466138D01*
X166002446Y-165242804D02*
X165970542Y-165274709D01*
X165970542Y-165274709D02*
X166002446Y-165306614D01*
X166002446Y-165306614D02*
X166034351Y-165274709D01*
X166034351Y-165274709D02*
X166002446Y-165242804D01*
X166002446Y-165242804D02*
X166002446Y-165306614D01*
X166608637Y-165466138D02*
X166608637Y-166008519D01*
X166608637Y-166008519D02*
X166576732Y-166072328D01*
X166576732Y-166072328D02*
X166544828Y-166104233D01*
X166544828Y-166104233D02*
X166481018Y-166136138D01*
X166481018Y-166136138D02*
X166385304Y-166136138D01*
X166385304Y-166136138D02*
X166321494Y-166104233D01*
X166608637Y-165880900D02*
X166544828Y-165912804D01*
X166544828Y-165912804D02*
X166417209Y-165912804D01*
X166417209Y-165912804D02*
X166353399Y-165880900D01*
X166353399Y-165880900D02*
X166321494Y-165848995D01*
X166321494Y-165848995D02*
X166289590Y-165785185D01*
X166289590Y-165785185D02*
X166289590Y-165593757D01*
X166289590Y-165593757D02*
X166321494Y-165529947D01*
X166321494Y-165529947D02*
X166353399Y-165498042D01*
X166353399Y-165498042D02*
X166417209Y-165466138D01*
X166417209Y-165466138D02*
X166544828Y-165466138D01*
X166544828Y-165466138D02*
X166608637Y-165498042D01*
X166927684Y-165912804D02*
X166927684Y-165242804D01*
X167214827Y-165912804D02*
X167214827Y-165561852D01*
X167214827Y-165561852D02*
X167182922Y-165498042D01*
X167182922Y-165498042D02*
X167119113Y-165466138D01*
X167119113Y-165466138D02*
X167023399Y-165466138D01*
X167023399Y-165466138D02*
X166959589Y-165498042D01*
X166959589Y-165498042D02*
X166927684Y-165529947D01*
X167438160Y-165466138D02*
X167693398Y-165466138D01*
X167533874Y-165242804D02*
X167533874Y-165817090D01*
X167533874Y-165817090D02*
X167565779Y-165880900D01*
X167565779Y-165880900D02*
X167629589Y-165912804D01*
X167629589Y-165912804D02*
X167693398Y-165912804D01*
X167884827Y-165880900D02*
X167948636Y-165912804D01*
X167948636Y-165912804D02*
X168076255Y-165912804D01*
X168076255Y-165912804D02*
X168140065Y-165880900D01*
X168140065Y-165880900D02*
X168171969Y-165817090D01*
X168171969Y-165817090D02*
X168171969Y-165785185D01*
X168171969Y-165785185D02*
X168140065Y-165721376D01*
X168140065Y-165721376D02*
X168076255Y-165689471D01*
X168076255Y-165689471D02*
X167980541Y-165689471D01*
X167980541Y-165689471D02*
X167916731Y-165657566D01*
X167916731Y-165657566D02*
X167884827Y-165593757D01*
X167884827Y-165593757D02*
X167884827Y-165561852D01*
X167884827Y-165561852D02*
X167916731Y-165498042D01*
X167916731Y-165498042D02*
X167980541Y-165466138D01*
X167980541Y-165466138D02*
X168076255Y-165466138D01*
X168076255Y-165466138D02*
X168140065Y-165498042D01*
D11*
X172833333Y-116454819D02*
X172500000Y-115978628D01*
X172261905Y-116454819D02*
X172261905Y-115454819D01*
X172261905Y-115454819D02*
X172642857Y-115454819D01*
X172642857Y-115454819D02*
X172738095Y-115502438D01*
X172738095Y-115502438D02*
X172785714Y-115550057D01*
X172785714Y-115550057D02*
X172833333Y-115645295D01*
X172833333Y-115645295D02*
X172833333Y-115788152D01*
X172833333Y-115788152D02*
X172785714Y-115883390D01*
X172785714Y-115883390D02*
X172738095Y-115931009D01*
X172738095Y-115931009D02*
X172642857Y-115978628D01*
X172642857Y-115978628D02*
X172261905Y-115978628D01*
X173166667Y-115454819D02*
X173833333Y-115454819D01*
X173833333Y-115454819D02*
X173404762Y-116454819D01*
X119991905Y-123454819D02*
X119991905Y-122454819D01*
X119991905Y-122454819D02*
X120230000Y-122454819D01*
X120230000Y-122454819D02*
X120372857Y-122502438D01*
X120372857Y-122502438D02*
X120468095Y-122597676D01*
X120468095Y-122597676D02*
X120515714Y-122692914D01*
X120515714Y-122692914D02*
X120563333Y-122883390D01*
X120563333Y-122883390D02*
X120563333Y-123026247D01*
X120563333Y-123026247D02*
X120515714Y-123216723D01*
X120515714Y-123216723D02*
X120468095Y-123311961D01*
X120468095Y-123311961D02*
X120372857Y-123407200D01*
X120372857Y-123407200D02*
X120230000Y-123454819D01*
X120230000Y-123454819D02*
X119991905Y-123454819D01*
X120944286Y-122550057D02*
X120991905Y-122502438D01*
X120991905Y-122502438D02*
X121087143Y-122454819D01*
X121087143Y-122454819D02*
X121325238Y-122454819D01*
X121325238Y-122454819D02*
X121420476Y-122502438D01*
X121420476Y-122502438D02*
X121468095Y-122550057D01*
X121468095Y-122550057D02*
X121515714Y-122645295D01*
X121515714Y-122645295D02*
X121515714Y-122740533D01*
X121515714Y-122740533D02*
X121468095Y-122883390D01*
X121468095Y-122883390D02*
X120896667Y-123454819D01*
X120896667Y-123454819D02*
X121515714Y-123454819D01*
X184833333Y-124454819D02*
X184500000Y-123978628D01*
X184261905Y-124454819D02*
X184261905Y-123454819D01*
X184261905Y-123454819D02*
X184642857Y-123454819D01*
X184642857Y-123454819D02*
X184738095Y-123502438D01*
X184738095Y-123502438D02*
X184785714Y-123550057D01*
X184785714Y-123550057D02*
X184833333Y-123645295D01*
X184833333Y-123645295D02*
X184833333Y-123788152D01*
X184833333Y-123788152D02*
X184785714Y-123883390D01*
X184785714Y-123883390D02*
X184738095Y-123931009D01*
X184738095Y-123931009D02*
X184642857Y-123978628D01*
X184642857Y-123978628D02*
X184261905Y-123978628D01*
X185404762Y-123883390D02*
X185309524Y-123835771D01*
X185309524Y-123835771D02*
X185261905Y-123788152D01*
X185261905Y-123788152D02*
X185214286Y-123692914D01*
X185214286Y-123692914D02*
X185214286Y-123645295D01*
X185214286Y-123645295D02*
X185261905Y-123550057D01*
X185261905Y-123550057D02*
X185309524Y-123502438D01*
X185309524Y-123502438D02*
X185404762Y-123454819D01*
X185404762Y-123454819D02*
X185595238Y-123454819D01*
X185595238Y-123454819D02*
X185690476Y-123502438D01*
X185690476Y-123502438D02*
X185738095Y-123550057D01*
X185738095Y-123550057D02*
X185785714Y-123645295D01*
X185785714Y-123645295D02*
X185785714Y-123692914D01*
X185785714Y-123692914D02*
X185738095Y-123788152D01*
X185738095Y-123788152D02*
X185690476Y-123835771D01*
X185690476Y-123835771D02*
X185595238Y-123883390D01*
X185595238Y-123883390D02*
X185404762Y-123883390D01*
X185404762Y-123883390D02*
X185309524Y-123931009D01*
X185309524Y-123931009D02*
X185261905Y-123978628D01*
X185261905Y-123978628D02*
X185214286Y-124073866D01*
X185214286Y-124073866D02*
X185214286Y-124264342D01*
X185214286Y-124264342D02*
X185261905Y-124359580D01*
X185261905Y-124359580D02*
X185309524Y-124407200D01*
X185309524Y-124407200D02*
X185404762Y-124454819D01*
X185404762Y-124454819D02*
X185595238Y-124454819D01*
X185595238Y-124454819D02*
X185690476Y-124407200D01*
X185690476Y-124407200D02*
X185738095Y-124359580D01*
X185738095Y-124359580D02*
X185785714Y-124264342D01*
X185785714Y-124264342D02*
X185785714Y-124073866D01*
X185785714Y-124073866D02*
X185738095Y-123978628D01*
X185738095Y-123978628D02*
X185690476Y-123931009D01*
X185690476Y-123931009D02*
X185595238Y-123883390D01*
X159083333Y-113359580D02*
X159035714Y-113407200D01*
X159035714Y-113407200D02*
X158892857Y-113454819D01*
X158892857Y-113454819D02*
X158797619Y-113454819D01*
X158797619Y-113454819D02*
X158654762Y-113407200D01*
X158654762Y-113407200D02*
X158559524Y-113311961D01*
X158559524Y-113311961D02*
X158511905Y-113216723D01*
X158511905Y-113216723D02*
X158464286Y-113026247D01*
X158464286Y-113026247D02*
X158464286Y-112883390D01*
X158464286Y-112883390D02*
X158511905Y-112692914D01*
X158511905Y-112692914D02*
X158559524Y-112597676D01*
X158559524Y-112597676D02*
X158654762Y-112502438D01*
X158654762Y-112502438D02*
X158797619Y-112454819D01*
X158797619Y-112454819D02*
X158892857Y-112454819D01*
X158892857Y-112454819D02*
X159035714Y-112502438D01*
X159035714Y-112502438D02*
X159083333Y-112550057D01*
X160035714Y-113454819D02*
X159464286Y-113454819D01*
X159750000Y-113454819D02*
X159750000Y-112454819D01*
X159750000Y-112454819D02*
X159654762Y-112597676D01*
X159654762Y-112597676D02*
X159559524Y-112692914D01*
X159559524Y-112692914D02*
X159464286Y-112740533D01*
X107261905Y-130454819D02*
X107261905Y-129454819D01*
X107261905Y-129454819D02*
X107500000Y-129454819D01*
X107500000Y-129454819D02*
X107642857Y-129502438D01*
X107642857Y-129502438D02*
X107738095Y-129597676D01*
X107738095Y-129597676D02*
X107785714Y-129692914D01*
X107785714Y-129692914D02*
X107833333Y-129883390D01*
X107833333Y-129883390D02*
X107833333Y-130026247D01*
X107833333Y-130026247D02*
X107785714Y-130216723D01*
X107785714Y-130216723D02*
X107738095Y-130311961D01*
X107738095Y-130311961D02*
X107642857Y-130407200D01*
X107642857Y-130407200D02*
X107500000Y-130454819D01*
X107500000Y-130454819D02*
X107261905Y-130454819D01*
X108785714Y-130454819D02*
X108214286Y-130454819D01*
X108500000Y-130454819D02*
X108500000Y-129454819D01*
X108500000Y-129454819D02*
X108404762Y-129597676D01*
X108404762Y-129597676D02*
X108309524Y-129692914D01*
X108309524Y-129692914D02*
X108214286Y-129740533D01*
X162261905Y-156454819D02*
X162261905Y-155454819D01*
X162261905Y-155454819D02*
X162500000Y-155454819D01*
X162500000Y-155454819D02*
X162642857Y-155502438D01*
X162642857Y-155502438D02*
X162738095Y-155597676D01*
X162738095Y-155597676D02*
X162785714Y-155692914D01*
X162785714Y-155692914D02*
X162833333Y-155883390D01*
X162833333Y-155883390D02*
X162833333Y-156026247D01*
X162833333Y-156026247D02*
X162785714Y-156216723D01*
X162785714Y-156216723D02*
X162738095Y-156311961D01*
X162738095Y-156311961D02*
X162642857Y-156407200D01*
X162642857Y-156407200D02*
X162500000Y-156454819D01*
X162500000Y-156454819D02*
X162261905Y-156454819D01*
X163404762Y-155883390D02*
X163309524Y-155835771D01*
X163309524Y-155835771D02*
X163261905Y-155788152D01*
X163261905Y-155788152D02*
X163214286Y-155692914D01*
X163214286Y-155692914D02*
X163214286Y-155645295D01*
X163214286Y-155645295D02*
X163261905Y-155550057D01*
X163261905Y-155550057D02*
X163309524Y-155502438D01*
X163309524Y-155502438D02*
X163404762Y-155454819D01*
X163404762Y-155454819D02*
X163595238Y-155454819D01*
X163595238Y-155454819D02*
X163690476Y-155502438D01*
X163690476Y-155502438D02*
X163738095Y-155550057D01*
X163738095Y-155550057D02*
X163785714Y-155645295D01*
X163785714Y-155645295D02*
X163785714Y-155692914D01*
X163785714Y-155692914D02*
X163738095Y-155788152D01*
X163738095Y-155788152D02*
X163690476Y-155835771D01*
X163690476Y-155835771D02*
X163595238Y-155883390D01*
X163595238Y-155883390D02*
X163404762Y-155883390D01*
X163404762Y-155883390D02*
X163309524Y-155931009D01*
X163309524Y-155931009D02*
X163261905Y-155978628D01*
X163261905Y-155978628D02*
X163214286Y-156073866D01*
X163214286Y-156073866D02*
X163214286Y-156264342D01*
X163214286Y-156264342D02*
X163261905Y-156359580D01*
X163261905Y-156359580D02*
X163309524Y-156407200D01*
X163309524Y-156407200D02*
X163404762Y-156454819D01*
X163404762Y-156454819D02*
X163595238Y-156454819D01*
X163595238Y-156454819D02*
X163690476Y-156407200D01*
X163690476Y-156407200D02*
X163738095Y-156359580D01*
X163738095Y-156359580D02*
X163785714Y-156264342D01*
X163785714Y-156264342D02*
X163785714Y-156073866D01*
X163785714Y-156073866D02*
X163738095Y-155978628D01*
X163738095Y-155978628D02*
X163690476Y-155931009D01*
X163690476Y-155931009D02*
X163595238Y-155883390D01*
X150833333Y-104534819D02*
X150500000Y-104058628D01*
X150261905Y-104534819D02*
X150261905Y-103534819D01*
X150261905Y-103534819D02*
X150642857Y-103534819D01*
X150642857Y-103534819D02*
X150738095Y-103582438D01*
X150738095Y-103582438D02*
X150785714Y-103630057D01*
X150785714Y-103630057D02*
X150833333Y-103725295D01*
X150833333Y-103725295D02*
X150833333Y-103868152D01*
X150833333Y-103868152D02*
X150785714Y-103963390D01*
X150785714Y-103963390D02*
X150738095Y-104011009D01*
X150738095Y-104011009D02*
X150642857Y-104058628D01*
X150642857Y-104058628D02*
X150261905Y-104058628D01*
X151690476Y-103534819D02*
X151500000Y-103534819D01*
X151500000Y-103534819D02*
X151404762Y-103582438D01*
X151404762Y-103582438D02*
X151357143Y-103630057D01*
X151357143Y-103630057D02*
X151261905Y-103772914D01*
X151261905Y-103772914D02*
X151214286Y-103963390D01*
X151214286Y-103963390D02*
X151214286Y-104344342D01*
X151214286Y-104344342D02*
X151261905Y-104439580D01*
X151261905Y-104439580D02*
X151309524Y-104487200D01*
X151309524Y-104487200D02*
X151404762Y-104534819D01*
X151404762Y-104534819D02*
X151595238Y-104534819D01*
X151595238Y-104534819D02*
X151690476Y-104487200D01*
X151690476Y-104487200D02*
X151738095Y-104439580D01*
X151738095Y-104439580D02*
X151785714Y-104344342D01*
X151785714Y-104344342D02*
X151785714Y-104106247D01*
X151785714Y-104106247D02*
X151738095Y-104011009D01*
X151738095Y-104011009D02*
X151690476Y-103963390D01*
X151690476Y-103963390D02*
X151595238Y-103915771D01*
X151595238Y-103915771D02*
X151404762Y-103915771D01*
X151404762Y-103915771D02*
X151309524Y-103963390D01*
X151309524Y-103963390D02*
X151261905Y-104011009D01*
X151261905Y-104011009D02*
X151214286Y-104106247D01*
X150531905Y-156454819D02*
X150531905Y-155454819D01*
X150531905Y-155454819D02*
X150770000Y-155454819D01*
X150770000Y-155454819D02*
X150912857Y-155502438D01*
X150912857Y-155502438D02*
X151008095Y-155597676D01*
X151008095Y-155597676D02*
X151055714Y-155692914D01*
X151055714Y-155692914D02*
X151103333Y-155883390D01*
X151103333Y-155883390D02*
X151103333Y-156026247D01*
X151103333Y-156026247D02*
X151055714Y-156216723D01*
X151055714Y-156216723D02*
X151008095Y-156311961D01*
X151008095Y-156311961D02*
X150912857Y-156407200D01*
X150912857Y-156407200D02*
X150770000Y-156454819D01*
X150770000Y-156454819D02*
X150531905Y-156454819D01*
X151436667Y-155454819D02*
X152103333Y-155454819D01*
X152103333Y-155454819D02*
X151674762Y-156454819D01*
X150666666Y-84454819D02*
X150666666Y-85169104D01*
X150666666Y-85169104D02*
X150619047Y-85311961D01*
X150619047Y-85311961D02*
X150523809Y-85407200D01*
X150523809Y-85407200D02*
X150380952Y-85454819D01*
X150380952Y-85454819D02*
X150285714Y-85454819D01*
X151666666Y-85454819D02*
X151095238Y-85454819D01*
X151380952Y-85454819D02*
X151380952Y-84454819D01*
X151380952Y-84454819D02*
X151285714Y-84597676D01*
X151285714Y-84597676D02*
X151190476Y-84692914D01*
X151190476Y-84692914D02*
X151095238Y-84740533D01*
X150238095Y-110454819D02*
X150238095Y-111264342D01*
X150238095Y-111264342D02*
X150285714Y-111359580D01*
X150285714Y-111359580D02*
X150333333Y-111407200D01*
X150333333Y-111407200D02*
X150428571Y-111454819D01*
X150428571Y-111454819D02*
X150619047Y-111454819D01*
X150619047Y-111454819D02*
X150714285Y-111407200D01*
X150714285Y-111407200D02*
X150761904Y-111359580D01*
X150761904Y-111359580D02*
X150809523Y-111264342D01*
X150809523Y-111264342D02*
X150809523Y-110454819D01*
X151809523Y-111454819D02*
X151238095Y-111454819D01*
X151523809Y-111454819D02*
X151523809Y-110454819D01*
X151523809Y-110454819D02*
X151428571Y-110597676D01*
X151428571Y-110597676D02*
X151333333Y-110692914D01*
X151333333Y-110692914D02*
X151238095Y-110740533D01*
X179531905Y-115494819D02*
X179531905Y-114494819D01*
X179531905Y-114494819D02*
X179770000Y-114494819D01*
X179770000Y-114494819D02*
X179912857Y-114542438D01*
X179912857Y-114542438D02*
X180008095Y-114637676D01*
X180008095Y-114637676D02*
X180055714Y-114732914D01*
X180055714Y-114732914D02*
X180103333Y-114923390D01*
X180103333Y-114923390D02*
X180103333Y-115066247D01*
X180103333Y-115066247D02*
X180055714Y-115256723D01*
X180055714Y-115256723D02*
X180008095Y-115351961D01*
X180008095Y-115351961D02*
X179912857Y-115447200D01*
X179912857Y-115447200D02*
X179770000Y-115494819D01*
X179770000Y-115494819D02*
X179531905Y-115494819D01*
X180960476Y-114828152D02*
X180960476Y-115494819D01*
X180722381Y-114447200D02*
X180484286Y-115161485D01*
X180484286Y-115161485D02*
X181103333Y-115161485D01*
X116753333Y-124454819D02*
X116420000Y-123978628D01*
X116181905Y-124454819D02*
X116181905Y-123454819D01*
X116181905Y-123454819D02*
X116562857Y-123454819D01*
X116562857Y-123454819D02*
X116658095Y-123502438D01*
X116658095Y-123502438D02*
X116705714Y-123550057D01*
X116705714Y-123550057D02*
X116753333Y-123645295D01*
X116753333Y-123645295D02*
X116753333Y-123788152D01*
X116753333Y-123788152D02*
X116705714Y-123883390D01*
X116705714Y-123883390D02*
X116658095Y-123931009D01*
X116658095Y-123931009D02*
X116562857Y-123978628D01*
X116562857Y-123978628D02*
X116181905Y-123978628D01*
X117610476Y-123788152D02*
X117610476Y-124454819D01*
X117372381Y-123407200D02*
X117134286Y-124121485D01*
X117134286Y-124121485D02*
X117753333Y-124121485D01*
X127753333Y-118454819D02*
X127420000Y-117978628D01*
X127181905Y-118454819D02*
X127181905Y-117454819D01*
X127181905Y-117454819D02*
X127562857Y-117454819D01*
X127562857Y-117454819D02*
X127658095Y-117502438D01*
X127658095Y-117502438D02*
X127705714Y-117550057D01*
X127705714Y-117550057D02*
X127753333Y-117645295D01*
X127753333Y-117645295D02*
X127753333Y-117788152D01*
X127753333Y-117788152D02*
X127705714Y-117883390D01*
X127705714Y-117883390D02*
X127658095Y-117931009D01*
X127658095Y-117931009D02*
X127562857Y-117978628D01*
X127562857Y-117978628D02*
X127181905Y-117978628D01*
X128658095Y-117454819D02*
X128181905Y-117454819D01*
X128181905Y-117454819D02*
X128134286Y-117931009D01*
X128134286Y-117931009D02*
X128181905Y-117883390D01*
X128181905Y-117883390D02*
X128277143Y-117835771D01*
X128277143Y-117835771D02*
X128515238Y-117835771D01*
X128515238Y-117835771D02*
X128610476Y-117883390D01*
X128610476Y-117883390D02*
X128658095Y-117931009D01*
X128658095Y-117931009D02*
X128705714Y-118026247D01*
X128705714Y-118026247D02*
X128705714Y-118264342D01*
X128705714Y-118264342D02*
X128658095Y-118359580D01*
X128658095Y-118359580D02*
X128610476Y-118407200D01*
X128610476Y-118407200D02*
X128515238Y-118454819D01*
X128515238Y-118454819D02*
X128277143Y-118454819D01*
X128277143Y-118454819D02*
X128181905Y-118407200D01*
X128181905Y-118407200D02*
X128134286Y-118359580D01*
X150547142Y-143534819D02*
X150213809Y-143058628D01*
X149975714Y-143534819D02*
X149975714Y-142534819D01*
X149975714Y-142534819D02*
X150356666Y-142534819D01*
X150356666Y-142534819D02*
X150451904Y-142582438D01*
X150451904Y-142582438D02*
X150499523Y-142630057D01*
X150499523Y-142630057D02*
X150547142Y-142725295D01*
X150547142Y-142725295D02*
X150547142Y-142868152D01*
X150547142Y-142868152D02*
X150499523Y-142963390D01*
X150499523Y-142963390D02*
X150451904Y-143011009D01*
X150451904Y-143011009D02*
X150356666Y-143058628D01*
X150356666Y-143058628D02*
X149975714Y-143058628D01*
X151499523Y-143534819D02*
X150928095Y-143534819D01*
X151213809Y-143534819D02*
X151213809Y-142534819D01*
X151213809Y-142534819D02*
X151118571Y-142677676D01*
X151118571Y-142677676D02*
X151023333Y-142772914D01*
X151023333Y-142772914D02*
X150928095Y-142820533D01*
X152118571Y-142534819D02*
X152213809Y-142534819D01*
X152213809Y-142534819D02*
X152309047Y-142582438D01*
X152309047Y-142582438D02*
X152356666Y-142630057D01*
X152356666Y-142630057D02*
X152404285Y-142725295D01*
X152404285Y-142725295D02*
X152451904Y-142915771D01*
X152451904Y-142915771D02*
X152451904Y-143153866D01*
X152451904Y-143153866D02*
X152404285Y-143344342D01*
X152404285Y-143344342D02*
X152356666Y-143439580D01*
X152356666Y-143439580D02*
X152309047Y-143487200D01*
X152309047Y-143487200D02*
X152213809Y-143534819D01*
X152213809Y-143534819D02*
X152118571Y-143534819D01*
X152118571Y-143534819D02*
X152023333Y-143487200D01*
X152023333Y-143487200D02*
X151975714Y-143439580D01*
X151975714Y-143439580D02*
X151928095Y-143344342D01*
X151928095Y-143344342D02*
X151880476Y-143153866D01*
X151880476Y-143153866D02*
X151880476Y-142915771D01*
X151880476Y-142915771D02*
X151928095Y-142725295D01*
X151928095Y-142725295D02*
X151975714Y-142630057D01*
X151975714Y-142630057D02*
X152023333Y-142582438D01*
X152023333Y-142582438D02*
X152118571Y-142534819D01*
X140833333Y-106534819D02*
X140500000Y-106058628D01*
X140261905Y-106534819D02*
X140261905Y-105534819D01*
X140261905Y-105534819D02*
X140642857Y-105534819D01*
X140642857Y-105534819D02*
X140738095Y-105582438D01*
X140738095Y-105582438D02*
X140785714Y-105630057D01*
X140785714Y-105630057D02*
X140833333Y-105725295D01*
X140833333Y-105725295D02*
X140833333Y-105868152D01*
X140833333Y-105868152D02*
X140785714Y-105963390D01*
X140785714Y-105963390D02*
X140738095Y-106011009D01*
X140738095Y-106011009D02*
X140642857Y-106058628D01*
X140642857Y-106058628D02*
X140261905Y-106058628D01*
X141785714Y-106534819D02*
X141214286Y-106534819D01*
X141500000Y-106534819D02*
X141500000Y-105534819D01*
X141500000Y-105534819D02*
X141404762Y-105677676D01*
X141404762Y-105677676D02*
X141309524Y-105772914D01*
X141309524Y-105772914D02*
X141214286Y-105820533D01*
X191261905Y-122494819D02*
X191261905Y-121494819D01*
X191261905Y-121494819D02*
X191500000Y-121494819D01*
X191500000Y-121494819D02*
X191642857Y-121542438D01*
X191642857Y-121542438D02*
X191738095Y-121637676D01*
X191738095Y-121637676D02*
X191785714Y-121732914D01*
X191785714Y-121732914D02*
X191833333Y-121923390D01*
X191833333Y-121923390D02*
X191833333Y-122066247D01*
X191833333Y-122066247D02*
X191785714Y-122256723D01*
X191785714Y-122256723D02*
X191738095Y-122351961D01*
X191738095Y-122351961D02*
X191642857Y-122447200D01*
X191642857Y-122447200D02*
X191500000Y-122494819D01*
X191500000Y-122494819D02*
X191261905Y-122494819D01*
X192738095Y-121494819D02*
X192261905Y-121494819D01*
X192261905Y-121494819D02*
X192214286Y-121971009D01*
X192214286Y-121971009D02*
X192261905Y-121923390D01*
X192261905Y-121923390D02*
X192357143Y-121875771D01*
X192357143Y-121875771D02*
X192595238Y-121875771D01*
X192595238Y-121875771D02*
X192690476Y-121923390D01*
X192690476Y-121923390D02*
X192738095Y-121971009D01*
X192738095Y-121971009D02*
X192785714Y-122066247D01*
X192785714Y-122066247D02*
X192785714Y-122304342D01*
X192785714Y-122304342D02*
X192738095Y-122399580D01*
X192738095Y-122399580D02*
X192690476Y-122447200D01*
X192690476Y-122447200D02*
X192595238Y-122494819D01*
X192595238Y-122494819D02*
X192357143Y-122494819D01*
X192357143Y-122494819D02*
X192261905Y-122447200D01*
X192261905Y-122447200D02*
X192214286Y-122399580D01*
X163833333Y-105454819D02*
X163500000Y-104978628D01*
X163261905Y-105454819D02*
X163261905Y-104454819D01*
X163261905Y-104454819D02*
X163642857Y-104454819D01*
X163642857Y-104454819D02*
X163738095Y-104502438D01*
X163738095Y-104502438D02*
X163785714Y-104550057D01*
X163785714Y-104550057D02*
X163833333Y-104645295D01*
X163833333Y-104645295D02*
X163833333Y-104788152D01*
X163833333Y-104788152D02*
X163785714Y-104883390D01*
X163785714Y-104883390D02*
X163738095Y-104931009D01*
X163738095Y-104931009D02*
X163642857Y-104978628D01*
X163642857Y-104978628D02*
X163261905Y-104978628D01*
X164214286Y-104550057D02*
X164261905Y-104502438D01*
X164261905Y-104502438D02*
X164357143Y-104454819D01*
X164357143Y-104454819D02*
X164595238Y-104454819D01*
X164595238Y-104454819D02*
X164690476Y-104502438D01*
X164690476Y-104502438D02*
X164738095Y-104550057D01*
X164738095Y-104550057D02*
X164785714Y-104645295D01*
X164785714Y-104645295D02*
X164785714Y-104740533D01*
X164785714Y-104740533D02*
X164738095Y-104883390D01*
X164738095Y-104883390D02*
X164166667Y-105454819D01*
X164166667Y-105454819D02*
X164785714Y-105454819D01*
X140534819Y-157166666D02*
X140058628Y-157499999D01*
X140534819Y-157738094D02*
X139534819Y-157738094D01*
X139534819Y-157738094D02*
X139534819Y-157357142D01*
X139534819Y-157357142D02*
X139582438Y-157261904D01*
X139582438Y-157261904D02*
X139630057Y-157214285D01*
X139630057Y-157214285D02*
X139725295Y-157166666D01*
X139725295Y-157166666D02*
X139868152Y-157166666D01*
X139868152Y-157166666D02*
X139963390Y-157214285D01*
X139963390Y-157214285D02*
X140011009Y-157261904D01*
X140011009Y-157261904D02*
X140058628Y-157357142D01*
X140058628Y-157357142D02*
X140058628Y-157738094D01*
X140534819Y-156690475D02*
X140534819Y-156499999D01*
X140534819Y-156499999D02*
X140487200Y-156404761D01*
X140487200Y-156404761D02*
X140439580Y-156357142D01*
X140439580Y-156357142D02*
X140296723Y-156261904D01*
X140296723Y-156261904D02*
X140106247Y-156214285D01*
X140106247Y-156214285D02*
X139725295Y-156214285D01*
X139725295Y-156214285D02*
X139630057Y-156261904D01*
X139630057Y-156261904D02*
X139582438Y-156309523D01*
X139582438Y-156309523D02*
X139534819Y-156404761D01*
X139534819Y-156404761D02*
X139534819Y-156595237D01*
X139534819Y-156595237D02*
X139582438Y-156690475D01*
X139582438Y-156690475D02*
X139630057Y-156738094D01*
X139630057Y-156738094D02*
X139725295Y-156785713D01*
X139725295Y-156785713D02*
X139963390Y-156785713D01*
X139963390Y-156785713D02*
X140058628Y-156738094D01*
X140058628Y-156738094D02*
X140106247Y-156690475D01*
X140106247Y-156690475D02*
X140153866Y-156595237D01*
X140153866Y-156595237D02*
X140153866Y-156404761D01*
X140153866Y-156404761D02*
X140106247Y-156309523D01*
X140106247Y-156309523D02*
X140058628Y-156261904D01*
X140058628Y-156261904D02*
X139963390Y-156214285D01*
X146261905Y-100454819D02*
X146261905Y-99454819D01*
X146261905Y-99454819D02*
X146500000Y-99454819D01*
X146500000Y-99454819D02*
X146642857Y-99502438D01*
X146642857Y-99502438D02*
X146738095Y-99597676D01*
X146738095Y-99597676D02*
X146785714Y-99692914D01*
X146785714Y-99692914D02*
X146833333Y-99883390D01*
X146833333Y-99883390D02*
X146833333Y-100026247D01*
X146833333Y-100026247D02*
X146785714Y-100216723D01*
X146785714Y-100216723D02*
X146738095Y-100311961D01*
X146738095Y-100311961D02*
X146642857Y-100407200D01*
X146642857Y-100407200D02*
X146500000Y-100454819D01*
X146500000Y-100454819D02*
X146261905Y-100454819D01*
X147166667Y-99454819D02*
X147785714Y-99454819D01*
X147785714Y-99454819D02*
X147452381Y-99835771D01*
X147452381Y-99835771D02*
X147595238Y-99835771D01*
X147595238Y-99835771D02*
X147690476Y-99883390D01*
X147690476Y-99883390D02*
X147738095Y-99931009D01*
X147738095Y-99931009D02*
X147785714Y-100026247D01*
X147785714Y-100026247D02*
X147785714Y-100264342D01*
X147785714Y-100264342D02*
X147738095Y-100359580D01*
X147738095Y-100359580D02*
X147690476Y-100407200D01*
X147690476Y-100407200D02*
X147595238Y-100454819D01*
X147595238Y-100454819D02*
X147309524Y-100454819D01*
X147309524Y-100454819D02*
X147214286Y-100407200D01*
X147214286Y-100407200D02*
X147166667Y-100359580D01*
X136261905Y-157494819D02*
X136261905Y-156494819D01*
X136261905Y-156494819D02*
X136500000Y-156494819D01*
X136500000Y-156494819D02*
X136642857Y-156542438D01*
X136642857Y-156542438D02*
X136738095Y-156637676D01*
X136738095Y-156637676D02*
X136785714Y-156732914D01*
X136785714Y-156732914D02*
X136833333Y-156923390D01*
X136833333Y-156923390D02*
X136833333Y-157066247D01*
X136833333Y-157066247D02*
X136785714Y-157256723D01*
X136785714Y-157256723D02*
X136738095Y-157351961D01*
X136738095Y-157351961D02*
X136642857Y-157447200D01*
X136642857Y-157447200D02*
X136500000Y-157494819D01*
X136500000Y-157494819D02*
X136261905Y-157494819D01*
X137690476Y-156494819D02*
X137500000Y-156494819D01*
X137500000Y-156494819D02*
X137404762Y-156542438D01*
X137404762Y-156542438D02*
X137357143Y-156590057D01*
X137357143Y-156590057D02*
X137261905Y-156732914D01*
X137261905Y-156732914D02*
X137214286Y-156923390D01*
X137214286Y-156923390D02*
X137214286Y-157304342D01*
X137214286Y-157304342D02*
X137261905Y-157399580D01*
X137261905Y-157399580D02*
X137309524Y-157447200D01*
X137309524Y-157447200D02*
X137404762Y-157494819D01*
X137404762Y-157494819D02*
X137595238Y-157494819D01*
X137595238Y-157494819D02*
X137690476Y-157447200D01*
X137690476Y-157447200D02*
X137738095Y-157399580D01*
X137738095Y-157399580D02*
X137785714Y-157304342D01*
X137785714Y-157304342D02*
X137785714Y-157066247D01*
X137785714Y-157066247D02*
X137738095Y-156971009D01*
X137738095Y-156971009D02*
X137690476Y-156923390D01*
X137690476Y-156923390D02*
X137595238Y-156875771D01*
X137595238Y-156875771D02*
X137404762Y-156875771D01*
X137404762Y-156875771D02*
X137309524Y-156923390D01*
X137309524Y-156923390D02*
X137261905Y-156971009D01*
X137261905Y-156971009D02*
X137214286Y-157066247D01*
X150428095Y-123454819D02*
X150428095Y-124264342D01*
X150428095Y-124264342D02*
X150475714Y-124359580D01*
X150475714Y-124359580D02*
X150523333Y-124407200D01*
X150523333Y-124407200D02*
X150618571Y-124454819D01*
X150618571Y-124454819D02*
X150809047Y-124454819D01*
X150809047Y-124454819D02*
X150904285Y-124407200D01*
X150904285Y-124407200D02*
X150951904Y-124359580D01*
X150951904Y-124359580D02*
X150999523Y-124264342D01*
X150999523Y-124264342D02*
X150999523Y-123454819D01*
X151428095Y-123550057D02*
X151475714Y-123502438D01*
X151475714Y-123502438D02*
X151570952Y-123454819D01*
X151570952Y-123454819D02*
X151809047Y-123454819D01*
X151809047Y-123454819D02*
X151904285Y-123502438D01*
X151904285Y-123502438D02*
X151951904Y-123550057D01*
X151951904Y-123550057D02*
X151999523Y-123645295D01*
X151999523Y-123645295D02*
X151999523Y-123740533D01*
X151999523Y-123740533D02*
X151951904Y-123883390D01*
X151951904Y-123883390D02*
X151380476Y-124454819D01*
X151380476Y-124454819D02*
X151999523Y-124454819D01*
X137083333Y-114359580D02*
X137035714Y-114407200D01*
X137035714Y-114407200D02*
X136892857Y-114454819D01*
X136892857Y-114454819D02*
X136797619Y-114454819D01*
X136797619Y-114454819D02*
X136654762Y-114407200D01*
X136654762Y-114407200D02*
X136559524Y-114311961D01*
X136559524Y-114311961D02*
X136511905Y-114216723D01*
X136511905Y-114216723D02*
X136464286Y-114026247D01*
X136464286Y-114026247D02*
X136464286Y-113883390D01*
X136464286Y-113883390D02*
X136511905Y-113692914D01*
X136511905Y-113692914D02*
X136559524Y-113597676D01*
X136559524Y-113597676D02*
X136654762Y-113502438D01*
X136654762Y-113502438D02*
X136797619Y-113454819D01*
X136797619Y-113454819D02*
X136892857Y-113454819D01*
X136892857Y-113454819D02*
X137035714Y-113502438D01*
X137035714Y-113502438D02*
X137083333Y-113550057D01*
X137464286Y-113550057D02*
X137511905Y-113502438D01*
X137511905Y-113502438D02*
X137607143Y-113454819D01*
X137607143Y-113454819D02*
X137845238Y-113454819D01*
X137845238Y-113454819D02*
X137940476Y-113502438D01*
X137940476Y-113502438D02*
X137988095Y-113550057D01*
X137988095Y-113550057D02*
X138035714Y-113645295D01*
X138035714Y-113645295D02*
X138035714Y-113740533D01*
X138035714Y-113740533D02*
X137988095Y-113883390D01*
X137988095Y-113883390D02*
X137416667Y-114454819D01*
X137416667Y-114454819D02*
X138035714Y-114454819D01*
X156534819Y-156642857D02*
X156058628Y-156976190D01*
X156534819Y-157214285D02*
X155534819Y-157214285D01*
X155534819Y-157214285D02*
X155534819Y-156833333D01*
X155534819Y-156833333D02*
X155582438Y-156738095D01*
X155582438Y-156738095D02*
X155630057Y-156690476D01*
X155630057Y-156690476D02*
X155725295Y-156642857D01*
X155725295Y-156642857D02*
X155868152Y-156642857D01*
X155868152Y-156642857D02*
X155963390Y-156690476D01*
X155963390Y-156690476D02*
X156011009Y-156738095D01*
X156011009Y-156738095D02*
X156058628Y-156833333D01*
X156058628Y-156833333D02*
X156058628Y-157214285D01*
X156534819Y-155690476D02*
X156534819Y-156261904D01*
X156534819Y-155976190D02*
X155534819Y-155976190D01*
X155534819Y-155976190D02*
X155677676Y-156071428D01*
X155677676Y-156071428D02*
X155772914Y-156166666D01*
X155772914Y-156166666D02*
X155820533Y-156261904D01*
X156534819Y-154738095D02*
X156534819Y-155309523D01*
X156534819Y-155023809D02*
X155534819Y-155023809D01*
X155534819Y-155023809D02*
X155677676Y-155119047D01*
X155677676Y-155119047D02*
X155772914Y-155214285D01*
X155772914Y-155214285D02*
X155820533Y-155309523D01*
%TO.C,R7*%
D12*
X175000000Y-114130000D02*
X175000000Y-115080000D01*
X175000000Y-119870000D02*
X175000000Y-118920000D01*
X174080000Y-115080000D02*
X175920000Y-115080000D01*
X175920000Y-118920000D01*
X174080000Y-118920000D01*
X174080000Y-115080000D01*
%TO.C,D2*%
X118170000Y-117455000D02*
X118170000Y-120545000D01*
X118170000Y-117455170D02*
G75*
G02*
X123720000Y-119000000I2560000J-1544830D01*
G01*
X123720000Y-119000000D02*
G75*
G02*
X118170000Y-120544830I-2990000J0D01*
G01*
X123230000Y-119000000D02*
G75*
G02*
X118230000Y-119000000I-2500000J0D01*
G01*
X118230000Y-119000000D02*
G75*
G02*
X123230000Y-119000000I2500000J0D01*
G01*
%TO.C,R8*%
X187000000Y-120130000D02*
X187000000Y-121080000D01*
X187000000Y-125870000D02*
X187000000Y-124920000D01*
X186080000Y-121080000D02*
X187920000Y-121080000D01*
X187920000Y-124920000D01*
X186080000Y-124920000D01*
X186080000Y-121080000D01*
%TO.C,C1*%
X160380000Y-108880000D02*
X165620000Y-108880000D01*
X160380000Y-117120000D02*
X160380000Y-108880000D01*
X165620000Y-108880000D02*
X165620000Y-117120000D01*
X165620000Y-117120000D02*
X160380000Y-117120000D01*
%TO.C,D1*%
X106170000Y-124455000D02*
X106170000Y-127545000D01*
X106170000Y-124455170D02*
G75*
G02*
X111720000Y-126000000I2560000J-1544830D01*
G01*
X111720000Y-126000000D02*
G75*
G02*
X106170000Y-127544830I-2990000J0D01*
G01*
X111230000Y-126000000D02*
G75*
G02*
X106230000Y-126000000I-2500000J0D01*
G01*
X106230000Y-126000000D02*
G75*
G02*
X111230000Y-126000000I2500000J0D01*
G01*
%TO.C,D8*%
X165290000Y-161545000D02*
X165290000Y-158455000D01*
X159740000Y-160000000D02*
G75*
G02*
X165290000Y-158455170I2990000J0D01*
G01*
X165290000Y-161544830D02*
G75*
G02*
X159740000Y-160000000I-2560000J1544830D01*
G01*
X165230000Y-160000000D02*
G75*
G02*
X160230000Y-160000000I-2500000J0D01*
G01*
X160230000Y-160000000D02*
G75*
G02*
X165230000Y-160000000I2500000J0D01*
G01*
%TO.C,R6*%
X148130000Y-106000000D02*
X149080000Y-106000000D01*
X153870000Y-106000000D02*
X152920000Y-106000000D01*
X149080000Y-105080000D02*
X152920000Y-105080000D01*
X152920000Y-106920000D01*
X149080000Y-106920000D01*
X149080000Y-105080000D01*
%TO.C,D7*%
X148710000Y-150455000D02*
X148710000Y-153545000D01*
X148710000Y-150455170D02*
G75*
G02*
X154260000Y-152000000I2560000J-1544830D01*
G01*
X154260000Y-152000000D02*
G75*
G02*
X148710000Y-153544830I-2990000J0D01*
G01*
X153770000Y-152000000D02*
G75*
G02*
X148770000Y-152000000I-2500000J0D01*
G01*
X148770000Y-152000000D02*
G75*
G02*
X153770000Y-152000000I2500000J0D01*
G01*
%TO.C,J1*%
X143690000Y-78260000D02*
X143690000Y-78780000D01*
X143690000Y-78780000D02*
X144340000Y-78780000D01*
X144340000Y-86890000D02*
X144340000Y-78780000D01*
X144340000Y-93740000D02*
X144340000Y-90410000D01*
X155400000Y-93960000D02*
X153600000Y-93960000D01*
X157660000Y-78780000D02*
X157660000Y-86890000D01*
X157660000Y-78780000D02*
X158310000Y-78780000D01*
X157660000Y-93740000D02*
X144340000Y-93740000D01*
X157660000Y-93740000D02*
X157660000Y-90410000D01*
X158310000Y-78260000D02*
X143690000Y-78260000D01*
X158310000Y-78780000D02*
X158310000Y-78260000D01*
%TO.C,U1*%
X148540000Y-109130000D02*
X148540000Y-119410000D01*
X148540000Y-119410000D02*
X153840000Y-119410000D01*
X150190000Y-109130000D02*
X148540000Y-109130000D01*
X153840000Y-109130000D02*
X152190000Y-109130000D01*
X153840000Y-119410000D02*
X153840000Y-109130000D01*
X152190000Y-109130000D02*
G75*
G02*
X150190000Y-109130000I-1000000J0D01*
G01*
%TO.C,D4*%
X177710000Y-117455000D02*
X177710000Y-120545000D01*
X177710000Y-117455170D02*
G75*
G02*
X183260000Y-119000000I2560000J-1544830D01*
G01*
X183260000Y-119000000D02*
G75*
G02*
X177710000Y-120544830I-2990000J0D01*
G01*
X182770000Y-119000000D02*
G75*
G02*
X177770000Y-119000000I-2500000J0D01*
G01*
X177770000Y-119000000D02*
G75*
G02*
X182770000Y-119000000I2500000J0D01*
G01*
%TO.C,R4*%
X115000000Y-121130000D02*
X115000000Y-122080000D01*
X115000000Y-126870000D02*
X115000000Y-125920000D01*
X114080000Y-122080000D02*
X115920000Y-122080000D01*
X115920000Y-125920000D01*
X114080000Y-125920000D01*
X114080000Y-122080000D01*
%TO.C,R5*%
X126000000Y-115130000D02*
X126000000Y-116080000D01*
X126000000Y-120870000D02*
X126000000Y-119920000D01*
X125080000Y-116080000D02*
X126920000Y-116080000D01*
X126920000Y-119920000D01*
X125080000Y-119920000D01*
X125080000Y-116080000D01*
%TO.C,R10*%
X148320000Y-145000000D02*
X149270000Y-145000000D01*
X154060000Y-145000000D02*
X153110000Y-145000000D01*
X149270000Y-144080000D02*
X153110000Y-144080000D01*
X153110000Y-145920000D01*
X149270000Y-145920000D01*
X149270000Y-144080000D01*
%TO.C,R1*%
X137130000Y-108000000D02*
X138080000Y-108000000D01*
X142870000Y-108000000D02*
X141920000Y-108000000D01*
X138080000Y-107080000D02*
X141920000Y-107080000D01*
X141920000Y-108920000D01*
X138080000Y-108920000D01*
X138080000Y-107080000D01*
%TO.C,D5*%
X189440000Y-124455000D02*
X189440000Y-127545000D01*
X189440000Y-124455170D02*
G75*
G02*
X194990000Y-126000000I2560000J-1544830D01*
G01*
X194990000Y-126000000D02*
G75*
G02*
X189440000Y-127544830I-2990000J0D01*
G01*
X194500000Y-126000000D02*
G75*
G02*
X189500000Y-126000000I-2500000J0D01*
G01*
X189500000Y-126000000D02*
G75*
G02*
X194500000Y-126000000I2500000J0D01*
G01*
%TO.C,R2*%
X160320000Y-107000000D02*
X161270000Y-107000000D01*
X166060000Y-107000000D02*
X165110000Y-107000000D01*
X161270000Y-106080000D02*
X165110000Y-106080000D01*
X165110000Y-107920000D01*
X161270000Y-107920000D01*
X161270000Y-106080000D01*
%TO.C,R9*%
X142000000Y-154130000D02*
X142000000Y-155080000D01*
X142000000Y-159870000D02*
X142000000Y-158920000D01*
X141080000Y-155080000D02*
X142920000Y-155080000D01*
X142920000Y-158920000D01*
X141080000Y-158920000D01*
X141080000Y-155080000D01*
%TO.C,D3*%
X148710000Y-98455000D02*
X148710000Y-101545000D01*
X148710000Y-98455170D02*
G75*
G02*
X154260000Y-100000000I2560000J-1544830D01*
G01*
X154260000Y-100000000D02*
G75*
G02*
X148710000Y-101544830I-2990000J0D01*
G01*
X153770000Y-100000000D02*
G75*
G02*
X148770000Y-100000000I-2500000J0D01*
G01*
X148770000Y-100000000D02*
G75*
G02*
X153770000Y-100000000I2500000J0D01*
G01*
%TO.C,D6*%
X134440000Y-159455000D02*
X134440000Y-162545000D01*
X134440000Y-159455170D02*
G75*
G02*
X139990000Y-161000000I2560000J-1544830D01*
G01*
X139990000Y-161000000D02*
G75*
G02*
X134440000Y-162544830I-2990000J0D01*
G01*
X139500000Y-161000000D02*
G75*
G02*
X134500000Y-161000000I-2500000J0D01*
G01*
X134500000Y-161000000D02*
G75*
G02*
X139500000Y-161000000I2500000J0D01*
G01*
%TO.C,U2*%
X148540000Y-121780000D02*
X148540000Y-142220000D01*
X148540000Y-142220000D02*
X153840000Y-142220000D01*
X150190000Y-121780000D02*
X148540000Y-121780000D01*
X153840000Y-121780000D02*
X152190000Y-121780000D01*
X153840000Y-142220000D02*
X153840000Y-121780000D01*
X152190000Y-121780000D02*
G75*
G02*
X150190000Y-121780000I-1000000J0D01*
G01*
%TO.C,C2*%
X138380000Y-109880000D02*
X143620000Y-109880000D01*
X138380000Y-118120000D02*
X138380000Y-109880000D01*
X143620000Y-109880000D02*
X143620000Y-118120000D01*
X143620000Y-118120000D02*
X138380000Y-118120000D01*
%TO.C,R11*%
X158000000Y-153130000D02*
X158000000Y-154080000D01*
X158000000Y-158870000D02*
X158000000Y-157920000D01*
X157080000Y-154080000D02*
X158920000Y-154080000D01*
X158920000Y-157920000D01*
X157080000Y-157920000D01*
X157080000Y-154080000D01*
%TD*%
M02*
