%TF.GenerationSoftware,KiCad,Pcbnew,10.0.0*%
%TF.CreationDate,2026-04-18T14:16:09-05:00*%
%TF.ProjectId,AirplanePCBLED,41697270-6c61-46e6-9550-43424c45442e,rev?*%
%TF.SameCoordinates,Original*%
%TF.FileFunction,Copper,L2,Bot*%
%TF.FilePolarity,Positive*%
%FSLAX46Y46*%
G04 Gerber Fmt 4.6, Leading zero omitted, Abs format (unit mm)*
G04 Created by KiCad (PCBNEW 10.0.0) date 2026-04-18 14:16:09*
%MOMM*%
%LPD*%
G01*
G04 APERTURE LIST*
G04 Aperture macros list*
%AMRoundRect*
0 Rectangle with rounded corners*
0 $1 Rounding radius*
0 $2 $3 $4 $5 $6 $7 $8 $9 X,Y pos of 4 corners*
0 Add a 4 corners polygon primitive as box body*
4,1,4,$2,$3,$4,$5,$6,$7,$8,$9,$2,$3,0*
0 Add four circle primitives for the rounded corners*
1,1,$1+$1,$2,$3*
1,1,$1+$1,$4,$5*
1,1,$1+$1,$6,$7*
1,1,$1+$1,$8,$9*
0 Add four rect primitives between the rounded corners*
20,1,$1+$1,$2,$3,$4,$5,0*
20,1,$1+$1,$4,$5,$6,$7,0*
20,1,$1+$1,$6,$7,$8,$9,0*
20,1,$1+$1,$8,$9,$2,$3,0*%
G04 Aperture macros list end*
%TA.AperFunction,ComponentPad*%
%ADD10C,1.400000*%
%TD*%
%TA.AperFunction,ComponentPad*%
%ADD11R,1.800000X1.800000*%
%TD*%
%TA.AperFunction,ComponentPad*%
%ADD12C,1.800000*%
%TD*%
%TA.AperFunction,ComponentPad*%
%ADD13C,2.000000*%
%TD*%
%TA.AperFunction,ComponentPad*%
%ADD14RoundRect,0.250000X0.550000X0.500000X-0.550000X0.500000X-0.550000X-0.500000X0.550000X-0.500000X0*%
%TD*%
%TA.AperFunction,ComponentPad*%
%ADD15C,1.600000*%
%TD*%
%TA.AperFunction,ComponentPad*%
%ADD16C,3.000000*%
%TD*%
%TA.AperFunction,ComponentPad*%
%ADD17RoundRect,0.250000X-0.550000X-0.550000X0.550000X-0.550000X0.550000X0.550000X-0.550000X0.550000X0*%
%TD*%
%TA.AperFunction,Conductor*%
%ADD18C,0.200000*%
%TD*%
G04 APERTURE END LIST*
D10*
%TO.P,R7,1*%
%TO.N,Net-(U2-Q3)*%
X175000000Y-120810000D03*
%TO.P,R7,2*%
%TO.N,Net-(D4-A)*%
X175000000Y-113190000D03*
%TD*%
D11*
%TO.P,D2,1,K_1*%
%TO.N,GND*%
X119460000Y-119000000D03*
D12*
%TO.P,D2,2,A_2*%
%TO.N,Net-(D2-A)*%
X122000000Y-119000000D03*
%TD*%
D10*
%TO.P,R8,1*%
%TO.N,Net-(U2-Q4)*%
X187000000Y-126810000D03*
%TO.P,R8,2*%
%TO.N,Net-(D5-A)*%
X187000000Y-119190000D03*
%TD*%
D13*
%TO.P,C1,1*%
%TO.N,Net-(U1-CONT)*%
X163000000Y-115500000D03*
%TO.P,C1,2*%
%TO.N,GND*%
X163000000Y-110500000D03*
%TD*%
D11*
%TO.P,D1,1,K_1*%
%TO.N,GND*%
X107460000Y-126000000D03*
D12*
%TO.P,D1,2,A_2*%
%TO.N,Net-(D1-A)*%
X110000000Y-126000000D03*
%TD*%
D11*
%TO.P,D8,1,K_1*%
%TO.N,GND*%
X164000000Y-160000000D03*
D12*
%TO.P,D8,2,A_2*%
%TO.N,Net-(D8-A)*%
X161460000Y-160000000D03*
%TD*%
D10*
%TO.P,R6,1*%
%TO.N,Net-(U2-Q2)*%
X147190000Y-106000000D03*
%TO.P,R6,2*%
%TO.N,Net-(D3-A)*%
X154810000Y-106000000D03*
%TD*%
D11*
%TO.P,D7,1,K_1*%
%TO.N,GND*%
X150000000Y-152000000D03*
D12*
%TO.P,D7,2,A_2*%
%TO.N,Net-(D7-A)*%
X152540000Y-152000000D03*
%TD*%
D14*
%TO.P,J1,1,VBUS_1*%
%TO.N,VCC*%
X154500000Y-91360000D03*
D15*
%TO.P,J1,2,D-_2*%
%TO.N,unconnected-(J1-D--Pad2)*%
X152000000Y-91360000D03*
%TO.P,J1,3,D+_3*%
%TO.N,unconnected-(J1-D+-Pad3)*%
X150000000Y-91360000D03*
%TO.P,J1,4,GND_4*%
%TO.N,GND*%
X147500000Y-91360000D03*
D16*
%TO.P,J1,SH,Shield_SH*%
%TO.N,unconnected-(J1-Shield-PadSH)*%
X157570000Y-88650000D03*
X144430000Y-88650000D03*
%TD*%
D17*
%TO.P,U1,1,GND_1*%
%TO.N,GND*%
X147380000Y-110460000D03*
D15*
%TO.P,U1,2,TRIG_2*%
%TO.N,Net-(U1-THRES)*%
X147380000Y-113000000D03*
%TO.P,U1,3,OUT_3*%
%TO.N,Net-(U1-OUT)*%
X147380000Y-115540000D03*
%TO.P,U1,4,~{RST}_4*%
%TO.N,VCC*%
X147380000Y-118080000D03*
%TO.P,U1,5,CONT_5*%
%TO.N,Net-(U1-CONT)*%
X155000000Y-118080000D03*
%TO.P,U1,6,THRES_6*%
%TO.N,Net-(U1-THRES)*%
X155000000Y-115540000D03*
%TO.P,U1,7,DISCH_7*%
%TO.N,Net-(U1-DISCH)*%
X155000000Y-113000000D03*
%TO.P,U1,8,VCC_8*%
%TO.N,VCC*%
X155000000Y-110460000D03*
%TD*%
D11*
%TO.P,D4,1,K_1*%
%TO.N,GND*%
X179000000Y-119000000D03*
D12*
%TO.P,D4,2,A_2*%
%TO.N,Net-(D4-A)*%
X181540000Y-119000000D03*
%TD*%
D10*
%TO.P,R4,1*%
%TO.N,Net-(U2-Q0)*%
X115000000Y-120190000D03*
%TO.P,R4,2*%
%TO.N,Net-(D1-A)*%
X115000000Y-127810000D03*
%TD*%
%TO.P,R5,1*%
%TO.N,Net-(U2-Q1)*%
X126000000Y-114190000D03*
%TO.P,R5,2*%
%TO.N,Net-(D2-A)*%
X126000000Y-121810000D03*
%TD*%
%TO.P,R10,1*%
%TO.N,Net-(U2-Q6)*%
X147380000Y-145000000D03*
%TO.P,R10,2*%
%TO.N,Net-(D7-A)*%
X155000000Y-145000000D03*
%TD*%
%TO.P,R1,1*%
%TO.N,Net-(U1-DISCH)*%
X136190000Y-108000000D03*
%TO.P,R1,2*%
%TO.N,Net-(U1-THRES)*%
X143810000Y-108000000D03*
%TD*%
D11*
%TO.P,D5,1,K_1*%
%TO.N,GND*%
X190730000Y-126000000D03*
D12*
%TO.P,D5,2,A_2*%
%TO.N,Net-(D5-A)*%
X193270000Y-126000000D03*
%TD*%
D10*
%TO.P,R2,1*%
%TO.N,VCC*%
X159380000Y-107000000D03*
%TO.P,R2,2*%
%TO.N,Net-(U1-DISCH)*%
X167000000Y-107000000D03*
%TD*%
%TO.P,R9,1*%
%TO.N,Net-(U2-Q5)*%
X142000000Y-160810000D03*
%TO.P,R9,2*%
%TO.N,Net-(D6-A)*%
X142000000Y-153190000D03*
%TD*%
D11*
%TO.P,D3,1,K_1*%
%TO.N,GND*%
X150000000Y-100000000D03*
D12*
%TO.P,D3,2,A_2*%
%TO.N,Net-(D3-A)*%
X152540000Y-100000000D03*
%TD*%
D11*
%TO.P,D6,1,K_1*%
%TO.N,GND*%
X135730000Y-161000000D03*
D12*
%TO.P,D6,2,A_2*%
%TO.N,Net-(D6-A)*%
X138270000Y-161000000D03*
%TD*%
D17*
%TO.P,U2,1,Q5_1*%
%TO.N,Net-(U2-Q5)*%
X147380000Y-123110000D03*
D15*
%TO.P,U2,2,Q1_2*%
%TO.N,Net-(U2-Q1)*%
X147380000Y-125650000D03*
%TO.P,U2,3,Q0_3*%
%TO.N,Net-(U2-Q0)*%
X147380000Y-128190000D03*
%TO.P,U2,4,Q2_4*%
%TO.N,Net-(U2-Q2)*%
X147380000Y-130730000D03*
%TO.P,U2,5,Q6_5*%
%TO.N,Net-(U2-Q6)*%
X147380000Y-133270000D03*
%TO.P,U2,6,Q7_6*%
%TO.N,Net-(U2-Q7)*%
X147380000Y-135810000D03*
%TO.P,U2,7,Q3_7*%
%TO.N,Net-(U2-Q3)*%
X147380000Y-138350000D03*
%TO.P,U2,8,VSS_8*%
%TO.N,GND*%
X147380000Y-140890000D03*
%TO.P,U2,9,Q8_9*%
%TO.N,Net-(U2-Q8)*%
X155000000Y-140890000D03*
%TO.P,U2,10,Q4_10*%
%TO.N,Net-(U2-Q4)*%
X155000000Y-138350000D03*
%TO.P,U2,11,Q9_11*%
%TO.N,unconnected-(U2-Q9-Pad11)*%
X155000000Y-135810000D03*
%TO.P,U2,12,Cout_12*%
%TO.N,unconnected-(U2-Cout-Pad12)*%
X155000000Y-133270000D03*
%TO.P,U2,13,CKEN_13*%
%TO.N,GND*%
X155000000Y-130730000D03*
%TO.P,U2,14,CLK_14*%
%TO.N,Net-(U1-OUT)*%
X155000000Y-128190000D03*
%TO.P,U2,15,Reset_15*%
%TO.N,Net-(U2-Q8)*%
X155000000Y-125650000D03*
%TO.P,U2,16,VDD_16*%
%TO.N,VCC*%
X155000000Y-123110000D03*
%TD*%
D13*
%TO.P,C2,1*%
%TO.N,Net-(U1-THRES)*%
X141000000Y-116500000D03*
%TO.P,C2,2*%
%TO.N,GND*%
X141000000Y-111500000D03*
%TD*%
D10*
%TO.P,R11,1*%
%TO.N,Net-(U2-Q7)*%
X158000000Y-159810000D03*
%TO.P,R11,2*%
%TO.N,Net-(D8-A)*%
X158000000Y-152190000D03*
%TD*%
%TO.N,Net-(U1-OUT)*%
D18*
X145000000Y-117920000D02*
X147380000Y-115540000D01*
X145000000Y-118000000D02*
X145000000Y-117920000D01*
X145799999Y-118702943D02*
X145097055Y-118000000D01*
X145800000Y-119668628D02*
X145799999Y-118702943D01*
X146400000Y-121027818D02*
X146400000Y-120268628D01*
X147382182Y-122010000D02*
X146400000Y-121027818D01*
X148164744Y-122010000D02*
X147382182Y-122010000D01*
X148480000Y-122325256D02*
X148164744Y-122010000D01*
X150372182Y-125000000D02*
X148480000Y-123107818D01*
X156000000Y-125000000D02*
X155905635Y-125000000D01*
X154544365Y-124550000D02*
X154094365Y-125000000D01*
X155455635Y-124550000D02*
X154544365Y-124550000D01*
X146400000Y-120268628D02*
X145800000Y-119668628D01*
X154094365Y-125000000D02*
X150372182Y-125000000D01*
X156200000Y-125200000D02*
X156000000Y-125000000D01*
X156200000Y-126990000D02*
X156200000Y-125200000D01*
X155905635Y-125000000D02*
X155455635Y-124550000D01*
X148480000Y-123107818D02*
X148480000Y-122325256D01*
X155000000Y-128190000D02*
X156200000Y-126990000D01*
X145097055Y-118000000D02*
X145000000Y-118000000D01*
%TO.N,Net-(U2-Q1)*%
X129610000Y-117800000D02*
X126000000Y-114190000D01*
X144931370Y-118400000D02*
X142965686Y-118400000D01*
X145400000Y-118868629D02*
X144931370Y-118400000D01*
X145400000Y-119834314D02*
X145400000Y-118868629D01*
X146000000Y-120434314D02*
X145400000Y-119834314D01*
X146000000Y-124270000D02*
X146000000Y-120434314D01*
X142365685Y-117800000D02*
X129610000Y-117800000D01*
X147380000Y-125650000D02*
X146000000Y-124270000D01*
X142965686Y-118400000D02*
X142365685Y-117800000D01*
%TO.N,Net-(U2-Q0)*%
X117810000Y-123000000D02*
X115000000Y-120190000D01*
X129000000Y-120224214D02*
X126224214Y-123000000D01*
X129000000Y-119000000D02*
X129000000Y-120224214D01*
X129800000Y-118200000D02*
X129000000Y-119000000D01*
X142200000Y-118200000D02*
X129800000Y-118200000D01*
X142800000Y-118800000D02*
X142200000Y-118200000D01*
X144765685Y-118800000D02*
X142800000Y-118800000D01*
X145000000Y-119034315D02*
X144765685Y-118800000D01*
X145000000Y-120000000D02*
X145000000Y-119034315D01*
X145600000Y-120600000D02*
X145000000Y-120000000D01*
X126224214Y-123000000D02*
X117810000Y-123000000D01*
X146319339Y-125155025D02*
X145600000Y-124435685D01*
X146280000Y-125194365D02*
X146319339Y-125155025D01*
X147000000Y-126750000D02*
X146924365Y-126750000D01*
X146924365Y-126750000D02*
X146280000Y-126105635D01*
X145600000Y-124435685D02*
X145600000Y-120600000D01*
X147000000Y-127810000D02*
X147000000Y-126750000D01*
X147380000Y-128190000D02*
X147000000Y-127810000D01*
X146280000Y-126105635D02*
X146280000Y-125194365D01*
%TO.N,Net-(U2-Q2)*%
X144395786Y-106000000D02*
X147190000Y-106000000D01*
X128831336Y-109944450D02*
X140451336Y-109944450D01*
X120975786Y-117800000D02*
X128831336Y-109944450D01*
X115975786Y-117800000D02*
X120975786Y-117800000D01*
X114000000Y-119775786D02*
X115975786Y-117800000D01*
X114000000Y-120604214D02*
X114000000Y-119775786D01*
X140451336Y-109944450D02*
X144395786Y-106000000D01*
X116795786Y-123400000D02*
X114000000Y-120604214D01*
X126389899Y-123400000D02*
X116795786Y-123400000D01*
X130589899Y-119200000D02*
X126389899Y-123400000D01*
X144600000Y-119200000D02*
X130589899Y-119200000D01*
X144600000Y-127950000D02*
X144600000Y-119200000D01*
X147380000Y-130730000D02*
X144600000Y-127950000D01*
%TO.N,Net-(U2-Q8)*%
X153900000Y-126750000D02*
X155000000Y-125650000D01*
X153900000Y-139790000D02*
X153900000Y-126750000D01*
X155000000Y-140890000D02*
X153900000Y-139790000D01*
%TO.N,Net-(U2-Q4)*%
X156600000Y-136750000D02*
X155000000Y-138350000D01*
X157566295Y-118952946D02*
X156600000Y-119919241D01*
X156600000Y-119919241D02*
X156600000Y-136750000D01*
X177414214Y-121810000D02*
X174557160Y-118952946D01*
X174557160Y-118952946D02*
X157566295Y-118952946D01*
X187000000Y-126810000D02*
X182000000Y-121810000D01*
X182000000Y-121810000D02*
X177414214Y-121810000D01*
%TO.N,Net-(U2-Q5)*%
X158810000Y-160810000D02*
X142000000Y-160810000D01*
X159000000Y-161000000D02*
X158810000Y-160810000D01*
X159000000Y-153000000D02*
X159000000Y-161000000D01*
X158802107Y-152802107D02*
X159000000Y-153000000D01*
X159000000Y-152604214D02*
X158802107Y-152802107D01*
X159000000Y-151775786D02*
X159000000Y-152604214D01*
X157585786Y-151190000D02*
X158414214Y-151190000D01*
X157387893Y-151387893D02*
X157585786Y-151190000D01*
X158414214Y-151190000D02*
X159000000Y-151775786D01*
X153000000Y-135434314D02*
X153400000Y-135834315D01*
X153000000Y-128730000D02*
X153000000Y-135434314D01*
X153400000Y-135834315D02*
X153400000Y-147400000D01*
X147380000Y-123110000D02*
X153000000Y-128730000D01*
X153400000Y-147400000D02*
X157387893Y-151387893D01*
%TO.N,Net-(U2-Q3)*%
X173542946Y-119352946D02*
X175000000Y-120810000D01*
X157000000Y-120084927D02*
X157731981Y-119352946D01*
X156492628Y-146953875D02*
X157000000Y-141372784D01*
X157000000Y-141372784D02*
X157000000Y-120084927D01*
X156400000Y-147046503D02*
X156492628Y-146953875D01*
X156400000Y-147972779D02*
X156400000Y-147046503D01*
X156379963Y-148193186D02*
X156400000Y-147972779D01*
X156400000Y-148217230D02*
X156379963Y-148193186D01*
X156400000Y-148400000D02*
X156400000Y-148217230D01*
X159000000Y-162000000D02*
X160000000Y-161000000D01*
X141000000Y-162000000D02*
X159000000Y-162000000D01*
X157731981Y-119352946D02*
X173542946Y-119352946D01*
X141000000Y-155800000D02*
X141000000Y-162000000D01*
X148480000Y-139450000D02*
X148480000Y-148320000D01*
X148480000Y-148320000D02*
X141000000Y-155800000D01*
X160000000Y-161000000D02*
X160000000Y-152000000D01*
X147380000Y-138350000D02*
X148480000Y-139450000D01*
X160000000Y-152000000D02*
X156400000Y-148400000D01*
%TO.N,Net-(U2-Q7)*%
X153000000Y-147775786D02*
X153000000Y-136000000D01*
X157000000Y-151775786D02*
X153000000Y-147775786D01*
X157000000Y-158810000D02*
X157000000Y-151775786D01*
X158000000Y-159810000D02*
X157000000Y-158810000D01*
X153000000Y-136000000D02*
X152810000Y-135810000D01*
X152810000Y-135810000D02*
X147380000Y-135810000D01*
%TO.N,Net-(U1-DISCH)*%
X164105236Y-107000000D02*
X167000000Y-107000000D01*
X155600000Y-98494764D02*
X164105236Y-107000000D01*
X155600000Y-90625256D02*
X155600000Y-98494764D01*
X155284744Y-90310000D02*
X155600000Y-90625256D01*
X153715256Y-90310000D02*
X155284744Y-90310000D01*
X153400000Y-90625256D02*
X153715256Y-90310000D01*
X153400000Y-92094744D02*
X153400000Y-90625256D01*
X137494744Y-108000000D02*
X153400000Y-92094744D01*
X136190000Y-108000000D02*
X137494744Y-108000000D01*
%TO.N,Net-(U1-THRES)*%
X143810000Y-109430000D02*
X143810000Y-108000000D01*
X147380000Y-113000000D02*
X143810000Y-109430000D01*
X144500000Y-113000000D02*
X147380000Y-113000000D01*
X141000000Y-116500000D02*
X144500000Y-113000000D01*
%TO.N,Net-(U1-DISCH)*%
X161000000Y-107000000D02*
X167000000Y-107000000D01*
X155000000Y-113000000D02*
X161000000Y-107000000D01*
%TO.N,Net-(U1-CONT)*%
X160420000Y-118080000D02*
X163000000Y-115500000D01*
X155000000Y-118080000D02*
X160420000Y-118080000D01*
%TO.N,VCC*%
X147380000Y-118080000D02*
X149970000Y-118080000D01*
X149970000Y-118080000D02*
X155000000Y-123110000D01*
X155000000Y-110460000D02*
X147380000Y-118080000D01*
X155920000Y-110460000D02*
X155000000Y-110460000D01*
X159380000Y-107000000D02*
X155920000Y-110460000D01*
X154500000Y-102120000D02*
X159380000Y-107000000D01*
X154500000Y-91360000D02*
X154500000Y-102120000D01*
%TO.N,Net-(U2-Q6)*%
X146924365Y-137250000D02*
X147000000Y-137250000D01*
X146280000Y-141345635D02*
X146280000Y-140434365D01*
X147000000Y-139450000D02*
X146924365Y-139450000D01*
X147000000Y-144620000D02*
X147000000Y-141990000D01*
X146924365Y-136910000D02*
X146280000Y-136265635D01*
X147000000Y-139790000D02*
X147000000Y-139450000D01*
X147380000Y-145000000D02*
X147000000Y-144620000D01*
X146924365Y-139790000D02*
X147000000Y-139790000D01*
X146924365Y-141990000D02*
X146280000Y-141345635D01*
X146280000Y-135354365D02*
X146924365Y-134710000D01*
X146924365Y-134710000D02*
X147000000Y-134710000D01*
X147000000Y-134710000D02*
X147000000Y-133650000D01*
X147000000Y-141990000D02*
X146924365Y-141990000D01*
X146924365Y-139450000D02*
X146280000Y-138805635D01*
X146280000Y-136265635D02*
X146280000Y-135354365D01*
X147000000Y-133650000D02*
X147380000Y-133270000D01*
X147000000Y-136910000D02*
X146924365Y-136910000D01*
X146280000Y-137894365D02*
X146924365Y-137250000D01*
X146280000Y-140434365D02*
X146924365Y-139790000D01*
X147000000Y-137250000D02*
X147000000Y-136910000D01*
X146280000Y-138805635D02*
X146280000Y-137894365D01*
%TD*%
%TA.AperFunction,Conductor*%
%TO.N,GND*%
G36*
X144705703Y-128905384D02*
G01*
X144712179Y-128911414D01*
X145406690Y-129605926D01*
X146085921Y-130285157D01*
X146119406Y-130346480D01*
X146116173Y-130411149D01*
X146111523Y-130425460D01*
X146111523Y-130425462D01*
X146079500Y-130627648D01*
X146079500Y-130832351D01*
X146111522Y-131034534D01*
X146174781Y-131229223D01*
X146267715Y-131411613D01*
X146388028Y-131577213D01*
X146532786Y-131721971D01*
X146634964Y-131796206D01*
X146698390Y-131842287D01*
X146789840Y-131888883D01*
X146791080Y-131889515D01*
X146841876Y-131937490D01*
X146858671Y-132005311D01*
X146836134Y-132071446D01*
X146791080Y-132110485D01*
X146698386Y-132157715D01*
X146532786Y-132278028D01*
X146388028Y-132422786D01*
X146267715Y-132588386D01*
X146174781Y-132770776D01*
X146111522Y-132965465D01*
X146090038Y-133101112D01*
X146079500Y-133167648D01*
X146079500Y-133372352D01*
X146083878Y-133399995D01*
X146111522Y-133574534D01*
X146174781Y-133769223D01*
X146267715Y-133951613D01*
X146375818Y-134100406D01*
X146399298Y-134166212D01*
X146399500Y-134173291D01*
X146399500Y-134334267D01*
X146379815Y-134401306D01*
X146363181Y-134421948D01*
X145799481Y-134985647D01*
X145799477Y-134985652D01*
X145753322Y-135065597D01*
X145753322Y-135065598D01*
X145720423Y-135122579D01*
X145718866Y-135128390D01*
X145679499Y-135275308D01*
X145679499Y-135275310D01*
X145679499Y-135443411D01*
X145679500Y-135443424D01*
X145679500Y-136178965D01*
X145679499Y-136178983D01*
X145679499Y-136344689D01*
X145679498Y-136344689D01*
X145679499Y-136344692D01*
X145718867Y-136491614D01*
X145720424Y-136497422D01*
X145732323Y-136518031D01*
X145732324Y-136518033D01*
X145799477Y-136634347D01*
X145799481Y-136634352D01*
X145918349Y-136753220D01*
X145918354Y-136753224D01*
X146157448Y-136992319D01*
X146190933Y-137053641D01*
X146185949Y-137123333D01*
X146157448Y-137167680D01*
X145911286Y-137413843D01*
X145799481Y-137525647D01*
X145799479Y-137525650D01*
X145749361Y-137612459D01*
X145749359Y-137612461D01*
X145720425Y-137662574D01*
X145720424Y-137662575D01*
X145720423Y-137662580D01*
X145679499Y-137815308D01*
X145679499Y-137815310D01*
X145679499Y-137983411D01*
X145679500Y-137983424D01*
X145679500Y-138718965D01*
X145679499Y-138718983D01*
X145679499Y-138884689D01*
X145679498Y-138884689D01*
X145720423Y-139037422D01*
X145727376Y-139049464D01*
X145727378Y-139049466D01*
X145799477Y-139174347D01*
X145799481Y-139174352D01*
X145918349Y-139293220D01*
X145918354Y-139293224D01*
X146157448Y-139532319D01*
X146190933Y-139593641D01*
X146185949Y-139663333D01*
X146157448Y-139707680D01*
X145911286Y-139953843D01*
X145799481Y-140065647D01*
X145799479Y-140065650D01*
X145749361Y-140152459D01*
X145749359Y-140152461D01*
X145720425Y-140202574D01*
X145720424Y-140202575D01*
X145720423Y-140202580D01*
X145679499Y-140355308D01*
X145679499Y-140355310D01*
X145679499Y-140523411D01*
X145679500Y-140523424D01*
X145679500Y-141258965D01*
X145679499Y-141258983D01*
X145679499Y-141424689D01*
X145679498Y-141424689D01*
X145720423Y-141577422D01*
X145727376Y-141589464D01*
X145727378Y-141589466D01*
X145799477Y-141714347D01*
X145799481Y-141714352D01*
X145918349Y-141833220D01*
X145918355Y-141833225D01*
X146363181Y-142278051D01*
X146396666Y-142339374D01*
X146399500Y-142365732D01*
X146399500Y-144266839D01*
X146379815Y-144333878D01*
X146375819Y-144339723D01*
X146353240Y-144370800D01*
X146353239Y-144370802D01*
X146267454Y-144539163D01*
X146209059Y-144718881D01*
X146179500Y-144905513D01*
X146179500Y-145094486D01*
X146209059Y-145281118D01*
X146267454Y-145460836D01*
X146353240Y-145629199D01*
X146464310Y-145782073D01*
X146597927Y-145915690D01*
X146750801Y-146026760D01*
X146830347Y-146067290D01*
X146919163Y-146112545D01*
X146919165Y-146112545D01*
X146919168Y-146112547D01*
X147015497Y-146143846D01*
X147098881Y-146170940D01*
X147285514Y-146200500D01*
X147285519Y-146200500D01*
X147474486Y-146200500D01*
X147564963Y-146186169D01*
X147661118Y-146170940D01*
X147661123Y-146170938D01*
X147661125Y-146170938D01*
X147691447Y-146161085D01*
X147717180Y-146152723D01*
X147787021Y-146150727D01*
X147846854Y-146186806D01*
X147877683Y-146249507D01*
X147879500Y-146270654D01*
X147879500Y-148019902D01*
X147859815Y-148086941D01*
X147843181Y-148107583D01*
X143270038Y-152680725D01*
X143208715Y-152714210D01*
X143139023Y-152709226D01*
X143083090Y-152667354D01*
X143071872Y-152649339D01*
X143026759Y-152560800D01*
X143012109Y-152540636D01*
X142915690Y-152407927D01*
X142782073Y-152274310D01*
X142629199Y-152163240D01*
X142460836Y-152077454D01*
X142281118Y-152019059D01*
X142094486Y-151989500D01*
X142094481Y-151989500D01*
X141905519Y-151989500D01*
X141905514Y-151989500D01*
X141718881Y-152019059D01*
X141539163Y-152077454D01*
X141370800Y-152163240D01*
X141356412Y-152173694D01*
X141217927Y-152274310D01*
X141217925Y-152274312D01*
X141217924Y-152274312D01*
X141084312Y-152407924D01*
X141084312Y-152407925D01*
X141084310Y-152407927D01*
X141076023Y-152419333D01*
X140973240Y-152560800D01*
X140887454Y-152729163D01*
X140829059Y-152908881D01*
X140799500Y-153095513D01*
X140799500Y-153284486D01*
X140829059Y-153471118D01*
X140887454Y-153650836D01*
X140973240Y-153819199D01*
X141084310Y-153972073D01*
X141217927Y-154105690D01*
X141370801Y-154216760D01*
X141459339Y-154261872D01*
X141510135Y-154309846D01*
X141526930Y-154377667D01*
X141504393Y-154443802D01*
X141490725Y-154460038D01*
X140631286Y-155319478D01*
X140519481Y-155431282D01*
X140519479Y-155431285D01*
X140469361Y-155518094D01*
X140469359Y-155518096D01*
X140440425Y-155568209D01*
X140440424Y-155568210D01*
X140440423Y-155568215D01*
X140399499Y-155720943D01*
X140399499Y-155720945D01*
X140399499Y-155889046D01*
X140399500Y-155889059D01*
X140399500Y-162079057D01*
X140431321Y-162197812D01*
X140440423Y-162231783D01*
X140440426Y-162231790D01*
X140519475Y-162368709D01*
X140519478Y-162368713D01*
X140519480Y-162368716D01*
X140631284Y-162480520D01*
X140631286Y-162480521D01*
X140631290Y-162480524D01*
X140768209Y-162559573D01*
X140768216Y-162559577D01*
X140920943Y-162600500D01*
X141079057Y-162600500D01*
X158913331Y-162600500D01*
X158913347Y-162600501D01*
X158920943Y-162600501D01*
X159079054Y-162600501D01*
X159079057Y-162600501D01*
X159231785Y-162559577D01*
X159281904Y-162530639D01*
X159368716Y-162480520D01*
X159480520Y-162368716D01*
X159480520Y-162368714D01*
X159490728Y-162358507D01*
X159490729Y-162358504D01*
X160480520Y-161368716D01*
X160553907Y-161241603D01*
X160604470Y-161193391D01*
X160673077Y-161180167D01*
X160721292Y-161196278D01*
X160721637Y-161195603D01*
X160922393Y-161297895D01*
X160922396Y-161297896D01*
X160973410Y-161314471D01*
X161132049Y-161366015D01*
X161349778Y-161400500D01*
X161349779Y-161400500D01*
X161570221Y-161400500D01*
X161570222Y-161400500D01*
X161787951Y-161366015D01*
X161997606Y-161297895D01*
X162194022Y-161197815D01*
X162372365Y-161068242D01*
X162422924Y-161017682D01*
X162484245Y-160984198D01*
X162553936Y-160989182D01*
X162609870Y-161031053D01*
X162626786Y-161062030D01*
X162656646Y-161142087D01*
X162656649Y-161142093D01*
X162742809Y-161257187D01*
X162742812Y-161257190D01*
X162857906Y-161343350D01*
X162857913Y-161343354D01*
X162992620Y-161393596D01*
X162992627Y-161393598D01*
X163052155Y-161399999D01*
X163052172Y-161400000D01*
X163750000Y-161400000D01*
X163750000Y-160375277D01*
X163826306Y-160419333D01*
X163940756Y-160450000D01*
X164059244Y-160450000D01*
X164173694Y-160419333D01*
X164250000Y-160375277D01*
X164250000Y-161400000D01*
X164947828Y-161400000D01*
X164947844Y-161399999D01*
X165007372Y-161393598D01*
X165007379Y-161393596D01*
X165142086Y-161343354D01*
X165142093Y-161343350D01*
X165257187Y-161257190D01*
X165257190Y-161257187D01*
X165343350Y-161142093D01*
X165343354Y-161142086D01*
X165393596Y-161007379D01*
X165393598Y-161007372D01*
X165399999Y-160947844D01*
X165400000Y-160947827D01*
X165400000Y-160250000D01*
X164375278Y-160250000D01*
X164419333Y-160173694D01*
X164450000Y-160059244D01*
X164450000Y-159940756D01*
X164419333Y-159826306D01*
X164375278Y-159750000D01*
X165400000Y-159750000D01*
X165400000Y-159052172D01*
X165399999Y-159052155D01*
X165393598Y-158992627D01*
X165393596Y-158992620D01*
X165343354Y-158857913D01*
X165343350Y-158857906D01*
X165257190Y-158742812D01*
X165257187Y-158742809D01*
X165142093Y-158656649D01*
X165142086Y-158656645D01*
X165007379Y-158606403D01*
X165007372Y-158606401D01*
X164947844Y-158600000D01*
X164250000Y-158600000D01*
X164250000Y-159624722D01*
X164173694Y-159580667D01*
X164059244Y-159550000D01*
X163940756Y-159550000D01*
X163826306Y-159580667D01*
X163750000Y-159624722D01*
X163750000Y-158600000D01*
X163052155Y-158600000D01*
X162992627Y-158606401D01*
X162992620Y-158606403D01*
X162857913Y-158656645D01*
X162857906Y-158656649D01*
X162742812Y-158742809D01*
X162742809Y-158742812D01*
X162656649Y-158857906D01*
X162656643Y-158857918D01*
X162626785Y-158937969D01*
X162584914Y-158993903D01*
X162519449Y-159018319D01*
X162451176Y-159003467D01*
X162422923Y-158982316D01*
X162372363Y-158931756D01*
X162372358Y-158931752D01*
X162194025Y-158802187D01*
X162194024Y-158802186D01*
X162194022Y-158802185D01*
X162131096Y-158770122D01*
X161997606Y-158702104D01*
X161997603Y-158702103D01*
X161787952Y-158633985D01*
X161633359Y-158609500D01*
X161570222Y-158599500D01*
X161349778Y-158599500D01*
X161286641Y-158609500D01*
X161132047Y-158633985D01*
X160922396Y-158702103D01*
X160922393Y-158702104D01*
X160780795Y-158774254D01*
X160712126Y-158787150D01*
X160647386Y-158760874D01*
X160607128Y-158703768D01*
X160600500Y-158663769D01*
X160600500Y-152607675D01*
X160620185Y-152540636D01*
X160672989Y-152494881D01*
X160742147Y-152484937D01*
X160805703Y-152513962D01*
X160812181Y-152519994D01*
X169574431Y-161282244D01*
X169597659Y-161314471D01*
X172100447Y-166320046D01*
X172112822Y-166388811D01*
X172086054Y-166453350D01*
X172028644Y-166493172D01*
X171989538Y-166499500D01*
X129886169Y-166499500D01*
X129819130Y-166479815D01*
X129773375Y-166427011D01*
X129763431Y-166357853D01*
X129769393Y-166333794D01*
X131102711Y-162600501D01*
X131919679Y-160312989D01*
X131952345Y-160263584D01*
X132181393Y-160052155D01*
X134330000Y-160052155D01*
X134330000Y-160750000D01*
X135354722Y-160750000D01*
X135310667Y-160826306D01*
X135280000Y-160940756D01*
X135280000Y-161059244D01*
X135310667Y-161173694D01*
X135354722Y-161250000D01*
X134330000Y-161250000D01*
X134330000Y-161947844D01*
X134336401Y-162007372D01*
X134336403Y-162007379D01*
X134386645Y-162142086D01*
X134386649Y-162142093D01*
X134472809Y-162257187D01*
X134472812Y-162257190D01*
X134587906Y-162343350D01*
X134587913Y-162343354D01*
X134722620Y-162393596D01*
X134722627Y-162393598D01*
X134782155Y-162399999D01*
X134782172Y-162400000D01*
X135480000Y-162400000D01*
X135480000Y-161375277D01*
X135556306Y-161419333D01*
X135670756Y-161450000D01*
X135789244Y-161450000D01*
X135903694Y-161419333D01*
X135980000Y-161375277D01*
X135980000Y-162400000D01*
X136677828Y-162400000D01*
X136677844Y-162399999D01*
X136737372Y-162393598D01*
X136737379Y-162393596D01*
X136872086Y-162343354D01*
X136872093Y-162343350D01*
X136987187Y-162257190D01*
X136987190Y-162257187D01*
X137073350Y-162142093D01*
X137073354Y-162142086D01*
X137103213Y-162062031D01*
X137145084Y-162006097D01*
X137210548Y-161981680D01*
X137278821Y-161996531D01*
X137307076Y-162017683D01*
X137357636Y-162068243D01*
X137357641Y-162068247D01*
X137513192Y-162181260D01*
X137535978Y-162197815D01*
X137652501Y-162257187D01*
X137732393Y-162297895D01*
X137732396Y-162297896D01*
X137837221Y-162331955D01*
X137942049Y-162366015D01*
X138159778Y-162400500D01*
X138159779Y-162400500D01*
X138380221Y-162400500D01*
X138380222Y-162400500D01*
X138597951Y-162366015D01*
X138807606Y-162297895D01*
X139004022Y-162197815D01*
X139182365Y-162068242D01*
X139338242Y-161912365D01*
X139467815Y-161734022D01*
X139567895Y-161537606D01*
X139636015Y-161327951D01*
X139670500Y-161110222D01*
X139670500Y-160889778D01*
X139636015Y-160672049D01*
X139601955Y-160567221D01*
X139567896Y-160462396D01*
X139567895Y-160462393D01*
X139499392Y-160327951D01*
X139467815Y-160265978D01*
X139412480Y-160189815D01*
X139338247Y-160087641D01*
X139338243Y-160087636D01*
X139182363Y-159931756D01*
X139182358Y-159931752D01*
X139004025Y-159802187D01*
X139004024Y-159802186D01*
X139004022Y-159802185D01*
X138940093Y-159769611D01*
X138807606Y-159702104D01*
X138807603Y-159702103D01*
X138597952Y-159633985D01*
X138443359Y-159609500D01*
X138380222Y-159599500D01*
X138159778Y-159599500D01*
X138096641Y-159609500D01*
X137942047Y-159633985D01*
X137732396Y-159702103D01*
X137732393Y-159702104D01*
X137535974Y-159802187D01*
X137357641Y-159931752D01*
X137357636Y-159931756D01*
X137307075Y-159982317D01*
X137245752Y-160015801D01*
X137176060Y-160010816D01*
X137120127Y-159968945D01*
X137103213Y-159937968D01*
X137073354Y-159857913D01*
X137073350Y-159857906D01*
X136987190Y-159742812D01*
X136987187Y-159742809D01*
X136872093Y-159656649D01*
X136872086Y-159656645D01*
X136737379Y-159606403D01*
X136737372Y-159606401D01*
X136677844Y-159600000D01*
X135980000Y-159600000D01*
X135980000Y-160624722D01*
X135903694Y-160580667D01*
X135789244Y-160550000D01*
X135670756Y-160550000D01*
X135556306Y-160580667D01*
X135480000Y-160624722D01*
X135480000Y-159600000D01*
X134782155Y-159600000D01*
X134722627Y-159606401D01*
X134722620Y-159606403D01*
X134587913Y-159656645D01*
X134587906Y-159656649D01*
X134472812Y-159742809D01*
X134472809Y-159742812D01*
X134386649Y-159857906D01*
X134386645Y-159857913D01*
X134336403Y-159992620D01*
X134336401Y-159992627D01*
X134330000Y-160052155D01*
X132181393Y-160052155D01*
X144823953Y-148382101D01*
X144859290Y-148354617D01*
X144872192Y-148337572D01*
X144887897Y-148323076D01*
X144909013Y-148289658D01*
X144914966Y-148281065D01*
X144923500Y-148269792D01*
X144938829Y-148249543D01*
X144946880Y-148229739D01*
X144958298Y-148211672D01*
X144971603Y-148168929D01*
X144988462Y-148127463D01*
X144989743Y-148117207D01*
X144994390Y-148095724D01*
X144997467Y-148085844D01*
X144999047Y-148046329D01*
X144999906Y-148035907D01*
X145003448Y-148007571D01*
X145488602Y-144126339D01*
X145489025Y-144125287D01*
X145496773Y-144060973D01*
X145504808Y-143996696D01*
X145504807Y-143996692D01*
X145504811Y-143996664D01*
X145504803Y-143995857D01*
X145504799Y-143995369D01*
X145504793Y-143994484D01*
X145495669Y-143930621D01*
X145495592Y-143930072D01*
X145486752Y-143866154D01*
X145486751Y-143866153D01*
X145486038Y-143860993D01*
X145485031Y-143856158D01*
X145483762Y-143847277D01*
X144501746Y-136973154D01*
X144500500Y-136955618D01*
X144500500Y-128999097D01*
X144520185Y-128932058D01*
X144572989Y-128886303D01*
X144642147Y-128876359D01*
X144705703Y-128905384D01*
G37*
%TD.AperFunction*%
%TA.AperFunction,Conductor*%
G36*
X152342539Y-136430185D02*
G01*
X152388294Y-136482989D01*
X152399500Y-136534500D01*
X152399500Y-147689116D01*
X152399499Y-147689134D01*
X152399499Y-147854840D01*
X152399498Y-147854840D01*
X152399499Y-147854843D01*
X152440423Y-148007571D01*
X152440424Y-148007573D01*
X152440423Y-148007573D01*
X152447777Y-148020309D01*
X152447778Y-148020310D01*
X152519477Y-148144498D01*
X152519481Y-148144503D01*
X152638349Y-148263371D01*
X152638355Y-148263376D01*
X156363181Y-151988202D01*
X156396666Y-152049525D01*
X156399500Y-152075883D01*
X156399500Y-158723330D01*
X156399499Y-158723348D01*
X156399499Y-158889054D01*
X156399498Y-158889054D01*
X156440423Y-159041787D01*
X156448802Y-159056298D01*
X156448801Y-159056298D01*
X156448803Y-159056300D01*
X156519475Y-159178709D01*
X156519481Y-159178717D01*
X156638349Y-159297585D01*
X156638355Y-159297590D01*
X156789933Y-159449168D01*
X156823418Y-159510491D01*
X156824725Y-159556247D01*
X156799500Y-159715513D01*
X156799500Y-159904486D01*
X156825098Y-160066102D01*
X156816144Y-160135395D01*
X156771148Y-160188847D01*
X156704396Y-160209487D01*
X156702625Y-160209500D01*
X143110792Y-160209500D01*
X143043753Y-160189815D01*
X143010474Y-160158386D01*
X142993770Y-160135395D01*
X142915690Y-160027927D01*
X142782073Y-159894310D01*
X142629199Y-159783240D01*
X142621806Y-159779473D01*
X142460836Y-159697454D01*
X142281118Y-159639059D01*
X142094486Y-159609500D01*
X142094481Y-159609500D01*
X141905519Y-159609500D01*
X141905514Y-159609500D01*
X141743898Y-159635097D01*
X141674604Y-159626142D01*
X141621152Y-159581146D01*
X141600513Y-159514394D01*
X141600500Y-159512624D01*
X141600500Y-156100096D01*
X141620185Y-156033057D01*
X141636814Y-156012420D01*
X146597078Y-151052155D01*
X148600000Y-151052155D01*
X148600000Y-151750000D01*
X149624722Y-151750000D01*
X149580667Y-151826306D01*
X149550000Y-151940756D01*
X149550000Y-152059244D01*
X149580667Y-152173694D01*
X149624722Y-152250000D01*
X148600000Y-152250000D01*
X148600000Y-152947844D01*
X148606401Y-153007372D01*
X148606403Y-153007379D01*
X148656645Y-153142086D01*
X148656649Y-153142093D01*
X148742809Y-153257187D01*
X148742812Y-153257190D01*
X148857906Y-153343350D01*
X148857913Y-153343354D01*
X148992620Y-153393596D01*
X148992627Y-153393598D01*
X149052155Y-153399999D01*
X149052172Y-153400000D01*
X149750000Y-153400000D01*
X149750000Y-152375277D01*
X149826306Y-152419333D01*
X149940756Y-152450000D01*
X150059244Y-152450000D01*
X150173694Y-152419333D01*
X150250000Y-152375277D01*
X150250000Y-153400000D01*
X150947828Y-153400000D01*
X150947844Y-153399999D01*
X151007372Y-153393598D01*
X151007379Y-153393596D01*
X151142086Y-153343354D01*
X151142093Y-153343350D01*
X151257187Y-153257190D01*
X151257190Y-153257187D01*
X151343350Y-153142093D01*
X151343354Y-153142086D01*
X151373213Y-153062031D01*
X151415084Y-153006097D01*
X151480548Y-152981680D01*
X151548821Y-152996531D01*
X151577076Y-153017683D01*
X151627636Y-153068243D01*
X151627641Y-153068247D01*
X151783192Y-153181260D01*
X151805978Y-153197815D01*
X151922501Y-153257187D01*
X152002393Y-153297895D01*
X152002396Y-153297896D01*
X152107221Y-153331955D01*
X152212049Y-153366015D01*
X152429778Y-153400500D01*
X152429779Y-153400500D01*
X152650221Y-153400500D01*
X152650222Y-153400500D01*
X152867951Y-153366015D01*
X153077606Y-153297895D01*
X153274022Y-153197815D01*
X153452365Y-153068242D01*
X153608242Y-152912365D01*
X153737815Y-152734022D01*
X153837895Y-152537606D01*
X153906015Y-152327951D01*
X153940500Y-152110222D01*
X153940500Y-151889778D01*
X153906015Y-151672049D01*
X153871955Y-151567221D01*
X153837896Y-151462396D01*
X153837895Y-151462393D01*
X153803237Y-151394375D01*
X153737815Y-151265978D01*
X153721260Y-151243192D01*
X153608247Y-151087641D01*
X153608243Y-151087636D01*
X153452363Y-150931756D01*
X153452358Y-150931752D01*
X153274025Y-150802187D01*
X153274024Y-150802186D01*
X153274022Y-150802185D01*
X153211096Y-150770122D01*
X153077606Y-150702104D01*
X153077603Y-150702103D01*
X152867952Y-150633985D01*
X152759086Y-150616742D01*
X152650222Y-150599500D01*
X152429778Y-150599500D01*
X152357201Y-150610995D01*
X152212047Y-150633985D01*
X152002396Y-150702103D01*
X152002393Y-150702104D01*
X151805974Y-150802187D01*
X151627641Y-150931752D01*
X151627636Y-150931756D01*
X151577075Y-150982317D01*
X151515752Y-151015801D01*
X151446060Y-151010816D01*
X151390127Y-150968945D01*
X151373213Y-150937968D01*
X151343354Y-150857913D01*
X151343350Y-150857906D01*
X151257190Y-150742812D01*
X151257187Y-150742809D01*
X151142093Y-150656649D01*
X151142086Y-150656645D01*
X151007379Y-150606403D01*
X151007372Y-150606401D01*
X150947844Y-150600000D01*
X150250000Y-150600000D01*
X150250000Y-151624722D01*
X150173694Y-151580667D01*
X150059244Y-151550000D01*
X149940756Y-151550000D01*
X149826306Y-151580667D01*
X149750000Y-151624722D01*
X149750000Y-150600000D01*
X149052155Y-150600000D01*
X148992627Y-150606401D01*
X148992620Y-150606403D01*
X148857913Y-150656645D01*
X148857906Y-150656649D01*
X148742812Y-150742809D01*
X148742809Y-150742812D01*
X148656649Y-150857906D01*
X148656645Y-150857913D01*
X148606403Y-150992620D01*
X148606401Y-150992627D01*
X148600000Y-151052155D01*
X146597078Y-151052155D01*
X148838506Y-148810727D01*
X148838511Y-148810724D01*
X148848714Y-148800520D01*
X148848716Y-148800520D01*
X148960520Y-148688716D01*
X149039577Y-148551784D01*
X149080500Y-148399057D01*
X149080500Y-139539059D01*
X149080501Y-139539046D01*
X149080501Y-139370945D01*
X149080501Y-139370943D01*
X149039577Y-139218215D01*
X149010639Y-139168095D01*
X148960520Y-139081284D01*
X148848716Y-138969480D01*
X148848715Y-138969479D01*
X148844385Y-138965149D01*
X148844374Y-138965139D01*
X148674077Y-138794842D01*
X148640592Y-138733519D01*
X148643828Y-138668841D01*
X148648477Y-138654534D01*
X148680500Y-138452352D01*
X148680500Y-138247648D01*
X148648477Y-138045466D01*
X148625069Y-137973425D01*
X148585218Y-137850776D01*
X148551503Y-137784607D01*
X148492287Y-137668390D01*
X148451651Y-137612459D01*
X148371971Y-137502786D01*
X148227213Y-137358028D01*
X148061614Y-137237715D01*
X148055006Y-137234348D01*
X147968917Y-137190483D01*
X147918123Y-137142511D01*
X147901328Y-137074690D01*
X147923865Y-137008555D01*
X147968917Y-136969516D01*
X148061610Y-136922287D01*
X148082770Y-136906913D01*
X148227213Y-136801971D01*
X148227215Y-136801968D01*
X148227219Y-136801966D01*
X148371966Y-136657219D01*
X148371968Y-136657215D01*
X148371971Y-136657213D01*
X148492284Y-136491614D01*
X148492283Y-136491614D01*
X148492287Y-136491610D01*
X148499117Y-136478204D01*
X148547091Y-136427409D01*
X148609602Y-136410500D01*
X152275500Y-136410500D01*
X152342539Y-136430185D01*
G37*
%TD.AperFunction*%
%TA.AperFunction,Conductor*%
G36*
X168385830Y-106775526D02*
G01*
X186819836Y-117767254D01*
X186838155Y-117778177D01*
X186885654Y-117829418D01*
X186897910Y-117898204D01*
X186871032Y-117962697D01*
X186813553Y-118002420D01*
X186794049Y-118007154D01*
X186718880Y-118019060D01*
X186539163Y-118077454D01*
X186370800Y-118163240D01*
X186344044Y-118182680D01*
X186217927Y-118274310D01*
X186217925Y-118274312D01*
X186217924Y-118274312D01*
X186084312Y-118407924D01*
X186084312Y-118407925D01*
X186084310Y-118407927D01*
X186073864Y-118422305D01*
X185973240Y-118560800D01*
X185887454Y-118729163D01*
X185829059Y-118908881D01*
X185799500Y-119095513D01*
X185799500Y-119284486D01*
X185829059Y-119471118D01*
X185887454Y-119650836D01*
X185957397Y-119788106D01*
X185973240Y-119819199D01*
X186084310Y-119972073D01*
X186217927Y-120105690D01*
X186370801Y-120216760D01*
X186450144Y-120257187D01*
X186539163Y-120302545D01*
X186539165Y-120302545D01*
X186539168Y-120302547D01*
X186635497Y-120333846D01*
X186718881Y-120360940D01*
X186905514Y-120390500D01*
X186905519Y-120390500D01*
X187094486Y-120390500D01*
X187281118Y-120360940D01*
X187460832Y-120302547D01*
X187629199Y-120216760D01*
X187782073Y-120105690D01*
X187915690Y-119972073D01*
X188026760Y-119819199D01*
X188112547Y-119650832D01*
X188170940Y-119471118D01*
X188176071Y-119438721D01*
X188200500Y-119284486D01*
X188200500Y-119095513D01*
X188170940Y-118908881D01*
X188145727Y-118831286D01*
X188137493Y-118805946D01*
X188135498Y-118736108D01*
X188171578Y-118676275D01*
X188234279Y-118645446D01*
X188303693Y-118653410D01*
X188318930Y-118661126D01*
X190593985Y-120017683D01*
X195634670Y-123023315D01*
X195637213Y-123025858D01*
X195691396Y-123057140D01*
X195692150Y-123057590D01*
X195692193Y-123057615D01*
X195712029Y-123069442D01*
X195744802Y-123088984D01*
X195744810Y-123088986D01*
X195745022Y-123089078D01*
X195745643Y-123089390D01*
X195747459Y-123090142D01*
X195747460Y-123090142D01*
X195751067Y-123091636D01*
X195751068Y-123091637D01*
X195751071Y-123091638D01*
X195751339Y-123091749D01*
X195751341Y-123091749D01*
X195751342Y-123091750D01*
X195810977Y-123107728D01*
X195812445Y-123108133D01*
X195848342Y-123118296D01*
X195871595Y-123124879D01*
X195871596Y-123124879D01*
X195871603Y-123124881D01*
X195871609Y-123124881D01*
X195871853Y-123124917D01*
X195871889Y-123124922D01*
X195875937Y-123125513D01*
X195875948Y-123125515D01*
X195877740Y-123125776D01*
X195878382Y-123125823D01*
X195878632Y-123125855D01*
X195878636Y-123125857D01*
X195939239Y-123125857D01*
X195949798Y-123126306D01*
X196133149Y-123141978D01*
X196153956Y-123145562D01*
X196283898Y-123179547D01*
X196326848Y-123190781D01*
X196346752Y-123197846D01*
X196378687Y-123212351D01*
X196509463Y-123271751D01*
X196527875Y-123282088D01*
X196675687Y-123382539D01*
X196692072Y-123395848D01*
X196820688Y-123519924D01*
X196834585Y-123535830D01*
X196940272Y-123679929D01*
X196951268Y-123697962D01*
X197030970Y-123857912D01*
X197038746Y-123877551D01*
X197089377Y-124046150D01*
X197093121Y-124062619D01*
X197338816Y-125630787D01*
X198349332Y-132080511D01*
X198340261Y-132149790D01*
X198295176Y-132203167D01*
X198228390Y-132223695D01*
X198189348Y-132217906D01*
X160272988Y-120195647D01*
X160215033Y-120156620D01*
X160187378Y-120092457D01*
X160198802Y-120023528D01*
X160245679Y-119971717D01*
X160310466Y-119953446D01*
X173242849Y-119953446D01*
X173309888Y-119973131D01*
X173330530Y-119989765D01*
X173789933Y-120449168D01*
X173823418Y-120510491D01*
X173824725Y-120556247D01*
X173799500Y-120715513D01*
X173799500Y-120904486D01*
X173829059Y-121091118D01*
X173887454Y-121270836D01*
X173958894Y-121411044D01*
X173973240Y-121439199D01*
X174084310Y-121592073D01*
X174217927Y-121725690D01*
X174370801Y-121836760D01*
X174450347Y-121877290D01*
X174539163Y-121922545D01*
X174539165Y-121922545D01*
X174539168Y-121922547D01*
X174635497Y-121953846D01*
X174718881Y-121980940D01*
X174905514Y-122010500D01*
X174905519Y-122010500D01*
X175094486Y-122010500D01*
X175281118Y-121980940D01*
X175460832Y-121922547D01*
X175629199Y-121836760D01*
X175782073Y-121725690D01*
X175915690Y-121592073D01*
X176011874Y-121459687D01*
X176067201Y-121417023D01*
X176136815Y-121411044D01*
X176198610Y-121443649D01*
X176199871Y-121444893D01*
X177045498Y-122290520D01*
X177045500Y-122290521D01*
X177045504Y-122290524D01*
X177171352Y-122363181D01*
X177182430Y-122369577D01*
X177335157Y-122410501D01*
X177335159Y-122410501D01*
X177500868Y-122410501D01*
X177500884Y-122410500D01*
X181699903Y-122410500D01*
X181766942Y-122430185D01*
X181787584Y-122446819D01*
X185789933Y-126449168D01*
X185823418Y-126510491D01*
X185824725Y-126556247D01*
X185799500Y-126715513D01*
X185799500Y-126904486D01*
X185829059Y-127091118D01*
X185887454Y-127270836D01*
X185953267Y-127400000D01*
X185973240Y-127439199D01*
X186084310Y-127592073D01*
X186217927Y-127725690D01*
X186370801Y-127836760D01*
X186450347Y-127877290D01*
X186539163Y-127922545D01*
X186539165Y-127922545D01*
X186539168Y-127922547D01*
X186617325Y-127947942D01*
X186718881Y-127980940D01*
X186905514Y-128010500D01*
X186905519Y-128010500D01*
X187094486Y-128010500D01*
X187281118Y-127980940D01*
X187300581Y-127974616D01*
X187460832Y-127922547D01*
X187629199Y-127836760D01*
X187782073Y-127725690D01*
X187915690Y-127592073D01*
X188026760Y-127439199D01*
X188112547Y-127270832D01*
X188170940Y-127091118D01*
X188180543Y-127030485D01*
X188200500Y-126904486D01*
X188200500Y-126715513D01*
X188170940Y-126528881D01*
X188122982Y-126381284D01*
X188112547Y-126349168D01*
X188112545Y-126349165D01*
X188112545Y-126349163D01*
X188064532Y-126254933D01*
X188026760Y-126180801D01*
X187915690Y-126027927D01*
X187782073Y-125894310D01*
X187629199Y-125783240D01*
X187563962Y-125750000D01*
X187460836Y-125697454D01*
X187281118Y-125639059D01*
X187094486Y-125609500D01*
X187094481Y-125609500D01*
X186905519Y-125609500D01*
X186905514Y-125609500D01*
X186746247Y-125634725D01*
X186676953Y-125625770D01*
X186639168Y-125599933D01*
X186091390Y-125052155D01*
X189330000Y-125052155D01*
X189330000Y-125750000D01*
X190354722Y-125750000D01*
X190310667Y-125826306D01*
X190280000Y-125940756D01*
X190280000Y-126059244D01*
X190310667Y-126173694D01*
X190354722Y-126250000D01*
X189330000Y-126250000D01*
X189330000Y-126947844D01*
X189336401Y-127007372D01*
X189336403Y-127007379D01*
X189386645Y-127142086D01*
X189386649Y-127142093D01*
X189472809Y-127257187D01*
X189472812Y-127257190D01*
X189587906Y-127343350D01*
X189587913Y-127343354D01*
X189722620Y-127393596D01*
X189722627Y-127393598D01*
X189782155Y-127399999D01*
X189782172Y-127400000D01*
X190480000Y-127400000D01*
X190480000Y-126375277D01*
X190556306Y-126419333D01*
X190670756Y-126450000D01*
X190789244Y-126450000D01*
X190903694Y-126419333D01*
X190980000Y-126375277D01*
X190980000Y-127400000D01*
X191677828Y-127400000D01*
X191677844Y-127399999D01*
X191737372Y-127393598D01*
X191737379Y-127393596D01*
X191872086Y-127343354D01*
X191872093Y-127343350D01*
X191987187Y-127257190D01*
X191987190Y-127257187D01*
X192073350Y-127142093D01*
X192073354Y-127142086D01*
X192103213Y-127062031D01*
X192145084Y-127006097D01*
X192210548Y-126981680D01*
X192278821Y-126996531D01*
X192307076Y-127017683D01*
X192357636Y-127068243D01*
X192357641Y-127068247D01*
X192512559Y-127180800D01*
X192535978Y-127197815D01*
X192652501Y-127257187D01*
X192732393Y-127297895D01*
X192732396Y-127297896D01*
X192835252Y-127331315D01*
X192942049Y-127366015D01*
X193159778Y-127400500D01*
X193159779Y-127400500D01*
X193380221Y-127400500D01*
X193380222Y-127400500D01*
X193597951Y-127366015D01*
X193807606Y-127297895D01*
X194004022Y-127197815D01*
X194182365Y-127068242D01*
X194338242Y-126912365D01*
X194467815Y-126734022D01*
X194567895Y-126537606D01*
X194636015Y-126327951D01*
X194670500Y-126110222D01*
X194670500Y-125889778D01*
X194636015Y-125672049D01*
X194599315Y-125559097D01*
X194567896Y-125462396D01*
X194567895Y-125462393D01*
X194517975Y-125364421D01*
X194467815Y-125265978D01*
X194398836Y-125171036D01*
X194338247Y-125087641D01*
X194338243Y-125087636D01*
X194182363Y-124931756D01*
X194182358Y-124931752D01*
X194004025Y-124802187D01*
X194004024Y-124802186D01*
X194004022Y-124802185D01*
X193941096Y-124770122D01*
X193807606Y-124702104D01*
X193807603Y-124702103D01*
X193597952Y-124633985D01*
X193489086Y-124616742D01*
X193380222Y-124599500D01*
X193159778Y-124599500D01*
X193087201Y-124610995D01*
X192942047Y-124633985D01*
X192732396Y-124702103D01*
X192732393Y-124702104D01*
X192535974Y-124802187D01*
X192357641Y-124931752D01*
X192357636Y-124931756D01*
X192307075Y-124982317D01*
X192245752Y-125015801D01*
X192176060Y-125010816D01*
X192120127Y-124968945D01*
X192103213Y-124937968D01*
X192073354Y-124857913D01*
X192073350Y-124857906D01*
X191987190Y-124742812D01*
X191987187Y-124742809D01*
X191872093Y-124656649D01*
X191872086Y-124656645D01*
X191737379Y-124606403D01*
X191737372Y-124606401D01*
X191677844Y-124600000D01*
X190980000Y-124600000D01*
X190980000Y-125624722D01*
X190903694Y-125580667D01*
X190789244Y-125550000D01*
X190670756Y-125550000D01*
X190556306Y-125580667D01*
X190480000Y-125624722D01*
X190480000Y-124600000D01*
X189782155Y-124600000D01*
X189722627Y-124606401D01*
X189722620Y-124606403D01*
X189587913Y-124656645D01*
X189587906Y-124656649D01*
X189472812Y-124742809D01*
X189472809Y-124742812D01*
X189386649Y-124857906D01*
X189386645Y-124857913D01*
X189336403Y-124992620D01*
X189336401Y-124992627D01*
X189330000Y-125052155D01*
X186091390Y-125052155D01*
X182487590Y-121448355D01*
X182487588Y-121448352D01*
X182368717Y-121329481D01*
X182368716Y-121329480D01*
X182261948Y-121267838D01*
X182261947Y-121267837D01*
X182231783Y-121250422D01*
X182175881Y-121235443D01*
X182079057Y-121209499D01*
X181920943Y-121209499D01*
X181913347Y-121209499D01*
X181913331Y-121209500D01*
X177714312Y-121209500D01*
X177647273Y-121189815D01*
X177626631Y-121173181D01*
X176710637Y-120257187D01*
X175044749Y-118591300D01*
X175044748Y-118591298D01*
X174925877Y-118472427D01*
X174925876Y-118472426D01*
X174839064Y-118422306D01*
X174839064Y-118422305D01*
X174839060Y-118422304D01*
X174788945Y-118393369D01*
X174636217Y-118352445D01*
X174478103Y-118352445D01*
X174470507Y-118352445D01*
X174470491Y-118352446D01*
X161296151Y-118352446D01*
X161229112Y-118332761D01*
X161183357Y-118279957D01*
X161173413Y-118210799D01*
X161202438Y-118147243D01*
X161208470Y-118140765D01*
X161297080Y-118052155D01*
X177600000Y-118052155D01*
X177600000Y-118750000D01*
X178624722Y-118750000D01*
X178580667Y-118826306D01*
X178550000Y-118940756D01*
X178550000Y-119059244D01*
X178580667Y-119173694D01*
X178624722Y-119250000D01*
X177600000Y-119250000D01*
X177600000Y-119947844D01*
X177606401Y-120007372D01*
X177606403Y-120007379D01*
X177656645Y-120142086D01*
X177656649Y-120142093D01*
X177742809Y-120257187D01*
X177742812Y-120257190D01*
X177857906Y-120343350D01*
X177857913Y-120343354D01*
X177992620Y-120393596D01*
X177992627Y-120393598D01*
X178052155Y-120399999D01*
X178052172Y-120400000D01*
X178750000Y-120400000D01*
X178750000Y-119375277D01*
X178826306Y-119419333D01*
X178940756Y-119450000D01*
X179059244Y-119450000D01*
X179173694Y-119419333D01*
X179250000Y-119375277D01*
X179250000Y-120400000D01*
X179947828Y-120400000D01*
X179947844Y-120399999D01*
X180007372Y-120393598D01*
X180007379Y-120393596D01*
X180142086Y-120343354D01*
X180142093Y-120343350D01*
X180257187Y-120257190D01*
X180257190Y-120257187D01*
X180343350Y-120142093D01*
X180343354Y-120142086D01*
X180373213Y-120062031D01*
X180415084Y-120006097D01*
X180480548Y-119981680D01*
X180548821Y-119996531D01*
X180577076Y-120017683D01*
X180627636Y-120068243D01*
X180627641Y-120068247D01*
X180783192Y-120181260D01*
X180805978Y-120197815D01*
X180922501Y-120257187D01*
X181002393Y-120297895D01*
X181002396Y-120297896D01*
X181107221Y-120331955D01*
X181212049Y-120366015D01*
X181429778Y-120400500D01*
X181429779Y-120400500D01*
X181650221Y-120400500D01*
X181650222Y-120400500D01*
X181867951Y-120366015D01*
X182077606Y-120297895D01*
X182274022Y-120197815D01*
X182452365Y-120068242D01*
X182608242Y-119912365D01*
X182737815Y-119734022D01*
X182837895Y-119537606D01*
X182906015Y-119327951D01*
X182940500Y-119110222D01*
X182940500Y-118889778D01*
X182906015Y-118672049D01*
X182869869Y-118560800D01*
X182837896Y-118462396D01*
X182837895Y-118462393D01*
X182781873Y-118352446D01*
X182737815Y-118265978D01*
X182663172Y-118163240D01*
X182608247Y-118087641D01*
X182608243Y-118087636D01*
X182452363Y-117931756D01*
X182452358Y-117931752D01*
X182274025Y-117802187D01*
X182274024Y-117802186D01*
X182274022Y-117802185D01*
X182197473Y-117763181D01*
X182077606Y-117702104D01*
X182077603Y-117702103D01*
X181867952Y-117633985D01*
X181713296Y-117609490D01*
X181650222Y-117599500D01*
X181429778Y-117599500D01*
X181366704Y-117609490D01*
X181212047Y-117633985D01*
X181002396Y-117702103D01*
X181002393Y-117702104D01*
X180805974Y-117802187D01*
X180627641Y-117931752D01*
X180627636Y-117931756D01*
X180577075Y-117982317D01*
X180515752Y-118015801D01*
X180446060Y-118010816D01*
X180390127Y-117968945D01*
X180373213Y-117937968D01*
X180343354Y-117857913D01*
X180343350Y-117857906D01*
X180257190Y-117742812D01*
X180257187Y-117742809D01*
X180142093Y-117656649D01*
X180142086Y-117656645D01*
X180007379Y-117606403D01*
X180007372Y-117606401D01*
X179947844Y-117600000D01*
X179250000Y-117600000D01*
X179250000Y-118624722D01*
X179173694Y-118580667D01*
X179059244Y-118550000D01*
X178940756Y-118550000D01*
X178826306Y-118580667D01*
X178750000Y-118624722D01*
X178750000Y-117600000D01*
X178052155Y-117600000D01*
X177992627Y-117606401D01*
X177992620Y-117606403D01*
X177857913Y-117656645D01*
X177857906Y-117656649D01*
X177742812Y-117742809D01*
X177742809Y-117742812D01*
X177656649Y-117857906D01*
X177656645Y-117857913D01*
X177606403Y-117992620D01*
X177606401Y-117992627D01*
X177600000Y-118052155D01*
X161297080Y-118052155D01*
X161388065Y-117961170D01*
X161637951Y-117711284D01*
X162396437Y-116952796D01*
X162457758Y-116919313D01*
X162522433Y-116922547D01*
X162648632Y-116963553D01*
X162736110Y-116977408D01*
X162881903Y-117000500D01*
X162881908Y-117000500D01*
X163118097Y-117000500D01*
X163351368Y-116963553D01*
X163384468Y-116952798D01*
X163575992Y-116890568D01*
X163786433Y-116783343D01*
X163977510Y-116644517D01*
X164144517Y-116477510D01*
X164283343Y-116286433D01*
X164390568Y-116075992D01*
X164463553Y-115851368D01*
X164464635Y-115844534D01*
X164500500Y-115618097D01*
X164500500Y-115381902D01*
X164463553Y-115148631D01*
X164406186Y-114972075D01*
X164390568Y-114924008D01*
X164390566Y-114924005D01*
X164390566Y-114924003D01*
X164283342Y-114713566D01*
X164144517Y-114522490D01*
X163977510Y-114355483D01*
X163786433Y-114216657D01*
X163750906Y-114198555D01*
X163575996Y-114109433D01*
X163351368Y-114036446D01*
X163118097Y-113999500D01*
X163118092Y-113999500D01*
X162881908Y-113999500D01*
X162881903Y-113999500D01*
X162648631Y-114036446D01*
X162424003Y-114109433D01*
X162213566Y-114216657D01*
X162120209Y-114284486D01*
X162022490Y-114355483D01*
X162022488Y-114355485D01*
X162022487Y-114355485D01*
X161855485Y-114522487D01*
X161855485Y-114522488D01*
X161855483Y-114522490D01*
X161834892Y-114550831D01*
X161716657Y-114713566D01*
X161609433Y-114924003D01*
X161536446Y-115148631D01*
X161499500Y-115381902D01*
X161499500Y-115618097D01*
X161536447Y-115851369D01*
X161536447Y-115851372D01*
X161577450Y-115977564D01*
X161579445Y-116047405D01*
X161547200Y-116103563D01*
X160207584Y-117443181D01*
X160146261Y-117476666D01*
X160119903Y-117479500D01*
X156229602Y-117479500D01*
X156162563Y-117459815D01*
X156119117Y-117411795D01*
X156112287Y-117398390D01*
X156112285Y-117398387D01*
X156112284Y-117398385D01*
X155991971Y-117232786D01*
X155847213Y-117088028D01*
X155681614Y-116967715D01*
X155673446Y-116963553D01*
X155588917Y-116920483D01*
X155538123Y-116872511D01*
X155521328Y-116804690D01*
X155543865Y-116738555D01*
X155588917Y-116699516D01*
X155681610Y-116652287D01*
X155728676Y-116618092D01*
X155847213Y-116531971D01*
X155847215Y-116531968D01*
X155847219Y-116531966D01*
X155991966Y-116387219D01*
X155991968Y-116387215D01*
X155991971Y-116387213D01*
X156044732Y-116314590D01*
X156112287Y-116221610D01*
X156205220Y-116039219D01*
X156268477Y-115844534D01*
X156300500Y-115642352D01*
X156300500Y-115437648D01*
X156268477Y-115235465D01*
X156224764Y-115100932D01*
X156205220Y-115040781D01*
X156205218Y-115040778D01*
X156205218Y-115040776D01*
X156145721Y-114924008D01*
X156112287Y-114858390D01*
X156097664Y-114838263D01*
X155991971Y-114692786D01*
X155847213Y-114548028D01*
X155681614Y-114427715D01*
X155608575Y-114390500D01*
X155588917Y-114380483D01*
X155538123Y-114332511D01*
X155521328Y-114264690D01*
X155543865Y-114198555D01*
X155588917Y-114159516D01*
X155681610Y-114112287D01*
X155785996Y-114036447D01*
X155847213Y-113991971D01*
X155847215Y-113991968D01*
X155847219Y-113991966D01*
X155991966Y-113847219D01*
X155991968Y-113847215D01*
X155991971Y-113847213D01*
X156077738Y-113729163D01*
X156112287Y-113681610D01*
X156205220Y-113499219D01*
X156268477Y-113304534D01*
X156300500Y-113102352D01*
X156300500Y-113095513D01*
X173799500Y-113095513D01*
X173799500Y-113284486D01*
X173829059Y-113471118D01*
X173887454Y-113650836D01*
X173927367Y-113729168D01*
X173973240Y-113819199D01*
X174084310Y-113972073D01*
X174217927Y-114105690D01*
X174370801Y-114216760D01*
X174450347Y-114257290D01*
X174539163Y-114302545D01*
X174539165Y-114302545D01*
X174539168Y-114302547D01*
X174631387Y-114332511D01*
X174718881Y-114360940D01*
X174905514Y-114390500D01*
X174905519Y-114390500D01*
X175094486Y-114390500D01*
X175281118Y-114360940D01*
X175460832Y-114302547D01*
X175629199Y-114216760D01*
X175782073Y-114105690D01*
X175915690Y-113972073D01*
X176026760Y-113819199D01*
X176112547Y-113650832D01*
X176170940Y-113471118D01*
X176200500Y-113284486D01*
X176200500Y-113095513D01*
X176170940Y-112908881D01*
X176131129Y-112786358D01*
X176112547Y-112729168D01*
X176112545Y-112729165D01*
X176112545Y-112729163D01*
X176062673Y-112631284D01*
X176026760Y-112560801D01*
X175915690Y-112407927D01*
X175782073Y-112274310D01*
X175629199Y-112163240D01*
X175608672Y-112152781D01*
X175460836Y-112077454D01*
X175281118Y-112019059D01*
X175094486Y-111989500D01*
X175094481Y-111989500D01*
X174905519Y-111989500D01*
X174905514Y-111989500D01*
X174718881Y-112019059D01*
X174539163Y-112077454D01*
X174370800Y-112163240D01*
X174283579Y-112226610D01*
X174217927Y-112274310D01*
X174217925Y-112274312D01*
X174217924Y-112274312D01*
X174084312Y-112407924D01*
X174084312Y-112407925D01*
X174084310Y-112407927D01*
X174060700Y-112440423D01*
X173973240Y-112560800D01*
X173887454Y-112729163D01*
X173829059Y-112908881D01*
X173799500Y-113095513D01*
X156300500Y-113095513D01*
X156300500Y-112897648D01*
X156284448Y-112796302D01*
X156268478Y-112695472D01*
X156268477Y-112695471D01*
X156268477Y-112695466D01*
X156263825Y-112681151D01*
X156261832Y-112611312D01*
X156294075Y-112555158D01*
X158467287Y-110381947D01*
X161500000Y-110381947D01*
X161500000Y-110618052D01*
X161536934Y-110851247D01*
X161609897Y-111075802D01*
X161717087Y-111286174D01*
X161777338Y-111369104D01*
X161777340Y-111369105D01*
X162517037Y-110629408D01*
X162534075Y-110692993D01*
X162599901Y-110807007D01*
X162692993Y-110900099D01*
X162807007Y-110965925D01*
X162870590Y-110982962D01*
X162130893Y-111722658D01*
X162213828Y-111782914D01*
X162424197Y-111890102D01*
X162648752Y-111963065D01*
X162648751Y-111963065D01*
X162881948Y-112000000D01*
X163118052Y-112000000D01*
X163351247Y-111963065D01*
X163575802Y-111890102D01*
X163786163Y-111782918D01*
X163786169Y-111782914D01*
X163869104Y-111722658D01*
X163869105Y-111722658D01*
X163129408Y-110982962D01*
X163192993Y-110965925D01*
X163307007Y-110900099D01*
X163400099Y-110807007D01*
X163465925Y-110692993D01*
X163482962Y-110629409D01*
X164222658Y-111369105D01*
X164222658Y-111369104D01*
X164282914Y-111286169D01*
X164282918Y-111286163D01*
X164390102Y-111075802D01*
X164463065Y-110851247D01*
X164500000Y-110618052D01*
X164500000Y-110381947D01*
X164463065Y-110148752D01*
X164390102Y-109924197D01*
X164282914Y-109713828D01*
X164222658Y-109630894D01*
X164222658Y-109630893D01*
X163482962Y-110370590D01*
X163465925Y-110307007D01*
X163400099Y-110192993D01*
X163307007Y-110099901D01*
X163192993Y-110034075D01*
X163129409Y-110017037D01*
X163869105Y-109277340D01*
X163869104Y-109277338D01*
X163786174Y-109217087D01*
X163575802Y-109109897D01*
X163351247Y-109036934D01*
X163351248Y-109036934D01*
X163118052Y-109000000D01*
X162881948Y-109000000D01*
X162648752Y-109036934D01*
X162424197Y-109109897D01*
X162213830Y-109217084D01*
X162130894Y-109277340D01*
X162870591Y-110017037D01*
X162807007Y-110034075D01*
X162692993Y-110099901D01*
X162599901Y-110192993D01*
X162534075Y-110307007D01*
X162517037Y-110370590D01*
X161777340Y-109630894D01*
X161717084Y-109713830D01*
X161609897Y-109924197D01*
X161536934Y-110148752D01*
X161500000Y-110381947D01*
X158467287Y-110381947D01*
X161212416Y-107636819D01*
X161273739Y-107603334D01*
X161300097Y-107600500D01*
X164026179Y-107600500D01*
X164184293Y-107600500D01*
X165889208Y-107600500D01*
X165956247Y-107620185D01*
X165989524Y-107651612D01*
X166084310Y-107782073D01*
X166217927Y-107915690D01*
X166370801Y-108026760D01*
X166450347Y-108067290D01*
X166539163Y-108112545D01*
X166539165Y-108112545D01*
X166539168Y-108112547D01*
X166635497Y-108143846D01*
X166718881Y-108170940D01*
X166905514Y-108200500D01*
X166905519Y-108200500D01*
X167094486Y-108200500D01*
X167281118Y-108170940D01*
X167460832Y-108112547D01*
X167629199Y-108026760D01*
X167782073Y-107915690D01*
X167915690Y-107782073D01*
X168026760Y-107629199D01*
X168112547Y-107460832D01*
X168170940Y-107281118D01*
X168200500Y-107094486D01*
X168200500Y-106905514D01*
X168199853Y-106901430D01*
X168208807Y-106832136D01*
X168253803Y-106778684D01*
X168320555Y-106758044D01*
X168385830Y-106775526D01*
G37*
%TD.AperFunction*%
%TA.AperFunction,Conductor*%
G36*
X113461489Y-119277250D02*
G01*
X113505964Y-119331136D01*
X113514246Y-119400513D01*
X113499357Y-119441922D01*
X113486801Y-119463670D01*
X113485689Y-119465598D01*
X113440423Y-119544001D01*
X113399499Y-119696729D01*
X113399499Y-119696731D01*
X113399499Y-119864832D01*
X113399500Y-119864845D01*
X113399500Y-120517544D01*
X113399499Y-120517562D01*
X113399499Y-120683268D01*
X113399498Y-120683268D01*
X113440423Y-120836001D01*
X113440424Y-120836002D01*
X113448866Y-120850623D01*
X113448868Y-120850626D01*
X113519477Y-120972926D01*
X113519481Y-120972931D01*
X113638349Y-121091799D01*
X113638355Y-121091804D01*
X116310925Y-123764374D01*
X116310935Y-123764385D01*
X116315265Y-123768715D01*
X116315266Y-123768716D01*
X116427070Y-123880520D01*
X116427072Y-123880521D01*
X116427076Y-123880524D01*
X116514636Y-123931076D01*
X116564002Y-123959577D01*
X116675805Y-123989534D01*
X116716728Y-124000500D01*
X116716729Y-124000500D01*
X126303230Y-124000500D01*
X126303246Y-124000501D01*
X126310842Y-124000501D01*
X126468953Y-124000501D01*
X126468956Y-124000501D01*
X126621684Y-123959577D01*
X126710995Y-123908013D01*
X126714860Y-123905782D01*
X126758608Y-123880524D01*
X126758607Y-123880524D01*
X126758615Y-123880520D01*
X126870419Y-123768716D01*
X126870419Y-123768714D01*
X126880623Y-123758511D01*
X126880626Y-123758506D01*
X130802315Y-119836819D01*
X130863638Y-119803334D01*
X130889996Y-119800500D01*
X142171903Y-119800500D01*
X142238942Y-119820185D01*
X142284697Y-119872989D01*
X142294641Y-119942147D01*
X142265616Y-120005703D01*
X142209381Y-120042701D01*
X116325669Y-128249731D01*
X116255816Y-128251229D01*
X116196241Y-128214724D01*
X116165860Y-128151805D01*
X116170056Y-128095926D01*
X116169801Y-128095865D01*
X116170180Y-128094285D01*
X116170261Y-128093208D01*
X116170940Y-128091118D01*
X116200500Y-127904486D01*
X116200500Y-127715513D01*
X116170940Y-127528881D01*
X116126983Y-127393598D01*
X116112547Y-127349168D01*
X116112545Y-127349165D01*
X116112545Y-127349163D01*
X116065680Y-127257187D01*
X116026760Y-127180801D01*
X115915690Y-127027927D01*
X115782073Y-126894310D01*
X115629199Y-126783240D01*
X115460836Y-126697454D01*
X115281118Y-126639059D01*
X115094486Y-126609500D01*
X115094481Y-126609500D01*
X114905519Y-126609500D01*
X114905514Y-126609500D01*
X114718881Y-126639059D01*
X114539163Y-126697454D01*
X114370800Y-126783240D01*
X114307735Y-126829060D01*
X114217927Y-126894310D01*
X114217925Y-126894312D01*
X114217924Y-126894312D01*
X114084312Y-127027924D01*
X114084312Y-127027925D01*
X114084310Y-127027927D01*
X114055019Y-127068243D01*
X113973240Y-127180800D01*
X113887454Y-127349163D01*
X113829059Y-127528881D01*
X113799500Y-127715513D01*
X113799500Y-127904486D01*
X113829059Y-128091118D01*
X113887454Y-128270836D01*
X113937259Y-128368583D01*
X113973240Y-128439199D01*
X114084310Y-128592073D01*
X114084312Y-128592075D01*
X114219738Y-128727501D01*
X114253223Y-128788824D01*
X114248239Y-128858516D01*
X114206367Y-128914449D01*
X114169535Y-128933383D01*
X103820212Y-132214875D01*
X103750359Y-132216373D01*
X103690784Y-132179868D01*
X103660403Y-132116949D01*
X103660403Y-132076405D01*
X104815680Y-125105954D01*
X104826414Y-125065896D01*
X104826414Y-125052155D01*
X106060000Y-125052155D01*
X106060000Y-125750000D01*
X107084722Y-125750000D01*
X107040667Y-125826306D01*
X107010000Y-125940756D01*
X107010000Y-126059244D01*
X107040667Y-126173694D01*
X107084722Y-126250000D01*
X106060000Y-126250000D01*
X106060000Y-126947844D01*
X106066401Y-127007372D01*
X106066403Y-127007379D01*
X106116645Y-127142086D01*
X106116649Y-127142093D01*
X106202809Y-127257187D01*
X106202812Y-127257190D01*
X106317906Y-127343350D01*
X106317913Y-127343354D01*
X106452620Y-127393596D01*
X106452627Y-127393598D01*
X106512155Y-127399999D01*
X106512172Y-127400000D01*
X107210000Y-127400000D01*
X107210000Y-126375277D01*
X107286306Y-126419333D01*
X107400756Y-126450000D01*
X107519244Y-126450000D01*
X107633694Y-126419333D01*
X107710000Y-126375277D01*
X107710000Y-127400000D01*
X108407828Y-127400000D01*
X108407844Y-127399999D01*
X108467372Y-127393598D01*
X108467379Y-127393596D01*
X108602086Y-127343354D01*
X108602093Y-127343350D01*
X108717187Y-127257190D01*
X108717190Y-127257187D01*
X108803350Y-127142093D01*
X108803354Y-127142086D01*
X108833213Y-127062031D01*
X108875084Y-127006097D01*
X108940548Y-126981680D01*
X109008821Y-126996531D01*
X109037076Y-127017683D01*
X109087636Y-127068243D01*
X109087641Y-127068247D01*
X109242559Y-127180800D01*
X109265978Y-127197815D01*
X109382501Y-127257187D01*
X109462393Y-127297895D01*
X109462396Y-127297896D01*
X109565252Y-127331315D01*
X109672049Y-127366015D01*
X109889778Y-127400500D01*
X109889779Y-127400500D01*
X110110221Y-127400500D01*
X110110222Y-127400500D01*
X110327951Y-127366015D01*
X110537606Y-127297895D01*
X110734022Y-127197815D01*
X110912365Y-127068242D01*
X111068242Y-126912365D01*
X111197815Y-126734022D01*
X111297895Y-126537606D01*
X111366015Y-126327951D01*
X111400500Y-126110222D01*
X111400500Y-125889778D01*
X111366015Y-125672049D01*
X111329315Y-125559097D01*
X111297896Y-125462396D01*
X111297895Y-125462393D01*
X111247975Y-125364421D01*
X111197815Y-125265978D01*
X111128836Y-125171036D01*
X111068247Y-125087641D01*
X111068243Y-125087636D01*
X110912363Y-124931756D01*
X110912358Y-124931752D01*
X110734025Y-124802187D01*
X110734024Y-124802186D01*
X110734022Y-124802185D01*
X110671096Y-124770122D01*
X110537606Y-124702104D01*
X110537603Y-124702103D01*
X110327952Y-124633985D01*
X110219086Y-124616742D01*
X110110222Y-124599500D01*
X109889778Y-124599500D01*
X109817201Y-124610995D01*
X109672047Y-124633985D01*
X109462396Y-124702103D01*
X109462393Y-124702104D01*
X109265974Y-124802187D01*
X109087641Y-124931752D01*
X109087636Y-124931756D01*
X109037075Y-124982317D01*
X108975752Y-125015801D01*
X108906060Y-125010816D01*
X108850127Y-124968945D01*
X108833213Y-124937968D01*
X108803354Y-124857913D01*
X108803350Y-124857906D01*
X108717190Y-124742812D01*
X108717187Y-124742809D01*
X108602093Y-124656649D01*
X108602086Y-124656645D01*
X108467379Y-124606403D01*
X108467372Y-124606401D01*
X108407844Y-124600000D01*
X107710000Y-124600000D01*
X107710000Y-125624722D01*
X107633694Y-125580667D01*
X107519244Y-125550000D01*
X107400756Y-125550000D01*
X107286306Y-125580667D01*
X107210000Y-125624722D01*
X107210000Y-124600000D01*
X106512155Y-124600000D01*
X106452627Y-124606401D01*
X106452620Y-124606403D01*
X106317913Y-124656645D01*
X106317906Y-124656649D01*
X106202812Y-124742809D01*
X106202809Y-124742812D01*
X106116649Y-124857906D01*
X106116645Y-124857913D01*
X106066403Y-124992620D01*
X106066401Y-124992627D01*
X106060000Y-125052155D01*
X104826414Y-125052155D01*
X104826414Y-125041194D01*
X104830452Y-125016831D01*
X104828634Y-124998268D01*
X104828495Y-124975645D01*
X104842536Y-124811369D01*
X104846115Y-124790590D01*
X104891339Y-124617677D01*
X104898403Y-124597779D01*
X104972310Y-124435062D01*
X104982642Y-124416661D01*
X105083100Y-124268837D01*
X105096399Y-124252465D01*
X105220488Y-124123836D01*
X105236379Y-124109952D01*
X105380493Y-124004254D01*
X105398512Y-123993266D01*
X105558482Y-123913554D01*
X105578095Y-123905789D01*
X105716292Y-123864288D01*
X105732857Y-123860530D01*
X105734494Y-123860274D01*
X105734500Y-123860274D01*
X105774071Y-123848662D01*
X105783535Y-123846286D01*
X105823906Y-123837832D01*
X105841759Y-123828801D01*
X105860953Y-123823170D01*
X105900341Y-123799171D01*
X105941504Y-123778352D01*
X105947935Y-123772594D01*
X105966119Y-123759093D01*
X113327452Y-119274033D01*
X113394941Y-119255963D01*
X113461489Y-119277250D01*
G37*
%TD.AperFunction*%
%TA.AperFunction,Conductor*%
G36*
X124931142Y-114796391D02*
G01*
X124987075Y-114838263D01*
X124988092Y-114839641D01*
X125084310Y-114972073D01*
X125217927Y-115105690D01*
X125370801Y-115216760D01*
X125407512Y-115235465D01*
X125539163Y-115302545D01*
X125539165Y-115302545D01*
X125539168Y-115302547D01*
X125635497Y-115333846D01*
X125718881Y-115360940D01*
X125905514Y-115390500D01*
X125905519Y-115390500D01*
X126094486Y-115390500D01*
X126211017Y-115372042D01*
X126253753Y-115365274D01*
X126323045Y-115374228D01*
X126360831Y-115400066D01*
X128968083Y-118007318D01*
X129001568Y-118068641D01*
X128996584Y-118138333D01*
X128968083Y-118182680D01*
X128634673Y-118516090D01*
X128634666Y-118516097D01*
X128631286Y-118519478D01*
X128631284Y-118519480D01*
X128519480Y-118631284D01*
X128491065Y-118680501D01*
X128485323Y-118690445D01*
X128485323Y-118690446D01*
X128466127Y-118723694D01*
X128440423Y-118768215D01*
X128399499Y-118920943D01*
X128399499Y-118920945D01*
X128399499Y-119089046D01*
X128399500Y-119089059D01*
X128399500Y-119924116D01*
X128379815Y-119991155D01*
X128363181Y-120011797D01*
X127199871Y-121175106D01*
X127138548Y-121208591D01*
X127068856Y-121203607D01*
X127012923Y-121161735D01*
X127011872Y-121160310D01*
X126962099Y-121091804D01*
X126915690Y-121027927D01*
X126782073Y-120894310D01*
X126629199Y-120783240D01*
X126460836Y-120697454D01*
X126281118Y-120639059D01*
X126094486Y-120609500D01*
X126094481Y-120609500D01*
X125905519Y-120609500D01*
X125905514Y-120609500D01*
X125718881Y-120639059D01*
X125539163Y-120697454D01*
X125370800Y-120783240D01*
X125326534Y-120815402D01*
X125217927Y-120894310D01*
X125217925Y-120894312D01*
X125217924Y-120894312D01*
X125084312Y-121027924D01*
X125084312Y-121027925D01*
X125084310Y-121027927D01*
X125084308Y-121027930D01*
X124973240Y-121180800D01*
X124887454Y-121349163D01*
X124829059Y-121528881D01*
X124799500Y-121715513D01*
X124799500Y-121904486D01*
X124829059Y-122091118D01*
X124840192Y-122125380D01*
X124876520Y-122237184D01*
X124878516Y-122307022D01*
X124842436Y-122366855D01*
X124779735Y-122397684D01*
X124758589Y-122399500D01*
X118110097Y-122399500D01*
X118043058Y-122379815D01*
X118022416Y-122363181D01*
X116210066Y-120550831D01*
X116176581Y-120489508D01*
X116175274Y-120443752D01*
X116200500Y-120284486D01*
X116200500Y-120095513D01*
X116170940Y-119908881D01*
X116131697Y-119788106D01*
X116112547Y-119729168D01*
X116112545Y-119729165D01*
X116112545Y-119729163D01*
X116067290Y-119640347D01*
X116026760Y-119560801D01*
X115915690Y-119407927D01*
X115782073Y-119274310D01*
X115648629Y-119177357D01*
X115647603Y-119176578D01*
X115627591Y-119149472D01*
X115607022Y-119122796D01*
X115606906Y-119121452D01*
X115606105Y-119120367D01*
X115603924Y-119086730D01*
X115601043Y-119053182D01*
X115601672Y-119051989D01*
X115601585Y-119050644D01*
X115617927Y-119021182D01*
X115633649Y-118991387D01*
X115634806Y-118990213D01*
X116188202Y-118436819D01*
X116249525Y-118403334D01*
X116275883Y-118400500D01*
X117936000Y-118400500D01*
X118003039Y-118420185D01*
X118048794Y-118472989D01*
X118060000Y-118524500D01*
X118060000Y-118750000D01*
X119084722Y-118750000D01*
X119040667Y-118826306D01*
X119010000Y-118940756D01*
X119010000Y-119059244D01*
X119040667Y-119173694D01*
X119084722Y-119250000D01*
X118060000Y-119250000D01*
X118060000Y-119947844D01*
X118066401Y-120007372D01*
X118066403Y-120007379D01*
X118116645Y-120142086D01*
X118116649Y-120142093D01*
X118202809Y-120257187D01*
X118202812Y-120257190D01*
X118317906Y-120343350D01*
X118317913Y-120343354D01*
X118452620Y-120393596D01*
X118452627Y-120393598D01*
X118512155Y-120399999D01*
X118512172Y-120400000D01*
X119210000Y-120400000D01*
X119210000Y-119375277D01*
X119286306Y-119419333D01*
X119400756Y-119450000D01*
X119519244Y-119450000D01*
X119633694Y-119419333D01*
X119710000Y-119375277D01*
X119710000Y-120400000D01*
X120407828Y-120400000D01*
X120407844Y-120399999D01*
X120467372Y-120393598D01*
X120467379Y-120393596D01*
X120602086Y-120343354D01*
X120602093Y-120343350D01*
X120717187Y-120257190D01*
X120717190Y-120257187D01*
X120803350Y-120142093D01*
X120803354Y-120142086D01*
X120833213Y-120062031D01*
X120875084Y-120006097D01*
X120940548Y-119981680D01*
X121008821Y-119996531D01*
X121037076Y-120017683D01*
X121087636Y-120068243D01*
X121087641Y-120068247D01*
X121243192Y-120181260D01*
X121265978Y-120197815D01*
X121382501Y-120257187D01*
X121462393Y-120297895D01*
X121462396Y-120297896D01*
X121567221Y-120331955D01*
X121672049Y-120366015D01*
X121889778Y-120400500D01*
X121889779Y-120400500D01*
X122110221Y-120400500D01*
X122110222Y-120400500D01*
X122327951Y-120366015D01*
X122537606Y-120297895D01*
X122734022Y-120197815D01*
X122912365Y-120068242D01*
X123068242Y-119912365D01*
X123197815Y-119734022D01*
X123297895Y-119537606D01*
X123366015Y-119327951D01*
X123400500Y-119110222D01*
X123400500Y-118889778D01*
X123366015Y-118672049D01*
X123329869Y-118560800D01*
X123297896Y-118462396D01*
X123297895Y-118462393D01*
X123241873Y-118352446D01*
X123197815Y-118265978D01*
X123123172Y-118163240D01*
X123068247Y-118087641D01*
X123068243Y-118087636D01*
X122912363Y-117931756D01*
X122912358Y-117931752D01*
X122734025Y-117802187D01*
X122734024Y-117802186D01*
X122734022Y-117802185D01*
X122657473Y-117763181D01*
X122537606Y-117702104D01*
X122537603Y-117702103D01*
X122327952Y-117633985D01*
X122277468Y-117625989D01*
X122214333Y-117596060D01*
X122177402Y-117536748D01*
X122178400Y-117466886D01*
X122209183Y-117415837D01*
X124800129Y-114824890D01*
X124861450Y-114791407D01*
X124931142Y-114796391D01*
G37*
%TD.AperFunction*%
%TA.AperFunction,Conductor*%
G36*
X142724223Y-108605181D02*
G01*
X142741142Y-108606391D01*
X142756108Y-108617594D01*
X142773528Y-108624377D01*
X142796205Y-108647612D01*
X142797075Y-108648263D01*
X142797801Y-108649246D01*
X142797812Y-108649258D01*
X142798011Y-108649529D01*
X142894310Y-108782073D01*
X143027927Y-108915690D01*
X143158386Y-109010474D01*
X143201051Y-109065803D01*
X143209500Y-109110791D01*
X143209500Y-109343330D01*
X143209499Y-109343348D01*
X143209499Y-109509054D01*
X143209498Y-109509054D01*
X143250423Y-109661786D01*
X143250540Y-109661987D01*
X143250626Y-109662136D01*
X143329477Y-109798712D01*
X143329481Y-109798717D01*
X143448349Y-109917585D01*
X143448355Y-109917590D01*
X145718584Y-112187819D01*
X145752069Y-112249142D01*
X145747085Y-112318834D01*
X145705213Y-112374767D01*
X145639749Y-112399184D01*
X145630903Y-112399500D01*
X144420939Y-112399500D01*
X144389491Y-112407926D01*
X144389492Y-112407927D01*
X144268214Y-112440423D01*
X144268209Y-112440426D01*
X144131290Y-112519475D01*
X144131282Y-112519481D01*
X144019478Y-112631286D01*
X141603563Y-115047200D01*
X141542240Y-115080685D01*
X141477564Y-115077450D01*
X141351370Y-115036447D01*
X141118097Y-114999500D01*
X141118092Y-114999500D01*
X140881908Y-114999500D01*
X140881903Y-114999500D01*
X140648631Y-115036446D01*
X140424003Y-115109433D01*
X140213566Y-115216657D01*
X140104550Y-115295862D01*
X140022490Y-115355483D01*
X140022488Y-115355485D01*
X140022487Y-115355485D01*
X139855485Y-115522487D01*
X139855485Y-115522488D01*
X139855483Y-115522490D01*
X139795862Y-115604550D01*
X139716657Y-115713566D01*
X139609433Y-115924003D01*
X139536446Y-116148631D01*
X139499500Y-116381902D01*
X139499500Y-116618097D01*
X139536446Y-116851368D01*
X139596822Y-117037181D01*
X139598817Y-117107022D01*
X139562737Y-117166855D01*
X139500036Y-117197684D01*
X139478891Y-117199500D01*
X129910097Y-117199500D01*
X129843058Y-117179815D01*
X129822416Y-117163181D01*
X127210066Y-114550831D01*
X127176581Y-114489508D01*
X127175274Y-114443752D01*
X127177815Y-114427713D01*
X127182042Y-114401017D01*
X127200500Y-114284486D01*
X127200500Y-114095513D01*
X127170940Y-113908881D01*
X127112545Y-113729163D01*
X127065493Y-113636819D01*
X127026760Y-113560801D01*
X126915690Y-113407927D01*
X126782073Y-113274310D01*
X126649686Y-113178124D01*
X126607022Y-113122796D01*
X126601043Y-113053182D01*
X126633649Y-112991387D01*
X126634815Y-112990204D01*
X129043752Y-110581269D01*
X129105075Y-110547784D01*
X129131433Y-110544950D01*
X139600783Y-110544950D01*
X139667822Y-110564635D01*
X139713577Y-110617439D01*
X139723521Y-110686597D01*
X139711268Y-110725245D01*
X139609897Y-110924197D01*
X139536934Y-111148752D01*
X139500000Y-111381947D01*
X139500000Y-111618052D01*
X139536934Y-111851247D01*
X139609897Y-112075802D01*
X139717087Y-112286174D01*
X139777338Y-112369104D01*
X139777340Y-112369105D01*
X140517037Y-111629408D01*
X140534075Y-111692993D01*
X140599901Y-111807007D01*
X140692993Y-111900099D01*
X140807007Y-111965925D01*
X140870590Y-111982962D01*
X140130893Y-112722658D01*
X140213828Y-112782914D01*
X140424197Y-112890102D01*
X140648752Y-112963065D01*
X140648751Y-112963065D01*
X140881948Y-113000000D01*
X141118052Y-113000000D01*
X141351247Y-112963065D01*
X141575802Y-112890102D01*
X141786163Y-112782918D01*
X141786169Y-112782914D01*
X141869104Y-112722658D01*
X141869105Y-112722658D01*
X141129408Y-111982962D01*
X141192993Y-111965925D01*
X141307007Y-111900099D01*
X141400099Y-111807007D01*
X141465925Y-111692993D01*
X141482962Y-111629408D01*
X142222658Y-112369105D01*
X142222658Y-112369104D01*
X142282914Y-112286169D01*
X142282918Y-112286163D01*
X142390102Y-112075802D01*
X142463065Y-111851247D01*
X142500000Y-111618052D01*
X142500000Y-111381947D01*
X142463065Y-111148752D01*
X142390102Y-110924197D01*
X142282914Y-110713828D01*
X142222658Y-110630894D01*
X142222658Y-110630893D01*
X141482962Y-111370590D01*
X141465925Y-111307007D01*
X141400099Y-111192993D01*
X141307007Y-111099901D01*
X141192993Y-111034075D01*
X141129408Y-111017037D01*
X141869105Y-110277340D01*
X141869104Y-110277338D01*
X141786174Y-110217087D01*
X141575804Y-110109897D01*
X141435638Y-110064354D01*
X141377963Y-110024916D01*
X141350765Y-109960557D01*
X141362680Y-109891711D01*
X141386270Y-109858749D01*
X142610129Y-108634890D01*
X142626532Y-108625933D01*
X142639941Y-108612903D01*
X142656565Y-108609534D01*
X142671450Y-108601407D01*
X142690096Y-108602740D01*
X142708419Y-108599028D01*
X142724223Y-108605181D01*
G37*
%TD.AperFunction*%
%TA.AperFunction,Conductor*%
G36*
X153818834Y-92627658D02*
G01*
X153874767Y-92669530D01*
X153899184Y-92734994D01*
X153899500Y-92743840D01*
X153899500Y-99106884D01*
X153879815Y-99173923D01*
X153827011Y-99219678D01*
X153757853Y-99229622D01*
X153694297Y-99200597D01*
X153675182Y-99179769D01*
X153608247Y-99087641D01*
X153608243Y-99087636D01*
X153452363Y-98931756D01*
X153452358Y-98931752D01*
X153274025Y-98802187D01*
X153274024Y-98802186D01*
X153274022Y-98802185D01*
X153211096Y-98770122D01*
X153077606Y-98702104D01*
X153077603Y-98702103D01*
X152867952Y-98633985D01*
X152759086Y-98616742D01*
X152650222Y-98599500D01*
X152429778Y-98599500D01*
X152357201Y-98610995D01*
X152212047Y-98633985D01*
X152002396Y-98702103D01*
X152002393Y-98702104D01*
X151805974Y-98802187D01*
X151627641Y-98931752D01*
X151627636Y-98931756D01*
X151577075Y-98982317D01*
X151515752Y-99015801D01*
X151446060Y-99010816D01*
X151390127Y-98968945D01*
X151373213Y-98937968D01*
X151343354Y-98857913D01*
X151343350Y-98857906D01*
X151257190Y-98742812D01*
X151257187Y-98742809D01*
X151142093Y-98656649D01*
X151142086Y-98656645D01*
X151007379Y-98606403D01*
X151007372Y-98606401D01*
X150947844Y-98600000D01*
X150250000Y-98600000D01*
X150250000Y-99624722D01*
X150173694Y-99580667D01*
X150059244Y-99550000D01*
X149940756Y-99550000D01*
X149826306Y-99580667D01*
X149750000Y-99624722D01*
X149750000Y-98600000D01*
X149052155Y-98600000D01*
X148992627Y-98606401D01*
X148992620Y-98606403D01*
X148857913Y-98656645D01*
X148857906Y-98656649D01*
X148742812Y-98742809D01*
X148742809Y-98742812D01*
X148656649Y-98857906D01*
X148656645Y-98857913D01*
X148606403Y-98992620D01*
X148606401Y-98992627D01*
X148600000Y-99052155D01*
X148600000Y-99750000D01*
X149624722Y-99750000D01*
X149580667Y-99826306D01*
X149550000Y-99940756D01*
X149550000Y-100059244D01*
X149580667Y-100173694D01*
X149624722Y-100250000D01*
X148600000Y-100250000D01*
X148600000Y-100947844D01*
X148606401Y-101007372D01*
X148606403Y-101007379D01*
X148656645Y-101142086D01*
X148656649Y-101142093D01*
X148742809Y-101257187D01*
X148742812Y-101257190D01*
X148857906Y-101343350D01*
X148857913Y-101343354D01*
X148992620Y-101393596D01*
X148992627Y-101393598D01*
X149052155Y-101399999D01*
X149052172Y-101400000D01*
X149750000Y-101400000D01*
X149750000Y-100375277D01*
X149826306Y-100419333D01*
X149940756Y-100450000D01*
X150059244Y-100450000D01*
X150173694Y-100419333D01*
X150250000Y-100375277D01*
X150250000Y-101400000D01*
X150947828Y-101400000D01*
X150947844Y-101399999D01*
X151007372Y-101393598D01*
X151007379Y-101393596D01*
X151142086Y-101343354D01*
X151142093Y-101343350D01*
X151257187Y-101257190D01*
X151257190Y-101257187D01*
X151343350Y-101142093D01*
X151343354Y-101142086D01*
X151373213Y-101062031D01*
X151415084Y-101006097D01*
X151480548Y-100981680D01*
X151548821Y-100996531D01*
X151577076Y-101017683D01*
X151627636Y-101068243D01*
X151627641Y-101068247D01*
X151783192Y-101181260D01*
X151805978Y-101197815D01*
X151922501Y-101257187D01*
X152002393Y-101297895D01*
X152002396Y-101297896D01*
X152107221Y-101331955D01*
X152212049Y-101366015D01*
X152429778Y-101400500D01*
X152429779Y-101400500D01*
X152650221Y-101400500D01*
X152650222Y-101400500D01*
X152867951Y-101366015D01*
X153077606Y-101297895D01*
X153274022Y-101197815D01*
X153452365Y-101068242D01*
X153608242Y-100912365D01*
X153675182Y-100820228D01*
X153730511Y-100777564D01*
X153800124Y-100771585D01*
X153861920Y-100804190D01*
X153896277Y-100865029D01*
X153899500Y-100893115D01*
X153899500Y-102033330D01*
X153899499Y-102033348D01*
X153899499Y-102199054D01*
X153899498Y-102199054D01*
X153940423Y-102351785D01*
X153969358Y-102401900D01*
X153969359Y-102401904D01*
X153969360Y-102401904D01*
X154019479Y-102488714D01*
X154019481Y-102488717D01*
X154138349Y-102607585D01*
X154138355Y-102607590D01*
X158169933Y-106639168D01*
X158203418Y-106700491D01*
X158204725Y-106746247D01*
X158179500Y-106905513D01*
X158179500Y-107094486D01*
X158204725Y-107253751D01*
X158195770Y-107323045D01*
X158169933Y-107360830D01*
X156042655Y-109488108D01*
X155981332Y-109521593D01*
X155911640Y-109516609D01*
X155867293Y-109488108D01*
X155847213Y-109468028D01*
X155681613Y-109347715D01*
X155681612Y-109347714D01*
X155681610Y-109347713D01*
X155602945Y-109307631D01*
X155499223Y-109254781D01*
X155304534Y-109191522D01*
X155129995Y-109163878D01*
X155102352Y-109159500D01*
X154897648Y-109159500D01*
X154873329Y-109163351D01*
X154695465Y-109191522D01*
X154500776Y-109254781D01*
X154318386Y-109347715D01*
X154152786Y-109468028D01*
X154008028Y-109612786D01*
X153887715Y-109778386D01*
X153794781Y-109960776D01*
X153731522Y-110155465D01*
X153699500Y-110357648D01*
X153699500Y-110562351D01*
X153731522Y-110764534D01*
X153736173Y-110778848D01*
X153738165Y-110848690D01*
X153705921Y-110904842D01*
X148892181Y-115718583D01*
X148830858Y-115752068D01*
X148761166Y-115747084D01*
X148705233Y-115705212D01*
X148680816Y-115639748D01*
X148680500Y-115630902D01*
X148680500Y-115437648D01*
X148648477Y-115235465D01*
X148604764Y-115100932D01*
X148585220Y-115040781D01*
X148585218Y-115040778D01*
X148585218Y-115040776D01*
X148525721Y-114924008D01*
X148492287Y-114858390D01*
X148477664Y-114838263D01*
X148371971Y-114692786D01*
X148227213Y-114548028D01*
X148061614Y-114427715D01*
X147988575Y-114390500D01*
X147968917Y-114380483D01*
X147918123Y-114332511D01*
X147901328Y-114264690D01*
X147923865Y-114198555D01*
X147968917Y-114159516D01*
X148061610Y-114112287D01*
X148165996Y-114036447D01*
X148227213Y-113991971D01*
X148227215Y-113991968D01*
X148227219Y-113991966D01*
X148371966Y-113847219D01*
X148371968Y-113847215D01*
X148371971Y-113847213D01*
X148457738Y-113729163D01*
X148492287Y-113681610D01*
X148585220Y-113499219D01*
X148648477Y-113304534D01*
X148680500Y-113102352D01*
X148680500Y-112897648D01*
X148673829Y-112855531D01*
X148648477Y-112695465D01*
X148619127Y-112605137D01*
X148585220Y-112500781D01*
X148585218Y-112500778D01*
X148585218Y-112500776D01*
X148537907Y-112407924D01*
X148492287Y-112318390D01*
X148460263Y-112274312D01*
X148371971Y-112152786D01*
X148227217Y-112008032D01*
X148227212Y-112008028D01*
X148133051Y-111939616D01*
X148090385Y-111884286D01*
X148084406Y-111814673D01*
X148117012Y-111752878D01*
X148166933Y-111721592D01*
X148249117Y-111694359D01*
X148249124Y-111694356D01*
X148398345Y-111602315D01*
X148522315Y-111478345D01*
X148614356Y-111329124D01*
X148614358Y-111329119D01*
X148669505Y-111162697D01*
X148669506Y-111162690D01*
X148679999Y-111059986D01*
X148680000Y-111059973D01*
X148680000Y-110710000D01*
X147695686Y-110710000D01*
X147700080Y-110705606D01*
X147752741Y-110614394D01*
X147780000Y-110512661D01*
X147780000Y-110407339D01*
X147752741Y-110305606D01*
X147700080Y-110214394D01*
X147695686Y-110210000D01*
X148679999Y-110210000D01*
X148679999Y-109860028D01*
X148679998Y-109860013D01*
X148669505Y-109757302D01*
X148614358Y-109590880D01*
X148614356Y-109590875D01*
X148522315Y-109441654D01*
X148398345Y-109317684D01*
X148249124Y-109225643D01*
X148249119Y-109225641D01*
X148082697Y-109170494D01*
X148082690Y-109170493D01*
X147979986Y-109160000D01*
X147630000Y-109160000D01*
X147630000Y-110144314D01*
X147625606Y-110139920D01*
X147534394Y-110087259D01*
X147432661Y-110060000D01*
X147327339Y-110060000D01*
X147225606Y-110087259D01*
X147134394Y-110139920D01*
X147130000Y-110144314D01*
X147130000Y-109160000D01*
X146780028Y-109160000D01*
X146780012Y-109160001D01*
X146677302Y-109170494D01*
X146510880Y-109225641D01*
X146510875Y-109225643D01*
X146361654Y-109317684D01*
X146237684Y-109441654D01*
X146145643Y-109590875D01*
X146145641Y-109590880D01*
X146090494Y-109757302D01*
X146090493Y-109757309D01*
X146080000Y-109860013D01*
X146080000Y-110210000D01*
X147064314Y-110210000D01*
X147059920Y-110214394D01*
X147007259Y-110305606D01*
X146980000Y-110407339D01*
X146980000Y-110512661D01*
X147007259Y-110614394D01*
X147059920Y-110705606D01*
X147064314Y-110710000D01*
X146065619Y-110710000D01*
X146035969Y-110726188D01*
X145966277Y-110721199D01*
X145921936Y-110692701D01*
X144446819Y-109217584D01*
X144413334Y-109156261D01*
X144410500Y-109129903D01*
X144410500Y-109110791D01*
X144430185Y-109043752D01*
X144461612Y-109010475D01*
X144592073Y-108915690D01*
X144725690Y-108782073D01*
X144836760Y-108629199D01*
X144922547Y-108460832D01*
X144980940Y-108281118D01*
X145010500Y-108094486D01*
X145010500Y-107905513D01*
X144980940Y-107718881D01*
X144922545Y-107539163D01*
X144836759Y-107370800D01*
X144725690Y-107217927D01*
X144592073Y-107084310D01*
X144459688Y-106988126D01*
X144417023Y-106932795D01*
X144411044Y-106863182D01*
X144443650Y-106801387D01*
X144444729Y-106800291D01*
X144608204Y-106636816D01*
X144669527Y-106603334D01*
X144695884Y-106600500D01*
X146079208Y-106600500D01*
X146146247Y-106620185D01*
X146179524Y-106651612D01*
X146274310Y-106782073D01*
X146407927Y-106915690D01*
X146560801Y-107026760D01*
X146640347Y-107067290D01*
X146729163Y-107112545D01*
X146729165Y-107112545D01*
X146729168Y-107112547D01*
X146825497Y-107143846D01*
X146908881Y-107170940D01*
X147095514Y-107200500D01*
X147095519Y-107200500D01*
X147284486Y-107200500D01*
X147471118Y-107170940D01*
X147650832Y-107112547D01*
X147819199Y-107026760D01*
X147972073Y-106915690D01*
X148105690Y-106782073D01*
X148216760Y-106629199D01*
X148302547Y-106460832D01*
X148360940Y-106281118D01*
X148390500Y-106094486D01*
X148390500Y-105905513D01*
X153609500Y-105905513D01*
X153609500Y-106094486D01*
X153639059Y-106281118D01*
X153697454Y-106460836D01*
X153736254Y-106536984D01*
X153783240Y-106629199D01*
X153894310Y-106782073D01*
X154027927Y-106915690D01*
X154180801Y-107026760D01*
X154260347Y-107067290D01*
X154349163Y-107112545D01*
X154349165Y-107112545D01*
X154349168Y-107112547D01*
X154445497Y-107143846D01*
X154528881Y-107170940D01*
X154715514Y-107200500D01*
X154715519Y-107200500D01*
X154904486Y-107200500D01*
X155091118Y-107170940D01*
X155270832Y-107112547D01*
X155439199Y-107026760D01*
X155592073Y-106915690D01*
X155725690Y-106782073D01*
X155836760Y-106629199D01*
X155922547Y-106460832D01*
X155980940Y-106281118D01*
X156010500Y-106094486D01*
X156010500Y-105905513D01*
X155980940Y-105718881D01*
X155922545Y-105539163D01*
X155851382Y-105399499D01*
X155836760Y-105370801D01*
X155725690Y-105217927D01*
X155592073Y-105084310D01*
X155439199Y-104973240D01*
X155270836Y-104887454D01*
X155091118Y-104829059D01*
X154904486Y-104799500D01*
X154904481Y-104799500D01*
X154715519Y-104799500D01*
X154715514Y-104799500D01*
X154528881Y-104829059D01*
X154349163Y-104887454D01*
X154180800Y-104973240D01*
X154093579Y-105036610D01*
X154027927Y-105084310D01*
X154027925Y-105084312D01*
X154027924Y-105084312D01*
X153894312Y-105217924D01*
X153894312Y-105217925D01*
X153894310Y-105217927D01*
X153846610Y-105283579D01*
X153783240Y-105370800D01*
X153697454Y-105539163D01*
X153639059Y-105718881D01*
X153609500Y-105905513D01*
X148390500Y-105905513D01*
X148360940Y-105718881D01*
X148302545Y-105539163D01*
X148231382Y-105399499D01*
X148216760Y-105370801D01*
X148105690Y-105217927D01*
X147972073Y-105084310D01*
X147819199Y-104973240D01*
X147650836Y-104887454D01*
X147471118Y-104829059D01*
X147284486Y-104799500D01*
X147284481Y-104799500D01*
X147095519Y-104799500D01*
X147095514Y-104799500D01*
X146908881Y-104829059D01*
X146729163Y-104887454D01*
X146560800Y-104973240D01*
X146473579Y-105036610D01*
X146407927Y-105084310D01*
X146407925Y-105084312D01*
X146407924Y-105084312D01*
X146274312Y-105217924D01*
X146274312Y-105217925D01*
X146274310Y-105217927D01*
X146179526Y-105348386D01*
X146124196Y-105391051D01*
X146079208Y-105399500D01*
X144482456Y-105399500D01*
X144482440Y-105399499D01*
X144474844Y-105399499D01*
X144316729Y-105399499D01*
X144240365Y-105419961D01*
X144164000Y-105440423D01*
X144163995Y-105440426D01*
X144027076Y-105519475D01*
X144027068Y-105519481D01*
X140238920Y-109307631D01*
X140177597Y-109341116D01*
X140151239Y-109343950D01*
X136713176Y-109343950D01*
X136646137Y-109324265D01*
X136600382Y-109271461D01*
X136590438Y-109202303D01*
X136619463Y-109138747D01*
X136656881Y-109109465D01*
X136672926Y-109101289D01*
X136819199Y-109026760D01*
X136972073Y-108915690D01*
X137105690Y-108782073D01*
X137200475Y-108651613D01*
X137255804Y-108608949D01*
X137300792Y-108600500D01*
X137408075Y-108600500D01*
X137408091Y-108600501D01*
X137415687Y-108600501D01*
X137573798Y-108600501D01*
X137573801Y-108600501D01*
X137726529Y-108559577D01*
X137776648Y-108530639D01*
X137863460Y-108480520D01*
X137975264Y-108368716D01*
X137975264Y-108368714D01*
X137985472Y-108358507D01*
X137985473Y-108358504D01*
X153687821Y-92656157D01*
X153749142Y-92622674D01*
X153818834Y-92627658D01*
G37*
%TD.AperFunction*%
%TA.AperFunction,Conductor*%
G36*
X152908029Y-73513590D02*
G01*
X158462257Y-76290705D01*
X158513415Y-76338291D01*
X158530374Y-76391315D01*
X159451124Y-87440316D01*
X159437074Y-87508759D01*
X159388253Y-87558741D01*
X159320159Y-87574393D01*
X159254412Y-87550747D01*
X159229180Y-87526104D01*
X159077282Y-87328149D01*
X159077276Y-87328143D01*
X159077273Y-87328139D01*
X158891860Y-87142726D01*
X158891851Y-87142718D01*
X158683803Y-86983075D01*
X158456700Y-86851958D01*
X158456690Y-86851953D01*
X158214428Y-86751605D01*
X158214421Y-86751603D01*
X158214419Y-86751602D01*
X157961116Y-86683730D01*
X157903339Y-86676123D01*
X157701127Y-86649500D01*
X157701120Y-86649500D01*
X157438880Y-86649500D01*
X157438872Y-86649500D01*
X157207772Y-86679926D01*
X157178884Y-86683730D01*
X156925581Y-86751602D01*
X156925571Y-86751605D01*
X156683309Y-86851953D01*
X156683299Y-86851958D01*
X156456196Y-86983075D01*
X156248148Y-87142718D01*
X156062718Y-87328148D01*
X155903075Y-87536196D01*
X155771958Y-87763299D01*
X155771953Y-87763309D01*
X155671605Y-88005571D01*
X155671602Y-88005581D01*
X155650163Y-88085595D01*
X155603730Y-88258885D01*
X155569500Y-88518872D01*
X155569500Y-88781127D01*
X155596123Y-88983339D01*
X155603730Y-89041116D01*
X155671602Y-89294418D01*
X155671605Y-89294428D01*
X155771953Y-89536690D01*
X155771958Y-89536700D01*
X155862838Y-89694109D01*
X155879311Y-89762010D01*
X155856458Y-89828036D01*
X155801537Y-89871227D01*
X155731983Y-89877868D01*
X155686894Y-89859433D01*
X155676548Y-89852568D01*
X155653460Y-89829480D01*
X155566648Y-89779360D01*
X155516529Y-89750423D01*
X155363801Y-89709499D01*
X155205687Y-89709499D01*
X155198091Y-89709499D01*
X155198075Y-89709500D01*
X153794313Y-89709500D01*
X153636198Y-89709500D01*
X153483471Y-89750423D01*
X153483470Y-89750423D01*
X153483468Y-89750424D01*
X153483465Y-89750425D01*
X153433352Y-89779359D01*
X153433351Y-89779360D01*
X153389945Y-89804420D01*
X153346541Y-89829479D01*
X153346538Y-89829481D01*
X152919481Y-90256538D01*
X152914530Y-90262991D01*
X152912553Y-90261474D01*
X152871031Y-90301040D01*
X152802420Y-90314241D01*
X152741362Y-90291125D01*
X152681609Y-90247712D01*
X152499223Y-90154781D01*
X152304534Y-90091522D01*
X152129995Y-90063878D01*
X152102352Y-90059500D01*
X151897648Y-90059500D01*
X151873329Y-90063351D01*
X151695465Y-90091522D01*
X151500776Y-90154781D01*
X151318386Y-90247715D01*
X151152786Y-90368028D01*
X151152782Y-90368032D01*
X151087681Y-90433134D01*
X151026358Y-90466619D01*
X150956666Y-90461635D01*
X150912319Y-90433134D01*
X150847213Y-90368028D01*
X150681613Y-90247715D01*
X150681612Y-90247714D01*
X150681610Y-90247713D01*
X150624653Y-90218691D01*
X150499223Y-90154781D01*
X150304534Y-90091522D01*
X150129995Y-90063878D01*
X150102352Y-90059500D01*
X149897648Y-90059500D01*
X149873329Y-90063351D01*
X149695465Y-90091522D01*
X149500776Y-90154781D01*
X149318386Y-90247715D01*
X149152786Y-90368028D01*
X149008028Y-90512786D01*
X148887714Y-90678386D01*
X148860203Y-90732379D01*
X148812227Y-90783174D01*
X148744406Y-90799968D01*
X148678272Y-90777429D01*
X148639234Y-90732376D01*
X148611861Y-90678652D01*
X148579474Y-90634077D01*
X148579474Y-90634076D01*
X147962550Y-91251001D01*
X147942630Y-91176657D01*
X147880095Y-91068343D01*
X147791657Y-90979905D01*
X147683343Y-90917370D01*
X147608996Y-90897449D01*
X148225922Y-90280524D01*
X148225921Y-90280523D01*
X148181359Y-90248147D01*
X148181350Y-90248141D01*
X147999031Y-90155244D01*
X147804417Y-90092009D01*
X147602317Y-90060000D01*
X147397683Y-90060000D01*
X147195582Y-90092009D01*
X147000968Y-90155244D01*
X146818644Y-90248143D01*
X146774077Y-90280523D01*
X146774077Y-90280524D01*
X147391003Y-90897449D01*
X147316657Y-90917370D01*
X147208343Y-90979905D01*
X147119905Y-91068343D01*
X147057370Y-91176657D01*
X147037449Y-91251002D01*
X146420524Y-90634077D01*
X146420523Y-90634077D01*
X146388143Y-90678644D01*
X146295244Y-90860968D01*
X146232009Y-91055582D01*
X146200000Y-91257682D01*
X146200000Y-91462317D01*
X146232009Y-91664417D01*
X146295244Y-91859031D01*
X146388141Y-92041350D01*
X146388147Y-92041359D01*
X146420523Y-92085921D01*
X146420524Y-92085922D01*
X147037449Y-91468997D01*
X147057370Y-91543343D01*
X147119905Y-91651657D01*
X147208343Y-91740095D01*
X147316657Y-91802630D01*
X147391002Y-91822550D01*
X146774076Y-92439474D01*
X146818650Y-92471859D01*
X147000968Y-92564755D01*
X147195582Y-92627990D01*
X147397683Y-92660000D01*
X147602317Y-92660000D01*
X147804417Y-92627990D01*
X147999031Y-92564755D01*
X148181349Y-92471859D01*
X148225921Y-92439474D01*
X147608997Y-91822550D01*
X147683343Y-91802630D01*
X147791657Y-91740095D01*
X147880095Y-91651657D01*
X147942630Y-91543343D01*
X147962550Y-91468997D01*
X148579474Y-92085921D01*
X148611859Y-92041349D01*
X148639233Y-91987624D01*
X148687207Y-91936827D01*
X148755028Y-91920031D01*
X148821163Y-91942567D01*
X148860203Y-91987621D01*
X148887713Y-92041611D01*
X149008028Y-92207213D01*
X149152786Y-92351971D01*
X149273226Y-92439474D01*
X149318390Y-92472287D01*
X149434607Y-92531503D01*
X149500776Y-92565218D01*
X149500778Y-92565218D01*
X149500781Y-92565220D01*
X149567050Y-92586752D01*
X149695465Y-92628477D01*
X149796557Y-92644488D01*
X149897648Y-92660500D01*
X149897649Y-92660500D01*
X150102351Y-92660500D01*
X150102352Y-92660500D01*
X150304534Y-92628477D01*
X150499219Y-92565220D01*
X150681610Y-92472287D01*
X150774590Y-92404732D01*
X150847213Y-92351971D01*
X150847215Y-92351968D01*
X150847219Y-92351966D01*
X150912319Y-92286866D01*
X150973642Y-92253381D01*
X151043334Y-92258365D01*
X151087681Y-92286866D01*
X151152786Y-92351971D01*
X151273226Y-92439474D01*
X151318390Y-92472287D01*
X151434607Y-92531503D01*
X151500776Y-92565218D01*
X151500778Y-92565218D01*
X151500781Y-92565220D01*
X151567050Y-92586752D01*
X151695465Y-92628477D01*
X151732696Y-92634374D01*
X151795831Y-92664304D01*
X151832762Y-92723615D01*
X151831764Y-92793478D01*
X151800979Y-92844528D01*
X144697520Y-99947987D01*
X144636197Y-99981472D01*
X144566505Y-99976488D01*
X144510572Y-99934616D01*
X144491411Y-99897060D01*
X144491393Y-99897002D01*
X144487510Y-99880644D01*
X142882323Y-90249514D01*
X142890719Y-90180154D01*
X142935282Y-90126341D01*
X143001865Y-90105163D01*
X143069328Y-90123344D01*
X143092317Y-90141451D01*
X143108140Y-90157274D01*
X143108148Y-90157281D01*
X143316196Y-90316924D01*
X143543299Y-90448041D01*
X143543309Y-90448046D01*
X143769640Y-90541795D01*
X143785581Y-90548398D01*
X144038884Y-90616270D01*
X144298880Y-90650500D01*
X144298887Y-90650500D01*
X144561113Y-90650500D01*
X144561120Y-90650500D01*
X144821116Y-90616270D01*
X145074419Y-90548398D01*
X145316697Y-90448043D01*
X145543803Y-90316924D01*
X145751851Y-90157282D01*
X145817611Y-90091522D01*
X145937274Y-89971860D01*
X145937277Y-89971855D01*
X145937282Y-89971851D01*
X146096924Y-89763803D01*
X146228043Y-89536697D01*
X146328398Y-89294419D01*
X146396270Y-89041116D01*
X146430500Y-88781120D01*
X146430500Y-88518880D01*
X146396270Y-88258884D01*
X146328398Y-88005581D01*
X146307458Y-87955027D01*
X146228046Y-87763309D01*
X146228041Y-87763299D01*
X146096924Y-87536196D01*
X145937281Y-87328148D01*
X145937274Y-87328140D01*
X145751860Y-87142726D01*
X145751851Y-87142718D01*
X145543803Y-86983075D01*
X145316700Y-86851958D01*
X145316690Y-86851953D01*
X145074428Y-86751605D01*
X145074421Y-86751603D01*
X145074419Y-86751602D01*
X144821116Y-86683730D01*
X144763339Y-86676123D01*
X144561127Y-86649500D01*
X144561120Y-86649500D01*
X144298880Y-86649500D01*
X144298872Y-86649500D01*
X144067772Y-86679926D01*
X144038884Y-86683730D01*
X143785581Y-86751602D01*
X143785571Y-86751605D01*
X143543309Y-86851953D01*
X143543299Y-86851958D01*
X143316196Y-86983075D01*
X143108148Y-87142718D01*
X142922718Y-87328148D01*
X142770821Y-87526103D01*
X142714393Y-87567305D01*
X142644647Y-87571460D01*
X142583727Y-87537247D01*
X142550975Y-87475530D01*
X142548874Y-87440318D01*
X142558221Y-87328149D01*
X143469625Y-76391311D01*
X143494808Y-76326142D01*
X143537738Y-76290706D01*
X149091970Y-73513591D01*
X149147424Y-73500500D01*
X152852576Y-73500500D01*
X152908029Y-73513590D01*
G37*
%TD.AperFunction*%
%TD*%
M02*
