%TF.GenerationSoftware,KiCad,Pcbnew,10.0.0*%
%TF.CreationDate,2026-04-18T14:16:09-05:00*%
%TF.ProjectId,AirplanePCBLED,41697270-6c61-46e6-9550-43424c45442e,rev?*%
%TF.SameCoordinates,Original*%
%TF.FileFunction,Soldermask,Bot*%
%TF.FilePolarity,Negative*%
%FSLAX46Y46*%
G04 Gerber Fmt 4.6, Leading zero omitted, Abs format (unit mm)*
G04 Created by KiCad (PCBNEW 10.0.0) date 2026-04-18 14:16:09*
%MOMM*%
%LPD*%
G01*
G04 APERTURE LIST*
G04 Aperture macros list*
%AMRoundRect*
0 Rectangle with rounded corners*
0 $1 Rounding radius*
0 $2 $3 $4 $5 $6 $7 $8 $9 X,Y pos of 4 corners*
0 Add a 4 corners polygon primitive as box body*
4,1,4,$2,$3,$4,$5,$6,$7,$8,$9,$2,$3,0*
0 Add four circle primitives for the rounded corners*
1,1,$1+$1,$2,$3*
1,1,$1+$1,$4,$5*
1,1,$1+$1,$6,$7*
1,1,$1+$1,$8,$9*
0 Add four rect primitives between the rounded corners*
20,1,$1+$1,$2,$3,$4,$5,0*
20,1,$1+$1,$4,$5,$6,$7,0*
20,1,$1+$1,$6,$7,$8,$9,0*
20,1,$1+$1,$8,$9,$2,$3,0*%
G04 Aperture macros list end*
%ADD10C,1.400000*%
%ADD11R,1.800000X1.800000*%
%ADD12C,1.800000*%
%ADD13C,2.000000*%
%ADD14RoundRect,0.250000X0.550000X0.500000X-0.550000X0.500000X-0.550000X-0.500000X0.550000X-0.500000X0*%
%ADD15C,1.600000*%
%ADD16C,3.000000*%
%ADD17RoundRect,0.250000X-0.550000X-0.550000X0.550000X-0.550000X0.550000X0.550000X-0.550000X0.550000X0*%
G04 APERTURE END LIST*
D10*
%TO.C,R7*%
X175000000Y-120810000D03*
X175000000Y-113190000D03*
%TD*%
D11*
%TO.C,D2*%
X119460000Y-119000000D03*
D12*
X122000000Y-119000000D03*
%TD*%
D10*
%TO.C,R8*%
X187000000Y-126810000D03*
X187000000Y-119190000D03*
%TD*%
D13*
%TO.C,C1*%
X163000000Y-115500000D03*
X163000000Y-110500000D03*
%TD*%
D11*
%TO.C,D1*%
X107460000Y-126000000D03*
D12*
X110000000Y-126000000D03*
%TD*%
D11*
%TO.C,D8*%
X164000000Y-160000000D03*
D12*
X161460000Y-160000000D03*
%TD*%
D10*
%TO.C,R6*%
X147190000Y-106000000D03*
X154810000Y-106000000D03*
%TD*%
D11*
%TO.C,D7*%
X150000000Y-152000000D03*
D12*
X152540000Y-152000000D03*
%TD*%
D14*
%TO.C,J1*%
X154500000Y-91360000D03*
D15*
X152000000Y-91360000D03*
X150000000Y-91360000D03*
X147500000Y-91360000D03*
D16*
X157570000Y-88650000D03*
X144430000Y-88650000D03*
%TD*%
D17*
%TO.C,U1*%
X147380000Y-110460000D03*
D15*
X147380000Y-113000000D03*
X147380000Y-115540000D03*
X147380000Y-118080000D03*
X155000000Y-118080000D03*
X155000000Y-115540000D03*
X155000000Y-113000000D03*
X155000000Y-110460000D03*
%TD*%
D11*
%TO.C,D4*%
X179000000Y-119000000D03*
D12*
X181540000Y-119000000D03*
%TD*%
D10*
%TO.C,R4*%
X115000000Y-120190000D03*
X115000000Y-127810000D03*
%TD*%
%TO.C,R5*%
X126000000Y-114190000D03*
X126000000Y-121810000D03*
%TD*%
%TO.C,R10*%
X147380000Y-145000000D03*
X155000000Y-145000000D03*
%TD*%
%TO.C,R1*%
X136190000Y-108000000D03*
X143810000Y-108000000D03*
%TD*%
D11*
%TO.C,D5*%
X190730000Y-126000000D03*
D12*
X193270000Y-126000000D03*
%TD*%
D10*
%TO.C,R2*%
X159380000Y-107000000D03*
X167000000Y-107000000D03*
%TD*%
%TO.C,R9*%
X142000000Y-160810000D03*
X142000000Y-153190000D03*
%TD*%
D11*
%TO.C,D3*%
X150000000Y-100000000D03*
D12*
X152540000Y-100000000D03*
%TD*%
D11*
%TO.C,D6*%
X135730000Y-161000000D03*
D12*
X138270000Y-161000000D03*
%TD*%
D17*
%TO.C,U2*%
X147380000Y-123110000D03*
D15*
X147380000Y-125650000D03*
X147380000Y-128190000D03*
X147380000Y-130730000D03*
X147380000Y-133270000D03*
X147380000Y-135810000D03*
X147380000Y-138350000D03*
X147380000Y-140890000D03*
X155000000Y-140890000D03*
X155000000Y-138350000D03*
X155000000Y-135810000D03*
X155000000Y-133270000D03*
X155000000Y-130730000D03*
X155000000Y-128190000D03*
X155000000Y-125650000D03*
X155000000Y-123110000D03*
%TD*%
D13*
%TO.C,C2*%
X141000000Y-116500000D03*
X141000000Y-111500000D03*
%TD*%
D10*
%TO.C,R11*%
X158000000Y-159810000D03*
X158000000Y-152190000D03*
%TD*%
M02*
