%TF.GenerationSoftware,KiCad,Pcbnew,10.0.0*%
%TF.CreationDate,2026-04-18T14:16:09-05:00*%
%TF.ProjectId,AirplanePCBLED,41697270-6c61-46e6-9550-43424c45442e,rev?*%
%TF.SameCoordinates,Original*%
%TF.FileFunction,Legend,Top*%
%TF.FilePolarity,Positive*%
%FSLAX46Y46*%
G04 Gerber Fmt 4.6, Leading zero omitted, Abs format (unit mm)*
G04 Created by KiCad (PCBNEW 10.0.0) date 2026-04-18 14:16:09*
%MOMM*%
%LPD*%
G01*
G04 APERTURE LIST*
%ADD10C,0.100000*%
%ADD11C,0.150000*%
%ADD12C,0.120000*%
G04 APERTURE END LIST*
D10*
X131256265Y-165896895D02*
X131256265Y-165096895D01*
X131599122Y-165896895D02*
X131599122Y-165477847D01*
X131599122Y-165477847D02*
X131561027Y-165401657D01*
X131561027Y-165401657D02*
X131484836Y-165363561D01*
X131484836Y-165363561D02*
X131370550Y-165363561D01*
X131370550Y-165363561D02*
X131294360Y-165401657D01*
X131294360Y-165401657D02*
X131256265Y-165439752D01*
X131865789Y-165363561D02*
X132170551Y-165363561D01*
X131980075Y-165096895D02*
X131980075Y-165782609D01*
X131980075Y-165782609D02*
X132018170Y-165858800D01*
X132018170Y-165858800D02*
X132094360Y-165896895D01*
X132094360Y-165896895D02*
X132170551Y-165896895D01*
X132322932Y-165363561D02*
X132627694Y-165363561D01*
X132437218Y-165096895D02*
X132437218Y-165782609D01*
X132437218Y-165782609D02*
X132475313Y-165858800D01*
X132475313Y-165858800D02*
X132551503Y-165896895D01*
X132551503Y-165896895D02*
X132627694Y-165896895D01*
X132894361Y-165363561D02*
X132894361Y-166163561D01*
X132894361Y-165401657D02*
X132970551Y-165363561D01*
X132970551Y-165363561D02*
X133122932Y-165363561D01*
X133122932Y-165363561D02*
X133199123Y-165401657D01*
X133199123Y-165401657D02*
X133237218Y-165439752D01*
X133237218Y-165439752D02*
X133275313Y-165515942D01*
X133275313Y-165515942D02*
X133275313Y-165744514D01*
X133275313Y-165744514D02*
X133237218Y-165820704D01*
X133237218Y-165820704D02*
X133199123Y-165858800D01*
X133199123Y-165858800D02*
X133122932Y-165896895D01*
X133122932Y-165896895D02*
X132970551Y-165896895D01*
X132970551Y-165896895D02*
X132894361Y-165858800D01*
X133580075Y-165858800D02*
X133656266Y-165896895D01*
X133656266Y-165896895D02*
X133808647Y-165896895D01*
X133808647Y-165896895D02*
X133884837Y-165858800D01*
X133884837Y-165858800D02*
X133922933Y-165782609D01*
X133922933Y-165782609D02*
X133922933Y-165744514D01*
X133922933Y-165744514D02*
X133884837Y-165668323D01*
X133884837Y-165668323D02*
X133808647Y-165630228D01*
X133808647Y-165630228D02*
X133694361Y-165630228D01*
X133694361Y-165630228D02*
X133618171Y-165592133D01*
X133618171Y-165592133D02*
X133580075Y-165515942D01*
X133580075Y-165515942D02*
X133580075Y-165477847D01*
X133580075Y-165477847D02*
X133618171Y-165401657D01*
X133618171Y-165401657D02*
X133694361Y-165363561D01*
X133694361Y-165363561D02*
X133808647Y-165363561D01*
X133808647Y-165363561D02*
X133884837Y-165401657D01*
X134265790Y-165820704D02*
X134303885Y-165858800D01*
X134303885Y-165858800D02*
X134265790Y-165896895D01*
X134265790Y-165896895D02*
X134227694Y-165858800D01*
X134227694Y-165858800D02*
X134265790Y-165820704D01*
X134265790Y-165820704D02*
X134265790Y-165896895D01*
X134265790Y-165401657D02*
X134303885Y-165439752D01*
X134303885Y-165439752D02*
X134265790Y-165477847D01*
X134265790Y-165477847D02*
X134227694Y-165439752D01*
X134227694Y-165439752D02*
X134265790Y-165401657D01*
X134265790Y-165401657D02*
X134265790Y-165477847D01*
X135218170Y-165058800D02*
X134532456Y-166087371D01*
X136056265Y-165058800D02*
X135370551Y-166087371D01*
X136665789Y-165363561D02*
X136665789Y-166011180D01*
X136665789Y-166011180D02*
X136627694Y-166087371D01*
X136627694Y-166087371D02*
X136589598Y-166125466D01*
X136589598Y-166125466D02*
X136513408Y-166163561D01*
X136513408Y-166163561D02*
X136399122Y-166163561D01*
X136399122Y-166163561D02*
X136322932Y-166125466D01*
X136665789Y-165858800D02*
X136589598Y-165896895D01*
X136589598Y-165896895D02*
X136437217Y-165896895D01*
X136437217Y-165896895D02*
X136361027Y-165858800D01*
X136361027Y-165858800D02*
X136322932Y-165820704D01*
X136322932Y-165820704D02*
X136284836Y-165744514D01*
X136284836Y-165744514D02*
X136284836Y-165515942D01*
X136284836Y-165515942D02*
X136322932Y-165439752D01*
X136322932Y-165439752D02*
X136361027Y-165401657D01*
X136361027Y-165401657D02*
X136437217Y-165363561D01*
X136437217Y-165363561D02*
X136589598Y-165363561D01*
X136589598Y-165363561D02*
X136665789Y-165401657D01*
X137046742Y-165896895D02*
X137046742Y-165363561D01*
X137046742Y-165096895D02*
X137008646Y-165134990D01*
X137008646Y-165134990D02*
X137046742Y-165173085D01*
X137046742Y-165173085D02*
X137084837Y-165134990D01*
X137084837Y-165134990D02*
X137046742Y-165096895D01*
X137046742Y-165096895D02*
X137046742Y-165173085D01*
X137313408Y-165363561D02*
X137618170Y-165363561D01*
X137427694Y-165096895D02*
X137427694Y-165782609D01*
X137427694Y-165782609D02*
X137465789Y-165858800D01*
X137465789Y-165858800D02*
X137541979Y-165896895D01*
X137541979Y-165896895D02*
X137618170Y-165896895D01*
X137884837Y-165896895D02*
X137884837Y-165096895D01*
X138227694Y-165896895D02*
X138227694Y-165477847D01*
X138227694Y-165477847D02*
X138189599Y-165401657D01*
X138189599Y-165401657D02*
X138113408Y-165363561D01*
X138113408Y-165363561D02*
X137999122Y-165363561D01*
X137999122Y-165363561D02*
X137922932Y-165401657D01*
X137922932Y-165401657D02*
X137884837Y-165439752D01*
X138951504Y-165363561D02*
X138951504Y-165896895D01*
X138608647Y-165363561D02*
X138608647Y-165782609D01*
X138608647Y-165782609D02*
X138646742Y-165858800D01*
X138646742Y-165858800D02*
X138722932Y-165896895D01*
X138722932Y-165896895D02*
X138837218Y-165896895D01*
X138837218Y-165896895D02*
X138913409Y-165858800D01*
X138913409Y-165858800D02*
X138951504Y-165820704D01*
X139332457Y-165896895D02*
X139332457Y-165096895D01*
X139332457Y-165401657D02*
X139408647Y-165363561D01*
X139408647Y-165363561D02*
X139561028Y-165363561D01*
X139561028Y-165363561D02*
X139637219Y-165401657D01*
X139637219Y-165401657D02*
X139675314Y-165439752D01*
X139675314Y-165439752D02*
X139713409Y-165515942D01*
X139713409Y-165515942D02*
X139713409Y-165744514D01*
X139713409Y-165744514D02*
X139675314Y-165820704D01*
X139675314Y-165820704D02*
X139637219Y-165858800D01*
X139637219Y-165858800D02*
X139561028Y-165896895D01*
X139561028Y-165896895D02*
X139408647Y-165896895D01*
X139408647Y-165896895D02*
X139332457Y-165858800D01*
X140056267Y-165820704D02*
X140094362Y-165858800D01*
X140094362Y-165858800D02*
X140056267Y-165896895D01*
X140056267Y-165896895D02*
X140018171Y-165858800D01*
X140018171Y-165858800D02*
X140056267Y-165820704D01*
X140056267Y-165820704D02*
X140056267Y-165896895D01*
X140780076Y-165858800D02*
X140703885Y-165896895D01*
X140703885Y-165896895D02*
X140551504Y-165896895D01*
X140551504Y-165896895D02*
X140475314Y-165858800D01*
X140475314Y-165858800D02*
X140437219Y-165820704D01*
X140437219Y-165820704D02*
X140399123Y-165744514D01*
X140399123Y-165744514D02*
X140399123Y-165515942D01*
X140399123Y-165515942D02*
X140437219Y-165439752D01*
X140437219Y-165439752D02*
X140475314Y-165401657D01*
X140475314Y-165401657D02*
X140551504Y-165363561D01*
X140551504Y-165363561D02*
X140703885Y-165363561D01*
X140703885Y-165363561D02*
X140780076Y-165401657D01*
X141237218Y-165896895D02*
X141161028Y-165858800D01*
X141161028Y-165858800D02*
X141122933Y-165820704D01*
X141122933Y-165820704D02*
X141084837Y-165744514D01*
X141084837Y-165744514D02*
X141084837Y-165515942D01*
X141084837Y-165515942D02*
X141122933Y-165439752D01*
X141122933Y-165439752D02*
X141161028Y-165401657D01*
X141161028Y-165401657D02*
X141237218Y-165363561D01*
X141237218Y-165363561D02*
X141351504Y-165363561D01*
X141351504Y-165363561D02*
X141427695Y-165401657D01*
X141427695Y-165401657D02*
X141465790Y-165439752D01*
X141465790Y-165439752D02*
X141503885Y-165515942D01*
X141503885Y-165515942D02*
X141503885Y-165744514D01*
X141503885Y-165744514D02*
X141465790Y-165820704D01*
X141465790Y-165820704D02*
X141427695Y-165858800D01*
X141427695Y-165858800D02*
X141351504Y-165896895D01*
X141351504Y-165896895D02*
X141237218Y-165896895D01*
X141846743Y-165896895D02*
X141846743Y-165363561D01*
X141846743Y-165439752D02*
X141884838Y-165401657D01*
X141884838Y-165401657D02*
X141961028Y-165363561D01*
X141961028Y-165363561D02*
X142075314Y-165363561D01*
X142075314Y-165363561D02*
X142151505Y-165401657D01*
X142151505Y-165401657D02*
X142189600Y-165477847D01*
X142189600Y-165477847D02*
X142189600Y-165896895D01*
X142189600Y-165477847D02*
X142227695Y-165401657D01*
X142227695Y-165401657D02*
X142303886Y-165363561D01*
X142303886Y-165363561D02*
X142418171Y-165363561D01*
X142418171Y-165363561D02*
X142494362Y-165401657D01*
X142494362Y-165401657D02*
X142532457Y-165477847D01*
X142532457Y-165477847D02*
X142532457Y-165896895D01*
X143484838Y-165058800D02*
X142799124Y-166087371D01*
X144094362Y-165896895D02*
X144094362Y-165096895D01*
X144094362Y-165858800D02*
X144018171Y-165896895D01*
X144018171Y-165896895D02*
X143865790Y-165896895D01*
X143865790Y-165896895D02*
X143789600Y-165858800D01*
X143789600Y-165858800D02*
X143751505Y-165820704D01*
X143751505Y-165820704D02*
X143713409Y-165744514D01*
X143713409Y-165744514D02*
X143713409Y-165515942D01*
X143713409Y-165515942D02*
X143751505Y-165439752D01*
X143751505Y-165439752D02*
X143789600Y-165401657D01*
X143789600Y-165401657D02*
X143865790Y-165363561D01*
X143865790Y-165363561D02*
X144018171Y-165363561D01*
X144018171Y-165363561D02*
X144094362Y-165401657D01*
X144475315Y-165896895D02*
X144475315Y-165096895D01*
X144818172Y-165896895D02*
X144818172Y-165477847D01*
X144818172Y-165477847D02*
X144780077Y-165401657D01*
X144780077Y-165401657D02*
X144703886Y-165363561D01*
X144703886Y-165363561D02*
X144589600Y-165363561D01*
X144589600Y-165363561D02*
X144513410Y-165401657D01*
X144513410Y-165401657D02*
X144475315Y-165439752D01*
X145541982Y-165896895D02*
X145541982Y-165477847D01*
X145541982Y-165477847D02*
X145503887Y-165401657D01*
X145503887Y-165401657D02*
X145427696Y-165363561D01*
X145427696Y-165363561D02*
X145275315Y-165363561D01*
X145275315Y-165363561D02*
X145199125Y-165401657D01*
X145541982Y-165858800D02*
X145465791Y-165896895D01*
X145465791Y-165896895D02*
X145275315Y-165896895D01*
X145275315Y-165896895D02*
X145199125Y-165858800D01*
X145199125Y-165858800D02*
X145161029Y-165782609D01*
X145161029Y-165782609D02*
X145161029Y-165706419D01*
X145161029Y-165706419D02*
X145199125Y-165630228D01*
X145199125Y-165630228D02*
X145275315Y-165592133D01*
X145275315Y-165592133D02*
X145465791Y-165592133D01*
X145465791Y-165592133D02*
X145541982Y-165554038D01*
X145922935Y-165896895D02*
X145922935Y-165363561D01*
X145922935Y-165515942D02*
X145961030Y-165439752D01*
X145961030Y-165439752D02*
X145999125Y-165401657D01*
X145999125Y-165401657D02*
X146075316Y-165363561D01*
X146075316Y-165363561D02*
X146151506Y-165363561D01*
X146418173Y-165896895D02*
X146418173Y-165363561D01*
X146418173Y-165439752D02*
X146456268Y-165401657D01*
X146456268Y-165401657D02*
X146532458Y-165363561D01*
X146532458Y-165363561D02*
X146646744Y-165363561D01*
X146646744Y-165363561D02*
X146722935Y-165401657D01*
X146722935Y-165401657D02*
X146761030Y-165477847D01*
X146761030Y-165477847D02*
X146761030Y-165896895D01*
X146761030Y-165477847D02*
X146799125Y-165401657D01*
X146799125Y-165401657D02*
X146875316Y-165363561D01*
X146875316Y-165363561D02*
X146989601Y-165363561D01*
X146989601Y-165363561D02*
X147065792Y-165401657D01*
X147065792Y-165401657D02*
X147103887Y-165477847D01*
X147103887Y-165477847D02*
X147103887Y-165896895D01*
X147827697Y-165896895D02*
X147827697Y-165477847D01*
X147827697Y-165477847D02*
X147789602Y-165401657D01*
X147789602Y-165401657D02*
X147713411Y-165363561D01*
X147713411Y-165363561D02*
X147561030Y-165363561D01*
X147561030Y-165363561D02*
X147484840Y-165401657D01*
X147827697Y-165858800D02*
X147751506Y-165896895D01*
X147751506Y-165896895D02*
X147561030Y-165896895D01*
X147561030Y-165896895D02*
X147484840Y-165858800D01*
X147484840Y-165858800D02*
X147446744Y-165782609D01*
X147446744Y-165782609D02*
X147446744Y-165706419D01*
X147446744Y-165706419D02*
X147484840Y-165630228D01*
X147484840Y-165630228D02*
X147561030Y-165592133D01*
X147561030Y-165592133D02*
X147751506Y-165592133D01*
X147751506Y-165592133D02*
X147827697Y-165554038D01*
X148170554Y-165858800D02*
X148246745Y-165896895D01*
X148246745Y-165896895D02*
X148399126Y-165896895D01*
X148399126Y-165896895D02*
X148475316Y-165858800D01*
X148475316Y-165858800D02*
X148513412Y-165782609D01*
X148513412Y-165782609D02*
X148513412Y-165744514D01*
X148513412Y-165744514D02*
X148475316Y-165668323D01*
X148475316Y-165668323D02*
X148399126Y-165630228D01*
X148399126Y-165630228D02*
X148284840Y-165630228D01*
X148284840Y-165630228D02*
X148208650Y-165592133D01*
X148208650Y-165592133D02*
X148170554Y-165515942D01*
X148170554Y-165515942D02*
X148170554Y-165477847D01*
X148170554Y-165477847D02*
X148208650Y-165401657D01*
X148208650Y-165401657D02*
X148284840Y-165363561D01*
X148284840Y-165363561D02*
X148399126Y-165363561D01*
X148399126Y-165363561D02*
X148475316Y-165401657D01*
X148970554Y-165896895D02*
X148894364Y-165858800D01*
X148894364Y-165858800D02*
X148856269Y-165820704D01*
X148856269Y-165820704D02*
X148818173Y-165744514D01*
X148818173Y-165744514D02*
X148818173Y-165515942D01*
X148818173Y-165515942D02*
X148856269Y-165439752D01*
X148856269Y-165439752D02*
X148894364Y-165401657D01*
X148894364Y-165401657D02*
X148970554Y-165363561D01*
X148970554Y-165363561D02*
X149084840Y-165363561D01*
X149084840Y-165363561D02*
X149161031Y-165401657D01*
X149161031Y-165401657D02*
X149199126Y-165439752D01*
X149199126Y-165439752D02*
X149237221Y-165515942D01*
X149237221Y-165515942D02*
X149237221Y-165744514D01*
X149237221Y-165744514D02*
X149199126Y-165820704D01*
X149199126Y-165820704D02*
X149161031Y-165858800D01*
X149161031Y-165858800D02*
X149084840Y-165896895D01*
X149084840Y-165896895D02*
X148970554Y-165896895D01*
X149465793Y-165363561D02*
X149770555Y-165363561D01*
X149580079Y-165096895D02*
X149580079Y-165782609D01*
X149580079Y-165782609D02*
X149618174Y-165858800D01*
X149618174Y-165858800D02*
X149694364Y-165896895D01*
X149694364Y-165896895D02*
X149770555Y-165896895D01*
X150037222Y-165896895D02*
X150037222Y-165096895D01*
X150380079Y-165896895D02*
X150380079Y-165477847D01*
X150380079Y-165477847D02*
X150341984Y-165401657D01*
X150341984Y-165401657D02*
X150265793Y-165363561D01*
X150265793Y-165363561D02*
X150151507Y-165363561D01*
X150151507Y-165363561D02*
X150075317Y-165401657D01*
X150075317Y-165401657D02*
X150037222Y-165439752D01*
X150684841Y-165363561D02*
X150875317Y-165896895D01*
X150875317Y-165896895D02*
X151065794Y-165363561D01*
X151713413Y-165896895D02*
X151713413Y-165477847D01*
X151713413Y-165477847D02*
X151675318Y-165401657D01*
X151675318Y-165401657D02*
X151599127Y-165363561D01*
X151599127Y-165363561D02*
X151446746Y-165363561D01*
X151446746Y-165363561D02*
X151370556Y-165401657D01*
X151713413Y-165858800D02*
X151637222Y-165896895D01*
X151637222Y-165896895D02*
X151446746Y-165896895D01*
X151446746Y-165896895D02*
X151370556Y-165858800D01*
X151370556Y-165858800D02*
X151332460Y-165782609D01*
X151332460Y-165782609D02*
X151332460Y-165706419D01*
X151332460Y-165706419D02*
X151370556Y-165630228D01*
X151370556Y-165630228D02*
X151446746Y-165592133D01*
X151446746Y-165592133D02*
X151637222Y-165592133D01*
X151637222Y-165592133D02*
X151713413Y-165554038D01*
X152094366Y-165896895D02*
X152094366Y-165363561D01*
X152094366Y-165096895D02*
X152056270Y-165134990D01*
X152056270Y-165134990D02*
X152094366Y-165173085D01*
X152094366Y-165173085D02*
X152132461Y-165134990D01*
X152132461Y-165134990D02*
X152094366Y-165096895D01*
X152094366Y-165096895D02*
X152094366Y-165173085D01*
X152475318Y-165896895D02*
X152475318Y-165096895D01*
X152475318Y-165401657D02*
X152551508Y-165363561D01*
X152551508Y-165363561D02*
X152703889Y-165363561D01*
X152703889Y-165363561D02*
X152780080Y-165401657D01*
X152780080Y-165401657D02*
X152818175Y-165439752D01*
X152818175Y-165439752D02*
X152856270Y-165515942D01*
X152856270Y-165515942D02*
X152856270Y-165744514D01*
X152856270Y-165744514D02*
X152818175Y-165820704D01*
X152818175Y-165820704D02*
X152780080Y-165858800D01*
X152780080Y-165858800D02*
X152703889Y-165896895D01*
X152703889Y-165896895D02*
X152551508Y-165896895D01*
X152551508Y-165896895D02*
X152475318Y-165858800D01*
X153199128Y-165896895D02*
X153199128Y-165096895D01*
X153541985Y-165896895D02*
X153541985Y-165477847D01*
X153541985Y-165477847D02*
X153503890Y-165401657D01*
X153503890Y-165401657D02*
X153427699Y-165363561D01*
X153427699Y-165363561D02*
X153313413Y-165363561D01*
X153313413Y-165363561D02*
X153237223Y-165401657D01*
X153237223Y-165401657D02*
X153199128Y-165439752D01*
X154265795Y-165896895D02*
X154265795Y-165477847D01*
X154265795Y-165477847D02*
X154227700Y-165401657D01*
X154227700Y-165401657D02*
X154151509Y-165363561D01*
X154151509Y-165363561D02*
X153999128Y-165363561D01*
X153999128Y-165363561D02*
X153922938Y-165401657D01*
X154265795Y-165858800D02*
X154189604Y-165896895D01*
X154189604Y-165896895D02*
X153999128Y-165896895D01*
X153999128Y-165896895D02*
X153922938Y-165858800D01*
X153922938Y-165858800D02*
X153884842Y-165782609D01*
X153884842Y-165782609D02*
X153884842Y-165706419D01*
X153884842Y-165706419D02*
X153922938Y-165630228D01*
X153922938Y-165630228D02*
X153999128Y-165592133D01*
X153999128Y-165592133D02*
X154189604Y-165592133D01*
X154189604Y-165592133D02*
X154265795Y-165554038D01*
X154570557Y-165363561D02*
X154761033Y-165896895D01*
X154761033Y-165896895D02*
X154951510Y-165363561D01*
X155408653Y-165096895D02*
X155484843Y-165096895D01*
X155484843Y-165096895D02*
X155561034Y-165134990D01*
X155561034Y-165134990D02*
X155599129Y-165173085D01*
X155599129Y-165173085D02*
X155637224Y-165249276D01*
X155637224Y-165249276D02*
X155675319Y-165401657D01*
X155675319Y-165401657D02*
X155675319Y-165592133D01*
X155675319Y-165592133D02*
X155637224Y-165744514D01*
X155637224Y-165744514D02*
X155599129Y-165820704D01*
X155599129Y-165820704D02*
X155561034Y-165858800D01*
X155561034Y-165858800D02*
X155484843Y-165896895D01*
X155484843Y-165896895D02*
X155408653Y-165896895D01*
X155408653Y-165896895D02*
X155332462Y-165858800D01*
X155332462Y-165858800D02*
X155294367Y-165820704D01*
X155294367Y-165820704D02*
X155256272Y-165744514D01*
X155256272Y-165744514D02*
X155218176Y-165592133D01*
X155218176Y-165592133D02*
X155218176Y-165401657D01*
X155218176Y-165401657D02*
X155256272Y-165249276D01*
X155256272Y-165249276D02*
X155294367Y-165173085D01*
X155294367Y-165173085D02*
X155332462Y-165134990D01*
X155332462Y-165134990D02*
X155408653Y-165096895D01*
X156018177Y-165592133D02*
X156627701Y-165592133D01*
X157351510Y-165896895D02*
X157351510Y-165096895D01*
X157351510Y-165858800D02*
X157275319Y-165896895D01*
X157275319Y-165896895D02*
X157122938Y-165896895D01*
X157122938Y-165896895D02*
X157046748Y-165858800D01*
X157046748Y-165858800D02*
X157008653Y-165820704D01*
X157008653Y-165820704D02*
X156970557Y-165744514D01*
X156970557Y-165744514D02*
X156970557Y-165515942D01*
X156970557Y-165515942D02*
X157008653Y-165439752D01*
X157008653Y-165439752D02*
X157046748Y-165401657D01*
X157046748Y-165401657D02*
X157122938Y-165363561D01*
X157122938Y-165363561D02*
X157275319Y-165363561D01*
X157275319Y-165363561D02*
X157351510Y-165401657D01*
X158037225Y-165858800D02*
X157961034Y-165896895D01*
X157961034Y-165896895D02*
X157808653Y-165896895D01*
X157808653Y-165896895D02*
X157732463Y-165858800D01*
X157732463Y-165858800D02*
X157694367Y-165782609D01*
X157694367Y-165782609D02*
X157694367Y-165477847D01*
X157694367Y-165477847D02*
X157732463Y-165401657D01*
X157732463Y-165401657D02*
X157808653Y-165363561D01*
X157808653Y-165363561D02*
X157961034Y-165363561D01*
X157961034Y-165363561D02*
X158037225Y-165401657D01*
X158037225Y-165401657D02*
X158075320Y-165477847D01*
X158075320Y-165477847D02*
X158075320Y-165554038D01*
X158075320Y-165554038D02*
X157694367Y-165630228D01*
X158341986Y-165363561D02*
X158532462Y-165896895D01*
X158532462Y-165896895D02*
X158722939Y-165363561D01*
X159599129Y-165058800D02*
X158913415Y-166087371D01*
X159827700Y-165668323D02*
X160208653Y-165668323D01*
X159751510Y-165896895D02*
X160018177Y-165096895D01*
X160018177Y-165096895D02*
X160284843Y-165896895D01*
X160551510Y-165896895D02*
X160551510Y-165363561D01*
X160551510Y-165096895D02*
X160513414Y-165134990D01*
X160513414Y-165134990D02*
X160551510Y-165173085D01*
X160551510Y-165173085D02*
X160589605Y-165134990D01*
X160589605Y-165134990D02*
X160551510Y-165096895D01*
X160551510Y-165096895D02*
X160551510Y-165173085D01*
X160932462Y-165896895D02*
X160932462Y-165363561D01*
X160932462Y-165515942D02*
X160970557Y-165439752D01*
X160970557Y-165439752D02*
X161008652Y-165401657D01*
X161008652Y-165401657D02*
X161084843Y-165363561D01*
X161084843Y-165363561D02*
X161161033Y-165363561D01*
X161427700Y-165363561D02*
X161427700Y-166163561D01*
X161427700Y-165401657D02*
X161503890Y-165363561D01*
X161503890Y-165363561D02*
X161656271Y-165363561D01*
X161656271Y-165363561D02*
X161732462Y-165401657D01*
X161732462Y-165401657D02*
X161770557Y-165439752D01*
X161770557Y-165439752D02*
X161808652Y-165515942D01*
X161808652Y-165515942D02*
X161808652Y-165744514D01*
X161808652Y-165744514D02*
X161770557Y-165820704D01*
X161770557Y-165820704D02*
X161732462Y-165858800D01*
X161732462Y-165858800D02*
X161656271Y-165896895D01*
X161656271Y-165896895D02*
X161503890Y-165896895D01*
X161503890Y-165896895D02*
X161427700Y-165858800D01*
X162265795Y-165896895D02*
X162189605Y-165858800D01*
X162189605Y-165858800D02*
X162151510Y-165782609D01*
X162151510Y-165782609D02*
X162151510Y-165096895D01*
X162913415Y-165896895D02*
X162913415Y-165477847D01*
X162913415Y-165477847D02*
X162875320Y-165401657D01*
X162875320Y-165401657D02*
X162799129Y-165363561D01*
X162799129Y-165363561D02*
X162646748Y-165363561D01*
X162646748Y-165363561D02*
X162570558Y-165401657D01*
X162913415Y-165858800D02*
X162837224Y-165896895D01*
X162837224Y-165896895D02*
X162646748Y-165896895D01*
X162646748Y-165896895D02*
X162570558Y-165858800D01*
X162570558Y-165858800D02*
X162532462Y-165782609D01*
X162532462Y-165782609D02*
X162532462Y-165706419D01*
X162532462Y-165706419D02*
X162570558Y-165630228D01*
X162570558Y-165630228D02*
X162646748Y-165592133D01*
X162646748Y-165592133D02*
X162837224Y-165592133D01*
X162837224Y-165592133D02*
X162913415Y-165554038D01*
X163294368Y-165363561D02*
X163294368Y-165896895D01*
X163294368Y-165439752D02*
X163332463Y-165401657D01*
X163332463Y-165401657D02*
X163408653Y-165363561D01*
X163408653Y-165363561D02*
X163522939Y-165363561D01*
X163522939Y-165363561D02*
X163599130Y-165401657D01*
X163599130Y-165401657D02*
X163637225Y-165477847D01*
X163637225Y-165477847D02*
X163637225Y-165896895D01*
X164322940Y-165858800D02*
X164246749Y-165896895D01*
X164246749Y-165896895D02*
X164094368Y-165896895D01*
X164094368Y-165896895D02*
X164018178Y-165858800D01*
X164018178Y-165858800D02*
X163980082Y-165782609D01*
X163980082Y-165782609D02*
X163980082Y-165477847D01*
X163980082Y-165477847D02*
X164018178Y-165401657D01*
X164018178Y-165401657D02*
X164094368Y-165363561D01*
X164094368Y-165363561D02*
X164246749Y-165363561D01*
X164246749Y-165363561D02*
X164322940Y-165401657D01*
X164322940Y-165401657D02*
X164361035Y-165477847D01*
X164361035Y-165477847D02*
X164361035Y-165554038D01*
X164361035Y-165554038D02*
X163980082Y-165630228D01*
X164665796Y-165858800D02*
X164780082Y-165896895D01*
X164780082Y-165896895D02*
X164970558Y-165896895D01*
X164970558Y-165896895D02*
X165046749Y-165858800D01*
X165046749Y-165858800D02*
X165084844Y-165820704D01*
X165084844Y-165820704D02*
X165122939Y-165744514D01*
X165122939Y-165744514D02*
X165122939Y-165668323D01*
X165122939Y-165668323D02*
X165084844Y-165592133D01*
X165084844Y-165592133D02*
X165046749Y-165554038D01*
X165046749Y-165554038D02*
X164970558Y-165515942D01*
X164970558Y-165515942D02*
X164818177Y-165477847D01*
X164818177Y-165477847D02*
X164741987Y-165439752D01*
X164741987Y-165439752D02*
X164703892Y-165401657D01*
X164703892Y-165401657D02*
X164665796Y-165325466D01*
X164665796Y-165325466D02*
X164665796Y-165249276D01*
X164665796Y-165249276D02*
X164703892Y-165173085D01*
X164703892Y-165173085D02*
X164741987Y-165134990D01*
X164741987Y-165134990D02*
X164818177Y-165096895D01*
X164818177Y-165096895D02*
X165008654Y-165096895D01*
X165008654Y-165096895D02*
X165122939Y-165134990D01*
X165351511Y-165363561D02*
X165656273Y-165363561D01*
X165465797Y-165096895D02*
X165465797Y-165782609D01*
X165465797Y-165782609D02*
X165503892Y-165858800D01*
X165503892Y-165858800D02*
X165580082Y-165896895D01*
X165580082Y-165896895D02*
X165656273Y-165896895D01*
X165922940Y-165896895D02*
X165922940Y-165363561D01*
X165922940Y-165515942D02*
X165961035Y-165439752D01*
X165961035Y-165439752D02*
X165999130Y-165401657D01*
X165999130Y-165401657D02*
X166075321Y-165363561D01*
X166075321Y-165363561D02*
X166151511Y-165363561D01*
X166532463Y-165896895D02*
X166456273Y-165858800D01*
X166456273Y-165858800D02*
X166418178Y-165820704D01*
X166418178Y-165820704D02*
X166380082Y-165744514D01*
X166380082Y-165744514D02*
X166380082Y-165515942D01*
X166380082Y-165515942D02*
X166418178Y-165439752D01*
X166418178Y-165439752D02*
X166456273Y-165401657D01*
X166456273Y-165401657D02*
X166532463Y-165363561D01*
X166532463Y-165363561D02*
X166646749Y-165363561D01*
X166646749Y-165363561D02*
X166722940Y-165401657D01*
X166722940Y-165401657D02*
X166761035Y-165439752D01*
X166761035Y-165439752D02*
X166799130Y-165515942D01*
X166799130Y-165515942D02*
X166799130Y-165744514D01*
X166799130Y-165744514D02*
X166761035Y-165820704D01*
X166761035Y-165820704D02*
X166722940Y-165858800D01*
X166722940Y-165858800D02*
X166646749Y-165896895D01*
X166646749Y-165896895D02*
X166532463Y-165896895D01*
X167141988Y-165896895D02*
X167141988Y-165096895D01*
X167141988Y-165401657D02*
X167218178Y-165363561D01*
X167218178Y-165363561D02*
X167370559Y-165363561D01*
X167370559Y-165363561D02*
X167446750Y-165401657D01*
X167446750Y-165401657D02*
X167484845Y-165439752D01*
X167484845Y-165439752D02*
X167522940Y-165515942D01*
X167522940Y-165515942D02*
X167522940Y-165744514D01*
X167522940Y-165744514D02*
X167484845Y-165820704D01*
X167484845Y-165820704D02*
X167446750Y-165858800D01*
X167446750Y-165858800D02*
X167370559Y-165896895D01*
X167370559Y-165896895D02*
X167218178Y-165896895D01*
X167218178Y-165896895D02*
X167141988Y-165858800D01*
X168170560Y-165858800D02*
X168094369Y-165896895D01*
X168094369Y-165896895D02*
X167941988Y-165896895D01*
X167941988Y-165896895D02*
X167865798Y-165858800D01*
X167865798Y-165858800D02*
X167827702Y-165782609D01*
X167827702Y-165782609D02*
X167827702Y-165477847D01*
X167827702Y-165477847D02*
X167865798Y-165401657D01*
X167865798Y-165401657D02*
X167941988Y-165363561D01*
X167941988Y-165363561D02*
X168094369Y-165363561D01*
X168094369Y-165363561D02*
X168170560Y-165401657D01*
X168170560Y-165401657D02*
X168208655Y-165477847D01*
X168208655Y-165477847D02*
X168208655Y-165554038D01*
X168208655Y-165554038D02*
X167827702Y-165630228D01*
X168932464Y-165896895D02*
X168551512Y-165896895D01*
X168551512Y-165896895D02*
X168551512Y-165096895D01*
X169199131Y-165896895D02*
X169199131Y-165363561D01*
X169199131Y-165096895D02*
X169161035Y-165134990D01*
X169161035Y-165134990D02*
X169199131Y-165173085D01*
X169199131Y-165173085D02*
X169237226Y-165134990D01*
X169237226Y-165134990D02*
X169199131Y-165096895D01*
X169199131Y-165096895D02*
X169199131Y-165173085D01*
X169922940Y-165363561D02*
X169922940Y-166011180D01*
X169922940Y-166011180D02*
X169884845Y-166087371D01*
X169884845Y-166087371D02*
X169846749Y-166125466D01*
X169846749Y-166125466D02*
X169770559Y-166163561D01*
X169770559Y-166163561D02*
X169656273Y-166163561D01*
X169656273Y-166163561D02*
X169580083Y-166125466D01*
X169922940Y-165858800D02*
X169846749Y-165896895D01*
X169846749Y-165896895D02*
X169694368Y-165896895D01*
X169694368Y-165896895D02*
X169618178Y-165858800D01*
X169618178Y-165858800D02*
X169580083Y-165820704D01*
X169580083Y-165820704D02*
X169541987Y-165744514D01*
X169541987Y-165744514D02*
X169541987Y-165515942D01*
X169541987Y-165515942D02*
X169580083Y-165439752D01*
X169580083Y-165439752D02*
X169618178Y-165401657D01*
X169618178Y-165401657D02*
X169694368Y-165363561D01*
X169694368Y-165363561D02*
X169846749Y-165363561D01*
X169846749Y-165363561D02*
X169922940Y-165401657D01*
X170303893Y-165896895D02*
X170303893Y-165096895D01*
X170646750Y-165896895D02*
X170646750Y-165477847D01*
X170646750Y-165477847D02*
X170608655Y-165401657D01*
X170608655Y-165401657D02*
X170532464Y-165363561D01*
X170532464Y-165363561D02*
X170418178Y-165363561D01*
X170418178Y-165363561D02*
X170341988Y-165401657D01*
X170341988Y-165401657D02*
X170303893Y-165439752D01*
X170913417Y-165363561D02*
X171218179Y-165363561D01*
X171027703Y-165096895D02*
X171027703Y-165782609D01*
X171027703Y-165782609D02*
X171065798Y-165858800D01*
X171065798Y-165858800D02*
X171141988Y-165896895D01*
X171141988Y-165896895D02*
X171218179Y-165896895D01*
X171446750Y-165858800D02*
X171522941Y-165896895D01*
X171522941Y-165896895D02*
X171675322Y-165896895D01*
X171675322Y-165896895D02*
X171751512Y-165858800D01*
X171751512Y-165858800D02*
X171789608Y-165782609D01*
X171789608Y-165782609D02*
X171789608Y-165744514D01*
X171789608Y-165744514D02*
X171751512Y-165668323D01*
X171751512Y-165668323D02*
X171675322Y-165630228D01*
X171675322Y-165630228D02*
X171561036Y-165630228D01*
X171561036Y-165630228D02*
X171484846Y-165592133D01*
X171484846Y-165592133D02*
X171446750Y-165515942D01*
X171446750Y-165515942D02*
X171446750Y-165477847D01*
X171446750Y-165477847D02*
X171484846Y-165401657D01*
X171484846Y-165401657D02*
X171561036Y-165363561D01*
X171561036Y-165363561D02*
X171675322Y-165363561D01*
X171675322Y-165363561D02*
X171751512Y-165401657D01*
D11*
X172833333Y-116454819D02*
X172500000Y-115978628D01*
X172261905Y-116454819D02*
X172261905Y-115454819D01*
X172261905Y-115454819D02*
X172642857Y-115454819D01*
X172642857Y-115454819D02*
X172738095Y-115502438D01*
X172738095Y-115502438D02*
X172785714Y-115550057D01*
X172785714Y-115550057D02*
X172833333Y-115645295D01*
X172833333Y-115645295D02*
X172833333Y-115788152D01*
X172833333Y-115788152D02*
X172785714Y-115883390D01*
X172785714Y-115883390D02*
X172738095Y-115931009D01*
X172738095Y-115931009D02*
X172642857Y-115978628D01*
X172642857Y-115978628D02*
X172261905Y-115978628D01*
X173166667Y-115454819D02*
X173833333Y-115454819D01*
X173833333Y-115454819D02*
X173404762Y-116454819D01*
X119991905Y-123454819D02*
X119991905Y-122454819D01*
X119991905Y-122454819D02*
X120230000Y-122454819D01*
X120230000Y-122454819D02*
X120372857Y-122502438D01*
X120372857Y-122502438D02*
X120468095Y-122597676D01*
X120468095Y-122597676D02*
X120515714Y-122692914D01*
X120515714Y-122692914D02*
X120563333Y-122883390D01*
X120563333Y-122883390D02*
X120563333Y-123026247D01*
X120563333Y-123026247D02*
X120515714Y-123216723D01*
X120515714Y-123216723D02*
X120468095Y-123311961D01*
X120468095Y-123311961D02*
X120372857Y-123407200D01*
X120372857Y-123407200D02*
X120230000Y-123454819D01*
X120230000Y-123454819D02*
X119991905Y-123454819D01*
X120944286Y-122550057D02*
X120991905Y-122502438D01*
X120991905Y-122502438D02*
X121087143Y-122454819D01*
X121087143Y-122454819D02*
X121325238Y-122454819D01*
X121325238Y-122454819D02*
X121420476Y-122502438D01*
X121420476Y-122502438D02*
X121468095Y-122550057D01*
X121468095Y-122550057D02*
X121515714Y-122645295D01*
X121515714Y-122645295D02*
X121515714Y-122740533D01*
X121515714Y-122740533D02*
X121468095Y-122883390D01*
X121468095Y-122883390D02*
X120896667Y-123454819D01*
X120896667Y-123454819D02*
X121515714Y-123454819D01*
X184833333Y-124454819D02*
X184500000Y-123978628D01*
X184261905Y-124454819D02*
X184261905Y-123454819D01*
X184261905Y-123454819D02*
X184642857Y-123454819D01*
X184642857Y-123454819D02*
X184738095Y-123502438D01*
X184738095Y-123502438D02*
X184785714Y-123550057D01*
X184785714Y-123550057D02*
X184833333Y-123645295D01*
X184833333Y-123645295D02*
X184833333Y-123788152D01*
X184833333Y-123788152D02*
X184785714Y-123883390D01*
X184785714Y-123883390D02*
X184738095Y-123931009D01*
X184738095Y-123931009D02*
X184642857Y-123978628D01*
X184642857Y-123978628D02*
X184261905Y-123978628D01*
X185404762Y-123883390D02*
X185309524Y-123835771D01*
X185309524Y-123835771D02*
X185261905Y-123788152D01*
X185261905Y-123788152D02*
X185214286Y-123692914D01*
X185214286Y-123692914D02*
X185214286Y-123645295D01*
X185214286Y-123645295D02*
X185261905Y-123550057D01*
X185261905Y-123550057D02*
X185309524Y-123502438D01*
X185309524Y-123502438D02*
X185404762Y-123454819D01*
X185404762Y-123454819D02*
X185595238Y-123454819D01*
X185595238Y-123454819D02*
X185690476Y-123502438D01*
X185690476Y-123502438D02*
X185738095Y-123550057D01*
X185738095Y-123550057D02*
X185785714Y-123645295D01*
X185785714Y-123645295D02*
X185785714Y-123692914D01*
X185785714Y-123692914D02*
X185738095Y-123788152D01*
X185738095Y-123788152D02*
X185690476Y-123835771D01*
X185690476Y-123835771D02*
X185595238Y-123883390D01*
X185595238Y-123883390D02*
X185404762Y-123883390D01*
X185404762Y-123883390D02*
X185309524Y-123931009D01*
X185309524Y-123931009D02*
X185261905Y-123978628D01*
X185261905Y-123978628D02*
X185214286Y-124073866D01*
X185214286Y-124073866D02*
X185214286Y-124264342D01*
X185214286Y-124264342D02*
X185261905Y-124359580D01*
X185261905Y-124359580D02*
X185309524Y-124407200D01*
X185309524Y-124407200D02*
X185404762Y-124454819D01*
X185404762Y-124454819D02*
X185595238Y-124454819D01*
X185595238Y-124454819D02*
X185690476Y-124407200D01*
X185690476Y-124407200D02*
X185738095Y-124359580D01*
X185738095Y-124359580D02*
X185785714Y-124264342D01*
X185785714Y-124264342D02*
X185785714Y-124073866D01*
X185785714Y-124073866D02*
X185738095Y-123978628D01*
X185738095Y-123978628D02*
X185690476Y-123931009D01*
X185690476Y-123931009D02*
X185595238Y-123883390D01*
X159083333Y-113359580D02*
X159035714Y-113407200D01*
X159035714Y-113407200D02*
X158892857Y-113454819D01*
X158892857Y-113454819D02*
X158797619Y-113454819D01*
X158797619Y-113454819D02*
X158654762Y-113407200D01*
X158654762Y-113407200D02*
X158559524Y-113311961D01*
X158559524Y-113311961D02*
X158511905Y-113216723D01*
X158511905Y-113216723D02*
X158464286Y-113026247D01*
X158464286Y-113026247D02*
X158464286Y-112883390D01*
X158464286Y-112883390D02*
X158511905Y-112692914D01*
X158511905Y-112692914D02*
X158559524Y-112597676D01*
X158559524Y-112597676D02*
X158654762Y-112502438D01*
X158654762Y-112502438D02*
X158797619Y-112454819D01*
X158797619Y-112454819D02*
X158892857Y-112454819D01*
X158892857Y-112454819D02*
X159035714Y-112502438D01*
X159035714Y-112502438D02*
X159083333Y-112550057D01*
X160035714Y-113454819D02*
X159464286Y-113454819D01*
X159750000Y-113454819D02*
X159750000Y-112454819D01*
X159750000Y-112454819D02*
X159654762Y-112597676D01*
X159654762Y-112597676D02*
X159559524Y-112692914D01*
X159559524Y-112692914D02*
X159464286Y-112740533D01*
X107261905Y-130454819D02*
X107261905Y-129454819D01*
X107261905Y-129454819D02*
X107500000Y-129454819D01*
X107500000Y-129454819D02*
X107642857Y-129502438D01*
X107642857Y-129502438D02*
X107738095Y-129597676D01*
X107738095Y-129597676D02*
X107785714Y-129692914D01*
X107785714Y-129692914D02*
X107833333Y-129883390D01*
X107833333Y-129883390D02*
X107833333Y-130026247D01*
X107833333Y-130026247D02*
X107785714Y-130216723D01*
X107785714Y-130216723D02*
X107738095Y-130311961D01*
X107738095Y-130311961D02*
X107642857Y-130407200D01*
X107642857Y-130407200D02*
X107500000Y-130454819D01*
X107500000Y-130454819D02*
X107261905Y-130454819D01*
X108785714Y-130454819D02*
X108214286Y-130454819D01*
X108500000Y-130454819D02*
X108500000Y-129454819D01*
X108500000Y-129454819D02*
X108404762Y-129597676D01*
X108404762Y-129597676D02*
X108309524Y-129692914D01*
X108309524Y-129692914D02*
X108214286Y-129740533D01*
X162261905Y-156454819D02*
X162261905Y-155454819D01*
X162261905Y-155454819D02*
X162500000Y-155454819D01*
X162500000Y-155454819D02*
X162642857Y-155502438D01*
X162642857Y-155502438D02*
X162738095Y-155597676D01*
X162738095Y-155597676D02*
X162785714Y-155692914D01*
X162785714Y-155692914D02*
X162833333Y-155883390D01*
X162833333Y-155883390D02*
X162833333Y-156026247D01*
X162833333Y-156026247D02*
X162785714Y-156216723D01*
X162785714Y-156216723D02*
X162738095Y-156311961D01*
X162738095Y-156311961D02*
X162642857Y-156407200D01*
X162642857Y-156407200D02*
X162500000Y-156454819D01*
X162500000Y-156454819D02*
X162261905Y-156454819D01*
X163404762Y-155883390D02*
X163309524Y-155835771D01*
X163309524Y-155835771D02*
X163261905Y-155788152D01*
X163261905Y-155788152D02*
X163214286Y-155692914D01*
X163214286Y-155692914D02*
X163214286Y-155645295D01*
X163214286Y-155645295D02*
X163261905Y-155550057D01*
X163261905Y-155550057D02*
X163309524Y-155502438D01*
X163309524Y-155502438D02*
X163404762Y-155454819D01*
X163404762Y-155454819D02*
X163595238Y-155454819D01*
X163595238Y-155454819D02*
X163690476Y-155502438D01*
X163690476Y-155502438D02*
X163738095Y-155550057D01*
X163738095Y-155550057D02*
X163785714Y-155645295D01*
X163785714Y-155645295D02*
X163785714Y-155692914D01*
X163785714Y-155692914D02*
X163738095Y-155788152D01*
X163738095Y-155788152D02*
X163690476Y-155835771D01*
X163690476Y-155835771D02*
X163595238Y-155883390D01*
X163595238Y-155883390D02*
X163404762Y-155883390D01*
X163404762Y-155883390D02*
X163309524Y-155931009D01*
X163309524Y-155931009D02*
X163261905Y-155978628D01*
X163261905Y-155978628D02*
X163214286Y-156073866D01*
X163214286Y-156073866D02*
X163214286Y-156264342D01*
X163214286Y-156264342D02*
X163261905Y-156359580D01*
X163261905Y-156359580D02*
X163309524Y-156407200D01*
X163309524Y-156407200D02*
X163404762Y-156454819D01*
X163404762Y-156454819D02*
X163595238Y-156454819D01*
X163595238Y-156454819D02*
X163690476Y-156407200D01*
X163690476Y-156407200D02*
X163738095Y-156359580D01*
X163738095Y-156359580D02*
X163785714Y-156264342D01*
X163785714Y-156264342D02*
X163785714Y-156073866D01*
X163785714Y-156073866D02*
X163738095Y-155978628D01*
X163738095Y-155978628D02*
X163690476Y-155931009D01*
X163690476Y-155931009D02*
X163595238Y-155883390D01*
X150833333Y-104534819D02*
X150500000Y-104058628D01*
X150261905Y-104534819D02*
X150261905Y-103534819D01*
X150261905Y-103534819D02*
X150642857Y-103534819D01*
X150642857Y-103534819D02*
X150738095Y-103582438D01*
X150738095Y-103582438D02*
X150785714Y-103630057D01*
X150785714Y-103630057D02*
X150833333Y-103725295D01*
X150833333Y-103725295D02*
X150833333Y-103868152D01*
X150833333Y-103868152D02*
X150785714Y-103963390D01*
X150785714Y-103963390D02*
X150738095Y-104011009D01*
X150738095Y-104011009D02*
X150642857Y-104058628D01*
X150642857Y-104058628D02*
X150261905Y-104058628D01*
X151690476Y-103534819D02*
X151500000Y-103534819D01*
X151500000Y-103534819D02*
X151404762Y-103582438D01*
X151404762Y-103582438D02*
X151357143Y-103630057D01*
X151357143Y-103630057D02*
X151261905Y-103772914D01*
X151261905Y-103772914D02*
X151214286Y-103963390D01*
X151214286Y-103963390D02*
X151214286Y-104344342D01*
X151214286Y-104344342D02*
X151261905Y-104439580D01*
X151261905Y-104439580D02*
X151309524Y-104487200D01*
X151309524Y-104487200D02*
X151404762Y-104534819D01*
X151404762Y-104534819D02*
X151595238Y-104534819D01*
X151595238Y-104534819D02*
X151690476Y-104487200D01*
X151690476Y-104487200D02*
X151738095Y-104439580D01*
X151738095Y-104439580D02*
X151785714Y-104344342D01*
X151785714Y-104344342D02*
X151785714Y-104106247D01*
X151785714Y-104106247D02*
X151738095Y-104011009D01*
X151738095Y-104011009D02*
X151690476Y-103963390D01*
X151690476Y-103963390D02*
X151595238Y-103915771D01*
X151595238Y-103915771D02*
X151404762Y-103915771D01*
X151404762Y-103915771D02*
X151309524Y-103963390D01*
X151309524Y-103963390D02*
X151261905Y-104011009D01*
X151261905Y-104011009D02*
X151214286Y-104106247D01*
X150531905Y-156454819D02*
X150531905Y-155454819D01*
X150531905Y-155454819D02*
X150770000Y-155454819D01*
X150770000Y-155454819D02*
X150912857Y-155502438D01*
X150912857Y-155502438D02*
X151008095Y-155597676D01*
X151008095Y-155597676D02*
X151055714Y-155692914D01*
X151055714Y-155692914D02*
X151103333Y-155883390D01*
X151103333Y-155883390D02*
X151103333Y-156026247D01*
X151103333Y-156026247D02*
X151055714Y-156216723D01*
X151055714Y-156216723D02*
X151008095Y-156311961D01*
X151008095Y-156311961D02*
X150912857Y-156407200D01*
X150912857Y-156407200D02*
X150770000Y-156454819D01*
X150770000Y-156454819D02*
X150531905Y-156454819D01*
X151436667Y-155454819D02*
X152103333Y-155454819D01*
X152103333Y-155454819D02*
X151674762Y-156454819D01*
X150666666Y-84454819D02*
X150666666Y-85169104D01*
X150666666Y-85169104D02*
X150619047Y-85311961D01*
X150619047Y-85311961D02*
X150523809Y-85407200D01*
X150523809Y-85407200D02*
X150380952Y-85454819D01*
X150380952Y-85454819D02*
X150285714Y-85454819D01*
X151666666Y-85454819D02*
X151095238Y-85454819D01*
X151380952Y-85454819D02*
X151380952Y-84454819D01*
X151380952Y-84454819D02*
X151285714Y-84597676D01*
X151285714Y-84597676D02*
X151190476Y-84692914D01*
X151190476Y-84692914D02*
X151095238Y-84740533D01*
X150238095Y-110454819D02*
X150238095Y-111264342D01*
X150238095Y-111264342D02*
X150285714Y-111359580D01*
X150285714Y-111359580D02*
X150333333Y-111407200D01*
X150333333Y-111407200D02*
X150428571Y-111454819D01*
X150428571Y-111454819D02*
X150619047Y-111454819D01*
X150619047Y-111454819D02*
X150714285Y-111407200D01*
X150714285Y-111407200D02*
X150761904Y-111359580D01*
X150761904Y-111359580D02*
X150809523Y-111264342D01*
X150809523Y-111264342D02*
X150809523Y-110454819D01*
X151809523Y-111454819D02*
X151238095Y-111454819D01*
X151523809Y-111454819D02*
X151523809Y-110454819D01*
X151523809Y-110454819D02*
X151428571Y-110597676D01*
X151428571Y-110597676D02*
X151333333Y-110692914D01*
X151333333Y-110692914D02*
X151238095Y-110740533D01*
X179531905Y-115494819D02*
X179531905Y-114494819D01*
X179531905Y-114494819D02*
X179770000Y-114494819D01*
X179770000Y-114494819D02*
X179912857Y-114542438D01*
X179912857Y-114542438D02*
X180008095Y-114637676D01*
X180008095Y-114637676D02*
X180055714Y-114732914D01*
X180055714Y-114732914D02*
X180103333Y-114923390D01*
X180103333Y-114923390D02*
X180103333Y-115066247D01*
X180103333Y-115066247D02*
X180055714Y-115256723D01*
X180055714Y-115256723D02*
X180008095Y-115351961D01*
X180008095Y-115351961D02*
X179912857Y-115447200D01*
X179912857Y-115447200D02*
X179770000Y-115494819D01*
X179770000Y-115494819D02*
X179531905Y-115494819D01*
X180960476Y-114828152D02*
X180960476Y-115494819D01*
X180722381Y-114447200D02*
X180484286Y-115161485D01*
X180484286Y-115161485D02*
X181103333Y-115161485D01*
X116753333Y-124454819D02*
X116420000Y-123978628D01*
X116181905Y-124454819D02*
X116181905Y-123454819D01*
X116181905Y-123454819D02*
X116562857Y-123454819D01*
X116562857Y-123454819D02*
X116658095Y-123502438D01*
X116658095Y-123502438D02*
X116705714Y-123550057D01*
X116705714Y-123550057D02*
X116753333Y-123645295D01*
X116753333Y-123645295D02*
X116753333Y-123788152D01*
X116753333Y-123788152D02*
X116705714Y-123883390D01*
X116705714Y-123883390D02*
X116658095Y-123931009D01*
X116658095Y-123931009D02*
X116562857Y-123978628D01*
X116562857Y-123978628D02*
X116181905Y-123978628D01*
X117610476Y-123788152D02*
X117610476Y-124454819D01*
X117372381Y-123407200D02*
X117134286Y-124121485D01*
X117134286Y-124121485D02*
X117753333Y-124121485D01*
X127753333Y-118454819D02*
X127420000Y-117978628D01*
X127181905Y-118454819D02*
X127181905Y-117454819D01*
X127181905Y-117454819D02*
X127562857Y-117454819D01*
X127562857Y-117454819D02*
X127658095Y-117502438D01*
X127658095Y-117502438D02*
X127705714Y-117550057D01*
X127705714Y-117550057D02*
X127753333Y-117645295D01*
X127753333Y-117645295D02*
X127753333Y-117788152D01*
X127753333Y-117788152D02*
X127705714Y-117883390D01*
X127705714Y-117883390D02*
X127658095Y-117931009D01*
X127658095Y-117931009D02*
X127562857Y-117978628D01*
X127562857Y-117978628D02*
X127181905Y-117978628D01*
X128658095Y-117454819D02*
X128181905Y-117454819D01*
X128181905Y-117454819D02*
X128134286Y-117931009D01*
X128134286Y-117931009D02*
X128181905Y-117883390D01*
X128181905Y-117883390D02*
X128277143Y-117835771D01*
X128277143Y-117835771D02*
X128515238Y-117835771D01*
X128515238Y-117835771D02*
X128610476Y-117883390D01*
X128610476Y-117883390D02*
X128658095Y-117931009D01*
X128658095Y-117931009D02*
X128705714Y-118026247D01*
X128705714Y-118026247D02*
X128705714Y-118264342D01*
X128705714Y-118264342D02*
X128658095Y-118359580D01*
X128658095Y-118359580D02*
X128610476Y-118407200D01*
X128610476Y-118407200D02*
X128515238Y-118454819D01*
X128515238Y-118454819D02*
X128277143Y-118454819D01*
X128277143Y-118454819D02*
X128181905Y-118407200D01*
X128181905Y-118407200D02*
X128134286Y-118359580D01*
X150547142Y-143534819D02*
X150213809Y-143058628D01*
X149975714Y-143534819D02*
X149975714Y-142534819D01*
X149975714Y-142534819D02*
X150356666Y-142534819D01*
X150356666Y-142534819D02*
X150451904Y-142582438D01*
X150451904Y-142582438D02*
X150499523Y-142630057D01*
X150499523Y-142630057D02*
X150547142Y-142725295D01*
X150547142Y-142725295D02*
X150547142Y-142868152D01*
X150547142Y-142868152D02*
X150499523Y-142963390D01*
X150499523Y-142963390D02*
X150451904Y-143011009D01*
X150451904Y-143011009D02*
X150356666Y-143058628D01*
X150356666Y-143058628D02*
X149975714Y-143058628D01*
X151499523Y-143534819D02*
X150928095Y-143534819D01*
X151213809Y-143534819D02*
X151213809Y-142534819D01*
X151213809Y-142534819D02*
X151118571Y-142677676D01*
X151118571Y-142677676D02*
X151023333Y-142772914D01*
X151023333Y-142772914D02*
X150928095Y-142820533D01*
X152118571Y-142534819D02*
X152213809Y-142534819D01*
X152213809Y-142534819D02*
X152309047Y-142582438D01*
X152309047Y-142582438D02*
X152356666Y-142630057D01*
X152356666Y-142630057D02*
X152404285Y-142725295D01*
X152404285Y-142725295D02*
X152451904Y-142915771D01*
X152451904Y-142915771D02*
X152451904Y-143153866D01*
X152451904Y-143153866D02*
X152404285Y-143344342D01*
X152404285Y-143344342D02*
X152356666Y-143439580D01*
X152356666Y-143439580D02*
X152309047Y-143487200D01*
X152309047Y-143487200D02*
X152213809Y-143534819D01*
X152213809Y-143534819D02*
X152118571Y-143534819D01*
X152118571Y-143534819D02*
X152023333Y-143487200D01*
X152023333Y-143487200D02*
X151975714Y-143439580D01*
X151975714Y-143439580D02*
X151928095Y-143344342D01*
X151928095Y-143344342D02*
X151880476Y-143153866D01*
X151880476Y-143153866D02*
X151880476Y-142915771D01*
X151880476Y-142915771D02*
X151928095Y-142725295D01*
X151928095Y-142725295D02*
X151975714Y-142630057D01*
X151975714Y-142630057D02*
X152023333Y-142582438D01*
X152023333Y-142582438D02*
X152118571Y-142534819D01*
X140833333Y-106534819D02*
X140500000Y-106058628D01*
X140261905Y-106534819D02*
X140261905Y-105534819D01*
X140261905Y-105534819D02*
X140642857Y-105534819D01*
X140642857Y-105534819D02*
X140738095Y-105582438D01*
X140738095Y-105582438D02*
X140785714Y-105630057D01*
X140785714Y-105630057D02*
X140833333Y-105725295D01*
X140833333Y-105725295D02*
X140833333Y-105868152D01*
X140833333Y-105868152D02*
X140785714Y-105963390D01*
X140785714Y-105963390D02*
X140738095Y-106011009D01*
X140738095Y-106011009D02*
X140642857Y-106058628D01*
X140642857Y-106058628D02*
X140261905Y-106058628D01*
X141785714Y-106534819D02*
X141214286Y-106534819D01*
X141500000Y-106534819D02*
X141500000Y-105534819D01*
X141500000Y-105534819D02*
X141404762Y-105677676D01*
X141404762Y-105677676D02*
X141309524Y-105772914D01*
X141309524Y-105772914D02*
X141214286Y-105820533D01*
X191261905Y-122494819D02*
X191261905Y-121494819D01*
X191261905Y-121494819D02*
X191500000Y-121494819D01*
X191500000Y-121494819D02*
X191642857Y-121542438D01*
X191642857Y-121542438D02*
X191738095Y-121637676D01*
X191738095Y-121637676D02*
X191785714Y-121732914D01*
X191785714Y-121732914D02*
X191833333Y-121923390D01*
X191833333Y-121923390D02*
X191833333Y-122066247D01*
X191833333Y-122066247D02*
X191785714Y-122256723D01*
X191785714Y-122256723D02*
X191738095Y-122351961D01*
X191738095Y-122351961D02*
X191642857Y-122447200D01*
X191642857Y-122447200D02*
X191500000Y-122494819D01*
X191500000Y-122494819D02*
X191261905Y-122494819D01*
X192738095Y-121494819D02*
X192261905Y-121494819D01*
X192261905Y-121494819D02*
X192214286Y-121971009D01*
X192214286Y-121971009D02*
X192261905Y-121923390D01*
X192261905Y-121923390D02*
X192357143Y-121875771D01*
X192357143Y-121875771D02*
X192595238Y-121875771D01*
X192595238Y-121875771D02*
X192690476Y-121923390D01*
X192690476Y-121923390D02*
X192738095Y-121971009D01*
X192738095Y-121971009D02*
X192785714Y-122066247D01*
X192785714Y-122066247D02*
X192785714Y-122304342D01*
X192785714Y-122304342D02*
X192738095Y-122399580D01*
X192738095Y-122399580D02*
X192690476Y-122447200D01*
X192690476Y-122447200D02*
X192595238Y-122494819D01*
X192595238Y-122494819D02*
X192357143Y-122494819D01*
X192357143Y-122494819D02*
X192261905Y-122447200D01*
X192261905Y-122447200D02*
X192214286Y-122399580D01*
X163833333Y-105454819D02*
X163500000Y-104978628D01*
X163261905Y-105454819D02*
X163261905Y-104454819D01*
X163261905Y-104454819D02*
X163642857Y-104454819D01*
X163642857Y-104454819D02*
X163738095Y-104502438D01*
X163738095Y-104502438D02*
X163785714Y-104550057D01*
X163785714Y-104550057D02*
X163833333Y-104645295D01*
X163833333Y-104645295D02*
X163833333Y-104788152D01*
X163833333Y-104788152D02*
X163785714Y-104883390D01*
X163785714Y-104883390D02*
X163738095Y-104931009D01*
X163738095Y-104931009D02*
X163642857Y-104978628D01*
X163642857Y-104978628D02*
X163261905Y-104978628D01*
X164214286Y-104550057D02*
X164261905Y-104502438D01*
X164261905Y-104502438D02*
X164357143Y-104454819D01*
X164357143Y-104454819D02*
X164595238Y-104454819D01*
X164595238Y-104454819D02*
X164690476Y-104502438D01*
X164690476Y-104502438D02*
X164738095Y-104550057D01*
X164738095Y-104550057D02*
X164785714Y-104645295D01*
X164785714Y-104645295D02*
X164785714Y-104740533D01*
X164785714Y-104740533D02*
X164738095Y-104883390D01*
X164738095Y-104883390D02*
X164166667Y-105454819D01*
X164166667Y-105454819D02*
X164785714Y-105454819D01*
X140534819Y-157166666D02*
X140058628Y-157499999D01*
X140534819Y-157738094D02*
X139534819Y-157738094D01*
X139534819Y-157738094D02*
X139534819Y-157357142D01*
X139534819Y-157357142D02*
X139582438Y-157261904D01*
X139582438Y-157261904D02*
X139630057Y-157214285D01*
X139630057Y-157214285D02*
X139725295Y-157166666D01*
X139725295Y-157166666D02*
X139868152Y-157166666D01*
X139868152Y-157166666D02*
X139963390Y-157214285D01*
X139963390Y-157214285D02*
X140011009Y-157261904D01*
X140011009Y-157261904D02*
X140058628Y-157357142D01*
X140058628Y-157357142D02*
X140058628Y-157738094D01*
X140534819Y-156690475D02*
X140534819Y-156499999D01*
X140534819Y-156499999D02*
X140487200Y-156404761D01*
X140487200Y-156404761D02*
X140439580Y-156357142D01*
X140439580Y-156357142D02*
X140296723Y-156261904D01*
X140296723Y-156261904D02*
X140106247Y-156214285D01*
X140106247Y-156214285D02*
X139725295Y-156214285D01*
X139725295Y-156214285D02*
X139630057Y-156261904D01*
X139630057Y-156261904D02*
X139582438Y-156309523D01*
X139582438Y-156309523D02*
X139534819Y-156404761D01*
X139534819Y-156404761D02*
X139534819Y-156595237D01*
X139534819Y-156595237D02*
X139582438Y-156690475D01*
X139582438Y-156690475D02*
X139630057Y-156738094D01*
X139630057Y-156738094D02*
X139725295Y-156785713D01*
X139725295Y-156785713D02*
X139963390Y-156785713D01*
X139963390Y-156785713D02*
X140058628Y-156738094D01*
X140058628Y-156738094D02*
X140106247Y-156690475D01*
X140106247Y-156690475D02*
X140153866Y-156595237D01*
X140153866Y-156595237D02*
X140153866Y-156404761D01*
X140153866Y-156404761D02*
X140106247Y-156309523D01*
X140106247Y-156309523D02*
X140058628Y-156261904D01*
X140058628Y-156261904D02*
X139963390Y-156214285D01*
X146261905Y-100454819D02*
X146261905Y-99454819D01*
X146261905Y-99454819D02*
X146500000Y-99454819D01*
X146500000Y-99454819D02*
X146642857Y-99502438D01*
X146642857Y-99502438D02*
X146738095Y-99597676D01*
X146738095Y-99597676D02*
X146785714Y-99692914D01*
X146785714Y-99692914D02*
X146833333Y-99883390D01*
X146833333Y-99883390D02*
X146833333Y-100026247D01*
X146833333Y-100026247D02*
X146785714Y-100216723D01*
X146785714Y-100216723D02*
X146738095Y-100311961D01*
X146738095Y-100311961D02*
X146642857Y-100407200D01*
X146642857Y-100407200D02*
X146500000Y-100454819D01*
X146500000Y-100454819D02*
X146261905Y-100454819D01*
X147166667Y-99454819D02*
X147785714Y-99454819D01*
X147785714Y-99454819D02*
X147452381Y-99835771D01*
X147452381Y-99835771D02*
X147595238Y-99835771D01*
X147595238Y-99835771D02*
X147690476Y-99883390D01*
X147690476Y-99883390D02*
X147738095Y-99931009D01*
X147738095Y-99931009D02*
X147785714Y-100026247D01*
X147785714Y-100026247D02*
X147785714Y-100264342D01*
X147785714Y-100264342D02*
X147738095Y-100359580D01*
X147738095Y-100359580D02*
X147690476Y-100407200D01*
X147690476Y-100407200D02*
X147595238Y-100454819D01*
X147595238Y-100454819D02*
X147309524Y-100454819D01*
X147309524Y-100454819D02*
X147214286Y-100407200D01*
X147214286Y-100407200D02*
X147166667Y-100359580D01*
X136261905Y-157494819D02*
X136261905Y-156494819D01*
X136261905Y-156494819D02*
X136500000Y-156494819D01*
X136500000Y-156494819D02*
X136642857Y-156542438D01*
X136642857Y-156542438D02*
X136738095Y-156637676D01*
X136738095Y-156637676D02*
X136785714Y-156732914D01*
X136785714Y-156732914D02*
X136833333Y-156923390D01*
X136833333Y-156923390D02*
X136833333Y-157066247D01*
X136833333Y-157066247D02*
X136785714Y-157256723D01*
X136785714Y-157256723D02*
X136738095Y-157351961D01*
X136738095Y-157351961D02*
X136642857Y-157447200D01*
X136642857Y-157447200D02*
X136500000Y-157494819D01*
X136500000Y-157494819D02*
X136261905Y-157494819D01*
X137690476Y-156494819D02*
X137500000Y-156494819D01*
X137500000Y-156494819D02*
X137404762Y-156542438D01*
X137404762Y-156542438D02*
X137357143Y-156590057D01*
X137357143Y-156590057D02*
X137261905Y-156732914D01*
X137261905Y-156732914D02*
X137214286Y-156923390D01*
X137214286Y-156923390D02*
X137214286Y-157304342D01*
X137214286Y-157304342D02*
X137261905Y-157399580D01*
X137261905Y-157399580D02*
X137309524Y-157447200D01*
X137309524Y-157447200D02*
X137404762Y-157494819D01*
X137404762Y-157494819D02*
X137595238Y-157494819D01*
X137595238Y-157494819D02*
X137690476Y-157447200D01*
X137690476Y-157447200D02*
X137738095Y-157399580D01*
X137738095Y-157399580D02*
X137785714Y-157304342D01*
X137785714Y-157304342D02*
X137785714Y-157066247D01*
X137785714Y-157066247D02*
X137738095Y-156971009D01*
X137738095Y-156971009D02*
X137690476Y-156923390D01*
X137690476Y-156923390D02*
X137595238Y-156875771D01*
X137595238Y-156875771D02*
X137404762Y-156875771D01*
X137404762Y-156875771D02*
X137309524Y-156923390D01*
X137309524Y-156923390D02*
X137261905Y-156971009D01*
X137261905Y-156971009D02*
X137214286Y-157066247D01*
X150428095Y-123454819D02*
X150428095Y-124264342D01*
X150428095Y-124264342D02*
X150475714Y-124359580D01*
X150475714Y-124359580D02*
X150523333Y-124407200D01*
X150523333Y-124407200D02*
X150618571Y-124454819D01*
X150618571Y-124454819D02*
X150809047Y-124454819D01*
X150809047Y-124454819D02*
X150904285Y-124407200D01*
X150904285Y-124407200D02*
X150951904Y-124359580D01*
X150951904Y-124359580D02*
X150999523Y-124264342D01*
X150999523Y-124264342D02*
X150999523Y-123454819D01*
X151428095Y-123550057D02*
X151475714Y-123502438D01*
X151475714Y-123502438D02*
X151570952Y-123454819D01*
X151570952Y-123454819D02*
X151809047Y-123454819D01*
X151809047Y-123454819D02*
X151904285Y-123502438D01*
X151904285Y-123502438D02*
X151951904Y-123550057D01*
X151951904Y-123550057D02*
X151999523Y-123645295D01*
X151999523Y-123645295D02*
X151999523Y-123740533D01*
X151999523Y-123740533D02*
X151951904Y-123883390D01*
X151951904Y-123883390D02*
X151380476Y-124454819D01*
X151380476Y-124454819D02*
X151999523Y-124454819D01*
X137083333Y-114359580D02*
X137035714Y-114407200D01*
X137035714Y-114407200D02*
X136892857Y-114454819D01*
X136892857Y-114454819D02*
X136797619Y-114454819D01*
X136797619Y-114454819D02*
X136654762Y-114407200D01*
X136654762Y-114407200D02*
X136559524Y-114311961D01*
X136559524Y-114311961D02*
X136511905Y-114216723D01*
X136511905Y-114216723D02*
X136464286Y-114026247D01*
X136464286Y-114026247D02*
X136464286Y-113883390D01*
X136464286Y-113883390D02*
X136511905Y-113692914D01*
X136511905Y-113692914D02*
X136559524Y-113597676D01*
X136559524Y-113597676D02*
X136654762Y-113502438D01*
X136654762Y-113502438D02*
X136797619Y-113454819D01*
X136797619Y-113454819D02*
X136892857Y-113454819D01*
X136892857Y-113454819D02*
X137035714Y-113502438D01*
X137035714Y-113502438D02*
X137083333Y-113550057D01*
X137464286Y-113550057D02*
X137511905Y-113502438D01*
X137511905Y-113502438D02*
X137607143Y-113454819D01*
X137607143Y-113454819D02*
X137845238Y-113454819D01*
X137845238Y-113454819D02*
X137940476Y-113502438D01*
X137940476Y-113502438D02*
X137988095Y-113550057D01*
X137988095Y-113550057D02*
X138035714Y-113645295D01*
X138035714Y-113645295D02*
X138035714Y-113740533D01*
X138035714Y-113740533D02*
X137988095Y-113883390D01*
X137988095Y-113883390D02*
X137416667Y-114454819D01*
X137416667Y-114454819D02*
X138035714Y-114454819D01*
X156534819Y-156642857D02*
X156058628Y-156976190D01*
X156534819Y-157214285D02*
X155534819Y-157214285D01*
X155534819Y-157214285D02*
X155534819Y-156833333D01*
X155534819Y-156833333D02*
X155582438Y-156738095D01*
X155582438Y-156738095D02*
X155630057Y-156690476D01*
X155630057Y-156690476D02*
X155725295Y-156642857D01*
X155725295Y-156642857D02*
X155868152Y-156642857D01*
X155868152Y-156642857D02*
X155963390Y-156690476D01*
X155963390Y-156690476D02*
X156011009Y-156738095D01*
X156011009Y-156738095D02*
X156058628Y-156833333D01*
X156058628Y-156833333D02*
X156058628Y-157214285D01*
X156534819Y-155690476D02*
X156534819Y-156261904D01*
X156534819Y-155976190D02*
X155534819Y-155976190D01*
X155534819Y-155976190D02*
X155677676Y-156071428D01*
X155677676Y-156071428D02*
X155772914Y-156166666D01*
X155772914Y-156166666D02*
X155820533Y-156261904D01*
X156534819Y-154738095D02*
X156534819Y-155309523D01*
X156534819Y-155023809D02*
X155534819Y-155023809D01*
X155534819Y-155023809D02*
X155677676Y-155119047D01*
X155677676Y-155119047D02*
X155772914Y-155214285D01*
X155772914Y-155214285D02*
X155820533Y-155309523D01*
%TO.C,R7*%
D12*
X175000000Y-114130000D02*
X175000000Y-115080000D01*
X175000000Y-119870000D02*
X175000000Y-118920000D01*
X174080000Y-115080000D02*
X175920000Y-115080000D01*
X175920000Y-118920000D01*
X174080000Y-118920000D01*
X174080000Y-115080000D01*
%TO.C,D2*%
X118170000Y-117455000D02*
X118170000Y-120545000D01*
X118170000Y-117455170D02*
G75*
G02*
X123720000Y-119000000I2560000J-1544830D01*
G01*
X123720000Y-119000000D02*
G75*
G02*
X118170000Y-120544830I-2990000J0D01*
G01*
X123230000Y-119000000D02*
G75*
G02*
X118230000Y-119000000I-2500000J0D01*
G01*
X118230000Y-119000000D02*
G75*
G02*
X123230000Y-119000000I2500000J0D01*
G01*
%TO.C,R8*%
X187000000Y-120130000D02*
X187000000Y-121080000D01*
X187000000Y-125870000D02*
X187000000Y-124920000D01*
X186080000Y-121080000D02*
X187920000Y-121080000D01*
X187920000Y-124920000D01*
X186080000Y-124920000D01*
X186080000Y-121080000D01*
%TO.C,C1*%
X160380000Y-108880000D02*
X165620000Y-108880000D01*
X160380000Y-117120000D02*
X160380000Y-108880000D01*
X165620000Y-108880000D02*
X165620000Y-117120000D01*
X165620000Y-117120000D02*
X160380000Y-117120000D01*
%TO.C,D1*%
X106170000Y-124455000D02*
X106170000Y-127545000D01*
X106170000Y-124455170D02*
G75*
G02*
X111720000Y-126000000I2560000J-1544830D01*
G01*
X111720000Y-126000000D02*
G75*
G02*
X106170000Y-127544830I-2990000J0D01*
G01*
X111230000Y-126000000D02*
G75*
G02*
X106230000Y-126000000I-2500000J0D01*
G01*
X106230000Y-126000000D02*
G75*
G02*
X111230000Y-126000000I2500000J0D01*
G01*
%TO.C,D8*%
X165290000Y-161545000D02*
X165290000Y-158455000D01*
X159740000Y-160000000D02*
G75*
G02*
X165290000Y-158455170I2990000J0D01*
G01*
X165290000Y-161544830D02*
G75*
G02*
X159740000Y-160000000I-2560000J1544830D01*
G01*
X165230000Y-160000000D02*
G75*
G02*
X160230000Y-160000000I-2500000J0D01*
G01*
X160230000Y-160000000D02*
G75*
G02*
X165230000Y-160000000I2500000J0D01*
G01*
%TO.C,R6*%
X148130000Y-106000000D02*
X149080000Y-106000000D01*
X153870000Y-106000000D02*
X152920000Y-106000000D01*
X149080000Y-105080000D02*
X152920000Y-105080000D01*
X152920000Y-106920000D01*
X149080000Y-106920000D01*
X149080000Y-105080000D01*
%TO.C,D7*%
X148710000Y-150455000D02*
X148710000Y-153545000D01*
X148710000Y-150455170D02*
G75*
G02*
X154260000Y-152000000I2560000J-1544830D01*
G01*
X154260000Y-152000000D02*
G75*
G02*
X148710000Y-153544830I-2990000J0D01*
G01*
X153770000Y-152000000D02*
G75*
G02*
X148770000Y-152000000I-2500000J0D01*
G01*
X148770000Y-152000000D02*
G75*
G02*
X153770000Y-152000000I2500000J0D01*
G01*
%TO.C,J1*%
X143690000Y-78260000D02*
X143690000Y-78780000D01*
X143690000Y-78780000D02*
X144340000Y-78780000D01*
X144340000Y-86890000D02*
X144340000Y-78780000D01*
X144340000Y-93740000D02*
X144340000Y-90410000D01*
X155400000Y-93960000D02*
X153600000Y-93960000D01*
X157660000Y-78780000D02*
X157660000Y-86890000D01*
X157660000Y-78780000D02*
X158310000Y-78780000D01*
X157660000Y-93740000D02*
X144340000Y-93740000D01*
X157660000Y-93740000D02*
X157660000Y-90410000D01*
X158310000Y-78260000D02*
X143690000Y-78260000D01*
X158310000Y-78780000D02*
X158310000Y-78260000D01*
%TO.C,U1*%
X148540000Y-109130000D02*
X148540000Y-119410000D01*
X148540000Y-119410000D02*
X153840000Y-119410000D01*
X150190000Y-109130000D02*
X148540000Y-109130000D01*
X153840000Y-109130000D02*
X152190000Y-109130000D01*
X153840000Y-119410000D02*
X153840000Y-109130000D01*
X152190000Y-109130000D02*
G75*
G02*
X150190000Y-109130000I-1000000J0D01*
G01*
%TO.C,D4*%
X177710000Y-117455000D02*
X177710000Y-120545000D01*
X177710000Y-117455170D02*
G75*
G02*
X183260000Y-119000000I2560000J-1544830D01*
G01*
X183260000Y-119000000D02*
G75*
G02*
X177710000Y-120544830I-2990000J0D01*
G01*
X182770000Y-119000000D02*
G75*
G02*
X177770000Y-119000000I-2500000J0D01*
G01*
X177770000Y-119000000D02*
G75*
G02*
X182770000Y-119000000I2500000J0D01*
G01*
%TO.C,R4*%
X115000000Y-121130000D02*
X115000000Y-122080000D01*
X115000000Y-126870000D02*
X115000000Y-125920000D01*
X114080000Y-122080000D02*
X115920000Y-122080000D01*
X115920000Y-125920000D01*
X114080000Y-125920000D01*
X114080000Y-122080000D01*
%TO.C,R5*%
X126000000Y-115130000D02*
X126000000Y-116080000D01*
X126000000Y-120870000D02*
X126000000Y-119920000D01*
X125080000Y-116080000D02*
X126920000Y-116080000D01*
X126920000Y-119920000D01*
X125080000Y-119920000D01*
X125080000Y-116080000D01*
%TO.C,R10*%
X148320000Y-145000000D02*
X149270000Y-145000000D01*
X154060000Y-145000000D02*
X153110000Y-145000000D01*
X149270000Y-144080000D02*
X153110000Y-144080000D01*
X153110000Y-145920000D01*
X149270000Y-145920000D01*
X149270000Y-144080000D01*
%TO.C,R1*%
X137130000Y-108000000D02*
X138080000Y-108000000D01*
X142870000Y-108000000D02*
X141920000Y-108000000D01*
X138080000Y-107080000D02*
X141920000Y-107080000D01*
X141920000Y-108920000D01*
X138080000Y-108920000D01*
X138080000Y-107080000D01*
%TO.C,D5*%
X189440000Y-124455000D02*
X189440000Y-127545000D01*
X189440000Y-124455170D02*
G75*
G02*
X194990000Y-126000000I2560000J-1544830D01*
G01*
X194990000Y-126000000D02*
G75*
G02*
X189440000Y-127544830I-2990000J0D01*
G01*
X194500000Y-126000000D02*
G75*
G02*
X189500000Y-126000000I-2500000J0D01*
G01*
X189500000Y-126000000D02*
G75*
G02*
X194500000Y-126000000I2500000J0D01*
G01*
%TO.C,R2*%
X160320000Y-107000000D02*
X161270000Y-107000000D01*
X166060000Y-107000000D02*
X165110000Y-107000000D01*
X161270000Y-106080000D02*
X165110000Y-106080000D01*
X165110000Y-107920000D01*
X161270000Y-107920000D01*
X161270000Y-106080000D01*
%TO.C,R9*%
X142000000Y-154130000D02*
X142000000Y-155080000D01*
X142000000Y-159870000D02*
X142000000Y-158920000D01*
X141080000Y-155080000D02*
X142920000Y-155080000D01*
X142920000Y-158920000D01*
X141080000Y-158920000D01*
X141080000Y-155080000D01*
%TO.C,D3*%
X148710000Y-98455000D02*
X148710000Y-101545000D01*
X148710000Y-98455170D02*
G75*
G02*
X154260000Y-100000000I2560000J-1544830D01*
G01*
X154260000Y-100000000D02*
G75*
G02*
X148710000Y-101544830I-2990000J0D01*
G01*
X153770000Y-100000000D02*
G75*
G02*
X148770000Y-100000000I-2500000J0D01*
G01*
X148770000Y-100000000D02*
G75*
G02*
X153770000Y-100000000I2500000J0D01*
G01*
%TO.C,D6*%
X134440000Y-159455000D02*
X134440000Y-162545000D01*
X134440000Y-159455170D02*
G75*
G02*
X139990000Y-161000000I2560000J-1544830D01*
G01*
X139990000Y-161000000D02*
G75*
G02*
X134440000Y-162544830I-2990000J0D01*
G01*
X139500000Y-161000000D02*
G75*
G02*
X134500000Y-161000000I-2500000J0D01*
G01*
X134500000Y-161000000D02*
G75*
G02*
X139500000Y-161000000I2500000J0D01*
G01*
%TO.C,U2*%
X148540000Y-121780000D02*
X148540000Y-142220000D01*
X148540000Y-142220000D02*
X153840000Y-142220000D01*
X150190000Y-121780000D02*
X148540000Y-121780000D01*
X153840000Y-121780000D02*
X152190000Y-121780000D01*
X153840000Y-142220000D02*
X153840000Y-121780000D01*
X152190000Y-121780000D02*
G75*
G02*
X150190000Y-121780000I-1000000J0D01*
G01*
%TO.C,C2*%
X138380000Y-109880000D02*
X143620000Y-109880000D01*
X138380000Y-118120000D02*
X138380000Y-109880000D01*
X143620000Y-109880000D02*
X143620000Y-118120000D01*
X143620000Y-118120000D02*
X138380000Y-118120000D01*
%TO.C,R11*%
X158000000Y-153130000D02*
X158000000Y-154080000D01*
X158000000Y-158870000D02*
X158000000Y-157920000D01*
X157080000Y-154080000D02*
X158920000Y-154080000D01*
X158920000Y-157920000D01*
X157080000Y-157920000D01*
X157080000Y-154080000D01*
%TD*%
M02*
