M48
; DRILL file KiCad 10.0.0 date 2026-04-17T19:20:33
; FORMAT={-:-/ absolute / metric / decimal}
; #@! TF.CreationDate,2026-04-17T19:20:33-05:00
; #@! TF.GenerationSoftware,Kicad,Pcbnew,10.0.0
; #@! TF.FileFunction,Plated,1,2,PTH
FMAT,2
METRIC
; #@! TA.AperFunction,Plated,PTH,ComponentDrill
T1C0.700
; #@! TA.AperFunction,Plated,PTH,ComponentDrill
T2C0.800
; #@! TA.AperFunction,Plated,PTH,ComponentDrill
T3C0.900
; #@! TA.AperFunction,Plated,PTH,ComponentDrill
T4C0.950
; #@! TA.AperFunction,Plated,PTH,ComponentDrill
T5C1.000
; #@! TA.AperFunction,Plated,PTH,ComponentDrill
T6C2.300
%
G90
G05
T1
X115.0Y-120.19
X115.0Y-127.81
X126.0Y-114.19
X126.0Y-121.81
X136.19Y-108.0
X142.0Y-153.19
X142.0Y-160.81
X143.81Y-108.0
X147.19Y-106.0
X147.38Y-145.0
X154.81Y-106.0
X155.0Y-145.0
X158.0Y-152.19
X158.0Y-159.81
X159.38Y-107.0
X167.0Y-107.0
X175.0Y-113.19
X175.0Y-120.81
X187.0Y-119.19
X187.0Y-126.81
T2
X147.38Y-110.46
X147.38Y-113.0
X147.38Y-115.54
X147.38Y-118.08
X147.38Y-123.11
X147.38Y-125.65
X147.38Y-128.19
X147.38Y-130.73
X147.38Y-133.27
X147.38Y-135.81
X147.38Y-138.35
X147.38Y-140.89
X155.0Y-110.46
X155.0Y-113.0
X155.0Y-115.54
X155.0Y-118.08
X155.0Y-123.11
X155.0Y-125.65
X155.0Y-128.19
X155.0Y-130.73
X155.0Y-133.27
X155.0Y-135.81
X155.0Y-138.35
X155.0Y-140.89
T3
X107.46Y-126.0
X110.0Y-126.0
X119.46Y-119.0
X122.0Y-119.0
X135.73Y-161.0
X138.27Y-161.0
X150.0Y-100.0
X150.0Y-152.0
X152.54Y-100.0
X152.54Y-152.0
X161.46Y-160.0
X164.0Y-160.0
X179.0Y-119.0
X181.54Y-119.0
X190.73Y-126.0
X193.27Y-126.0
T4
X147.5Y-91.36
X150.0Y-91.36
X152.0Y-91.36
X154.5Y-91.36
T5
X141.0Y-111.5
X141.0Y-116.5
X163.0Y-110.5
X163.0Y-115.5
T6
X144.43Y-88.65
X157.57Y-88.65
M30
