%TF.GenerationSoftware,KiCad,Pcbnew,10.0.0*%
%TF.CreationDate,2026-04-18T14:16:09-05:00*%
%TF.ProjectId,AirplanePCBLED,41697270-6c61-46e6-9550-43424c45442e,rev?*%
%TF.SameCoordinates,Original*%
%TF.FileFunction,Profile,NP*%
%FSLAX46Y46*%
G04 Gerber Fmt 4.6, Leading zero omitted, Abs format (unit mm)*
G04 Created by KiCad (PCBNEW 10.0.0) date 2026-04-18 14:16:09*
%MOMM*%
%LPD*%
G01*
G04 APERTURE LIST*
%TA.AperFunction,Profile*%
%ADD10C,0.050000*%
%TD*%
G04 APERTURE END LIST*
D10*
X103000000Y-133000000D02*
X144000000Y-120000000D01*
X104325914Y-125000000D02*
X103000000Y-133000000D01*
X104325914Y-125000006D02*
G75*
G02*
X105656810Y-123361469I1674086J6D01*
G01*
X105656810Y-123361469D02*
X144000000Y-100000000D01*
X131500000Y-160000000D02*
X129000000Y-167000000D01*
X129000000Y-167000000D02*
X173000000Y-167000000D01*
X142000000Y-88000000D02*
X143000000Y-76000000D01*
X143000000Y-76000000D02*
X149000000Y-73000000D01*
X144000000Y-100000000D02*
X142000000Y-88000000D01*
X144000000Y-120000000D02*
X144000000Y-137000000D01*
X144000000Y-137000000D02*
X145000000Y-144000000D01*
X144500000Y-148000000D02*
X131500000Y-160000000D01*
X144500000Y-148000000D02*
X145000000Y-144000000D01*
X149000000Y-73000000D02*
X153000000Y-73000000D01*
X153000000Y-73000000D02*
X159000000Y-76000000D01*
X157000000Y-148000000D02*
X158000000Y-137000000D01*
X158000000Y-120000000D02*
X158000000Y-137000000D01*
X159000000Y-76000000D02*
X160000000Y-88000000D01*
X160000000Y-88000000D02*
X158000000Y-100000000D01*
X170000000Y-161000000D02*
X157000000Y-148000000D01*
X173000000Y-167000000D02*
X170000000Y-161000000D01*
X195944526Y-122625357D02*
G75*
G02*
X197582999Y-123956266I-26J-1674043D01*
G01*
X195944533Y-122625358D02*
X158000000Y-100000000D01*
X197583063Y-123956253D02*
X199000000Y-133000000D01*
X199000000Y-133000000D02*
X158000000Y-120000000D01*
M02*
