%TF.GenerationSoftware,KiCad,Pcbnew,10.0.0*%
%TF.CreationDate,2026-04-17T19:42:13-05:00*%
%TF.ProjectId,AirplanePCBLED,41697270-6c61-46e6-9550-43424c45442e,rev?*%
%TF.SameCoordinates,Original*%
%TF.FileFunction,Copper,L2,Bot*%
%TF.FilePolarity,Positive*%
%FSLAX46Y46*%
G04 Gerber Fmt 4.6, Leading zero omitted, Abs format (unit mm)*
G04 Created by KiCad (PCBNEW 10.0.0) date 2026-04-17 19:42:13*
%MOMM*%
%LPD*%
G01*
G04 APERTURE LIST*
G04 Aperture macros list*
%AMRoundRect*
0 Rectangle with rounded corners*
0 $1 Rounding radius*
0 $2 $3 $4 $5 $6 $7 $8 $9 X,Y pos of 4 corners*
0 Add a 4 corners polygon primitive as box body*
4,1,4,$2,$3,$4,$5,$6,$7,$8,$9,$2,$3,0*
0 Add four circle primitives for the rounded corners*
1,1,$1+$1,$2,$3*
1,1,$1+$1,$4,$5*
1,1,$1+$1,$6,$7*
1,1,$1+$1,$8,$9*
0 Add four rect primitives between the rounded corners*
20,1,$1+$1,$2,$3,$4,$5,0*
20,1,$1+$1,$4,$5,$6,$7,0*
20,1,$1+$1,$6,$7,$8,$9,0*
20,1,$1+$1,$8,$9,$2,$3,0*%
G04 Aperture macros list end*
%TA.AperFunction,ComponentPad*%
%ADD10C,1.400000*%
%TD*%
%TA.AperFunction,ComponentPad*%
%ADD11R,1.800000X1.800000*%
%TD*%
%TA.AperFunction,ComponentPad*%
%ADD12C,1.800000*%
%TD*%
%TA.AperFunction,ComponentPad*%
%ADD13C,2.000000*%
%TD*%
%TA.AperFunction,ComponentPad*%
%ADD14RoundRect,0.250000X0.550000X0.500000X-0.550000X0.500000X-0.550000X-0.500000X0.550000X-0.500000X0*%
%TD*%
%TA.AperFunction,ComponentPad*%
%ADD15C,1.600000*%
%TD*%
%TA.AperFunction,ComponentPad*%
%ADD16C,3.000000*%
%TD*%
%TA.AperFunction,ComponentPad*%
%ADD17RoundRect,0.250000X-0.550000X-0.550000X0.550000X-0.550000X0.550000X0.550000X-0.550000X0.550000X0*%
%TD*%
%TA.AperFunction,Conductor*%
%ADD18C,0.200000*%
%TD*%
G04 APERTURE END LIST*
D10*
%TO.P,R7,1*%
%TO.N,Net-(U2-Q3)*%
X175000000Y-120810000D03*
%TO.P,R7,2*%
%TO.N,Net-(D4-K)*%
X175000000Y-113190000D03*
%TD*%
D11*
%TO.P,D2,1,K_1*%
%TO.N,Net-(D2-K)*%
X119460000Y-119000000D03*
D12*
%TO.P,D2,2,A_2*%
%TO.N,GND*%
X122000000Y-119000000D03*
%TD*%
D10*
%TO.P,R8,1*%
%TO.N,Net-(U2-Q4)*%
X187000000Y-126810000D03*
%TO.P,R8,2*%
%TO.N,Net-(D5-K)*%
X187000000Y-119190000D03*
%TD*%
D13*
%TO.P,C1,1*%
%TO.N,Net-(U1-CONT)*%
X163000000Y-115500000D03*
%TO.P,C1,2*%
%TO.N,GND*%
X163000000Y-110500000D03*
%TD*%
D11*
%TO.P,D1,1,K_1*%
%TO.N,Net-(D1-K)*%
X107460000Y-126000000D03*
D12*
%TO.P,D1,2,A_2*%
%TO.N,GND*%
X110000000Y-126000000D03*
%TD*%
D11*
%TO.P,D8,1,K_1*%
%TO.N,Net-(D8-K)*%
X164000000Y-160000000D03*
D12*
%TO.P,D8,2,A_2*%
%TO.N,GND*%
X161460000Y-160000000D03*
%TD*%
D10*
%TO.P,R6,1*%
%TO.N,Net-(U2-Q2)*%
X147190000Y-106000000D03*
%TO.P,R6,2*%
%TO.N,Net-(D3-K)*%
X154810000Y-106000000D03*
%TD*%
D11*
%TO.P,D7,1,K_1*%
%TO.N,Net-(D7-K)*%
X150000000Y-152000000D03*
D12*
%TO.P,D7,2,A_2*%
%TO.N,GND*%
X152540000Y-152000000D03*
%TD*%
D14*
%TO.P,J1,1,VBUS_1*%
%TO.N,VCC*%
X154500000Y-91360000D03*
D15*
%TO.P,J1,2,D-_2*%
%TO.N,unconnected-(J1-D--Pad2)*%
X152000000Y-91360000D03*
%TO.P,J1,3,D+_3*%
%TO.N,unconnected-(J1-D+-Pad3)*%
X150000000Y-91360000D03*
%TO.P,J1,4,GND_4*%
%TO.N,GND*%
X147500000Y-91360000D03*
D16*
%TO.P,J1,SH,Shield_SH*%
%TO.N,unconnected-(J1-Shield-PadSH)*%
X157570000Y-88650000D03*
X144430000Y-88650000D03*
%TD*%
D17*
%TO.P,U1,1,GND_1*%
%TO.N,GND*%
X147380000Y-110460000D03*
D15*
%TO.P,U1,2,TRIG_2*%
%TO.N,Net-(U1-THRES)*%
X147380000Y-113000000D03*
%TO.P,U1,3,OUT_3*%
%TO.N,Net-(U1-OUT)*%
X147380000Y-115540000D03*
%TO.P,U1,4,~{RST}_4*%
%TO.N,VCC*%
X147380000Y-118080000D03*
%TO.P,U1,5,CONT_5*%
%TO.N,Net-(U1-CONT)*%
X155000000Y-118080000D03*
%TO.P,U1,6,THRES_6*%
%TO.N,Net-(U1-THRES)*%
X155000000Y-115540000D03*
%TO.P,U1,7,DISCH_7*%
%TO.N,Net-(U1-DISCH)*%
X155000000Y-113000000D03*
%TO.P,U1,8,VCC_8*%
%TO.N,VCC*%
X155000000Y-110460000D03*
%TD*%
D11*
%TO.P,D4,1,K_1*%
%TO.N,Net-(D4-K)*%
X179000000Y-119000000D03*
D12*
%TO.P,D4,2,A_2*%
%TO.N,GND*%
X181540000Y-119000000D03*
%TD*%
D10*
%TO.P,R4,1*%
%TO.N,Net-(U2-Q0)*%
X115000000Y-120190000D03*
%TO.P,R4,2*%
%TO.N,Net-(D1-K)*%
X115000000Y-127810000D03*
%TD*%
%TO.P,R5,1*%
%TO.N,Net-(U2-Q1)*%
X126000000Y-114190000D03*
%TO.P,R5,2*%
%TO.N,Net-(D2-K)*%
X126000000Y-121810000D03*
%TD*%
%TO.P,R10,1*%
%TO.N,Net-(U2-Q6)*%
X147380000Y-145000000D03*
%TO.P,R10,2*%
%TO.N,Net-(D7-K)*%
X155000000Y-145000000D03*
%TD*%
%TO.P,R1,1*%
%TO.N,Net-(U1-DISCH)*%
X136190000Y-108000000D03*
%TO.P,R1,2*%
%TO.N,Net-(U1-THRES)*%
X143810000Y-108000000D03*
%TD*%
D11*
%TO.P,D5,1,K_1*%
%TO.N,Net-(D5-K)*%
X190730000Y-126000000D03*
D12*
%TO.P,D5,2,A_2*%
%TO.N,GND*%
X193270000Y-126000000D03*
%TD*%
D10*
%TO.P,R2,1*%
%TO.N,VCC*%
X159380000Y-107000000D03*
%TO.P,R2,2*%
%TO.N,Net-(U1-DISCH)*%
X167000000Y-107000000D03*
%TD*%
%TO.P,R9,1*%
%TO.N,Net-(U2-Q5)*%
X142000000Y-160810000D03*
%TO.P,R9,2*%
%TO.N,Net-(D6-K)*%
X142000000Y-153190000D03*
%TD*%
D11*
%TO.P,D3,1,K_1*%
%TO.N,Net-(D3-K)*%
X150000000Y-100000000D03*
D12*
%TO.P,D3,2,A_2*%
%TO.N,GND*%
X152540000Y-100000000D03*
%TD*%
D11*
%TO.P,D6,1,K_1*%
%TO.N,Net-(D6-K)*%
X135730000Y-161000000D03*
D12*
%TO.P,D6,2,A_2*%
%TO.N,GND*%
X138270000Y-161000000D03*
%TD*%
D17*
%TO.P,U2,1,Q5_1*%
%TO.N,Net-(U2-Q5)*%
X147380000Y-123110000D03*
D15*
%TO.P,U2,2,Q1_2*%
%TO.N,Net-(U2-Q1)*%
X147380000Y-125650000D03*
%TO.P,U2,3,Q0_3*%
%TO.N,Net-(U2-Q0)*%
X147380000Y-128190000D03*
%TO.P,U2,4,Q2_4*%
%TO.N,Net-(U2-Q2)*%
X147380000Y-130730000D03*
%TO.P,U2,5,Q6_5*%
%TO.N,Net-(U2-Q6)*%
X147380000Y-133270000D03*
%TO.P,U2,6,Q7_6*%
%TO.N,Net-(U2-Q7)*%
X147380000Y-135810000D03*
%TO.P,U2,7,Q3_7*%
%TO.N,Net-(U2-Q3)*%
X147380000Y-138350000D03*
%TO.P,U2,8,VSS_8*%
%TO.N,GND*%
X147380000Y-140890000D03*
%TO.P,U2,9,Q8_9*%
%TO.N,Net-(U2-Q8)*%
X155000000Y-140890000D03*
%TO.P,U2,10,Q4_10*%
%TO.N,Net-(U2-Q4)*%
X155000000Y-138350000D03*
%TO.P,U2,11,Q9_11*%
%TO.N,unconnected-(U2-Q9-Pad11)*%
X155000000Y-135810000D03*
%TO.P,U2,12,Cout_12*%
%TO.N,unconnected-(U2-Cout-Pad12)*%
X155000000Y-133270000D03*
%TO.P,U2,13,CKEN_13*%
%TO.N,GND*%
X155000000Y-130730000D03*
%TO.P,U2,14,CLK_14*%
%TO.N,Net-(U1-OUT)*%
X155000000Y-128190000D03*
%TO.P,U2,15,Reset_15*%
%TO.N,Net-(U2-Q8)*%
X155000000Y-125650000D03*
%TO.P,U2,16,VDD_16*%
%TO.N,VCC*%
X155000000Y-123110000D03*
%TD*%
D13*
%TO.P,C2,1*%
%TO.N,Net-(U1-THRES)*%
X141000000Y-116500000D03*
%TO.P,C2,2*%
%TO.N,GND*%
X141000000Y-111500000D03*
%TD*%
D10*
%TO.P,R11,1*%
%TO.N,Net-(U2-Q7)*%
X158000000Y-159810000D03*
%TO.P,R11,2*%
%TO.N,Net-(D8-K)*%
X158000000Y-152190000D03*
%TD*%
%TO.N,Net-(U2-Q3)*%
D18*
X157000000Y-152000000D02*
X153900000Y-148900000D01*
X151340000Y-154564214D02*
X157585786Y-160810000D01*
X173142946Y-118952946D02*
X175000000Y-120810000D01*
X154544365Y-137250000D02*
X155534314Y-137250000D01*
X157585786Y-160810000D02*
X158414214Y-160810000D01*
X158414214Y-160810000D02*
X159000000Y-160224214D01*
X155534314Y-137250000D02*
X156952946Y-135831368D01*
X148480000Y-139450000D02*
X148480000Y-147480000D01*
X156952946Y-119566295D02*
X157566295Y-118952946D01*
X159000000Y-160224214D02*
X159000000Y-154000000D01*
X147380000Y-138350000D02*
X148480000Y-139450000D01*
X157585786Y-153190000D02*
X157000000Y-152604214D01*
X158190000Y-153190000D02*
X157585786Y-153190000D01*
X153900000Y-137894365D02*
X154544365Y-137250000D01*
X151340000Y-150340000D02*
X151340000Y-154564214D01*
X159000000Y-154000000D02*
X158190000Y-153190000D01*
X156952946Y-135831368D02*
X156952946Y-119566295D01*
X157000000Y-152604214D02*
X157000000Y-152000000D01*
X153900000Y-148900000D02*
X153900000Y-137894365D01*
X157566295Y-118952946D02*
X173142946Y-118952946D01*
X148480000Y-147480000D02*
X151340000Y-150340000D01*
%TO.N,Net-(U2-Q4)*%
X157352946Y-135997054D02*
X157352946Y-119731981D01*
X157731981Y-119352946D02*
X158726771Y-119352946D01*
X159089995Y-119716170D02*
X181462843Y-126810000D01*
X158726771Y-119352946D02*
X159089995Y-119716170D01*
X157352946Y-119731981D02*
X157731981Y-119352946D01*
X181462843Y-126810000D02*
X187000000Y-126810000D01*
X155000000Y-138350000D02*
X157352946Y-135997054D01*
%TO.N,Net-(U1-CONT)*%
X155000000Y-118080000D02*
X160420000Y-118080000D01*
X160420000Y-118080000D02*
X163000000Y-115500000D01*
%TO.N,Net-(U2-Q2)*%
X146706295Y-119985865D02*
X145510987Y-119985865D01*
X145510987Y-119985865D02*
X144446699Y-118921577D01*
X139700000Y-110695786D02*
X144395786Y-106000000D01*
X148880000Y-129230000D02*
X148880000Y-122159570D01*
X147380000Y-130730000D02*
X148880000Y-129230000D01*
X144446699Y-118921577D02*
X141583099Y-118921577D01*
X148880000Y-122159570D02*
X146706295Y-119985865D01*
X141583099Y-118921577D02*
X139700000Y-117038478D01*
X139700000Y-117038478D02*
X139700000Y-110695786D01*
X144395786Y-106000000D02*
X147190000Y-106000000D01*
%TO.N,Net-(D3-K)*%
X150000000Y-101190000D02*
X154810000Y-106000000D01*
X150000000Y-100000000D02*
X150000000Y-101190000D01*
%TO.N,VCC*%
X155000000Y-110460000D02*
X158460000Y-107000000D01*
X149970000Y-118080000D02*
X155000000Y-123110000D01*
X154500000Y-102120000D02*
X154500000Y-91360000D01*
X147380000Y-118080000D02*
X155000000Y-110460000D01*
X147380000Y-118080000D02*
X149970000Y-118080000D01*
X158460000Y-107000000D02*
X159380000Y-107000000D01*
X159380000Y-107000000D02*
X154500000Y-102120000D01*
%TO.N,unconnected-(J1-Shield-PadSH)*%
X157570000Y-88650000D02*
X144430000Y-88650000D01*
%TO.N,Net-(U1-THRES)*%
X143810000Y-108000000D02*
X143810000Y-109430000D01*
X145000000Y-118000000D02*
X146180000Y-119180000D01*
X154544365Y-124210000D02*
X155455635Y-124210000D01*
X153900000Y-116640000D02*
X155000000Y-115540000D01*
X153900000Y-118535635D02*
X153900000Y-116640000D01*
X155455635Y-124210000D02*
X156100000Y-123565635D01*
X156100000Y-123565635D02*
X156100000Y-120735635D01*
X146180000Y-119180000D02*
X149514365Y-119180000D01*
X141000000Y-116500000D02*
X142500000Y-118000000D01*
X149514365Y-119180000D02*
X154544365Y-124210000D01*
X147380000Y-113000000D02*
X144500000Y-113000000D01*
X156100000Y-120735635D02*
X153900000Y-118535635D01*
X144500000Y-113000000D02*
X141000000Y-116500000D01*
X142500000Y-118000000D02*
X145000000Y-118000000D01*
X143810000Y-109430000D02*
X147380000Y-113000000D01*
%TO.N,Net-(U1-DISCH)*%
X155600000Y-98508806D02*
X155600000Y-90625256D01*
X136915635Y-108000000D02*
X136190000Y-108000000D01*
X155600000Y-90625256D02*
X155284744Y-90310000D01*
X161000000Y-107000000D02*
X167000000Y-107000000D01*
X153100000Y-91815635D02*
X136915635Y-108000000D01*
X153694365Y-90310000D02*
X153100000Y-90904365D01*
X155284744Y-90310000D02*
X153694365Y-90310000D01*
X155000000Y-113000000D02*
X161000000Y-107000000D01*
X164091194Y-107000000D02*
X155600000Y-98508806D01*
X167000000Y-107000000D02*
X164091194Y-107000000D01*
X153100000Y-90904365D02*
X153100000Y-91815635D01*
%TO.N,Net-(U2-Q1)*%
X144248528Y-119400000D02*
X144146306Y-119400000D01*
X144055559Y-119352946D02*
X143907158Y-119400000D01*
X148187372Y-124187372D02*
X148480000Y-123894744D01*
X143751472Y-119400000D02*
X143679189Y-119472283D01*
X144600000Y-120600000D02*
X144600000Y-120146306D01*
X144146306Y-119400000D02*
X144055559Y-119352946D01*
X144600000Y-119751472D02*
X144527718Y-119679190D01*
X148480000Y-124480000D02*
X148187372Y-124187372D01*
X138861004Y-121000000D02*
X132810000Y-121000000D01*
X144600000Y-120146306D02*
X144647054Y-120055559D01*
X148164744Y-122010000D02*
X146595256Y-122010000D01*
X144647054Y-120055559D02*
X144600000Y-119907157D01*
X143679189Y-119472283D02*
X138861004Y-121000000D01*
X144358613Y-119510085D02*
X144248528Y-119400000D01*
X148480000Y-122325256D02*
X148164744Y-122010000D01*
X146595256Y-122010000D02*
X146302628Y-122302628D01*
X148480000Y-124550000D02*
X148480000Y-124480000D01*
X146302628Y-122302628D02*
X144600000Y-120600000D01*
X144496822Y-119581749D02*
X144358613Y-119510085D01*
X143907158Y-119400000D02*
X143751472Y-119400000D01*
X144600000Y-119907157D02*
X144600000Y-119751472D01*
X148480000Y-123894744D02*
X148480000Y-122325256D01*
X144527718Y-119679190D02*
X144496822Y-119581749D01*
X132810000Y-121000000D02*
X126000000Y-114190000D01*
X147380000Y-125650000D02*
X148480000Y-124550000D01*
%TO.N,Net-(U2-Q6)*%
X146924365Y-137250000D02*
X147000000Y-137250000D01*
X146280000Y-141345635D02*
X146280000Y-140434365D01*
X147000000Y-139450000D02*
X146924365Y-139450000D01*
X147000000Y-144620000D02*
X147000000Y-141990000D01*
X146924365Y-136910000D02*
X146280000Y-136265635D01*
X147000000Y-139790000D02*
X147000000Y-139450000D01*
X147380000Y-145000000D02*
X147000000Y-144620000D01*
X146924365Y-139790000D02*
X147000000Y-139790000D01*
X146924365Y-141990000D02*
X146280000Y-141345635D01*
X146280000Y-135354365D02*
X146924365Y-134710000D01*
X146924365Y-134710000D02*
X147000000Y-134710000D01*
X147000000Y-134710000D02*
X147000000Y-133650000D01*
X147000000Y-141990000D02*
X146924365Y-141990000D01*
X146924365Y-139450000D02*
X146280000Y-138805635D01*
X146280000Y-136265635D02*
X146280000Y-135354365D01*
X147000000Y-133650000D02*
X147380000Y-133270000D01*
X147000000Y-136910000D02*
X146924365Y-136910000D01*
X146280000Y-137894365D02*
X146924365Y-137250000D01*
X146280000Y-140434365D02*
X146924365Y-139790000D01*
X147000000Y-137250000D02*
X147000000Y-136910000D01*
X146280000Y-138805635D02*
X146280000Y-137894365D01*
%TO.N,Net-(U2-Q5)*%
X145880000Y-141511320D02*
X145880000Y-140268679D01*
X146280000Y-131000000D02*
X146280000Y-130274365D01*
X147000000Y-126750000D02*
X146924365Y-126750000D01*
X146280000Y-127734365D02*
X146924365Y-127090000D01*
X147000000Y-129290000D02*
X146924365Y-129290000D01*
X147000000Y-127090000D02*
X147000000Y-126750000D01*
X146924365Y-126750000D02*
X146280000Y-126105635D01*
X146924365Y-129290000D02*
X146280000Y-128645635D01*
X146600000Y-142231321D02*
X145880000Y-141511320D01*
X146000000Y-134084315D02*
X146000000Y-131000000D01*
X147000000Y-129630000D02*
X147000000Y-129290000D01*
X146280000Y-125194365D02*
X146924365Y-124550000D01*
X146528679Y-137080000D02*
X145880000Y-136431320D01*
X146965786Y-146000000D02*
X146380000Y-145414214D01*
X145880000Y-137728679D02*
X146528679Y-137080000D01*
X146380000Y-144565686D02*
X146600000Y-144345686D01*
X146380000Y-145414214D02*
X146380000Y-144565686D01*
X147000000Y-156810000D02*
X147000000Y-146000000D01*
X146924365Y-124550000D02*
X147000000Y-124550000D01*
X147000000Y-146000000D02*
X146965786Y-146000000D01*
X146492182Y-134576497D02*
X146000000Y-134084315D01*
X146280000Y-126105635D02*
X146280000Y-125194365D01*
X145880000Y-136431320D02*
X145880000Y-135188679D01*
X146280000Y-130274365D02*
X146924365Y-129630000D01*
X147000000Y-123490000D02*
X147380000Y-123110000D01*
X145880000Y-140268679D02*
X146528679Y-139620000D01*
X146280000Y-128645635D02*
X146280000Y-127734365D01*
X146924365Y-127090000D02*
X147000000Y-127090000D01*
X145880000Y-138971320D02*
X145880000Y-137728679D01*
X142000000Y-160810000D02*
X143000000Y-160810000D01*
X146000000Y-131000000D02*
X146280000Y-131000000D01*
X143000000Y-160810000D02*
X147000000Y-156810000D01*
X146924365Y-129630000D02*
X147000000Y-129630000D01*
X146528679Y-139620000D02*
X145880000Y-138971320D01*
X147000000Y-124550000D02*
X147000000Y-123490000D01*
X146600000Y-144345686D02*
X146600000Y-142231321D01*
X145880000Y-135188679D02*
X146492182Y-134576497D01*
%TO.N,Net-(U2-Q7)*%
X149000000Y-146762943D02*
X149000000Y-137430000D01*
X158000000Y-159810000D02*
X158000000Y-155762943D01*
X158000000Y-155762943D02*
X149000000Y-146762943D01*
X149000000Y-137430000D02*
X147380000Y-135810000D01*
%TD*%
%TA.AperFunction,Conductor*%
%TO.N,GND*%
G36*
X157416091Y-136885657D02*
G01*
X157472024Y-136927529D01*
X157496441Y-136992993D01*
X157496248Y-137013065D01*
X156506404Y-147901337D01*
X156505440Y-147911933D01*
X156499500Y-147934108D01*
X156499500Y-147977282D01*
X156495589Y-148020305D01*
X156495589Y-148020306D01*
X156496624Y-148026293D01*
X156497688Y-148032450D01*
X156499500Y-148053566D01*
X156499500Y-148065892D01*
X156510677Y-148107608D01*
X156518033Y-148150167D01*
X156527663Y-148171005D01*
X156530416Y-148181277D01*
X156530417Y-148181278D01*
X156533608Y-148193186D01*
X156555203Y-148230591D01*
X156573322Y-148269792D01*
X156588018Y-148287428D01*
X156599500Y-148307314D01*
X156630043Y-148337857D01*
X156657689Y-148371032D01*
X156676449Y-148384263D01*
X156683972Y-148391786D01*
X169463181Y-161170994D01*
X169496666Y-161232317D01*
X169499500Y-161258675D01*
X169499500Y-166375500D01*
X169479815Y-166442539D01*
X169427011Y-166488294D01*
X169375500Y-166499500D01*
X132581484Y-166499500D01*
X132514445Y-166479815D01*
X132468690Y-166427011D01*
X132457799Y-166384335D01*
X132170741Y-162365526D01*
X132020629Y-160263967D01*
X132035487Y-160195697D01*
X132060203Y-160164022D01*
X132181414Y-160052135D01*
X134329500Y-160052135D01*
X134329500Y-161947870D01*
X134329501Y-161947876D01*
X134335908Y-162007483D01*
X134386202Y-162142328D01*
X134386206Y-162142335D01*
X134472452Y-162257544D01*
X134472455Y-162257547D01*
X134587664Y-162343793D01*
X134587671Y-162343797D01*
X134722517Y-162394091D01*
X134722516Y-162394091D01*
X134729444Y-162394835D01*
X134782127Y-162400500D01*
X136677872Y-162400499D01*
X136737483Y-162394091D01*
X136872331Y-162343796D01*
X136987546Y-162257546D01*
X137073796Y-162142331D01*
X137124091Y-162007483D01*
X137130500Y-161947873D01*
X137130499Y-161837304D01*
X137150183Y-161770268D01*
X137166818Y-161749626D01*
X137827861Y-161088584D01*
X137850667Y-161173694D01*
X137909910Y-161276306D01*
X137993694Y-161360090D01*
X138096306Y-161419333D01*
X138181414Y-161442137D01*
X137472485Y-162151065D01*
X137472485Y-162151066D01*
X137536243Y-162197388D01*
X137732589Y-162297432D01*
X137942164Y-162365526D01*
X138159819Y-162400000D01*
X138380181Y-162400000D01*
X138597835Y-162365526D01*
X138807410Y-162297432D01*
X139003760Y-162197386D01*
X139067513Y-162151066D01*
X139067514Y-162151066D01*
X138358585Y-161442138D01*
X138443694Y-161419333D01*
X138546306Y-161360090D01*
X138630090Y-161276306D01*
X138689333Y-161173694D01*
X138712137Y-161088585D01*
X139421066Y-161797514D01*
X139421066Y-161797513D01*
X139467386Y-161733760D01*
X139567432Y-161537410D01*
X139635526Y-161327835D01*
X139670000Y-161110181D01*
X139670000Y-160889818D01*
X139635526Y-160672164D01*
X139567432Y-160462589D01*
X139467388Y-160266243D01*
X139421066Y-160202485D01*
X139421065Y-160202485D01*
X138712137Y-160911413D01*
X138689333Y-160826306D01*
X138630090Y-160723694D01*
X138546306Y-160639910D01*
X138443694Y-160580667D01*
X138358583Y-160557861D01*
X139067513Y-159848932D01*
X139003756Y-159802611D01*
X138807410Y-159702567D01*
X138597835Y-159634473D01*
X138380181Y-159600000D01*
X138159819Y-159600000D01*
X137942164Y-159634473D01*
X137732589Y-159702567D01*
X137536233Y-159802616D01*
X137472485Y-159848931D01*
X137472485Y-159848932D01*
X138181414Y-160557861D01*
X138096306Y-160580667D01*
X137993694Y-160639910D01*
X137909910Y-160723694D01*
X137850667Y-160826306D01*
X137827861Y-160911414D01*
X137166818Y-160250371D01*
X137133333Y-160189048D01*
X137130499Y-160162690D01*
X137130499Y-160052129D01*
X137130498Y-160052123D01*
X137130497Y-160052116D01*
X137124091Y-159992517D01*
X137115668Y-159969935D01*
X137104326Y-159939524D01*
X137073797Y-159857671D01*
X137073793Y-159857664D01*
X136987547Y-159742455D01*
X136987544Y-159742452D01*
X136872335Y-159656206D01*
X136872328Y-159656202D01*
X136737482Y-159605908D01*
X136737483Y-159605908D01*
X136677883Y-159599501D01*
X136677881Y-159599500D01*
X136677873Y-159599500D01*
X136677864Y-159599500D01*
X134782129Y-159599500D01*
X134782123Y-159599501D01*
X134722516Y-159605908D01*
X134587671Y-159656202D01*
X134587664Y-159656206D01*
X134472455Y-159742452D01*
X134472452Y-159742455D01*
X134386206Y-159857664D01*
X134386202Y-159857671D01*
X134335908Y-159992517D01*
X134331034Y-160037858D01*
X134329501Y-160052123D01*
X134329500Y-160052135D01*
X132181414Y-160052135D01*
X139717756Y-153095513D01*
X140799500Y-153095513D01*
X140799500Y-153284486D01*
X140829059Y-153471118D01*
X140887454Y-153650836D01*
X140937765Y-153749576D01*
X140973240Y-153819199D01*
X141084310Y-153972073D01*
X141217927Y-154105690D01*
X141370801Y-154216760D01*
X141433556Y-154248735D01*
X141539163Y-154302545D01*
X141539165Y-154302545D01*
X141539168Y-154302547D01*
X141635497Y-154333846D01*
X141718881Y-154360940D01*
X141905514Y-154390500D01*
X141905519Y-154390500D01*
X142094486Y-154390500D01*
X142281118Y-154360940D01*
X142309254Y-154351798D01*
X142460832Y-154302547D01*
X142629199Y-154216760D01*
X142782073Y-154105690D01*
X142915690Y-153972073D01*
X143026760Y-153819199D01*
X143112547Y-153650832D01*
X143170940Y-153471118D01*
X143187664Y-153365526D01*
X143200500Y-153284486D01*
X143200500Y-153095513D01*
X143170940Y-152908881D01*
X143112545Y-152729163D01*
X143062689Y-152631315D01*
X143026760Y-152560801D01*
X142915690Y-152407927D01*
X142782073Y-152274310D01*
X142629199Y-152163240D01*
X142460836Y-152077454D01*
X142281118Y-152019059D01*
X142094486Y-151989500D01*
X142094481Y-151989500D01*
X141905519Y-151989500D01*
X141905514Y-151989500D01*
X141718881Y-152019059D01*
X141539163Y-152077454D01*
X141370800Y-152163240D01*
X141356412Y-152173694D01*
X141217927Y-152274310D01*
X141217925Y-152274312D01*
X141217924Y-152274312D01*
X141084312Y-152407924D01*
X141084312Y-152407925D01*
X141084310Y-152407927D01*
X141076023Y-152419333D01*
X140973240Y-152560800D01*
X140887454Y-152729163D01*
X140829059Y-152908881D01*
X140799500Y-153095513D01*
X139717756Y-153095513D01*
X144823953Y-148382101D01*
X144859290Y-148354617D01*
X144872192Y-148337572D01*
X144887897Y-148323076D01*
X144909013Y-148289658D01*
X144914966Y-148281065D01*
X144923500Y-148269792D01*
X144938829Y-148249543D01*
X144946880Y-148229739D01*
X144958298Y-148211672D01*
X144971603Y-148168929D01*
X144988462Y-148127463D01*
X144989743Y-148117207D01*
X144994390Y-148095724D01*
X144997467Y-148085844D01*
X144999047Y-148046329D01*
X144999906Y-148035907D01*
X145059513Y-147559054D01*
X145488602Y-144126339D01*
X145489025Y-144125287D01*
X145496773Y-144060973D01*
X145504808Y-143996696D01*
X145504807Y-143996692D01*
X145504811Y-143996664D01*
X145504803Y-143995857D01*
X145504799Y-143995369D01*
X145504793Y-143994484D01*
X145495669Y-143930621D01*
X145495592Y-143930072D01*
X145486752Y-143866154D01*
X145486751Y-143866153D01*
X145486038Y-143860993D01*
X145485031Y-143856158D01*
X145484047Y-143849271D01*
X145222545Y-142018752D01*
X145232551Y-141949604D01*
X145278354Y-141896841D01*
X145345411Y-141877217D01*
X145412433Y-141896962D01*
X145432980Y-141913536D01*
X145963181Y-142443737D01*
X145996666Y-142505060D01*
X145999500Y-142531418D01*
X145999500Y-144045588D01*
X145979815Y-144112627D01*
X145973402Y-144121688D01*
X145968654Y-144127795D01*
X145899480Y-144196970D01*
X145859263Y-144266629D01*
X145855009Y-144273996D01*
X145855005Y-144274002D01*
X145820423Y-144333900D01*
X145806781Y-144384810D01*
X145779499Y-144486629D01*
X145779499Y-144486631D01*
X145779499Y-144654732D01*
X145779500Y-144654745D01*
X145779500Y-145327544D01*
X145779499Y-145327562D01*
X145779499Y-145493268D01*
X145779498Y-145493268D01*
X145820423Y-145646001D01*
X145820424Y-145646002D01*
X145828866Y-145660623D01*
X145828868Y-145660626D01*
X145899477Y-145782926D01*
X145899481Y-145782931D01*
X146011285Y-145894735D01*
X146363181Y-146246630D01*
X146396666Y-146307953D01*
X146399500Y-146334311D01*
X146399500Y-156509902D01*
X146379815Y-156576941D01*
X146363181Y-156597583D01*
X143011944Y-159948819D01*
X142950621Y-159982304D01*
X142880929Y-159977320D01*
X142836582Y-159948819D01*
X142782075Y-159894312D01*
X142782073Y-159894310D01*
X142629199Y-159783240D01*
X142460836Y-159697454D01*
X142281118Y-159639059D01*
X142094486Y-159609500D01*
X142094481Y-159609500D01*
X141905519Y-159609500D01*
X141905514Y-159609500D01*
X141718881Y-159639059D01*
X141539163Y-159697454D01*
X141370800Y-159783240D01*
X141344139Y-159802611D01*
X141217927Y-159894310D01*
X141217925Y-159894312D01*
X141217924Y-159894312D01*
X141084312Y-160027924D01*
X141084312Y-160027925D01*
X141084310Y-160027927D01*
X141066728Y-160052127D01*
X140973240Y-160180800D01*
X140887454Y-160349163D01*
X140829059Y-160528881D01*
X140799500Y-160715513D01*
X140799500Y-160904486D01*
X140829059Y-161091118D01*
X140887454Y-161270836D01*
X140958617Y-161410500D01*
X140973240Y-161439199D01*
X141084310Y-161592073D01*
X141217927Y-161725690D01*
X141370801Y-161836760D01*
X141371877Y-161837308D01*
X141539163Y-161922545D01*
X141539165Y-161922545D01*
X141539168Y-161922547D01*
X141617082Y-161947863D01*
X141718881Y-161980940D01*
X141905514Y-162010500D01*
X141905519Y-162010500D01*
X142094486Y-162010500D01*
X142281118Y-161980940D01*
X142460832Y-161922547D01*
X142629199Y-161836760D01*
X142782073Y-161725690D01*
X142915690Y-161592073D01*
X143014200Y-161456486D01*
X143069529Y-161413822D01*
X143073072Y-161412504D01*
X143078720Y-161410501D01*
X143079057Y-161410501D01*
X143231785Y-161369577D01*
X143281904Y-161340639D01*
X143368716Y-161290520D01*
X143480520Y-161178716D01*
X143480520Y-161178714D01*
X143490728Y-161168507D01*
X143490730Y-161168504D01*
X147368713Y-157290521D01*
X147368716Y-157290520D01*
X147480520Y-157178716D01*
X147530639Y-157091904D01*
X147559577Y-157041785D01*
X147600500Y-156889058D01*
X147600500Y-156730943D01*
X147600500Y-146280727D01*
X147620185Y-146213688D01*
X147672989Y-146167933D01*
X147686180Y-146162797D01*
X147701374Y-146157860D01*
X147717180Y-146152723D01*
X147787021Y-146150727D01*
X147846855Y-146186807D01*
X147877684Y-146249508D01*
X147879500Y-146270654D01*
X147879500Y-147393330D01*
X147879499Y-147393348D01*
X147879499Y-147559054D01*
X147879498Y-147559054D01*
X147920423Y-147711785D01*
X147949358Y-147761900D01*
X147949359Y-147761904D01*
X147949360Y-147761904D01*
X147999479Y-147848714D01*
X147999481Y-147848717D01*
X148118349Y-147967585D01*
X148118355Y-147967590D01*
X150538584Y-150387819D01*
X150572069Y-150449142D01*
X150567085Y-150518834D01*
X150525213Y-150574767D01*
X150459749Y-150599184D01*
X150450903Y-150599500D01*
X149052129Y-150599500D01*
X149052123Y-150599501D01*
X148992516Y-150605908D01*
X148857671Y-150656202D01*
X148857664Y-150656206D01*
X148742455Y-150742452D01*
X148742452Y-150742455D01*
X148656206Y-150857664D01*
X148656202Y-150857671D01*
X148605908Y-150992517D01*
X148599501Y-151052116D01*
X148599500Y-151052135D01*
X148599500Y-152947870D01*
X148599501Y-152947876D01*
X148605908Y-153007483D01*
X148656202Y-153142328D01*
X148656206Y-153142335D01*
X148742452Y-153257544D01*
X148742455Y-153257547D01*
X148857664Y-153343793D01*
X148857671Y-153343797D01*
X148992517Y-153394091D01*
X148992516Y-153394091D01*
X148999444Y-153394835D01*
X149052127Y-153400500D01*
X150615500Y-153400499D01*
X150682539Y-153420184D01*
X150728294Y-153472987D01*
X150739500Y-153524499D01*
X150739500Y-154477544D01*
X150739499Y-154477562D01*
X150739499Y-154643268D01*
X150739498Y-154643268D01*
X150780423Y-154795999D01*
X150809358Y-154846114D01*
X150809359Y-154846118D01*
X150809360Y-154846118D01*
X150859479Y-154932928D01*
X150859481Y-154932931D01*
X150978349Y-155051799D01*
X150978355Y-155051804D01*
X157100925Y-161174374D01*
X157100935Y-161174385D01*
X157105265Y-161178715D01*
X157105266Y-161178716D01*
X157217070Y-161290520D01*
X157281703Y-161327835D01*
X157303881Y-161340639D01*
X157303883Y-161340641D01*
X157353999Y-161369576D01*
X157354001Y-161369577D01*
X157506728Y-161410500D01*
X157506729Y-161410500D01*
X158327545Y-161410500D01*
X158327561Y-161410501D01*
X158335157Y-161410501D01*
X158493268Y-161410501D01*
X158493271Y-161410501D01*
X158645999Y-161369577D01*
X158696118Y-161340639D01*
X158782930Y-161290520D01*
X158894734Y-161178716D01*
X158894735Y-161178714D01*
X159480520Y-160592930D01*
X159559577Y-160455998D01*
X159600501Y-160303271D01*
X159600501Y-160145156D01*
X159600501Y-160137561D01*
X159600500Y-160137543D01*
X159600500Y-159889818D01*
X160060000Y-159889818D01*
X160060000Y-160110181D01*
X160094473Y-160327835D01*
X160162567Y-160537410D01*
X160262611Y-160733756D01*
X160308932Y-160797513D01*
X161017861Y-160088584D01*
X161040667Y-160173694D01*
X161099910Y-160276306D01*
X161183694Y-160360090D01*
X161286306Y-160419333D01*
X161371414Y-160442137D01*
X160662485Y-161151065D01*
X160662485Y-161151066D01*
X160726243Y-161197388D01*
X160922589Y-161297432D01*
X161132164Y-161365526D01*
X161349819Y-161400000D01*
X161570181Y-161400000D01*
X161787835Y-161365526D01*
X161997410Y-161297432D01*
X162193760Y-161197386D01*
X162257513Y-161151066D01*
X162257514Y-161151066D01*
X161548585Y-160442138D01*
X161633694Y-160419333D01*
X161736306Y-160360090D01*
X161820090Y-160276306D01*
X161879333Y-160173694D01*
X161902138Y-160088585D01*
X162563181Y-160749628D01*
X162596666Y-160810951D01*
X162599500Y-160837308D01*
X162599500Y-160947869D01*
X162599501Y-160947876D01*
X162605908Y-161007483D01*
X162656202Y-161142328D01*
X162656206Y-161142335D01*
X162742452Y-161257544D01*
X162742455Y-161257547D01*
X162857664Y-161343793D01*
X162857671Y-161343797D01*
X162992517Y-161394091D01*
X162992516Y-161394091D01*
X162999444Y-161394835D01*
X163052127Y-161400500D01*
X164947872Y-161400499D01*
X165007483Y-161394091D01*
X165142331Y-161343796D01*
X165257546Y-161257546D01*
X165343796Y-161142331D01*
X165394091Y-161007483D01*
X165400500Y-160947873D01*
X165400499Y-159052128D01*
X165394091Y-158992517D01*
X165343796Y-158857669D01*
X165343795Y-158857668D01*
X165343793Y-158857664D01*
X165257547Y-158742455D01*
X165257544Y-158742452D01*
X165142335Y-158656206D01*
X165142328Y-158656202D01*
X165007482Y-158605908D01*
X165007483Y-158605908D01*
X164947883Y-158599501D01*
X164947881Y-158599500D01*
X164947873Y-158599500D01*
X164947864Y-158599500D01*
X163052129Y-158599500D01*
X163052123Y-158599501D01*
X162992516Y-158605908D01*
X162857671Y-158656202D01*
X162857664Y-158656206D01*
X162742455Y-158742452D01*
X162742452Y-158742455D01*
X162656206Y-158857664D01*
X162656202Y-158857671D01*
X162605908Y-158992517D01*
X162602101Y-159027933D01*
X162599501Y-159052123D01*
X162599500Y-159052135D01*
X162599500Y-159162691D01*
X162579815Y-159229730D01*
X162563181Y-159250372D01*
X161902138Y-159911414D01*
X161879333Y-159826306D01*
X161820090Y-159723694D01*
X161736306Y-159639910D01*
X161633694Y-159580667D01*
X161548583Y-159557861D01*
X162257513Y-158848932D01*
X162193756Y-158802611D01*
X161997410Y-158702567D01*
X161787835Y-158634473D01*
X161570181Y-158600000D01*
X161349819Y-158600000D01*
X161132164Y-158634473D01*
X160922589Y-158702567D01*
X160726233Y-158802616D01*
X160662485Y-158848931D01*
X160662485Y-158848932D01*
X161371414Y-159557861D01*
X161286306Y-159580667D01*
X161183694Y-159639910D01*
X161099910Y-159723694D01*
X161040667Y-159826306D01*
X161017861Y-159911414D01*
X160308932Y-159202485D01*
X160308931Y-159202485D01*
X160262616Y-159266233D01*
X160162567Y-159462589D01*
X160094473Y-159672164D01*
X160060000Y-159889818D01*
X159600500Y-159889818D01*
X159600500Y-154089059D01*
X159600501Y-154089046D01*
X159600501Y-153920945D01*
X159600501Y-153920943D01*
X159559577Y-153768215D01*
X159530639Y-153718095D01*
X159480520Y-153631284D01*
X159368716Y-153519480D01*
X159368715Y-153519479D01*
X159364385Y-153515149D01*
X159364374Y-153515139D01*
X158950860Y-153101625D01*
X158917375Y-153040302D01*
X158922359Y-152970610D01*
X158938220Y-152941062D01*
X159026760Y-152819199D01*
X159112547Y-152650832D01*
X159170940Y-152471118D01*
X159179142Y-152419333D01*
X159200500Y-152284486D01*
X159200500Y-152095513D01*
X159170940Y-151908881D01*
X159112545Y-151729163D01*
X159026759Y-151560800D01*
X158915690Y-151407927D01*
X158782073Y-151274310D01*
X158629199Y-151163240D01*
X158460836Y-151077454D01*
X158281118Y-151019059D01*
X158094486Y-150989500D01*
X158094481Y-150989500D01*
X157905519Y-150989500D01*
X157905514Y-150989500D01*
X157718881Y-151019059D01*
X157539163Y-151077454D01*
X157370797Y-151163242D01*
X157248940Y-151251776D01*
X157183134Y-151275256D01*
X157115080Y-151259430D01*
X157088374Y-151239139D01*
X154536819Y-148687584D01*
X154503334Y-148626261D01*
X154500500Y-148599903D01*
X154500500Y-146270654D01*
X154520185Y-146203615D01*
X154572989Y-146157860D01*
X154642147Y-146147916D01*
X154662817Y-146152723D01*
X154678506Y-146157821D01*
X154718874Y-146170938D01*
X154718877Y-146170938D01*
X154718882Y-146170940D01*
X154805322Y-146184630D01*
X154905514Y-146200500D01*
X154905519Y-146200500D01*
X155094486Y-146200500D01*
X155281118Y-146170940D01*
X155281124Y-146170938D01*
X155460832Y-146112547D01*
X155629199Y-146026760D01*
X155782073Y-145915690D01*
X155915690Y-145782073D01*
X156026760Y-145629199D01*
X156112547Y-145460832D01*
X156170940Y-145281118D01*
X156200500Y-145094486D01*
X156200500Y-144905513D01*
X156170940Y-144718881D01*
X156112545Y-144539163D01*
X156026759Y-144370800D01*
X155999950Y-144333901D01*
X155915690Y-144217927D01*
X155782073Y-144084310D01*
X155629199Y-143973240D01*
X155460836Y-143887454D01*
X155281118Y-143829059D01*
X155094486Y-143799500D01*
X155094481Y-143799500D01*
X154905519Y-143799500D01*
X154905514Y-143799500D01*
X154718881Y-143829059D01*
X154662819Y-143847276D01*
X154592978Y-143849271D01*
X154533145Y-143813191D01*
X154502316Y-143750490D01*
X154500500Y-143729345D01*
X154500500Y-142265800D01*
X154520185Y-142198761D01*
X154572989Y-142153006D01*
X154642147Y-142143062D01*
X154662820Y-142147870D01*
X154695458Y-142158475D01*
X154695461Y-142158475D01*
X154695466Y-142158477D01*
X154897648Y-142190500D01*
X154897649Y-142190500D01*
X155102351Y-142190500D01*
X155102352Y-142190500D01*
X155304534Y-142158477D01*
X155499219Y-142095220D01*
X155681610Y-142002287D01*
X155774590Y-141934732D01*
X155847213Y-141881971D01*
X155847215Y-141881968D01*
X155847219Y-141881966D01*
X155991966Y-141737219D01*
X155991968Y-141737215D01*
X155991971Y-141737213D01*
X156076197Y-141621284D01*
X156112287Y-141571610D01*
X156205220Y-141389219D01*
X156268477Y-141194534D01*
X156300500Y-140992352D01*
X156300500Y-140787648D01*
X156292257Y-140735606D01*
X156268477Y-140585465D01*
X156205218Y-140390776D01*
X156171503Y-140324607D01*
X156112287Y-140208390D01*
X156076197Y-140158716D01*
X155991971Y-140042786D01*
X155847213Y-139898028D01*
X155681614Y-139777715D01*
X155675006Y-139774348D01*
X155588917Y-139730483D01*
X155538123Y-139682511D01*
X155521328Y-139614690D01*
X155543865Y-139548555D01*
X155588917Y-139509516D01*
X155681610Y-139462287D01*
X155702770Y-139446913D01*
X155847213Y-139341971D01*
X155847215Y-139341968D01*
X155847219Y-139341966D01*
X155991966Y-139197219D01*
X155991968Y-139197215D01*
X155991971Y-139197213D01*
X156044732Y-139124590D01*
X156112287Y-139031610D01*
X156205220Y-138849219D01*
X156268477Y-138654534D01*
X156300500Y-138452352D01*
X156300500Y-138247648D01*
X156268477Y-138045466D01*
X156263825Y-138031151D01*
X156261832Y-137961312D01*
X156294075Y-137905158D01*
X157285077Y-136914157D01*
X157346399Y-136880673D01*
X157416091Y-136885657D01*
G37*
%TD.AperFunction*%
%TA.AperFunction,Conductor*%
G36*
X153691066Y-152797514D02*
G01*
X153691066Y-152797513D01*
X153737386Y-152733760D01*
X153789585Y-152631315D01*
X153837559Y-152580519D01*
X153905380Y-152563724D01*
X153971515Y-152586261D01*
X153987751Y-152599929D01*
X157363181Y-155975359D01*
X157396666Y-156036682D01*
X157399500Y-156063040D01*
X157399500Y-158699207D01*
X157379815Y-158766246D01*
X157348386Y-158799525D01*
X157217925Y-158894311D01*
X157084312Y-159027924D01*
X157084305Y-159027933D01*
X156988125Y-159160311D01*
X156932795Y-159202977D01*
X156863182Y-159208955D01*
X156801387Y-159176348D01*
X156800127Y-159175106D01*
X151976819Y-154351798D01*
X151943334Y-154290475D01*
X151940500Y-154264117D01*
X151940500Y-153447929D01*
X151960185Y-153380890D01*
X152012989Y-153335135D01*
X152082147Y-153325191D01*
X152102818Y-153329998D01*
X152212164Y-153365526D01*
X152429819Y-153400000D01*
X152650181Y-153400000D01*
X152867835Y-153365526D01*
X153077410Y-153297432D01*
X153273760Y-153197386D01*
X153337513Y-153151066D01*
X153337514Y-153151066D01*
X152628585Y-152442137D01*
X152713694Y-152419333D01*
X152816306Y-152360090D01*
X152900090Y-152276306D01*
X152959333Y-152173694D01*
X152982137Y-152088585D01*
X153691066Y-152797514D01*
G37*
%TD.AperFunction*%
%TA.AperFunction,Conductor*%
G36*
X149281307Y-119800185D02*
G01*
X149301949Y-119816819D01*
X154060009Y-124574879D01*
X154060402Y-124575273D01*
X154077319Y-124606348D01*
X154093775Y-124636485D01*
X154093769Y-124636565D01*
X154093809Y-124636639D01*
X154091257Y-124671686D01*
X154088791Y-124706177D01*
X154088741Y-124706254D01*
X154088736Y-124706324D01*
X154088461Y-124706689D01*
X154060291Y-124750523D01*
X154008028Y-124802786D01*
X153887715Y-124968386D01*
X153794781Y-125150776D01*
X153731522Y-125345465D01*
X153699500Y-125547648D01*
X153699500Y-125752351D01*
X153731522Y-125954534D01*
X153794781Y-126149223D01*
X153887715Y-126331613D01*
X154008028Y-126497213D01*
X154152786Y-126641971D01*
X154300963Y-126749626D01*
X154318390Y-126762287D01*
X154387525Y-126797513D01*
X154411080Y-126809515D01*
X154461876Y-126857490D01*
X154478671Y-126925311D01*
X154456134Y-126991446D01*
X154411080Y-127030485D01*
X154318386Y-127077715D01*
X154152786Y-127198028D01*
X154008028Y-127342786D01*
X153887715Y-127508386D01*
X153794781Y-127690776D01*
X153731522Y-127885465D01*
X153699500Y-128087648D01*
X153699500Y-128292351D01*
X153731522Y-128494534D01*
X153794781Y-128689223D01*
X153858691Y-128814653D01*
X153881041Y-128858516D01*
X153887715Y-128871613D01*
X154008028Y-129037213D01*
X154152786Y-129181971D01*
X154318385Y-129302284D01*
X154318387Y-129302285D01*
X154318390Y-129302287D01*
X154411630Y-129349795D01*
X154462426Y-129397770D01*
X154479221Y-129465591D01*
X154456684Y-129531725D01*
X154411630Y-129570765D01*
X154318644Y-129618143D01*
X154274077Y-129650523D01*
X154274077Y-129650524D01*
X154953554Y-130330000D01*
X154947339Y-130330000D01*
X154845606Y-130357259D01*
X154754394Y-130409920D01*
X154679920Y-130484394D01*
X154627259Y-130575606D01*
X154600000Y-130677339D01*
X154600000Y-130683553D01*
X153920524Y-130004077D01*
X153920523Y-130004077D01*
X153888143Y-130048644D01*
X153795244Y-130230968D01*
X153732009Y-130425582D01*
X153700000Y-130627682D01*
X153700000Y-130832317D01*
X153732009Y-131034417D01*
X153795244Y-131229031D01*
X153888141Y-131411350D01*
X153888147Y-131411359D01*
X153920523Y-131455921D01*
X153920524Y-131455922D01*
X154600000Y-130776446D01*
X154600000Y-130782661D01*
X154627259Y-130884394D01*
X154679920Y-130975606D01*
X154754394Y-131050080D01*
X154845606Y-131102741D01*
X154947339Y-131130000D01*
X154953553Y-131130000D01*
X154274076Y-131809474D01*
X154318652Y-131841861D01*
X154411628Y-131889234D01*
X154462425Y-131937208D01*
X154479220Y-132005029D01*
X154456683Y-132071164D01*
X154411630Y-132110203D01*
X154318388Y-132157713D01*
X154152786Y-132278028D01*
X154008028Y-132422786D01*
X153887715Y-132588386D01*
X153794781Y-132770776D01*
X153731522Y-132965465D01*
X153710038Y-133101112D01*
X153699500Y-133167648D01*
X153699500Y-133372352D01*
X153703878Y-133399995D01*
X153731522Y-133574534D01*
X153794781Y-133769223D01*
X153887715Y-133951613D01*
X154008028Y-134117213D01*
X154152786Y-134261971D01*
X154289224Y-134361097D01*
X154318390Y-134382287D01*
X154409840Y-134428883D01*
X154411080Y-134429515D01*
X154461876Y-134477490D01*
X154478671Y-134545311D01*
X154456134Y-134611446D01*
X154411080Y-134650485D01*
X154318386Y-134697715D01*
X154152786Y-134818028D01*
X154008028Y-134962786D01*
X153887715Y-135128386D01*
X153794781Y-135310776D01*
X153731522Y-135505465D01*
X153699500Y-135707648D01*
X153699500Y-135912351D01*
X153731522Y-136114534D01*
X153794781Y-136309223D01*
X153887715Y-136491613D01*
X154008028Y-136657213D01*
X154060291Y-136709476D01*
X154093776Y-136770799D01*
X154088792Y-136840491D01*
X154060291Y-136884838D01*
X153419481Y-137525647D01*
X153419479Y-137525650D01*
X153369361Y-137612459D01*
X153369359Y-137612461D01*
X153340425Y-137662574D01*
X153340424Y-137662575D01*
X153340423Y-137662580D01*
X153299499Y-137815308D01*
X153299499Y-137815310D01*
X153299499Y-137983411D01*
X153299500Y-137983424D01*
X153299500Y-148813330D01*
X153299499Y-148813348D01*
X153299499Y-148979054D01*
X153299498Y-148979054D01*
X153340423Y-149131785D01*
X153369358Y-149181900D01*
X153369359Y-149181904D01*
X153369360Y-149181904D01*
X153419479Y-149268714D01*
X153419481Y-149268717D01*
X153538349Y-149387585D01*
X153538355Y-149387590D01*
X156363181Y-152212416D01*
X156396666Y-152273739D01*
X156399500Y-152300097D01*
X156399500Y-152517544D01*
X156399499Y-152517562D01*
X156399499Y-152683268D01*
X156399498Y-152683268D01*
X156399499Y-152683271D01*
X156440423Y-152835999D01*
X156444069Y-152842313D01*
X156444072Y-152842324D01*
X156444074Y-152842323D01*
X156519475Y-152972923D01*
X156519479Y-152972928D01*
X156519480Y-152972930D01*
X156631284Y-153084734D01*
X156631285Y-153084735D01*
X157217070Y-153670520D01*
X157217072Y-153670521D01*
X157217076Y-153670524D01*
X157299473Y-153718095D01*
X157354002Y-153749577D01*
X157506729Y-153790501D01*
X157506731Y-153790501D01*
X157672440Y-153790501D01*
X157672456Y-153790500D01*
X157889903Y-153790500D01*
X157956942Y-153810185D01*
X157977584Y-153826819D01*
X158363181Y-154212416D01*
X158396666Y-154273739D01*
X158399500Y-154300097D01*
X158399500Y-155013846D01*
X158379815Y-155080885D01*
X158327011Y-155126640D01*
X158257853Y-155136584D01*
X158194297Y-155107559D01*
X158187819Y-155101527D01*
X149636819Y-146550527D01*
X149603334Y-146489204D01*
X149600500Y-146462846D01*
X149600500Y-137519059D01*
X149600501Y-137519046D01*
X149600501Y-137350945D01*
X149600501Y-137350943D01*
X149559577Y-137198215D01*
X149524926Y-137138198D01*
X149519141Y-137128178D01*
X149519140Y-137128177D01*
X149480521Y-137061286D01*
X149480520Y-137061284D01*
X149368716Y-136949480D01*
X149368715Y-136949479D01*
X149364385Y-136945149D01*
X149364374Y-136945139D01*
X148674077Y-136254842D01*
X148640592Y-136193519D01*
X148643828Y-136128841D01*
X148648477Y-136114534D01*
X148680500Y-135912352D01*
X148680500Y-135707648D01*
X148648477Y-135505466D01*
X148585220Y-135310781D01*
X148585218Y-135310778D01*
X148585218Y-135310776D01*
X148551503Y-135244607D01*
X148492287Y-135128390D01*
X148478651Y-135109622D01*
X148371971Y-134962786D01*
X148227213Y-134818028D01*
X148061614Y-134697715D01*
X148055006Y-134694348D01*
X147968917Y-134650483D01*
X147918123Y-134602511D01*
X147901328Y-134534690D01*
X147923865Y-134468555D01*
X147968917Y-134429516D01*
X148061610Y-134382287D01*
X148090776Y-134361097D01*
X148227213Y-134261971D01*
X148227215Y-134261968D01*
X148227219Y-134261966D01*
X148371966Y-134117219D01*
X148371968Y-134117215D01*
X148371971Y-134117213D01*
X148424732Y-134044590D01*
X148492287Y-133951610D01*
X148585220Y-133769219D01*
X148648477Y-133574534D01*
X148680500Y-133372352D01*
X148680500Y-133167648D01*
X148648477Y-132965466D01*
X148645665Y-132956813D01*
X148585218Y-132770776D01*
X148551503Y-132704607D01*
X148492287Y-132588390D01*
X148484556Y-132577749D01*
X148371971Y-132422786D01*
X148227213Y-132278028D01*
X148061614Y-132157715D01*
X148046060Y-132149790D01*
X147968917Y-132110483D01*
X147918123Y-132062511D01*
X147901328Y-131994690D01*
X147923865Y-131928555D01*
X147968917Y-131889516D01*
X148061610Y-131842287D01*
X148106774Y-131809474D01*
X148227213Y-131721971D01*
X148227215Y-131721968D01*
X148227219Y-131721966D01*
X148371966Y-131577219D01*
X148371968Y-131577215D01*
X148371971Y-131577213D01*
X148424732Y-131504590D01*
X148492287Y-131411610D01*
X148585220Y-131229219D01*
X148648477Y-131034534D01*
X148680500Y-130832352D01*
X148680500Y-130627648D01*
X148648477Y-130425466D01*
X148643825Y-130411151D01*
X148641832Y-130341312D01*
X148674075Y-130285158D01*
X149238506Y-129720728D01*
X149238511Y-129720724D01*
X149248714Y-129710520D01*
X149248716Y-129710520D01*
X149360520Y-129598716D01*
X149439577Y-129461784D01*
X149480500Y-129309057D01*
X149480500Y-122080513D01*
X149447282Y-121956540D01*
X149447282Y-121956539D01*
X149447282Y-121956538D01*
X149439577Y-121927785D01*
X149436552Y-121922545D01*
X149409209Y-121875186D01*
X149360520Y-121790854D01*
X149248716Y-121679050D01*
X149248715Y-121679049D01*
X149244385Y-121674719D01*
X149244374Y-121674709D01*
X147561846Y-119992181D01*
X147528361Y-119930858D01*
X147533345Y-119861166D01*
X147575217Y-119805233D01*
X147640681Y-119780816D01*
X147649527Y-119780500D01*
X149214268Y-119780500D01*
X149281307Y-119800185D01*
G37*
%TD.AperFunction*%
%TA.AperFunction,Conductor*%
G36*
X156079474Y-131455922D02*
G01*
X156079474Y-131455921D01*
X156111859Y-131411349D01*
X156117960Y-131399376D01*
X156165933Y-131348579D01*
X156233754Y-131331783D01*
X156299889Y-131354319D01*
X156343342Y-131409033D01*
X156352446Y-131455669D01*
X156352446Y-132543231D01*
X156332761Y-132610270D01*
X156279957Y-132656025D01*
X156210799Y-132665969D01*
X156147243Y-132636944D01*
X156117961Y-132599526D01*
X156112287Y-132588390D01*
X156104556Y-132577749D01*
X155991971Y-132422786D01*
X155847213Y-132278028D01*
X155681611Y-132157713D01*
X155588369Y-132110203D01*
X155537574Y-132062229D01*
X155520779Y-131994407D01*
X155543317Y-131928273D01*
X155588371Y-131889234D01*
X155681346Y-131841861D01*
X155681347Y-131841861D01*
X155725921Y-131809474D01*
X155046447Y-131130000D01*
X155052661Y-131130000D01*
X155154394Y-131102741D01*
X155245606Y-131050080D01*
X155320080Y-130975606D01*
X155372741Y-130884394D01*
X155400000Y-130782661D01*
X155400000Y-130776448D01*
X156079474Y-131455922D01*
G37*
%TD.AperFunction*%
%TA.AperFunction,Conductor*%
G36*
X168385830Y-106775526D02*
G01*
X186778246Y-117742455D01*
X186838155Y-117778177D01*
X186885654Y-117829418D01*
X186897910Y-117898204D01*
X186871032Y-117962697D01*
X186813553Y-118002420D01*
X186794049Y-118007154D01*
X186718880Y-118019060D01*
X186539163Y-118077454D01*
X186370800Y-118163240D01*
X186316785Y-118202485D01*
X186217927Y-118274310D01*
X186217925Y-118274312D01*
X186217924Y-118274312D01*
X186084312Y-118407924D01*
X186084312Y-118407925D01*
X186084310Y-118407927D01*
X186073864Y-118422305D01*
X185973240Y-118560800D01*
X185887454Y-118729163D01*
X185829059Y-118908881D01*
X185799500Y-119095513D01*
X185799500Y-119284486D01*
X185829059Y-119471118D01*
X185887454Y-119650836D01*
X185948308Y-119770268D01*
X185973240Y-119819199D01*
X186084310Y-119972073D01*
X186217927Y-120105690D01*
X186370801Y-120216760D01*
X186450347Y-120257290D01*
X186539163Y-120302545D01*
X186539165Y-120302545D01*
X186539168Y-120302547D01*
X186635497Y-120333846D01*
X186718881Y-120360940D01*
X186905514Y-120390500D01*
X186905519Y-120390500D01*
X187094486Y-120390500D01*
X187281118Y-120360940D01*
X187317348Y-120349168D01*
X187460832Y-120302547D01*
X187629199Y-120216760D01*
X187782073Y-120105690D01*
X187915690Y-119972073D01*
X188026760Y-119819199D01*
X188112547Y-119650832D01*
X188170940Y-119471118D01*
X188174285Y-119450000D01*
X188200500Y-119284486D01*
X188200500Y-119095513D01*
X188170940Y-118908881D01*
X188144109Y-118826306D01*
X188137493Y-118805946D01*
X188135498Y-118736108D01*
X188171578Y-118676275D01*
X188234279Y-118645446D01*
X188303693Y-118653410D01*
X188318930Y-118661126D01*
X190295131Y-119839484D01*
X195634670Y-123023315D01*
X195637213Y-123025858D01*
X195691396Y-123057140D01*
X195692150Y-123057590D01*
X195692193Y-123057615D01*
X195712029Y-123069442D01*
X195744802Y-123088984D01*
X195744810Y-123088986D01*
X195745022Y-123089078D01*
X195745643Y-123089390D01*
X195747459Y-123090142D01*
X195747460Y-123090142D01*
X195751067Y-123091636D01*
X195751068Y-123091637D01*
X195751071Y-123091638D01*
X195751339Y-123091749D01*
X195751341Y-123091749D01*
X195751342Y-123091750D01*
X195810977Y-123107728D01*
X195812445Y-123108133D01*
X195848342Y-123118296D01*
X195871595Y-123124879D01*
X195871596Y-123124879D01*
X195871603Y-123124881D01*
X195871609Y-123124881D01*
X195871853Y-123124917D01*
X195871889Y-123124922D01*
X195875937Y-123125513D01*
X195875948Y-123125515D01*
X195877740Y-123125776D01*
X195878382Y-123125823D01*
X195878632Y-123125855D01*
X195878636Y-123125857D01*
X195939239Y-123125857D01*
X195949798Y-123126306D01*
X196133149Y-123141978D01*
X196153956Y-123145562D01*
X196283898Y-123179547D01*
X196326848Y-123190781D01*
X196346752Y-123197846D01*
X196403072Y-123223427D01*
X196509463Y-123271751D01*
X196527875Y-123282088D01*
X196675687Y-123382539D01*
X196692072Y-123395848D01*
X196820688Y-123519924D01*
X196834585Y-123535830D01*
X196940272Y-123679929D01*
X196951268Y-123697962D01*
X197030970Y-123857912D01*
X197038746Y-123877551D01*
X197089377Y-124046150D01*
X197093121Y-124062619D01*
X197212670Y-124825647D01*
X198349332Y-132080511D01*
X198340261Y-132149790D01*
X198295176Y-132203167D01*
X198228390Y-132223695D01*
X198189348Y-132217906D01*
X183791390Y-127652701D01*
X183733435Y-127613674D01*
X183705780Y-127549511D01*
X183717204Y-127480582D01*
X183764081Y-127428771D01*
X183828868Y-127410500D01*
X185889208Y-127410500D01*
X185956247Y-127430185D01*
X185989524Y-127461612D01*
X186084310Y-127592073D01*
X186217927Y-127725690D01*
X186370801Y-127836760D01*
X186450347Y-127877290D01*
X186539163Y-127922545D01*
X186539165Y-127922545D01*
X186539168Y-127922547D01*
X186635497Y-127953846D01*
X186718881Y-127980940D01*
X186905514Y-128010500D01*
X186905519Y-128010500D01*
X187094486Y-128010500D01*
X187281118Y-127980940D01*
X187460832Y-127922547D01*
X187629199Y-127836760D01*
X187782073Y-127725690D01*
X187915690Y-127592073D01*
X188026760Y-127439199D01*
X188112547Y-127270832D01*
X188170940Y-127091118D01*
X188173063Y-127077713D01*
X188200500Y-126904486D01*
X188200500Y-126715513D01*
X188170940Y-126528881D01*
X188121515Y-126376768D01*
X188112547Y-126349168D01*
X188112545Y-126349165D01*
X188112545Y-126349163D01*
X188038428Y-126203701D01*
X188026760Y-126180801D01*
X187915690Y-126027927D01*
X187782073Y-125894310D01*
X187629199Y-125783240D01*
X187568576Y-125752351D01*
X187460836Y-125697454D01*
X187281118Y-125639059D01*
X187094486Y-125609500D01*
X187094481Y-125609500D01*
X186905519Y-125609500D01*
X186905514Y-125609500D01*
X186718881Y-125639059D01*
X186539163Y-125697454D01*
X186370800Y-125783240D01*
X186311526Y-125826306D01*
X186217927Y-125894310D01*
X186217925Y-125894312D01*
X186217924Y-125894312D01*
X186084312Y-126027924D01*
X186084312Y-126027925D01*
X186084310Y-126027927D01*
X186061557Y-126059244D01*
X185989526Y-126158386D01*
X185934196Y-126201051D01*
X185889208Y-126209500D01*
X181574952Y-126209500D01*
X181537474Y-126203701D01*
X178267901Y-125167007D01*
X177905612Y-125052135D01*
X189329500Y-125052135D01*
X189329500Y-126947870D01*
X189329501Y-126947876D01*
X189335908Y-127007483D01*
X189386202Y-127142328D01*
X189386206Y-127142335D01*
X189472452Y-127257544D01*
X189472455Y-127257547D01*
X189587664Y-127343793D01*
X189587671Y-127343797D01*
X189722517Y-127394091D01*
X189722516Y-127394091D01*
X189729444Y-127394835D01*
X189782127Y-127400500D01*
X191677872Y-127400499D01*
X191737483Y-127394091D01*
X191872331Y-127343796D01*
X191987546Y-127257546D01*
X192073796Y-127142331D01*
X192124091Y-127007483D01*
X192130500Y-126947873D01*
X192130499Y-126837304D01*
X192150183Y-126770268D01*
X192166818Y-126749626D01*
X192827861Y-126088584D01*
X192850667Y-126173694D01*
X192909910Y-126276306D01*
X192993694Y-126360090D01*
X193096306Y-126419333D01*
X193181414Y-126442137D01*
X192472485Y-127151065D01*
X192472485Y-127151066D01*
X192536243Y-127197388D01*
X192732589Y-127297432D01*
X192942164Y-127365526D01*
X193159819Y-127400000D01*
X193380181Y-127400000D01*
X193597835Y-127365526D01*
X193807410Y-127297432D01*
X194003760Y-127197386D01*
X194067513Y-127151066D01*
X194067514Y-127151066D01*
X193358585Y-126442138D01*
X193443694Y-126419333D01*
X193546306Y-126360090D01*
X193630090Y-126276306D01*
X193689333Y-126173694D01*
X193712138Y-126088585D01*
X194421066Y-126797514D01*
X194421066Y-126797513D01*
X194467386Y-126733760D01*
X194567432Y-126537410D01*
X194635526Y-126327835D01*
X194670000Y-126110181D01*
X194670000Y-125889818D01*
X194635526Y-125672164D01*
X194567432Y-125462589D01*
X194467388Y-125266243D01*
X194421066Y-125202485D01*
X194421065Y-125202485D01*
X193712137Y-125911413D01*
X193689333Y-125826306D01*
X193630090Y-125723694D01*
X193546306Y-125639910D01*
X193443694Y-125580667D01*
X193358583Y-125557861D01*
X194067513Y-124848932D01*
X194003756Y-124802611D01*
X193807410Y-124702567D01*
X193597835Y-124634473D01*
X193380181Y-124600000D01*
X193159819Y-124600000D01*
X192942164Y-124634473D01*
X192732589Y-124702567D01*
X192536233Y-124802616D01*
X192472485Y-124848931D01*
X192472485Y-124848932D01*
X193181414Y-125557861D01*
X193096306Y-125580667D01*
X192993694Y-125639910D01*
X192909910Y-125723694D01*
X192850667Y-125826306D01*
X192827861Y-125911414D01*
X192166818Y-125250371D01*
X192133333Y-125189048D01*
X192130499Y-125162690D01*
X192130499Y-125052129D01*
X192130498Y-125052123D01*
X192130497Y-125052116D01*
X192124091Y-124992517D01*
X192122018Y-124986960D01*
X192104326Y-124939524D01*
X192073797Y-124857671D01*
X192073793Y-124857664D01*
X191987547Y-124742455D01*
X191987544Y-124742452D01*
X191872335Y-124656206D01*
X191872328Y-124656202D01*
X191737482Y-124605908D01*
X191737483Y-124605908D01*
X191677883Y-124599501D01*
X191677881Y-124599500D01*
X191677873Y-124599500D01*
X191677864Y-124599500D01*
X189782129Y-124599500D01*
X189782123Y-124599501D01*
X189722516Y-124605908D01*
X189587671Y-124656202D01*
X189587664Y-124656206D01*
X189472455Y-124742452D01*
X189472452Y-124742455D01*
X189386206Y-124857664D01*
X189386202Y-124857671D01*
X189335908Y-124992517D01*
X189332037Y-125028526D01*
X189329501Y-125052123D01*
X189329500Y-125052135D01*
X177905612Y-125052135D01*
X161327458Y-119795647D01*
X161269503Y-119756620D01*
X161241848Y-119692457D01*
X161253272Y-119623528D01*
X161300149Y-119571717D01*
X161364936Y-119553446D01*
X172842849Y-119553446D01*
X172909888Y-119573131D01*
X172930530Y-119589765D01*
X173789933Y-120449168D01*
X173823418Y-120510491D01*
X173824725Y-120556247D01*
X173799500Y-120715513D01*
X173799500Y-120904486D01*
X173829059Y-121091118D01*
X173887454Y-121270836D01*
X173973240Y-121439199D01*
X174084310Y-121592073D01*
X174217927Y-121725690D01*
X174370801Y-121836760D01*
X174450347Y-121877290D01*
X174539163Y-121922545D01*
X174539165Y-121922545D01*
X174539168Y-121922547D01*
X174635497Y-121953846D01*
X174718881Y-121980940D01*
X174905514Y-122010500D01*
X174905519Y-122010500D01*
X175094486Y-122010500D01*
X175281118Y-121980940D01*
X175460832Y-121922547D01*
X175629199Y-121836760D01*
X175782073Y-121725690D01*
X175915690Y-121592073D01*
X176026760Y-121439199D01*
X176112547Y-121270832D01*
X176170940Y-121091118D01*
X176179712Y-121035732D01*
X176200500Y-120904486D01*
X176200500Y-120715513D01*
X176170940Y-120528881D01*
X176129226Y-120400500D01*
X176112547Y-120349168D01*
X176112545Y-120349165D01*
X176112545Y-120349163D01*
X176026759Y-120180800D01*
X176005155Y-120151065D01*
X175915690Y-120027927D01*
X175782073Y-119894310D01*
X175629199Y-119783240D01*
X175603740Y-119770268D01*
X175460836Y-119697454D01*
X175281118Y-119639059D01*
X175094486Y-119609500D01*
X175094481Y-119609500D01*
X174905519Y-119609500D01*
X174905514Y-119609500D01*
X174746247Y-119634725D01*
X174676953Y-119625770D01*
X174639168Y-119599933D01*
X173630536Y-118591301D01*
X173630534Y-118591298D01*
X173511663Y-118472427D01*
X173511662Y-118472426D01*
X173424850Y-118422306D01*
X173424850Y-118422305D01*
X173424846Y-118422304D01*
X173374731Y-118393369D01*
X173222003Y-118352445D01*
X173063889Y-118352445D01*
X173056293Y-118352445D01*
X173056277Y-118352446D01*
X161296151Y-118352446D01*
X161229112Y-118332761D01*
X161183357Y-118279957D01*
X161173413Y-118210799D01*
X161202438Y-118147243D01*
X161208470Y-118140765D01*
X161297100Y-118052135D01*
X177599500Y-118052135D01*
X177599500Y-119947870D01*
X177599501Y-119947876D01*
X177605908Y-120007483D01*
X177656202Y-120142328D01*
X177656206Y-120142335D01*
X177742452Y-120257544D01*
X177742455Y-120257547D01*
X177857664Y-120343793D01*
X177857671Y-120343797D01*
X177992517Y-120394091D01*
X177992516Y-120394091D01*
X177999444Y-120394835D01*
X178052127Y-120400500D01*
X179947872Y-120400499D01*
X180007483Y-120394091D01*
X180142331Y-120343796D01*
X180257546Y-120257546D01*
X180343796Y-120142331D01*
X180394091Y-120007483D01*
X180400500Y-119947873D01*
X180400499Y-119837304D01*
X180420183Y-119770268D01*
X180436818Y-119749626D01*
X181097861Y-119088584D01*
X181120667Y-119173694D01*
X181179910Y-119276306D01*
X181263694Y-119360090D01*
X181366306Y-119419333D01*
X181451414Y-119442137D01*
X180742485Y-120151065D01*
X180742485Y-120151066D01*
X180806243Y-120197388D01*
X181002589Y-120297432D01*
X181212164Y-120365526D01*
X181429819Y-120400000D01*
X181650181Y-120400000D01*
X181867835Y-120365526D01*
X182077410Y-120297432D01*
X182273760Y-120197386D01*
X182337513Y-120151066D01*
X182337514Y-120151066D01*
X181628585Y-119442138D01*
X181713694Y-119419333D01*
X181816306Y-119360090D01*
X181900090Y-119276306D01*
X181959333Y-119173694D01*
X181982138Y-119088585D01*
X182691066Y-119797514D01*
X182691066Y-119797513D01*
X182737386Y-119733760D01*
X182837432Y-119537410D01*
X182905526Y-119327835D01*
X182940000Y-119110181D01*
X182940000Y-118889818D01*
X182905526Y-118672164D01*
X182837432Y-118462589D01*
X182737388Y-118266243D01*
X182691066Y-118202485D01*
X182691065Y-118202485D01*
X181982137Y-118911413D01*
X181959333Y-118826306D01*
X181900090Y-118723694D01*
X181816306Y-118639910D01*
X181713694Y-118580667D01*
X181628583Y-118557861D01*
X182337513Y-117848932D01*
X182273756Y-117802611D01*
X182077410Y-117702567D01*
X181867835Y-117634473D01*
X181650181Y-117600000D01*
X181429819Y-117600000D01*
X181212164Y-117634473D01*
X181002589Y-117702567D01*
X180806233Y-117802616D01*
X180742485Y-117848931D01*
X180742485Y-117848932D01*
X181451414Y-118557861D01*
X181366306Y-118580667D01*
X181263694Y-118639910D01*
X181179910Y-118723694D01*
X181120667Y-118826306D01*
X181097861Y-118911414D01*
X180436818Y-118250371D01*
X180403333Y-118189048D01*
X180400499Y-118162690D01*
X180400499Y-118052129D01*
X180400498Y-118052123D01*
X180400497Y-118052116D01*
X180394091Y-117992517D01*
X180388545Y-117977648D01*
X180374326Y-117939524D01*
X180343797Y-117857671D01*
X180343793Y-117857664D01*
X180257547Y-117742455D01*
X180257544Y-117742452D01*
X180142335Y-117656206D01*
X180142328Y-117656202D01*
X180007482Y-117605908D01*
X180007483Y-117605908D01*
X179947883Y-117599501D01*
X179947881Y-117599500D01*
X179947873Y-117599500D01*
X179947864Y-117599500D01*
X178052129Y-117599500D01*
X178052123Y-117599501D01*
X177992516Y-117605908D01*
X177857671Y-117656202D01*
X177857664Y-117656206D01*
X177742455Y-117742452D01*
X177742452Y-117742455D01*
X177656206Y-117857664D01*
X177656202Y-117857671D01*
X177605908Y-117992517D01*
X177599501Y-118052116D01*
X177599501Y-118052123D01*
X177599500Y-118052135D01*
X161297100Y-118052135D01*
X161388110Y-117961125D01*
X161637951Y-117711284D01*
X162396437Y-116952796D01*
X162457758Y-116919313D01*
X162522433Y-116922547D01*
X162648632Y-116963553D01*
X162736110Y-116977408D01*
X162881903Y-117000500D01*
X162881908Y-117000500D01*
X163118097Y-117000500D01*
X163351368Y-116963553D01*
X163387515Y-116951808D01*
X163575992Y-116890568D01*
X163786433Y-116783343D01*
X163977510Y-116644517D01*
X164144517Y-116477510D01*
X164283343Y-116286433D01*
X164390568Y-116075992D01*
X164463553Y-115851368D01*
X164464635Y-115844534D01*
X164500500Y-115618097D01*
X164500500Y-115381902D01*
X164463553Y-115148631D01*
X164406186Y-114972075D01*
X164390568Y-114924008D01*
X164390566Y-114924005D01*
X164390566Y-114924003D01*
X164283342Y-114713566D01*
X164144517Y-114522490D01*
X163977510Y-114355483D01*
X163786433Y-114216657D01*
X163750906Y-114198555D01*
X163575996Y-114109433D01*
X163351368Y-114036446D01*
X163118097Y-113999500D01*
X163118092Y-113999500D01*
X162881908Y-113999500D01*
X162881903Y-113999500D01*
X162648631Y-114036446D01*
X162424003Y-114109433D01*
X162213566Y-114216657D01*
X162120209Y-114284486D01*
X162022490Y-114355483D01*
X162022488Y-114355485D01*
X162022487Y-114355485D01*
X161855485Y-114522487D01*
X161855485Y-114522488D01*
X161855483Y-114522490D01*
X161834892Y-114550831D01*
X161716657Y-114713566D01*
X161609433Y-114924003D01*
X161536446Y-115148631D01*
X161499500Y-115381902D01*
X161499500Y-115618097D01*
X161536447Y-115851369D01*
X161536447Y-115851372D01*
X161577450Y-115977564D01*
X161579445Y-116047405D01*
X161547200Y-116103563D01*
X160207584Y-117443181D01*
X160146261Y-117476666D01*
X160119903Y-117479500D01*
X156229602Y-117479500D01*
X156162563Y-117459815D01*
X156119117Y-117411795D01*
X156116771Y-117407190D01*
X156112287Y-117398390D01*
X156112285Y-117398387D01*
X156112284Y-117398385D01*
X155991971Y-117232786D01*
X155847213Y-117088028D01*
X155681614Y-116967715D01*
X155665328Y-116959417D01*
X155588917Y-116920483D01*
X155538123Y-116872511D01*
X155521328Y-116804690D01*
X155543865Y-116738555D01*
X155588917Y-116699516D01*
X155681610Y-116652287D01*
X155807333Y-116560945D01*
X155847213Y-116531971D01*
X155847215Y-116531968D01*
X155847219Y-116531966D01*
X155991966Y-116387219D01*
X155991968Y-116387215D01*
X155991971Y-116387213D01*
X156044732Y-116314590D01*
X156112287Y-116221610D01*
X156205220Y-116039219D01*
X156268477Y-115844534D01*
X156300500Y-115642352D01*
X156300500Y-115437648D01*
X156268477Y-115235465D01*
X156224077Y-115098816D01*
X156205220Y-115040781D01*
X156205218Y-115040778D01*
X156205218Y-115040776D01*
X156145721Y-114924008D01*
X156112287Y-114858390D01*
X156104556Y-114847749D01*
X155991971Y-114692786D01*
X155847213Y-114548028D01*
X155681614Y-114427715D01*
X155608575Y-114390500D01*
X155588917Y-114380483D01*
X155538123Y-114332511D01*
X155521328Y-114264690D01*
X155543865Y-114198555D01*
X155588917Y-114159516D01*
X155681610Y-114112287D01*
X155785996Y-114036447D01*
X155847213Y-113991971D01*
X155847215Y-113991968D01*
X155847219Y-113991966D01*
X155991966Y-113847219D01*
X155991968Y-113847215D01*
X155991971Y-113847213D01*
X156077738Y-113729163D01*
X156112287Y-113681610D01*
X156205220Y-113499219D01*
X156268477Y-113304534D01*
X156300500Y-113102352D01*
X156300500Y-113095513D01*
X173799500Y-113095513D01*
X173799500Y-113284486D01*
X173829059Y-113471118D01*
X173887454Y-113650836D01*
X173927367Y-113729168D01*
X173973240Y-113819199D01*
X174084310Y-113972073D01*
X174217927Y-114105690D01*
X174370801Y-114216760D01*
X174450347Y-114257290D01*
X174539163Y-114302545D01*
X174539165Y-114302545D01*
X174539168Y-114302547D01*
X174631387Y-114332511D01*
X174718881Y-114360940D01*
X174905514Y-114390500D01*
X174905519Y-114390500D01*
X175094486Y-114390500D01*
X175281118Y-114360940D01*
X175460832Y-114302547D01*
X175629199Y-114216760D01*
X175782073Y-114105690D01*
X175915690Y-113972073D01*
X176026760Y-113819199D01*
X176112547Y-113650832D01*
X176170940Y-113471118D01*
X176200500Y-113284486D01*
X176200500Y-113095513D01*
X176170940Y-112908881D01*
X176131640Y-112787930D01*
X176112547Y-112729168D01*
X176112545Y-112729165D01*
X176112545Y-112729163D01*
X176062673Y-112631284D01*
X176026760Y-112560801D01*
X175915690Y-112407927D01*
X175782073Y-112274310D01*
X175629199Y-112163240D01*
X175608672Y-112152781D01*
X175460836Y-112077454D01*
X175281118Y-112019059D01*
X175094486Y-111989500D01*
X175094481Y-111989500D01*
X174905519Y-111989500D01*
X174905514Y-111989500D01*
X174718881Y-112019059D01*
X174539163Y-112077454D01*
X174370800Y-112163240D01*
X174283579Y-112226610D01*
X174217927Y-112274310D01*
X174217925Y-112274312D01*
X174217924Y-112274312D01*
X174084312Y-112407924D01*
X174084312Y-112407925D01*
X174084310Y-112407927D01*
X174060700Y-112440423D01*
X173973240Y-112560800D01*
X173887454Y-112729163D01*
X173829059Y-112908881D01*
X173799500Y-113095513D01*
X156300500Y-113095513D01*
X156300500Y-112897648D01*
X156288426Y-112821415D01*
X156268478Y-112695472D01*
X156268477Y-112695471D01*
X156268477Y-112695466D01*
X156263825Y-112681151D01*
X156261832Y-112611312D01*
X156294075Y-112555158D01*
X158467287Y-110381947D01*
X161500000Y-110381947D01*
X161500000Y-110618052D01*
X161536934Y-110851247D01*
X161609897Y-111075802D01*
X161717087Y-111286174D01*
X161777338Y-111369104D01*
X161777340Y-111369105D01*
X162517037Y-110629408D01*
X162534075Y-110692993D01*
X162599901Y-110807007D01*
X162692993Y-110900099D01*
X162807007Y-110965925D01*
X162870590Y-110982962D01*
X162130893Y-111722658D01*
X162213828Y-111782914D01*
X162424197Y-111890102D01*
X162648752Y-111963065D01*
X162648751Y-111963065D01*
X162881948Y-112000000D01*
X163118052Y-112000000D01*
X163351247Y-111963065D01*
X163575802Y-111890102D01*
X163786163Y-111782918D01*
X163786169Y-111782914D01*
X163869104Y-111722658D01*
X163869105Y-111722658D01*
X163129408Y-110982962D01*
X163192993Y-110965925D01*
X163307007Y-110900099D01*
X163400099Y-110807007D01*
X163465925Y-110692993D01*
X163482962Y-110629409D01*
X164222658Y-111369105D01*
X164222658Y-111369104D01*
X164282914Y-111286169D01*
X164282918Y-111286163D01*
X164390102Y-111075802D01*
X164463065Y-110851247D01*
X164500000Y-110618052D01*
X164500000Y-110381947D01*
X164463065Y-110148752D01*
X164390102Y-109924197D01*
X164282914Y-109713828D01*
X164222658Y-109630894D01*
X164222658Y-109630893D01*
X163482962Y-110370590D01*
X163465925Y-110307007D01*
X163400099Y-110192993D01*
X163307007Y-110099901D01*
X163192993Y-110034075D01*
X163129409Y-110017037D01*
X163869105Y-109277340D01*
X163869104Y-109277338D01*
X163786174Y-109217087D01*
X163575802Y-109109897D01*
X163351247Y-109036934D01*
X163351248Y-109036934D01*
X163118052Y-109000000D01*
X162881948Y-109000000D01*
X162648752Y-109036934D01*
X162424197Y-109109897D01*
X162213830Y-109217084D01*
X162130894Y-109277340D01*
X162870591Y-110017037D01*
X162807007Y-110034075D01*
X162692993Y-110099901D01*
X162599901Y-110192993D01*
X162534075Y-110307007D01*
X162517037Y-110370590D01*
X161777340Y-109630894D01*
X161717084Y-109713830D01*
X161609897Y-109924197D01*
X161536934Y-110148752D01*
X161500000Y-110381947D01*
X158467287Y-110381947D01*
X161212416Y-107636819D01*
X161273739Y-107603334D01*
X161300097Y-107600500D01*
X164012133Y-107600500D01*
X164012137Y-107600501D01*
X164170252Y-107600501D01*
X164170256Y-107600500D01*
X165889208Y-107600500D01*
X165956247Y-107620185D01*
X165989524Y-107651612D01*
X166084310Y-107782073D01*
X166217927Y-107915690D01*
X166370801Y-108026760D01*
X166450347Y-108067290D01*
X166539163Y-108112545D01*
X166539165Y-108112545D01*
X166539168Y-108112547D01*
X166629020Y-108141742D01*
X166718881Y-108170940D01*
X166905514Y-108200500D01*
X166905519Y-108200500D01*
X167094486Y-108200500D01*
X167281118Y-108170940D01*
X167460832Y-108112547D01*
X167629199Y-108026760D01*
X167782073Y-107915690D01*
X167915690Y-107782073D01*
X168026760Y-107629199D01*
X168112547Y-107460832D01*
X168170940Y-107281118D01*
X168200500Y-107094486D01*
X168200500Y-106905514D01*
X168199853Y-106901430D01*
X168208807Y-106832136D01*
X168253803Y-106778684D01*
X168320555Y-106758044D01*
X168385830Y-106775526D01*
G37*
%TD.AperFunction*%
%TA.AperFunction,Conductor*%
G36*
X153413724Y-92425412D02*
G01*
X153440084Y-92427298D01*
X153449137Y-92433116D01*
X153456177Y-92434648D01*
X153475513Y-92447707D01*
X153480164Y-92451532D01*
X153481344Y-92452712D01*
X153630666Y-92544814D01*
X153797203Y-92599999D01*
X153797209Y-92599999D01*
X153801448Y-92600907D01*
X153862884Y-92634185D01*
X153896576Y-92695394D01*
X153899500Y-92722162D01*
X153899500Y-99107735D01*
X153879815Y-99174774D01*
X153827011Y-99220529D01*
X153757853Y-99230473D01*
X153697714Y-99203008D01*
X153691065Y-99202485D01*
X152982137Y-99911413D01*
X152959333Y-99826306D01*
X152900090Y-99723694D01*
X152816306Y-99639910D01*
X152713694Y-99580667D01*
X152628583Y-99557861D01*
X153337513Y-98848932D01*
X153273756Y-98802611D01*
X153077410Y-98702567D01*
X152867835Y-98634473D01*
X152650181Y-98600000D01*
X152429819Y-98600000D01*
X152212164Y-98634473D01*
X152002589Y-98702567D01*
X151806233Y-98802616D01*
X151742485Y-98848931D01*
X151742485Y-98848932D01*
X152451414Y-99557861D01*
X152366306Y-99580667D01*
X152263694Y-99639910D01*
X152179910Y-99723694D01*
X152120667Y-99826306D01*
X152097861Y-99911414D01*
X151436818Y-99250371D01*
X151403333Y-99189048D01*
X151400499Y-99162690D01*
X151400499Y-99052129D01*
X151400498Y-99052123D01*
X151400497Y-99052116D01*
X151394091Y-98992517D01*
X151392901Y-98989327D01*
X151374326Y-98939524D01*
X151343797Y-98857671D01*
X151343793Y-98857664D01*
X151257547Y-98742455D01*
X151257544Y-98742452D01*
X151142335Y-98656206D01*
X151142328Y-98656202D01*
X151007482Y-98605908D01*
X151007483Y-98605908D01*
X150947883Y-98599501D01*
X150947881Y-98599500D01*
X150947873Y-98599500D01*
X150947864Y-98599500D01*
X149052129Y-98599500D01*
X149052123Y-98599501D01*
X148992516Y-98605908D01*
X148857671Y-98656202D01*
X148857664Y-98656206D01*
X148742455Y-98742452D01*
X148742452Y-98742455D01*
X148656206Y-98857664D01*
X148656202Y-98857671D01*
X148605908Y-98992517D01*
X148599501Y-99052116D01*
X148599501Y-99052123D01*
X148599500Y-99052135D01*
X148599500Y-100947870D01*
X148599501Y-100947876D01*
X148605908Y-101007483D01*
X148656202Y-101142328D01*
X148656206Y-101142335D01*
X148742452Y-101257544D01*
X148742455Y-101257547D01*
X148857664Y-101343793D01*
X148857671Y-101343797D01*
X148888719Y-101355377D01*
X148992517Y-101394091D01*
X149052127Y-101400500D01*
X149356543Y-101400499D01*
X149423582Y-101420183D01*
X149463929Y-101462497D01*
X149469358Y-101471900D01*
X149469359Y-101471904D01*
X149469360Y-101471904D01*
X149519479Y-101558714D01*
X149519481Y-101558717D01*
X149638349Y-101677585D01*
X149638355Y-101677590D01*
X153599933Y-105639168D01*
X153633418Y-105700491D01*
X153634725Y-105746247D01*
X153609500Y-105905513D01*
X153609500Y-106094486D01*
X153639059Y-106281118D01*
X153697454Y-106460836D01*
X153765868Y-106595104D01*
X153783240Y-106629199D01*
X153894310Y-106782073D01*
X154027927Y-106915690D01*
X154180801Y-107026760D01*
X154220764Y-107047122D01*
X154349163Y-107112545D01*
X154349165Y-107112545D01*
X154349168Y-107112547D01*
X154445497Y-107143846D01*
X154528881Y-107170940D01*
X154715514Y-107200500D01*
X154715519Y-107200500D01*
X154904486Y-107200500D01*
X155091118Y-107170940D01*
X155270832Y-107112547D01*
X155439199Y-107026760D01*
X155592073Y-106915690D01*
X155725690Y-106782073D01*
X155836760Y-106629199D01*
X155922547Y-106460832D01*
X155980940Y-106281118D01*
X156010500Y-106094486D01*
X156010500Y-105905513D01*
X155980940Y-105718881D01*
X155922545Y-105539163D01*
X155851383Y-105399500D01*
X155836760Y-105370801D01*
X155725690Y-105217927D01*
X155592073Y-105084310D01*
X155439199Y-104973240D01*
X155270836Y-104887454D01*
X155091118Y-104829059D01*
X154904486Y-104799500D01*
X154904481Y-104799500D01*
X154715519Y-104799500D01*
X154715514Y-104799500D01*
X154556247Y-104824725D01*
X154486953Y-104815770D01*
X154449168Y-104789933D01*
X151163856Y-101504621D01*
X151130371Y-101443298D01*
X151135355Y-101373606D01*
X151177224Y-101317674D01*
X151257546Y-101257546D01*
X151343796Y-101142331D01*
X151394091Y-101007483D01*
X151400500Y-100947873D01*
X151400499Y-100837304D01*
X151420183Y-100770268D01*
X151436818Y-100749626D01*
X152097861Y-100088584D01*
X152120667Y-100173694D01*
X152179910Y-100276306D01*
X152263694Y-100360090D01*
X152366306Y-100419333D01*
X152451414Y-100442137D01*
X151742485Y-101151065D01*
X151742485Y-101151066D01*
X151806243Y-101197388D01*
X152002589Y-101297432D01*
X152212164Y-101365526D01*
X152429819Y-101400000D01*
X152650181Y-101400000D01*
X152867835Y-101365526D01*
X153077410Y-101297432D01*
X153273760Y-101197386D01*
X153337513Y-101151066D01*
X153337514Y-101151066D01*
X152628585Y-100442138D01*
X152713694Y-100419333D01*
X152816306Y-100360090D01*
X152900090Y-100276306D01*
X152959333Y-100173694D01*
X152982137Y-100088585D01*
X153691066Y-100797514D01*
X153704952Y-100796421D01*
X153730512Y-100776712D01*
X153800125Y-100770733D01*
X153861920Y-100803339D01*
X153896277Y-100864177D01*
X153899500Y-100892263D01*
X153899500Y-102033330D01*
X153899499Y-102033348D01*
X153899499Y-102199054D01*
X153899498Y-102199054D01*
X153940423Y-102351785D01*
X153969358Y-102401900D01*
X153969359Y-102401904D01*
X153969360Y-102401904D01*
X154019479Y-102488714D01*
X154019481Y-102488717D01*
X154138349Y-102607585D01*
X154138355Y-102607590D01*
X157983082Y-106452317D01*
X158016567Y-106513640D01*
X158013245Y-106560080D01*
X158013838Y-106565565D01*
X158012583Y-106569339D01*
X158011583Y-106583332D01*
X158004020Y-106595104D01*
X158002707Y-106599057D01*
X158002706Y-106599059D01*
X157991438Y-106614692D01*
X157983119Y-106627643D01*
X157980732Y-106630031D01*
X157979513Y-106631250D01*
X157979496Y-106631259D01*
X157979478Y-106631286D01*
X155444842Y-109165921D01*
X155383519Y-109199406D01*
X155318848Y-109196173D01*
X155304534Y-109191522D01*
X155129995Y-109163878D01*
X155102352Y-109159500D01*
X154897648Y-109159500D01*
X154873329Y-109163351D01*
X154695465Y-109191522D01*
X154500776Y-109254781D01*
X154318386Y-109347715D01*
X154152786Y-109468028D01*
X154008028Y-109612786D01*
X153887715Y-109778386D01*
X153794781Y-109960776D01*
X153731522Y-110155465D01*
X153699500Y-110357648D01*
X153699500Y-110562351D01*
X153731522Y-110764534D01*
X153736173Y-110778848D01*
X153738165Y-110848690D01*
X153705921Y-110904842D01*
X148892181Y-115718583D01*
X148830858Y-115752068D01*
X148761166Y-115747084D01*
X148705233Y-115705212D01*
X148680816Y-115639748D01*
X148680500Y-115630902D01*
X148680500Y-115437648D01*
X148648477Y-115235465D01*
X148604077Y-115098816D01*
X148585220Y-115040781D01*
X148585218Y-115040778D01*
X148585218Y-115040776D01*
X148525721Y-114924008D01*
X148492287Y-114858390D01*
X148484556Y-114847749D01*
X148371971Y-114692786D01*
X148227213Y-114548028D01*
X148061614Y-114427715D01*
X147988575Y-114390500D01*
X147968917Y-114380483D01*
X147918123Y-114332511D01*
X147901328Y-114264690D01*
X147923865Y-114198555D01*
X147968917Y-114159516D01*
X148061610Y-114112287D01*
X148165996Y-114036447D01*
X148227213Y-113991971D01*
X148227215Y-113991968D01*
X148227219Y-113991966D01*
X148371966Y-113847219D01*
X148371968Y-113847215D01*
X148371971Y-113847213D01*
X148457738Y-113729163D01*
X148492287Y-113681610D01*
X148585220Y-113499219D01*
X148648477Y-113304534D01*
X148680500Y-113102352D01*
X148680500Y-112897648D01*
X148679305Y-112890102D01*
X148648477Y-112695465D01*
X148604721Y-112560800D01*
X148585220Y-112500781D01*
X148585218Y-112500778D01*
X148585218Y-112500776D01*
X148537907Y-112407924D01*
X148492287Y-112318390D01*
X148460263Y-112274312D01*
X148371971Y-112152786D01*
X148227217Y-112008032D01*
X148227212Y-112008028D01*
X148133051Y-111939616D01*
X148090385Y-111884286D01*
X148084406Y-111814673D01*
X148117012Y-111752878D01*
X148166933Y-111721592D01*
X148249117Y-111694359D01*
X148249124Y-111694356D01*
X148398345Y-111602315D01*
X148522315Y-111478345D01*
X148614356Y-111329124D01*
X148614358Y-111329119D01*
X148669505Y-111162697D01*
X148669506Y-111162690D01*
X148679999Y-111059986D01*
X148680000Y-111059973D01*
X148680000Y-110710000D01*
X147695686Y-110710000D01*
X147700080Y-110705606D01*
X147752741Y-110614394D01*
X147780000Y-110512661D01*
X147780000Y-110407339D01*
X147752741Y-110305606D01*
X147700080Y-110214394D01*
X147695686Y-110210000D01*
X148679999Y-110210000D01*
X148679999Y-109860028D01*
X148679998Y-109860013D01*
X148669505Y-109757302D01*
X148614358Y-109590880D01*
X148614356Y-109590875D01*
X148522315Y-109441654D01*
X148398345Y-109317684D01*
X148249124Y-109225643D01*
X148249119Y-109225641D01*
X148082697Y-109170494D01*
X148082690Y-109170493D01*
X147979986Y-109160000D01*
X147630000Y-109160000D01*
X147630000Y-110144314D01*
X147625606Y-110139920D01*
X147534394Y-110087259D01*
X147432661Y-110060000D01*
X147327339Y-110060000D01*
X147225606Y-110087259D01*
X147134394Y-110139920D01*
X147130000Y-110144314D01*
X147130000Y-109160000D01*
X146780028Y-109160000D01*
X146780012Y-109160001D01*
X146677302Y-109170494D01*
X146510880Y-109225641D01*
X146510875Y-109225643D01*
X146361654Y-109317684D01*
X146237684Y-109441654D01*
X146145643Y-109590875D01*
X146145641Y-109590880D01*
X146090494Y-109757302D01*
X146090493Y-109757309D01*
X146080000Y-109860013D01*
X146080000Y-110210000D01*
X147064314Y-110210000D01*
X147059920Y-110214394D01*
X147007259Y-110305606D01*
X146980000Y-110407339D01*
X146980000Y-110512661D01*
X147007259Y-110614394D01*
X147059920Y-110705606D01*
X147064314Y-110710000D01*
X146065619Y-110710000D01*
X146035969Y-110726188D01*
X145966277Y-110721199D01*
X145921936Y-110692701D01*
X144446819Y-109217584D01*
X144413334Y-109156261D01*
X144410500Y-109129903D01*
X144410500Y-109110791D01*
X144430185Y-109043752D01*
X144461612Y-109010475D01*
X144592073Y-108915690D01*
X144725690Y-108782073D01*
X144836760Y-108629199D01*
X144922547Y-108460832D01*
X144980940Y-108281118D01*
X144984732Y-108257177D01*
X145010500Y-108094486D01*
X145010500Y-107905513D01*
X144980940Y-107718881D01*
X144922545Y-107539163D01*
X144836759Y-107370800D01*
X144725690Y-107217927D01*
X144592073Y-107084310D01*
X144512194Y-107026274D01*
X144459688Y-106988126D01*
X144417023Y-106932795D01*
X144411044Y-106863182D01*
X144443650Y-106801387D01*
X144444798Y-106800221D01*
X144608203Y-106636816D01*
X144669525Y-106603334D01*
X144695883Y-106600500D01*
X146079208Y-106600500D01*
X146146247Y-106620185D01*
X146179524Y-106651612D01*
X146274310Y-106782073D01*
X146407927Y-106915690D01*
X146560801Y-107026760D01*
X146600764Y-107047122D01*
X146729163Y-107112545D01*
X146729165Y-107112545D01*
X146729168Y-107112547D01*
X146825497Y-107143846D01*
X146908881Y-107170940D01*
X147095514Y-107200500D01*
X147095519Y-107200500D01*
X147284486Y-107200500D01*
X147471118Y-107170940D01*
X147650832Y-107112547D01*
X147819199Y-107026760D01*
X147972073Y-106915690D01*
X148105690Y-106782073D01*
X148216760Y-106629199D01*
X148302547Y-106460832D01*
X148360940Y-106281118D01*
X148390500Y-106094486D01*
X148390500Y-105905513D01*
X148360940Y-105718881D01*
X148302545Y-105539163D01*
X148231383Y-105399500D01*
X148216760Y-105370801D01*
X148105690Y-105217927D01*
X147972073Y-105084310D01*
X147819199Y-104973240D01*
X147650836Y-104887454D01*
X147471118Y-104829059D01*
X147284486Y-104799500D01*
X147284481Y-104799500D01*
X147095519Y-104799500D01*
X147095514Y-104799500D01*
X146908881Y-104829059D01*
X146729163Y-104887454D01*
X146560800Y-104973240D01*
X146473579Y-105036610D01*
X146407927Y-105084310D01*
X146407925Y-105084312D01*
X146407924Y-105084312D01*
X146274312Y-105217924D01*
X146274312Y-105217925D01*
X146274310Y-105217927D01*
X146179526Y-105348386D01*
X146124196Y-105391051D01*
X146079208Y-105399500D01*
X144474843Y-105399500D01*
X144316728Y-105399500D01*
X144164001Y-105440423D01*
X144140211Y-105454158D01*
X144133836Y-105457839D01*
X144133835Y-105457838D01*
X144027073Y-105519477D01*
X144027068Y-105519481D01*
X139219479Y-110327070D01*
X139201826Y-110357648D01*
X139193939Y-110371309D01*
X139140423Y-110464001D01*
X139099499Y-110616729D01*
X139099499Y-110616731D01*
X139099499Y-110784832D01*
X139099500Y-110784845D01*
X139099500Y-116951808D01*
X139099499Y-116951826D01*
X139099499Y-117117532D01*
X139099498Y-117117532D01*
X139099499Y-117117535D01*
X139140423Y-117270263D01*
X139144393Y-117277139D01*
X139144394Y-117277140D01*
X139144394Y-117277141D01*
X139219477Y-117407190D01*
X139219481Y-117407195D01*
X139338349Y-117526063D01*
X139338355Y-117526068D01*
X141102577Y-119290290D01*
X141102579Y-119290293D01*
X141214383Y-119402097D01*
X141231416Y-119411931D01*
X141242016Y-119421963D01*
X141252549Y-119440051D01*
X141266996Y-119455203D01*
X141269778Y-119469639D01*
X141277175Y-119482342D01*
X141276256Y-119503252D01*
X141280219Y-119523810D01*
X141274754Y-119537458D01*
X141274110Y-119552144D01*
X141262031Y-119569239D01*
X141254251Y-119588675D01*
X141242274Y-119597203D01*
X141233793Y-119609208D01*
X141214388Y-119617060D01*
X141197336Y-119629203D01*
X141194258Y-119630224D01*
X138786370Y-120393701D01*
X138748892Y-120399500D01*
X133110097Y-120399500D01*
X133043058Y-120379815D01*
X133022416Y-120363181D01*
X127210066Y-114550831D01*
X127176581Y-114489508D01*
X127175274Y-114443752D01*
X127177815Y-114427713D01*
X127182042Y-114401017D01*
X127200500Y-114284486D01*
X127200500Y-114095513D01*
X127170940Y-113908881D01*
X127112545Y-113729163D01*
X127065493Y-113636819D01*
X127026760Y-113560801D01*
X126915690Y-113407927D01*
X126782073Y-113274310D01*
X126629199Y-113163240D01*
X126460836Y-113077454D01*
X126281118Y-113019059D01*
X126094486Y-112989500D01*
X126094481Y-112989500D01*
X125905519Y-112989500D01*
X125905514Y-112989500D01*
X125718881Y-113019059D01*
X125539163Y-113077454D01*
X125370800Y-113163240D01*
X125283579Y-113226610D01*
X125217927Y-113274310D01*
X125217925Y-113274312D01*
X125217924Y-113274312D01*
X125084312Y-113407924D01*
X125084312Y-113407925D01*
X125084310Y-113407927D01*
X125038399Y-113471118D01*
X124973240Y-113560800D01*
X124887454Y-113729163D01*
X124829059Y-113908881D01*
X124799500Y-114095513D01*
X124799500Y-114284486D01*
X124829059Y-114471118D01*
X124887454Y-114650836D01*
X124973240Y-114819199D01*
X125084310Y-114972073D01*
X125217927Y-115105690D01*
X125370801Y-115216760D01*
X125407512Y-115235465D01*
X125539163Y-115302545D01*
X125539165Y-115302545D01*
X125539168Y-115302547D01*
X125635497Y-115333846D01*
X125718881Y-115360940D01*
X125905514Y-115390500D01*
X125905519Y-115390500D01*
X126094486Y-115390500D01*
X126211017Y-115372042D01*
X126253753Y-115365274D01*
X126323045Y-115374228D01*
X126360831Y-115400066D01*
X132325139Y-121364374D01*
X132325149Y-121364385D01*
X132329479Y-121368715D01*
X132329480Y-121368716D01*
X132441284Y-121480520D01*
X132441286Y-121480521D01*
X132441290Y-121480524D01*
X132520680Y-121526359D01*
X132578216Y-121559577D01*
X132690019Y-121589534D01*
X132730942Y-121600500D01*
X132730943Y-121600500D01*
X136494980Y-121600500D01*
X136562019Y-121620185D01*
X136607774Y-121672989D01*
X136617718Y-121742147D01*
X136588693Y-121805703D01*
X136532458Y-121842701D01*
X116325669Y-128249731D01*
X116255816Y-128251229D01*
X116196241Y-128214724D01*
X116165860Y-128151805D01*
X116170056Y-128095926D01*
X116169801Y-128095865D01*
X116170180Y-128094285D01*
X116170261Y-128093208D01*
X116170940Y-128091118D01*
X116200500Y-127904486D01*
X116200500Y-127715513D01*
X116170940Y-127528881D01*
X116129226Y-127400500D01*
X116112547Y-127349168D01*
X116112545Y-127349165D01*
X116112545Y-127349163D01*
X116063977Y-127253843D01*
X116026760Y-127180801D01*
X115915690Y-127027927D01*
X115782073Y-126894310D01*
X115629199Y-126783240D01*
X115603740Y-126770268D01*
X115460836Y-126697454D01*
X115281118Y-126639059D01*
X115094486Y-126609500D01*
X115094481Y-126609500D01*
X114905519Y-126609500D01*
X114905514Y-126609500D01*
X114718881Y-126639059D01*
X114539163Y-126697454D01*
X114370800Y-126783240D01*
X114303251Y-126832318D01*
X114217927Y-126894310D01*
X114217925Y-126894312D01*
X114217924Y-126894312D01*
X114084312Y-127027924D01*
X114084312Y-127027925D01*
X114084310Y-127027927D01*
X114060663Y-127060474D01*
X113973240Y-127180800D01*
X113887454Y-127349163D01*
X113829059Y-127528881D01*
X113799500Y-127715513D01*
X113799500Y-127904486D01*
X113829059Y-128091118D01*
X113887454Y-128270836D01*
X113973240Y-128439199D01*
X114084310Y-128592073D01*
X114084312Y-128592075D01*
X114219738Y-128727501D01*
X114253223Y-128788824D01*
X114248239Y-128858516D01*
X114206367Y-128914449D01*
X114169535Y-128933383D01*
X103820212Y-132214875D01*
X103750359Y-132216373D01*
X103690784Y-132179868D01*
X103660403Y-132116949D01*
X103660403Y-132076405D01*
X104815680Y-125105954D01*
X104826414Y-125065896D01*
X104826414Y-125052135D01*
X106059500Y-125052135D01*
X106059500Y-126947870D01*
X106059501Y-126947876D01*
X106065908Y-127007483D01*
X106116202Y-127142328D01*
X106116206Y-127142335D01*
X106202452Y-127257544D01*
X106202455Y-127257547D01*
X106317664Y-127343793D01*
X106317671Y-127343797D01*
X106452517Y-127394091D01*
X106452516Y-127394091D01*
X106459444Y-127394835D01*
X106512127Y-127400500D01*
X108407872Y-127400499D01*
X108467483Y-127394091D01*
X108602331Y-127343796D01*
X108717546Y-127257546D01*
X108803796Y-127142331D01*
X108854091Y-127007483D01*
X108860500Y-126947873D01*
X108860499Y-126837304D01*
X108880183Y-126770268D01*
X108896818Y-126749626D01*
X109557861Y-126088584D01*
X109580667Y-126173694D01*
X109639910Y-126276306D01*
X109723694Y-126360090D01*
X109826306Y-126419333D01*
X109911414Y-126442137D01*
X109202485Y-127151065D01*
X109202485Y-127151066D01*
X109266243Y-127197388D01*
X109462589Y-127297432D01*
X109672164Y-127365526D01*
X109889819Y-127400000D01*
X110110181Y-127400000D01*
X110327835Y-127365526D01*
X110537410Y-127297432D01*
X110733760Y-127197386D01*
X110797513Y-127151066D01*
X110797514Y-127151066D01*
X110088585Y-126442138D01*
X110173694Y-126419333D01*
X110276306Y-126360090D01*
X110360090Y-126276306D01*
X110419333Y-126173694D01*
X110442137Y-126088585D01*
X111151066Y-126797514D01*
X111151066Y-126797513D01*
X111197386Y-126733760D01*
X111297432Y-126537410D01*
X111365526Y-126327835D01*
X111400000Y-126110181D01*
X111400000Y-125889818D01*
X111365526Y-125672164D01*
X111297432Y-125462589D01*
X111197388Y-125266243D01*
X111151066Y-125202485D01*
X111151065Y-125202485D01*
X110442137Y-125911413D01*
X110419333Y-125826306D01*
X110360090Y-125723694D01*
X110276306Y-125639910D01*
X110173694Y-125580667D01*
X110088583Y-125557861D01*
X110797513Y-124848932D01*
X110733756Y-124802611D01*
X110537410Y-124702567D01*
X110327835Y-124634473D01*
X110110181Y-124600000D01*
X109889819Y-124600000D01*
X109672164Y-124634473D01*
X109462589Y-124702567D01*
X109266233Y-124802616D01*
X109202485Y-124848931D01*
X109202485Y-124848932D01*
X109911414Y-125557861D01*
X109826306Y-125580667D01*
X109723694Y-125639910D01*
X109639910Y-125723694D01*
X109580667Y-125826306D01*
X109557861Y-125911414D01*
X108896818Y-125250371D01*
X108863333Y-125189048D01*
X108860499Y-125162690D01*
X108860499Y-125052129D01*
X108860498Y-125052123D01*
X108860497Y-125052116D01*
X108854091Y-124992517D01*
X108852018Y-124986960D01*
X108834326Y-124939524D01*
X108803797Y-124857671D01*
X108803793Y-124857664D01*
X108717547Y-124742455D01*
X108717544Y-124742452D01*
X108602335Y-124656206D01*
X108602328Y-124656202D01*
X108467482Y-124605908D01*
X108467483Y-124605908D01*
X108407883Y-124599501D01*
X108407881Y-124599500D01*
X108407873Y-124599500D01*
X108407864Y-124599500D01*
X106512129Y-124599500D01*
X106512123Y-124599501D01*
X106452516Y-124605908D01*
X106317671Y-124656202D01*
X106317664Y-124656206D01*
X106202455Y-124742452D01*
X106202452Y-124742455D01*
X106116206Y-124857664D01*
X106116202Y-124857671D01*
X106065908Y-124992517D01*
X106062037Y-125028526D01*
X106059501Y-125052123D01*
X106059500Y-125052135D01*
X104826414Y-125052135D01*
X104826414Y-125041194D01*
X104830452Y-125016831D01*
X104828634Y-124998268D01*
X104828495Y-124975645D01*
X104842536Y-124811369D01*
X104846115Y-124790590D01*
X104891339Y-124617677D01*
X104898403Y-124597779D01*
X104972310Y-124435062D01*
X104982642Y-124416661D01*
X105083100Y-124268837D01*
X105096399Y-124252465D01*
X105220488Y-124123836D01*
X105236379Y-124109952D01*
X105380493Y-124004254D01*
X105398512Y-123993266D01*
X105558482Y-123913554D01*
X105578095Y-123905789D01*
X105716292Y-123864288D01*
X105732857Y-123860530D01*
X105734494Y-123860274D01*
X105734500Y-123860274D01*
X105774071Y-123848662D01*
X105783535Y-123846286D01*
X105823906Y-123837832D01*
X105841759Y-123828801D01*
X105860953Y-123823170D01*
X105900341Y-123799171D01*
X105941504Y-123778352D01*
X105947935Y-123772594D01*
X105966119Y-123759093D01*
X109320248Y-121715513D01*
X124799500Y-121715513D01*
X124799500Y-121904486D01*
X124829059Y-122091118D01*
X124887454Y-122270836D01*
X124973240Y-122439199D01*
X125084310Y-122592073D01*
X125217927Y-122725690D01*
X125370801Y-122836760D01*
X125411384Y-122857438D01*
X125539163Y-122922545D01*
X125539165Y-122922545D01*
X125539168Y-122922547D01*
X125589168Y-122938793D01*
X125718881Y-122980940D01*
X125905514Y-123010500D01*
X125905519Y-123010500D01*
X126094486Y-123010500D01*
X126281118Y-122980940D01*
X126460832Y-122922547D01*
X126629199Y-122836760D01*
X126782073Y-122725690D01*
X126915690Y-122592073D01*
X127026760Y-122439199D01*
X127112547Y-122270832D01*
X127170940Y-122091118D01*
X127172620Y-122080513D01*
X127200500Y-121904486D01*
X127200500Y-121715513D01*
X127170940Y-121528881D01*
X127132150Y-121409500D01*
X127112547Y-121349168D01*
X127112545Y-121349165D01*
X127112545Y-121349163D01*
X127026759Y-121180800D01*
X126972188Y-121105690D01*
X126915690Y-121027927D01*
X126782073Y-120894310D01*
X126629199Y-120783240D01*
X126460836Y-120697454D01*
X126281118Y-120639059D01*
X126094486Y-120609500D01*
X126094481Y-120609500D01*
X125905519Y-120609500D01*
X125905514Y-120609500D01*
X125718881Y-120639059D01*
X125539163Y-120697454D01*
X125370800Y-120783240D01*
X125283579Y-120846610D01*
X125217927Y-120894310D01*
X125217925Y-120894312D01*
X125217924Y-120894312D01*
X125084312Y-121027924D01*
X125084312Y-121027925D01*
X125084310Y-121027927D01*
X125038399Y-121091118D01*
X124973240Y-121180800D01*
X124887454Y-121349163D01*
X124829059Y-121528881D01*
X124799500Y-121715513D01*
X109320248Y-121715513D01*
X111979155Y-120095513D01*
X113799500Y-120095513D01*
X113799500Y-120284486D01*
X113829059Y-120471118D01*
X113887454Y-120650836D01*
X113954918Y-120783240D01*
X113973240Y-120819199D01*
X114084310Y-120972073D01*
X114217927Y-121105690D01*
X114370801Y-121216760D01*
X114450347Y-121257290D01*
X114539163Y-121302545D01*
X114539165Y-121302545D01*
X114539168Y-121302547D01*
X114620071Y-121328834D01*
X114718881Y-121360940D01*
X114905514Y-121390500D01*
X114905519Y-121390500D01*
X115094486Y-121390500D01*
X115281118Y-121360940D01*
X115317348Y-121349168D01*
X115460832Y-121302547D01*
X115629199Y-121216760D01*
X115782073Y-121105690D01*
X115915690Y-120972073D01*
X116026760Y-120819199D01*
X116112547Y-120650832D01*
X116170940Y-120471118D01*
X116200500Y-120284486D01*
X116200500Y-120095513D01*
X116170940Y-119908881D01*
X116130116Y-119783240D01*
X116112547Y-119729168D01*
X116112545Y-119729165D01*
X116112545Y-119729163D01*
X116051573Y-119609500D01*
X116026760Y-119560801D01*
X115915690Y-119407927D01*
X115782073Y-119274310D01*
X115629199Y-119163240D01*
X115460836Y-119077454D01*
X115281118Y-119019059D01*
X115094486Y-118989500D01*
X115094481Y-118989500D01*
X114905519Y-118989500D01*
X114905514Y-118989500D01*
X114718881Y-119019059D01*
X114539163Y-119077454D01*
X114370800Y-119163240D01*
X114309373Y-119207870D01*
X114217927Y-119274310D01*
X114217925Y-119274312D01*
X114217924Y-119274312D01*
X114084312Y-119407924D01*
X114084312Y-119407925D01*
X114084310Y-119407927D01*
X114053742Y-119450000D01*
X113973240Y-119560800D01*
X113887454Y-119729163D01*
X113829059Y-119908881D01*
X113799500Y-120095513D01*
X111979155Y-120095513D01*
X115332952Y-118052135D01*
X118059500Y-118052135D01*
X118059500Y-119947870D01*
X118059501Y-119947876D01*
X118065908Y-120007483D01*
X118116202Y-120142328D01*
X118116206Y-120142335D01*
X118202452Y-120257544D01*
X118202455Y-120257547D01*
X118317664Y-120343793D01*
X118317671Y-120343797D01*
X118452517Y-120394091D01*
X118452516Y-120394091D01*
X118459444Y-120394835D01*
X118512127Y-120400500D01*
X120407872Y-120400499D01*
X120467483Y-120394091D01*
X120602331Y-120343796D01*
X120717546Y-120257546D01*
X120803796Y-120142331D01*
X120854091Y-120007483D01*
X120860500Y-119947873D01*
X120860499Y-119837304D01*
X120880183Y-119770268D01*
X120896818Y-119749626D01*
X121557861Y-119088584D01*
X121580667Y-119173694D01*
X121639910Y-119276306D01*
X121723694Y-119360090D01*
X121826306Y-119419333D01*
X121911414Y-119442137D01*
X121202485Y-120151065D01*
X121202485Y-120151066D01*
X121266243Y-120197388D01*
X121462589Y-120297432D01*
X121672164Y-120365526D01*
X121889819Y-120400000D01*
X122110181Y-120400000D01*
X122327835Y-120365526D01*
X122537410Y-120297432D01*
X122733760Y-120197386D01*
X122797513Y-120151066D01*
X122797514Y-120151066D01*
X122088585Y-119442138D01*
X122173694Y-119419333D01*
X122276306Y-119360090D01*
X122360090Y-119276306D01*
X122419333Y-119173694D01*
X122442137Y-119088585D01*
X123151066Y-119797514D01*
X123151066Y-119797513D01*
X123197386Y-119733760D01*
X123297432Y-119537410D01*
X123365526Y-119327835D01*
X123400000Y-119110181D01*
X123400000Y-118889818D01*
X123365526Y-118672164D01*
X123297432Y-118462589D01*
X123197388Y-118266243D01*
X123151066Y-118202485D01*
X123151065Y-118202485D01*
X122442137Y-118911413D01*
X122419333Y-118826306D01*
X122360090Y-118723694D01*
X122276306Y-118639910D01*
X122173694Y-118580667D01*
X122088583Y-118557861D01*
X122797513Y-117848932D01*
X122733756Y-117802611D01*
X122537410Y-117702567D01*
X122327835Y-117634473D01*
X122110181Y-117600000D01*
X121889819Y-117600000D01*
X121672164Y-117634473D01*
X121462589Y-117702567D01*
X121266233Y-117802616D01*
X121202485Y-117848931D01*
X121202485Y-117848932D01*
X121911414Y-118557861D01*
X121826306Y-118580667D01*
X121723694Y-118639910D01*
X121639910Y-118723694D01*
X121580667Y-118826306D01*
X121557861Y-118911414D01*
X120896818Y-118250371D01*
X120863333Y-118189048D01*
X120860499Y-118162690D01*
X120860499Y-118052129D01*
X120860498Y-118052123D01*
X120860497Y-118052116D01*
X120854091Y-117992517D01*
X120848545Y-117977648D01*
X120834326Y-117939524D01*
X120803797Y-117857671D01*
X120803793Y-117857664D01*
X120717547Y-117742455D01*
X120717544Y-117742452D01*
X120602335Y-117656206D01*
X120602328Y-117656202D01*
X120467482Y-117605908D01*
X120467483Y-117605908D01*
X120407883Y-117599501D01*
X120407881Y-117599500D01*
X120407873Y-117599500D01*
X120407864Y-117599500D01*
X118512129Y-117599500D01*
X118512123Y-117599501D01*
X118452516Y-117605908D01*
X118317671Y-117656202D01*
X118317664Y-117656206D01*
X118202455Y-117742452D01*
X118202452Y-117742455D01*
X118116206Y-117857664D01*
X118116202Y-117857671D01*
X118065908Y-117992517D01*
X118059501Y-118052116D01*
X118059501Y-118052123D01*
X118059500Y-118052135D01*
X115332952Y-118052135D01*
X141785020Y-101935606D01*
X141852510Y-101917536D01*
X141919058Y-101938823D01*
X141963533Y-101992709D01*
X141971815Y-102062086D01*
X141941274Y-102124927D01*
X141937217Y-102129181D01*
X137052761Y-107013637D01*
X136991438Y-107047122D01*
X136921746Y-107042138D01*
X136892195Y-107026274D01*
X136819202Y-106973242D01*
X136819201Y-106973241D01*
X136819199Y-106973240D01*
X136739821Y-106932795D01*
X136650836Y-106887454D01*
X136471118Y-106829059D01*
X136284486Y-106799500D01*
X136284481Y-106799500D01*
X136095519Y-106799500D01*
X136095514Y-106799500D01*
X135908881Y-106829059D01*
X135729163Y-106887454D01*
X135560800Y-106973240D01*
X135487806Y-107026274D01*
X135407927Y-107084310D01*
X135407925Y-107084312D01*
X135407924Y-107084312D01*
X135274312Y-107217924D01*
X135274312Y-107217925D01*
X135274310Y-107217927D01*
X135228399Y-107281118D01*
X135163240Y-107370800D01*
X135077454Y-107539163D01*
X135019059Y-107718881D01*
X134989500Y-107905513D01*
X134989500Y-108094486D01*
X135019059Y-108281118D01*
X135077454Y-108460836D01*
X135151002Y-108605181D01*
X135163240Y-108629199D01*
X135274310Y-108782073D01*
X135407927Y-108915690D01*
X135560801Y-109026760D01*
X135594150Y-109043752D01*
X135729163Y-109112545D01*
X135729165Y-109112545D01*
X135729168Y-109112547D01*
X135782584Y-109129903D01*
X135908881Y-109170940D01*
X136095514Y-109200500D01*
X136095519Y-109200500D01*
X136284486Y-109200500D01*
X136471118Y-109170940D01*
X136486565Y-109165921D01*
X136650832Y-109112547D01*
X136819199Y-109026760D01*
X136972073Y-108915690D01*
X137105690Y-108782073D01*
X137216760Y-108629199D01*
X137292081Y-108481369D01*
X137314882Y-108449988D01*
X137396155Y-108368716D01*
X137396156Y-108368713D01*
X153309073Y-92455796D01*
X153317014Y-92451460D01*
X153322440Y-92444213D01*
X153347199Y-92434978D01*
X153370392Y-92422314D01*
X153379421Y-92422959D01*
X153387904Y-92419796D01*
X153413724Y-92425412D01*
G37*
%TD.AperFunction*%
%TA.AperFunction,Conductor*%
G36*
X156299889Y-128815418D02*
G01*
X156343342Y-128870132D01*
X156352446Y-128916768D01*
X156352446Y-130004330D01*
X156332761Y-130071369D01*
X156279957Y-130117124D01*
X156210799Y-130127068D01*
X156147243Y-130098043D01*
X156117961Y-130060625D01*
X156111859Y-130048650D01*
X156079474Y-130004077D01*
X156079474Y-130004076D01*
X155400000Y-130683551D01*
X155400000Y-130677339D01*
X155372741Y-130575606D01*
X155320080Y-130484394D01*
X155245606Y-130409920D01*
X155154394Y-130357259D01*
X155052661Y-130330000D01*
X155046446Y-130330000D01*
X155725922Y-129650524D01*
X155725921Y-129650523D01*
X155681359Y-129618147D01*
X155681350Y-129618141D01*
X155588369Y-129570765D01*
X155537573Y-129522790D01*
X155520778Y-129454969D01*
X155543315Y-129388835D01*
X155588370Y-129349795D01*
X155681610Y-129302287D01*
X155731144Y-129266298D01*
X155847213Y-129181971D01*
X155847215Y-129181968D01*
X155847219Y-129181966D01*
X155991966Y-129037219D01*
X155991968Y-129037215D01*
X155991971Y-129037213D01*
X156112286Y-128871612D01*
X156117960Y-128860476D01*
X156165933Y-128809679D01*
X156233754Y-128792882D01*
X156299889Y-128815418D01*
G37*
%TD.AperFunction*%
%TA.AperFunction,Conductor*%
G36*
X142724223Y-108605181D02*
G01*
X142741142Y-108606391D01*
X142756108Y-108617594D01*
X142773528Y-108624377D01*
X142796205Y-108647612D01*
X142797075Y-108648263D01*
X142797801Y-108649246D01*
X142797812Y-108649258D01*
X142798011Y-108649529D01*
X142894310Y-108782073D01*
X143027927Y-108915690D01*
X143158386Y-109010474D01*
X143201051Y-109065803D01*
X143209500Y-109110791D01*
X143209500Y-109343330D01*
X143209499Y-109343348D01*
X143209499Y-109509054D01*
X143209498Y-109509054D01*
X143250423Y-109661786D01*
X143250540Y-109661987D01*
X143250626Y-109662136D01*
X143329477Y-109798712D01*
X143329481Y-109798717D01*
X143448349Y-109917585D01*
X143448355Y-109917590D01*
X145718584Y-112187819D01*
X145752069Y-112249142D01*
X145747085Y-112318834D01*
X145705213Y-112374767D01*
X145639749Y-112399184D01*
X145630903Y-112399500D01*
X144420939Y-112399500D01*
X144389491Y-112407926D01*
X144389492Y-112407927D01*
X144268214Y-112440423D01*
X144268209Y-112440426D01*
X144131290Y-112519475D01*
X144131282Y-112519481D01*
X144019478Y-112631286D01*
X141603563Y-115047200D01*
X141542240Y-115080685D01*
X141477564Y-115077450D01*
X141351370Y-115036447D01*
X141118097Y-114999500D01*
X141118092Y-114999500D01*
X140881908Y-114999500D01*
X140881903Y-114999500D01*
X140648630Y-115036447D01*
X140648627Y-115036447D01*
X140462818Y-115096821D01*
X140392977Y-115098816D01*
X140333144Y-115062736D01*
X140302316Y-115000035D01*
X140300500Y-114978890D01*
X140300500Y-113020582D01*
X140320185Y-112953543D01*
X140372989Y-112907788D01*
X140442147Y-112897844D01*
X140462819Y-112902651D01*
X140648754Y-112963065D01*
X140881948Y-113000000D01*
X141118052Y-113000000D01*
X141351247Y-112963065D01*
X141575802Y-112890102D01*
X141786163Y-112782918D01*
X141786169Y-112782914D01*
X141869104Y-112722658D01*
X141869105Y-112722658D01*
X141129409Y-111982962D01*
X141192993Y-111965925D01*
X141307007Y-111900099D01*
X141400099Y-111807007D01*
X141465925Y-111692993D01*
X141482962Y-111629408D01*
X142222658Y-112369105D01*
X142222658Y-112369104D01*
X142282914Y-112286169D01*
X142282918Y-112286163D01*
X142390102Y-112075802D01*
X142463065Y-111851247D01*
X142500000Y-111618052D01*
X142500000Y-111381947D01*
X142463065Y-111148752D01*
X142390102Y-110924197D01*
X142282914Y-110713828D01*
X142222658Y-110630894D01*
X142222658Y-110630893D01*
X141482962Y-111370590D01*
X141465925Y-111307007D01*
X141400099Y-111192993D01*
X141307007Y-111099901D01*
X141192993Y-111034075D01*
X141129408Y-111017037D01*
X141869105Y-110277340D01*
X141869104Y-110277338D01*
X141786174Y-110217087D01*
X141575802Y-110109897D01*
X141435639Y-110064355D01*
X141377963Y-110024917D01*
X141350765Y-109960559D01*
X141362680Y-109891712D01*
X141386272Y-109858748D01*
X142610129Y-108634890D01*
X142626532Y-108625933D01*
X142639941Y-108612903D01*
X142656565Y-108609534D01*
X142671450Y-108601407D01*
X142690096Y-108602740D01*
X142708419Y-108599028D01*
X142724223Y-108605181D01*
G37*
%TD.AperFunction*%
%TA.AperFunction,Conductor*%
G36*
X155637595Y-89270185D02*
G01*
X155683350Y-89322989D01*
X155685117Y-89327047D01*
X155771956Y-89536695D01*
X155862838Y-89694109D01*
X155879311Y-89762010D01*
X155856458Y-89828036D01*
X155801537Y-89871227D01*
X155731983Y-89877868D01*
X155669881Y-89845852D01*
X155667770Y-89843790D01*
X155653461Y-89829481D01*
X155653460Y-89829480D01*
X155566648Y-89779360D01*
X155566648Y-89779359D01*
X155566644Y-89779358D01*
X155516529Y-89750423D01*
X155363801Y-89709499D01*
X155205687Y-89709499D01*
X155198091Y-89709499D01*
X155198075Y-89709500D01*
X153781034Y-89709500D01*
X153781018Y-89709499D01*
X153773422Y-89709499D01*
X153615308Y-89709499D01*
X153507952Y-89738265D01*
X153462575Y-89750424D01*
X153462574Y-89750425D01*
X153412461Y-89779359D01*
X153412460Y-89779360D01*
X153369054Y-89804420D01*
X153325650Y-89829479D01*
X153325647Y-89829481D01*
X153213843Y-89941286D01*
X152887282Y-90267846D01*
X152825959Y-90301331D01*
X152756267Y-90296347D01*
X152726718Y-90280485D01*
X152707654Y-90266635D01*
X152681610Y-90247713D01*
X152678320Y-90246037D01*
X152499223Y-90154781D01*
X152304534Y-90091522D01*
X152129995Y-90063878D01*
X152102352Y-90059500D01*
X151897648Y-90059500D01*
X151873329Y-90063351D01*
X151695465Y-90091522D01*
X151500776Y-90154781D01*
X151318386Y-90247715D01*
X151152786Y-90368028D01*
X151152782Y-90368032D01*
X151087681Y-90433134D01*
X151026358Y-90466619D01*
X150956666Y-90461635D01*
X150912319Y-90433134D01*
X150847213Y-90368028D01*
X150681613Y-90247715D01*
X150681612Y-90247714D01*
X150681610Y-90247713D01*
X150624653Y-90218691D01*
X150499223Y-90154781D01*
X150304534Y-90091522D01*
X150129995Y-90063878D01*
X150102352Y-90059500D01*
X149897648Y-90059500D01*
X149873329Y-90063351D01*
X149695465Y-90091522D01*
X149500776Y-90154781D01*
X149318386Y-90247715D01*
X149152786Y-90368028D01*
X149008028Y-90512786D01*
X148887714Y-90678386D01*
X148860203Y-90732379D01*
X148812227Y-90783174D01*
X148744406Y-90799968D01*
X148678272Y-90777429D01*
X148639234Y-90732376D01*
X148611861Y-90678652D01*
X148579474Y-90634077D01*
X148579474Y-90634076D01*
X147962550Y-91251001D01*
X147942630Y-91176657D01*
X147880095Y-91068343D01*
X147791657Y-90979905D01*
X147683343Y-90917370D01*
X147608996Y-90897449D01*
X148225922Y-90280524D01*
X148225921Y-90280523D01*
X148181359Y-90248147D01*
X148181350Y-90248141D01*
X147999031Y-90155244D01*
X147804417Y-90092009D01*
X147602317Y-90060000D01*
X147397683Y-90060000D01*
X147195582Y-90092009D01*
X147000968Y-90155244D01*
X146818644Y-90248143D01*
X146774077Y-90280523D01*
X146774077Y-90280524D01*
X147391003Y-90897449D01*
X147316657Y-90917370D01*
X147208343Y-90979905D01*
X147119905Y-91068343D01*
X147057370Y-91176657D01*
X147037449Y-91251002D01*
X146420524Y-90634077D01*
X146420523Y-90634077D01*
X146388143Y-90678644D01*
X146295244Y-90860968D01*
X146232009Y-91055582D01*
X146200000Y-91257682D01*
X146200000Y-91462317D01*
X146232009Y-91664417D01*
X146295244Y-91859031D01*
X146388141Y-92041350D01*
X146388147Y-92041359D01*
X146420523Y-92085921D01*
X146420524Y-92085922D01*
X147037449Y-91468997D01*
X147057370Y-91543343D01*
X147119905Y-91651657D01*
X147208343Y-91740095D01*
X147316657Y-91802630D01*
X147391002Y-91822550D01*
X146774076Y-92439474D01*
X146818650Y-92471859D01*
X147000968Y-92564755D01*
X147195582Y-92627990D01*
X147397683Y-92660000D01*
X147602317Y-92660000D01*
X147804417Y-92627990D01*
X147999031Y-92564755D01*
X148181349Y-92471859D01*
X148225921Y-92439474D01*
X147608997Y-91822550D01*
X147683343Y-91802630D01*
X147791657Y-91740095D01*
X147880095Y-91651657D01*
X147942630Y-91543343D01*
X147962550Y-91468997D01*
X148579474Y-92085921D01*
X148611859Y-92041349D01*
X148639233Y-91987624D01*
X148687207Y-91936827D01*
X148755028Y-91920031D01*
X148821163Y-91942567D01*
X148860203Y-91987621D01*
X148887713Y-92041611D01*
X149008028Y-92207213D01*
X149152786Y-92351971D01*
X149267038Y-92434978D01*
X149318390Y-92472287D01*
X149434607Y-92531503D01*
X149500776Y-92565218D01*
X149500778Y-92565218D01*
X149500781Y-92565220D01*
X149605137Y-92599127D01*
X149695465Y-92628477D01*
X149731504Y-92634185D01*
X149897648Y-92660500D01*
X149897649Y-92660500D01*
X150102351Y-92660500D01*
X150102352Y-92660500D01*
X150304534Y-92628477D01*
X150499219Y-92565220D01*
X150681610Y-92472287D01*
X150774590Y-92404732D01*
X150847213Y-92351971D01*
X150847215Y-92351968D01*
X150847219Y-92351966D01*
X150912319Y-92286866D01*
X150973642Y-92253381D01*
X151043334Y-92258365D01*
X151087681Y-92286866D01*
X151152786Y-92351971D01*
X151318388Y-92472286D01*
X151348976Y-92487872D01*
X151399771Y-92535846D01*
X151416566Y-92603667D01*
X151394028Y-92669802D01*
X151380361Y-92686037D01*
X144614784Y-99451614D01*
X144553461Y-99485099D01*
X144483769Y-99480115D01*
X144427836Y-99438243D01*
X144404790Y-99384318D01*
X144374572Y-99203008D01*
X142882323Y-90249514D01*
X142890719Y-90180154D01*
X142935282Y-90126341D01*
X143001865Y-90105163D01*
X143069328Y-90123344D01*
X143092317Y-90141451D01*
X143108140Y-90157274D01*
X143108148Y-90157281D01*
X143316196Y-90316924D01*
X143543299Y-90448041D01*
X143543309Y-90448046D01*
X143769640Y-90541795D01*
X143785581Y-90548398D01*
X144038884Y-90616270D01*
X144298880Y-90650500D01*
X144298887Y-90650500D01*
X144561113Y-90650500D01*
X144561120Y-90650500D01*
X144821116Y-90616270D01*
X145074419Y-90548398D01*
X145316697Y-90448043D01*
X145543803Y-90316924D01*
X145751851Y-90157282D01*
X145817611Y-90091522D01*
X145937274Y-89971860D01*
X145937277Y-89971855D01*
X145937282Y-89971851D01*
X146096924Y-89763803D01*
X146228043Y-89536697D01*
X146314883Y-89327046D01*
X146358724Y-89272644D01*
X146425018Y-89250579D01*
X146429444Y-89250500D01*
X155570556Y-89250500D01*
X155637595Y-89270185D01*
G37*
%TD.AperFunction*%
%TD*%
M02*
